<?xml version="1.0" encoding="utf-8" ?>
<svg baseProfile="full" height="200mm" version="1.1" viewBox="0,0,200,200" width="200mm" xmlns="http://www.w3.org/2000/svg" xmlns:ev="http://www.w3.org/2001/xml-events" xmlns:xlink="http://www.w3.org/1999/xlink"><defs /><rect fill="#1a1a1a" height="200" width="200" x="0" y="0" /><text alignment-baseline="middle" fill="#e1ed5e" style="dominant-baseline: central; font-size:9.0px; font-family:Arial;" text-anchor="middle" x="100.0" y="100.0">2025</text><line stroke="#e1ed5e" stroke-width="0.3" x1="100.0" x2="100.0" y1="15.0" y2="10.0" /><path d="M 100.0 14.0 a86.0,86.0 0 0,1 42.46469731375804,11.215312516191453" fill="none" id="id37" stroke="none" /><text fill="#e1ed5e" style="font-size:6.75px; font-family:Arial;" text-anchor="middle"><textPath startOffset="22.20632615414155" xlink:href="#id37">January</textPath></text><path d="M 100.0 79.0 l 0.0 -19.88543499851893 a40.88543499851893,40.88543499851893 0 0,0 0.7037755542157347,0.006057618385006949 l -0.3422950749432063 19.882488756742482" fill="#00aa2c" stroke="none" /><path d="M 101.80526077348638 79.07773832637324 l 0.7447868474886945 -8.631786356350258 a29.663858444703873,29.663858444703873 0 0,0 0.5083465375143235,0.048273629044123204 l -0.8932585120932621 8.617687182790958" fill="#008000" stroke="none" /><path d="M 102.52436894288641 79.15227682838746 l 1.8691616843748646 -15.436636339803718 a36.54938927706435,36.54938927706435 0 0,0 0.6239246541838491,0.08100332687053792 l -2.13460106706656 15.402174689769042" fill="#009a18" stroke="none" /><path d="M 104.307194497241 79.44645832069477 l 5.070377937892738 -24.195383872974173 a45.72094927776132,45.72094927776132 0 0,0 0.7688898045737577,0.1680495304041205 l -5.486110466620024 24.10452084447418" fill="#00bc46" stroke="none" /><path d="M 105.01212808612495 79.60689891045804 l 6.735994132927071 -27.407082766224168 a49.22271784774616,49.22271784774616 0 0,0 0.8210609779443073,0.20930672496328218 l -7.206763999556403 27.28707304509202" fill="#00c95b" stroke="none" /><path d="M 108.09893153111575 80.62456947434976 l 9.514914507248161 -22.76294895004386 a45.67155128852956,45.67155128852956 0 0,0 0.7227332523852871,0.30943666076207593 l -9.905331517423765 22.595792761318993" fill="#00bc45" stroke="none" /><path d="M 108.43124777332544 80.76684994638697 l 17.728229601262328 -40.44119082643188 a65.1563137077242,65.1563137077242 0 0,0 1.0233198740759755,0.4591337984395348 l -18.421731593805085 40.13003669747581" fill="#06ffd2" stroke="none" /><path d="M 109.41281617654863 81.2277094730956 l 6.92171899236454 -13.804213046674269 a36.442360300395535,36.442360300395535 0 0,0 0.5583308206744834,0.2859987320361987 l -7.158310300627779 13.683021789325569" fill="#009918" stroke="none" /><path d="M 109.73455568895987 81.39251694778311 l 13.37269555361635 -25.561742500335942 a49.84842571134847,49.84842571134847 0 0,0 0.7568770219442359,0.4042974928114083 l -13.810717622088896 25.327766281022782" fill="#00cc5f" stroke="none" /><path d="M 110.36928655335952 81.73862282372117 l 10.861001514851184 -19.127337657630314 a42.99582687180917,42.99582687180917 0 0,0 0.6404397683741405,0.37098405136900064 l -11.188638015690653 18.937549448871266" fill="#00b237" stroke="none" /><line stroke="#e1ed5e" stroke-width="0.3" x1="143.23703022742887" x2="145.7803849466894" y1="26.81831364943548" y2="22.513508569990506" /><path d="M 143.74570117128098 25.957352633546492 a86.0,86.0 0 0,1 28.547481713284135,27.462654790039103" fill="none" id="id38" stroke="none" /><text fill="#e1ed5e" style="font-size:6.75px; font-family:Arial;" text-anchor="middle"><textPath startOffset="19.985693538727396" xlink:href="#id38">February</textPath></text><path d="M 110.68208982089419 81.91981866633111 l 20.956186386967943 -35.469805655203416 a62.19792301928874,62.19792301928874 0 0,0 0.9170874461546193,0.5525349249466857 l -21.5636358993402 35.103824120798116" fill="#00fabc" stroke="none" /><path d="M 111.60114157652 82.49532879139004 l 8.54303367910782 -12.890368994334976 a36.46431496227631,36.46431496227631 0 0,0 0.5202160754466324,0.3512522163360889 l -8.763654448960994 12.741404865700217" fill="#009a18" stroke="none" /><path d="M 111.90073688211348 82.69761687909136 l 15.692151444545956 -22.814689457837662 a48.690317297137184,48.690317297137184 0 0,0 0.6864612740701835,0.4809099913361703 l -16.08254385819979 22.541194623737557" fill="#00c757" stroke="none" /><path d="M 112.48926042617603 83.11751280151076 l 16.39962129456928 -22.168358022654242 a48.57505532226307,48.57505532226307 0 0,0 0.6679159074144186,0.503060414115615 l -16.778783355742082 21.88278101903278" fill="#00c757" stroke="none" /><path d="M 112.77801427241765 83.33499621200491 l 10.877487537749195 -14.18634908021293 a38.87658343642731,38.87658343642731 0 0,0 0.5275505069528525,0.4117615385441852 l -11.120070599861478 13.99700915244552" fill="#00a323" stroke="none" /><path d="M 113.6212207817346 84.01681056812373 l 10.050192434398285 -11.792931931710557 a36.49450262236239,36.49450262236239 0 0,0 0.47461309435567123,0.41157979851014387 l -10.25169932740072 11.61818713978074" fill="#009a18" stroke="none" /><path d="M 113.89432698308785 84.25364557470407 l 16.34897285581227 -18.528189338750582 a45.70997194682093,45.70997194682093 0 0,0 0.5854990576662077,0.5256668349659458 l -16.66548290107447 18.24402349501534" fill="#00bc46" stroke="none" /><path d="M 114.42810811169701 84.74124197986012 l 19.22457227268161 -20.33136250980287 a48.98121656705755,48.98121656705755 0 0,0 0.6076394125698817,0.5845486334601506 l -19.571694928863906 19.997430789580417" fill="#00c959" stroke="none" /><path d="M 114.68862486808459 84.99185889309783 l 24.572113258570702 -25.10662137479589 a56.13020334198742,56.13020334198742 0 0,0 0.6846927916926517,0.6817525032504708 l -25.000641850430675 24.6799330208953" fill="#00e38b" stroke="none" /><path d="M 115.68641384162765 86.03803664274999 l 22.63543695517406 -20.147061306313883 a51.30292206095032,51.30292206095032 0 0,0 0.5814529939398898,0.6647012863865328 l -22.9788818126918 19.754444463724404" fill="#00d168" stroke="none" /><path d="M 116.15771136456269 86.58626213691792 l 25.082868389595962 -20.823185526766206 a53.59992856022721,53.59992856022721 0 0,0 0.5832221190766037,0.7149613570283103 l -25.43758900074897 20.388340000129794" fill="#00da78" stroke="none" /><path d="M 116.38621287248628 86.86637796730983 l 32.240789628358996 -25.841135368461504 a62.31867365963304,62.31867365963304 0 0,0 0.6636817650844451,0.8428084437187726 l -32.680825474037405 25.282334530789694" fill="#00fbbd" stroke="none" /><path d="M 116.82858285166822 87.43820079747576 l 22.04479550431977 -16.455473228307095 a48.509191336620724,48.509191336620724 0 0,0 0.4937251345412353,0.6734405286547788 l -22.32478325137463 16.073570255980826" fill="#00c756" stroke="none" /><path d="M 117.04232023915458 87.72973835380427 l 26.35812148643443 -18.977524339538412 a53.47917791988291,53.47917791988291 0 0,0 0.5314490254829712,0.7516969574281206 l -26.680883131721284 18.5210008817785" fill="#00d977" stroke="none" /><path d="M 117.2510076193507 88.02491185347247 l 19.838763967819794 -13.771424398787559 a45.150128068860965,45.150128068860965 0 0,0 0.4376886403211186,0.6422540717297359 l -20.072877073809646 13.427892303787416" fill="#00ba42" stroke="none" /><path d="M 117.65298651832404 88.62581576622439 l 26.972702824342406 -17.379070158383428 a53.086738338763915,53.086738338763915 0 0,0 0.4883282310648099,0.7724179892661784 l -27.26785865165317 16.91220452140304" fill="#00d875" stroke="none" /><line stroke="#e1ed5e" stroke-width="0.3" x1="172.23445277983987" x2="176.4835382374775" y1="55.19839476539836" y2="52.563006222186495" /><path d="M 173.08426987136738 54.67131705675599 a86.0,86.0 0 0,1 12.851231095245387,41.99856678651699" fill="none" id="id39" stroke="none" /><text fill="#e1ed5e" style="font-size:6.75px; font-family:Arial;" text-anchor="middle"><textPath startOffset="22.20632615414155" xlink:href="#id39">March</textPath></text><path d="M 117.84615892207809 88.93136811851018 l 32.57590229612483 -20.204385285234153 a59.3328396438466,59.3328396438466 0 0,0 0.5308430100902668,0.8725663328169667 l -32.918861104501325 19.640651179210106" fill="#00efa4" stroke="none" /><path d="M 118.21658344932153 89.55222093294921 l 22.24898358418903 -12.760486377740854 a46.64853374222439,46.64853374222439 0 0,0 0.39349672844510264,0.6999867723589563 l -22.465337953926568 12.375616095447104" fill="#00c04b" stroke="none" /><path d="M 118.56541770881063 90.18545643968196 l 24.28358965440822 -12.83743528975231 a48.468026345594254,48.468026345594254 0 0,0 0.3835680367611773,0.7409313597685719 l -24.500967124329513 12.417531207723394" fill="#00c756" stroke="none" /><path d="M 118.73160827565052 90.50648371742162 l 26.04558799109462 -13.200372869435201 a50.19970030144099,50.19970030144099 0 0,0 0.38400377172220357,0.7741281715641924 l -26.268951775770233 12.750085109372058" fill="#00cd61" stroke="none" /><path d="M 118.89224826269711 90.83032412892265 l 29.74267500401353 -14.436116100808757 a54.06097645972365,54.06097645972365 0 0,0 0.3991291158568503,0.8406677086095699 l -29.986762313712138 13.922005976558648" fill="#00dc7c" stroke="none" /><path d="M 119.04729006885535 91.15688171328212 l 49.807845430180116 -23.12437449912331 a75.91409802930772,75.91409802930772 0 0,0 0.5400662073998057,1.1899642995168684 l -50.198513954543266 22.26358819076438" fill="#2ff1ff" stroke="none" /><path d="M 119.34039704204932 91.81776055985345 l 25.299791046189352 -10.703448728354655 a48.47077067832935,48.47077067832935 0 0,0 0.31847215112008803,0.7712055749217255 l -25.480284884195637 10.266368582979625" fill="#00c756" stroke="none" /><path d="M 119.61058180528143 92.48833698450437 l 47.14197160375562 -18.057322729614686 a71.48200066212472,71.48200066212472 0 0,0 0.4302379470674452,1.1528237972912154 l -47.44581413932469 17.243175795294135" fill="#1efff7" stroke="none" /><path d="M 120.08093135843002 93.85539295169968 l 14.706165513666143 -4.499970975241105 a36.37924064748828,36.37924064748828 0 0,0 0.17807482886266918,0.6003797971855038 l -14.781446239640514 4.2461617913090715" fill="#009918" stroke="none" /><path d="M 120.28053869075195 94.5502522615342 l 21.218395666327485 -5.7017668790608065 a42.97112787719328,42.97112787719328 0 0,0 0.18580647785330684,0.7159881544013033 l -21.313398476051095 5.335682299110652" fill="#00b237" stroke="none" /><path d="M 120.53481517161879 95.60439243477599 l 12.465048936963457 -2.66822286688665 a33.74742555452946,33.74742555452946 0 0,0 0.11670294308695978,0.5690849966986596 l -12.509131175965413 2.4532622140245786" fill="#008f0d" stroke="none" /><path d="M 120.67395015179393 96.31383870115 l 21.870453530880965 -3.8994976190766875 a43.215373490617,43.215373490617 0 0,0 0.12427123613365058,0.7334558702521379 l -21.93433662853484 3.522455960508712" fill="#00b338" stroke="none" /><path d="M 120.78858239683441 97.02765380044208 l 21.785250593326722 -3.1148495636408455 a43.006804202749564,43.006804202749564 0 0,0 0.09847329589545069,0.7337404339172131 l -21.83563988828001 2.7393907876589685" fill="#00b237" stroke="none" /><path d="M 120.83666639777658 97.38593545837742 l 34.739879498026724 -4.35829251389863 a56.01219703437821,56.01219703437821 0 0,0 0.11178340024781976,0.9576919083512195 l -34.80975325127813 3.7596568672225574" fill="#00e38a" stroke="none" /><path d="M 120.91429891909075 98.10471618934814 l 34.702591004124606 -3.1447986457606665 a55.84479273753724,55.84479273753724 0 0,0 0.07851649197948181,0.958100077131016 l -34.75158197992358 2.5469846514218815" fill="#00e289" stroke="none" /><path d="M 120.94382443527127 98.46500227214037 l 35.011596179190555 -2.5660414004086562 a56.105504347371536,56.105504347371536 0 0,0 0.06230224775142383,0.9637881970869622 l -35.05057901794639 1.962994139068659" fill="#00e38b" stroke="none" /><line stroke="#e1ed5e" stroke-width="0.3" x1="184.98032266829074" x2="189.97916517819016" y1="98.17113171792111" y2="98.06355123074" /><path d="M 185.9800911702706 98.14961562048488 a86.0,86.0 0 0,1 -9.607161424134198,41.387399972396054" fill="none" id="id40" stroke="none" /><text fill="#e1ed5e" style="font-size:6.75px; font-family:Arial;" text-anchor="middle"><textPath startOffset="21.466115282336823" xlink:href="#id40">April</textPath></text><path d="M 120.99513854157772 99.54816195383933 l 27.64000788466665 -0.5948428077167016 a48.64640797337562,48.64640797337562 0 0,0 0.010811068560021403,0.8373291741892235 l -27.646151960344387 0.11897737546701542" fill="#00c757" stroke="none" /><path d="M 120.99980553446 99.90962569577887 l 20.76342919713774 -0.0893570401810044 a41.763621473750234,41.763621473750234 0 0,0 -0.003093894244137305,0.7189120627928463 l -20.7618910056041 -0.2680645008155265" fill="#00ad30" stroke="none" /><path d="M 120.9904718944345 100.63252640178507 l 35.02922837534569 1.055569969698474 a56.04512902719939,56.04512902719939 0 0,0 -0.03735772716475774,0.9640369427933427 l -35.00586851532973 -1.6583841595058229" fill="#00e38a" stroke="none" /><path d="M 120.9764740272857 100.99374915477107 l 43.01856653179869 2.037981410738048 a64.06681361189035,64.06681361189035 0 0,0 -0.061667813814514916,1.101120241752282 l -42.977112367096645 -2.7781733688257533" fill="#02ffcb" stroke="none" /><path d="M 120.95626037817324 101.35467743843564 l 20.654647388813036 1.3351802426358144 a41.69775748810789,41.69775748810789 0 0,0 -0.05246658327693777,0.7158648439193261 l -20.62860424687176 -1.6905182230519107" fill="#00ad30" stroke="none" /><path d="M 120.89721153311464 102.0752229133903 l 35.14122223102741 3.489741655857152 a56.31407363523897,56.31407363523897 0 0,0 -0.10409441579144141,0.9637850092455038 l -35.07594551373492 -4.094122986987448" fill="#00e48c" stroke="none" /><path d="M 120.8583938346157 102.4346265915055 l 27.96971377964206 3.264671741488825 a49.15959819483891,49.15959819483891 0 0,0 -0.10533846308567239,0.8396511942311498 l -27.90937380730954 -3.7456406900073698" fill="#00c95a" stroke="none" /><path d="M 120.76222939487914 103.15116336523771 l 14.146939075582393 2.14713532431253 a35.308950880800126,35.308950880800126 0 0,0 -0.09637367237290013,0.6001189498619034 l -14.107883648848205 -2.3903335038676388" fill="#009513" stroke="none" /><path d="M 120.70491114924044 103.5080841355445 l 52.056304856193066 8.820028055410338 a73.7982174905473,73.7982174905473 0 0,0 -0.22298854518102548,1.2506381825808395 l -51.89676986867285 -9.714784988724396" fill="#27fbff" stroke="none" /><path d="M 120.49622156327973 104.57218783832717 l 25.175199918968072 5.6159493856750675 a46.793983377184574,46.793983377184574 0 0,0 -0.18213874852886597,0.7846489616484257 l -25.074800604508653 -6.048467004672058" fill="#00c04c" stroke="none" /><path d="M 120.41448212921028 104.9243191809786 l 34.049332920028085 8.213276346486806 a56.0259186980537,56.0259186980537 0 0,0 -0.23421151275780522,0.9355585695043964 l -33.90291009297522 -8.798162755388597" fill="#00e38a" stroke="none" /><path d="M 120.23288151984713 105.62410040840565 l 18.521806778919483 5.148475809911174 a40.22405080936035,40.22405080936035 0 0,0 -0.19117411643056265,0.6655021789826725 l -18.430440025602824 -5.4665354643984285" fill="#00a829" stroke="none" /><path d="M 119.79798401119884 107.00284435728193 l 26.113116946694145 9.236601744791837 a48.69855029534247,48.69855029534247 0 0,0 -0.28633759455674024,0.7878780831166823 l -25.950255091132178 -9.68472762491465" fill="#00c758" stroke="none" /><path d="M 119.67450827220406 107.3425965602758 l 33.787011012837404 12.609432846428557 a57.06327647192068,57.06327647192068 0 0,0 -0.3513622891884095,0.9172960636288174 l -33.56495444405549 -13.189152476890518" fill="#00e792" stroke="none" /><path d="M 119.54520255179757 107.68017299344265 l 8.377828976219622 3.292018881683351 a30.00141137112091,30.00141137112091 0 0,0 -0.19300534499176067,0.4790234380164116 l -8.319921016970468 -3.435741687542576" fill="#008101" stroke="none" /><path d="M 119.41010516605496 108.01547362559984 l 16.058969499524398 6.631609946290258 a38.37437054590441,38.37437054590441 0 0,0 -0.25738059232159033,0.6083716912503634 l -15.9424379260105 -6.907056163206785" fill="#00a120" stroke="none" /><path d="M 119.26925614724726 108.34839909993367 l 54.21335430565155 23.48791851803488 a80.08273945392133,80.08273945392133 0 0,0 -0.5588971155292765,1.260165450989094 l -53.801016105391 -24.417632305516662" fill="#3ee0ff" stroke="none" /><path d="M 118.81262510543309 109.33194174019688 l 22.53443767965356 11.178134810855957 a46.154553849906776,46.154553849906776 0 0,0 -0.3591732659796687,0.7086829285544588 l -22.338685743887623 -11.564371951113111" fill="#00be48" stroke="none" /><path d="M 118.64920377521936 109.65438752849418 l 24.407804683071628 12.635520956840258 a48.48449234200484,48.48449234200484 0 0,0 -0.3900634938652904,0.7378531311274311 l -24.186688680981447 -13.053789103053823" fill="#00c756" stroke="none" /><line stroke="#e1ed5e" stroke-width="0.3" x1="174.80103733775053" x2="179.2010983576182" y1="140.37084112569926" y2="142.7455964860345" /><path d="M 175.68104954172406 140.8457921977663 a86.0,86.0 0 0,1 -30.038265399797805,32.042727171017184" fill="none" id="id41" stroke="none" /><text fill="#e1ed5e" style="font-size:6.75px; font-family:Arial;" text-anchor="middle"><textPath startOffset="22.206326154141568" xlink:href="#id41">May</textPath></text><path d="M 118.12598468904814 110.60418214915192 l 45.66237827152092 26.713703275235016 a73.90250213448101,73.90250213448101 0 0,0 -0.6518169870980223,1.0924827628193337 l -45.19578040872467 -27.495748131940456" fill="#27fbff" stroke="none" /><path d="M 117.35343817320211 111.8261652097733 l 22.71192564661084 15.47791176872848 a48.48449234200484,48.48449234200484 0 0,0 -0.4759309175278682,0.6856139833040416 l -22.442133821920837 -15.866567014219543" fill="#00c756" stroke="none" /><path d="M 116.93607887273984 112.41649034213515 l 26.574484547880406 19.482775984651333 a53.951203150319735,53.951203150319735 0 0,0 -0.5555399918809951,0.7442366041725761 l -26.23518328930432 -19.937325468333224" fill="#00db7b" stroke="none" /><path d="M 116.71984013943494 112.70617746262583 l 35.05599072987411 26.640663763965872 a65.0300744019097,65.0300744019097 0 0,0 -0.6849623396906772,0.885406157902783 l -34.592221572965364 -27.240147915981908" fill="#06ffd1" stroke="none" /><path d="M 116.27256486870786 113.27417163493432 l 16.004337335369918 13.055367878828875 a41.65384816434633,41.65384816434633 0 0,0 -0.45800191242735966,0.5516928078478651 l -15.777239423049014 -13.32892194379051" fill="#00ad30" stroke="none" /><path d="M 115.80600337817218 113.82643327865902 l 20.01122485159677 17.504985834492594 a47.587095537627846,47.587095537627846 0 0,0 -0.5446255849241859,0.6118926181985079 l -19.706940417024246 -17.846852622431967" fill="#00c351" stroke="none" /><path d="M 115.32070863581623 114.36230785411682 l 22.564215599002758 21.152690689641656 a51.928629924552624,51.928629924552624 0 0,0 -0.6169453791448637,0.6468647635182679 l -22.196763668478926 -21.53796256974243" fill="#00d46d" stroke="none" /><path d="M 115.07121518719521 114.62390073753431 l 38.132346174394016 37.000576159075706 a74.13302608422923,74.13302608422923 0 0,0 -0.8965131889091682,0.908163127149872 l -37.48979236042931 -37.651479780206245" fill="#28faff" stroke="none" /><path d="M 113.20401910651253 116.32954008644616 l 14.359897066316663 17.759025709528274 a43.83833702148421,43.83833702148421 0 0,0 -0.5908625155077457,0.46941691726406365 l -14.052077058091566 -18.003576540797464" fill="#00b53b" stroke="none" /><path d="M 112.63410532772338 116.77436683061366 l 16.517170335750986 21.929932276854267 a48.45430468191877,48.45430468191877 0 0,0 -0.6705499613563677,0.4960568308259317 l -16.137235403976053 -22.21099905641997" fill="#00c756" stroke="none" /><path d="M 111.45004920935366 117.60387380957326 l 11.442368093942541 17.592064481600783 a41.985912425293165,41.985912425293165 0 0,0 -0.6092319796976535,0.38884067425650864 l -11.137854312197957 -17.786419584681102" fill="#00ae32" stroke="none" /><path d="M 111.1453310114006 117.79835938074945 l 10.210063911142628 16.304799436199097 a40.23777247303584,40.23777247303584 0 0,0 -0.5901938509564869,0.36254526766828543 l -9.927890860253832 -16.47813317069576" fill="#00a829" stroke="none" /><line stroke="#e1ed5e" stroke-width="0.3" x1="143.8653032363475" x2="146.44561519142675" y1="172.8068346515853" y2="177.08958963109032" /><path d="M 144.38136562736335 173.6633856474863 a86.0,86.0 0 0,1 -40.68145358897372,12.25698825130547" fill="none" id="id42" stroke="none" /><text fill="#e1ed5e" style="font-size:6.75px; font-family:Arial;" text-anchor="middle"><textPath startOffset="21.466115282336833" xlink:href="#id42">June</textPath></text><path d="M 110.5260780823613 118.17145234162733 l 11.022477000831277 19.028399175845486 a42.990338206338976,42.990338206338976 0 0,0 -0.6435269440779687,0.36541139386903515 l -10.693301289832108 -19.215313735509152" fill="#00b237" stroke="none" /><path d="M 109.89434966115114 118.52300852407294 l 12.103945807448357 22.659548029374815 a46.68969873325086,46.68969873325086 0 0,0 -0.7121492982170192,0.3725628545727127 l -11.71210560670484 -22.864540302892244" fill="#00c04b" stroke="none" /><path d="M 109.2508944713604 118.85261126421891 l 7.28017718455842 14.836441040379974 a37.52637173075918,37.52637173075918 0 0,0 -0.5823509125223142,0.2795638274173846 l -7.023713604035874 -14.959559144296918" fill="#009e1d" stroke="none" /><path d="M 108.59647513512805 119.15986991738527 l 11.841404463591509 26.39218581979638 a49.92691362757227,49.92691362757227 0 0,0 -0.7871318514398679,0.3450554719984231 l -11.385351937493887 -26.59210584508926" fill="#00cc5f" stroke="none" /><path d="M 108.2653958097858 119.30500536409082 l 8.314938354062193 19.420719009875825 a42.125873394783156,42.125873394783156 0 0,0 -0.6690562414646075,0.2796655631942738 l -7.979410653100124 -19.560969616090073" fill="#00af32" stroke="none" /><path d="M 107.59598834532513 119.57807347666477 l 13.085579249958105 33.72707018410178 a57.176617413880216,57.176617413880216 0 0,0 -0.9206246201823592,0.34810145663563175 l -12.503084409015472 -33.94731989084404" fill="#00e793" stroke="none" /><path d="M 106.2309692047433 120.05430185196036 l 10.483186876301112 33.74001492862662 a56.331088498196586,56.331088498196586 0 0,0 -0.9284571164879556,0.279736512947959 l -9.90085478537291 -33.91546681068031" fill="#00e48c" stroke="none" /><path d="M 103.7750983002368 120.6578951692458 l 3.2639329800447894 17.860723080238657 a39.15650537540729,39.15650537540729 0 0,0 -0.6640776030005482,0.11545840347595629 l -2.9560064055721913 -17.91426006223562" fill="#00a424" stroke="none" /><path d="M 102.70371172650421 120.8252237178851 l 2.9880935256894925 23.015662340195444 a44.208821940722416,44.208821940722416 0 0,0 -0.7554920882728444,0.09147957062424752 l -2.591474014365268 -23.063687439545042" fill="#00b73d" stroke="none" /><path d="M 102.34483914955558 120.86867818915974 l 1.9069105819315428 16.971186819946645 a38.07798261051384,38.07798261051384 0 0,0 -0.6519810158933085,0.06758049808688096 l -1.6144969694326319 -17.001496686489283" fill="#00a01f" stroke="none" /><path d="M 101.98527174616119 120.90594882070398 l 2.2758102869778316 23.96547146615523 a45.07328675227823,45.07328675227823 0 0,0 -0.7730190638998998,0.06669933752786956 l -1.8629469053363898 -24.00109505596176" fill="#00ba42" stroke="none" /><path d="M 101.62511606390274 120.93702456842531 l 3.1902859566761577 41.101738478187144 a62.22536634663972,62.22536634663972 0 0,0 -1.0686087775605622,0.0736975178153127 l -2.482314418336665 -41.15056434051874" fill="#00fabc" stroke="none" /><line stroke="#e1ed5e" stroke-width="0.3" x1="102.19456741930631" x2="102.32365962044197" y1="184.97166512339345" y2="189.96999836594603" /><path d="M 102.22038585953345 185.97133177190398 a86.0,86.0 0 0,1 -42.740103519485714,-10.115201625700543" fill="none" id="id43" stroke="none" /><text fill="#e1ed5e" style="font-size:6.75px; font-family:Arial;" text-anchor="middle"><textPath startOffset="22.20632615414155" xlink:href="#id43">July</textPath></text><path d="M 100.54218724476979 120.99299961872073 l 0.6472548589027993 25.061122586775006 a46.069479535118745,46.069479535118745 0 0,0 -0.7929222366503194,0.01365087538783645 l -0.21577293235981201 -25.068550939442" fill="#00be48" stroke="none" /><path d="M 100.18074693466247 120.99922214144158 l 0.19349883545611166 22.48074102856145 a43.48157376592148,43.48157376592148 0 0,0 -0.7484915402371187,0.0 l 0.19349883545609617 -22.48074102856145" fill="#00b439" stroke="none" /><path d="M 99.45781275523022 120.99299961872073 l -0.6221015502097894 24.087209229544012 a45.09524141415901,45.09524141415901 0 0,0 -0.7758091885359257,-0.02672043709239734 l 1.0366310904203582 -24.07293199402552" fill="#00ba42" stroke="none" /><path d="M 99.09653310690486 120.98055641714683 l -2.7104006792854114 62.94166925144049 a84.0,84.0 0 0,0 -1.4440477263460443,-0.07464077295119242 l 3.793436474044945 -62.885688671727095" fill="#4dd2ff" stroke="none" /><path d="M 98.73552117531835 120.96189622390904 l -1.9617257255175886 32.520505899673964 a53.57962049798749,53.57962049798749 0 0,0 -0.9201336388050885,-0.06345780295114907 l 2.521222125101607 -32.48191975220653" fill="#00da78" stroke="none" /><path d="M 98.01472825383883 120.90594882070398 l -1.3003147695317838 13.692993956722525 a34.75459566831036,34.75459566831036 0 0,0 -0.5950771295465166,-0.06168217760107663 l 1.5358244956838938 -13.668582410665687" fill="#009311" stroke="none" /><path d="M 97.65516085044442 120.86867818915974 l -3.3750141650962506 30.037064379703093 a51.22608074436758,51.22608074436758 0 0,0 -0.8754112192242284,-0.1060001073437664 l 3.8915528073718684 -29.974518743633976" fill="#00d168" stroke="none" /><path d="M 97.2962882734958 120.8252237178851 l -1.1691618158338037 9.005418787242132 a30.080997020438744,30.080997020438744 0 0,0 -0.5129116657911066,-0.07108488321690141 l 1.3240020728117412 -8.983959338532625" fill="#008201" stroke="none" /><path d="M 96.93821686468263 120.77559828337769 l -3.6170984400780117 24.543666491488345 a45.80876792528445,45.80876792528445 0 0,0 -0.7791070969139086,-0.12168050539123698 l 4.039041400600437 -24.477767678750002" fill="#00bd46" stroke="none" /><path d="M 96.58105272829116 120.7198165907248 l -5.810143182899125 35.211160497175335 a56.687302887212276,56.687302887212276 0 0,0 -0.9613924394169564,-0.16715039878983118 l 6.415384593788131 -35.1059315198645" fill="#00e58f" stroke="none" /><path d="M 95.51606077576429 120.51570834832081 l -4.243612395050841 19.41612271852808 a40.87445766757854,40.87445766757854 0 0,0 -0.6860677491578973,-0.15614678606351037 l 4.5772002936016 -19.340199198886882" fill="#00aa2c" stroke="none" /><path d="M 95.16358092515715 120.4354850818985 l -5.323634089064662 22.49413115882687 a44.115514627729084,44.115514627729084 0 0,0 -0.7374574524727211,-0.18124909956711766 l 5.710044826280593 -22.399160800945726" fill="#00b63d" stroke="none" /><path d="M 94.46302465271185 120.25689768951611 l -5.0723367580922885 18.55702803621316 a40.23777247303584,40.23777247303584 0 0,0 -0.6665460432508237,-0.18837256977115155 l 5.391013969447726 -18.46696667310349" fill="#00a829" stroke="none" /><path d="M 93.76903079525671 120.05430185196036 l -12.231280395591074 39.3662335712433 a62.22262201390462,62.22262201390462 0 0,0 -1.0200914577077107,-0.32660107133151345 l 12.907093198389726 -39.14985965325208" fill="#00fabc" stroke="none" /><path d="M 93.08242187328487 119.8279376855182 l -6.469974384428763 18.544965676053785 a40.641189385095224,40.641189385095224 0 0,0 -0.6585429419281282,-0.23613006913982065 l 6.788236886986618 -18.430848065874006" fill="#00a92b" stroke="none" /><path d="M 92.7421414339146 119.70592522655815 l -8.315281932124028 22.576951934262592 a45.05956508860274,45.05956508860274 0 0,0 -0.7255228950498527,-0.2743306783815199 l 8.702675047934164 -22.430473005774438" fill="#00ba42" stroke="none" /><path d="M 92.06813273071674 119.44442032107085 l -7.7026501121313276 18.882510420520305 a41.393136554512026,41.393136554512026 0 0,0 -0.6574186867546971,-0.27480106438169855 l 8.026540258383488 -18.747124313118633" fill="#00ac2f" stroke="none" /><path d="M 91.7346041902142 119.30500536409082 l -17.33196945041333 40.48127529650136 a65.0355630673799,65.0355630673799 0 0,0 -1.0253300163619963,-0.44947454750147653 l 18.02622014143307 -40.17693619570543" fill="#06ffd1" stroke="none" /><path d="M 90.7491055286396 118.85261126421891 l -9.679903473390773 19.726898606828705 a42.97387220992839,42.97387220992839 0 0,0 -0.6612780417323225,-0.3315785380315447 l 10.018035422805857 -19.557352227887858" fill="#00b237" stroke="none" /><line stroke="#e1ed5e" stroke-width="0.3" x1="58.666819895761336" x2="56.23545636021788" y1="174.27360380694188" y2="178.64263932499728" /><path d="M 58.180547188652646 175.14741091055294 a86.0,86.0 0 0,1 -31.652253787137756,-30.449443065178592" fill="none" id="id44" stroke="none" /><text fill="#e1ed5e" style="font-size:6.75px; font-family:Arial;" text-anchor="middle"><textPath startOffset="22.20632615414155" xlink:href="#id44">August</textPath></text><line stroke="#e1ed5e" stroke-width="0.3" x1="26.63291911575756" x2="22.317208475507996" y1="142.92168965132927" y2="145.44649492493687" /><path d="M 25.769776987707644 143.4266507060508 a86.0,86.0 0 0,1 -11.730757126820373,-40.83630448921669" fill="none" id="id45" stroke="none" /><text fill="#e1ed5e" style="font-size:6.75px; font-family:Arial;" text-anchor="middle"><textPath startOffset="21.46611528233685" xlink:href="#id45">September</textPath></text><line stroke="#e1ed5e" stroke-width="0.3" x1="15.007084014347285" x2="10.007500721073583" y1="101.09737516637583" y2="101.16192664675087" /><path d="M 14.007167355692545 101.11028546245083 a86.0,86.0 0 0,1 10.666146001902534,-42.60595125391555" fill="none" id="id46" stroke="none" /><text fill="#e1ed5e" style="font-size:6.75px; font-family:Arial;" text-anchor="middle"><textPath startOffset="22.20632615414155" xlink:href="#id46">October</textPath></text><line stroke="#e1ed5e" stroke-width="0.3" x1="26.266209847984243" x2="21.928928074336255" y1="57.711370442889674" y2="55.22380399835377" /><path d="M 25.398753493254645 57.213857153982495 a86.0,86.0 0 0,1 29.58750427330803,-30.492523968695096" fill="none" id="id47" stroke="none" /><text fill="#e1ed5e" style="font-size:6.75px; font-family:Arial;" text-anchor="middle"><textPath startOffset="21.46611528233685" xlink:href="#id47">November</textPath></text><line stroke="#e1ed5e" stroke-width="0.3" x1="56.762969772571076" x2="54.21961505331055" y1="26.818313649435495" y2="22.513508569990535" /><path d="M 56.25429882871897 25.957352633546506 a86.0,86.0 0 0,1 42.265352541879196,-11.944610805530505" fill="none" id="id48" stroke="none" /><text fill="#e1ed5e" style="font-size:6.75px; font-family:Arial;" text-anchor="middle"><textPath startOffset="22.20632615414155" xlink:href="#id48">December</textPath></text></svg>