<?xml version="1.0" encoding="utf-8" ?>
<svg baseProfile="full" height="200mm" version="1.1" viewBox="0,0,200,200" width="200mm" xmlns="http://www.w3.org/2000/svg" xmlns:ev="http://www.w3.org/2001/xml-events" xmlns:xlink="http://www.w3.org/1999/xlink"><defs /><rect fill="#1a1a1a" height="200" width="200" x="0" y="0" /><text alignment-baseline="middle" fill="#e1ed5e" style="dominant-baseline: central; font-size:9.0px; font-family:Arial;" text-anchor="middle" x="100.0" y="100.0">2023</text><line stroke="#e1ed5e" stroke-width="0.3" x1="100.0" x2="100.0" y1="15.0" y2="10.0" /><path d="M 100.0 14.0 a86.0,86.0 0 0,1 42.46469731375804,11.215312516191453" fill="none" id="id13" stroke="none" /><text fill="#e1ed5e" style="font-size:6.75px; font-family:Arial;" text-anchor="middle"><textPath startOffset="22.20632615414155" xlink:href="#id13">January</textPath></text><path d="M 100.0 79.0 l 0.0 -16.27845601436266 a37.27845601436266,37.27845601436266 0 0,0 0.641687340314842,0.00552320552601327 l -0.2802068610423136 16.276044185445205" fill="#00ad2f" stroke="none" /><path d="M 100.36148047927253 79.00311137660856 l 0.34202196993047934 -19.86662522921187 a40.86956912028725,40.86956912028725 0 0,0 0.7032939862444825,0.018164008745325748 l -0.6839425913698296 19.857794428324187" fill="#00b941" stroke="none" /><path d="M 100.72285384407766 79.0124445844662 l 0.49970354158366825 -14.508542572264435 a35.51714542190305,35.51714542190305 0 0,0 0.6108258417372177,0.02630344565149429 l -0.7493702157102174 14.497791400088746" fill="#00a728" stroke="none" /><path d="M 101.08401301168833 79.027996857942 l 1.630317295032455 -31.541152242001502 a52.58325852782765,52.58325852782765 0 0,0 0.9035254891675397,0.05450312492766917 l -2.173004833039607 31.508415847693527" fill="#00e186" stroke="none" /><path d="M 101.44485096284872 79.0497635885617 l 0.9671681894042086 -14.023870100547164 a35.05718132854578,35.05718132854578 0 0,0 0.6016643849576787,0.04670073600369168 l -1.2084227637242284 14.005144102355008" fill="#00a526" stroke="none" /><path d="M 101.80526077348638 79.07773832637324 l 1.818008874699505 -21.070007148042556 a42.14829443447037,42.14829443447037 0 0,0 0.7222910525222854,0.06859023866247474 l -2.1804250543120345 21.035591364864903" fill="#00bd47" stroke="none" /><path d="M 102.16513564639614 79.11191278185805 l 1.7725023554032007 -17.100168229944778 a38.19178635547576,38.19178635547576 0 0,0 0.6533219672061835,0.07340833530920458 l -2.0665910261191094 17.067123941164972" fill="#00b034" stroke="none" /><path d="M 102.52436894288641 79.15227682838746 l 2.798370987779298 -23.11059318373177 a44.27939856373429,44.27939856373429 0 0,0 0.7558815340775988,0.09813511706855765 l -3.195767250364743 23.058999743499072" fill="#00c553" stroke="none" /><path d="M 102.88285421437855 79.19881850522331 l 3.7875200903000197 -27.328781462654316 a48.58999102333932,48.58999102333932 0 0,0 0.8274899062209193,0.12195050197614224 l -4.257378976949595 27.259536476517205" fill="#00d36c" stroke="none" /><path d="M 103.2404852339499 79.25152402106235 l 0.5566129708404972 -3.563932566041039 a24.607136445242368,24.607136445242368 0 0,0 0.4179355662177911,0.06896294943605111 l -0.6178777431971635 3.5538233536653627" fill="#008201" stroke="none" /><path d="M 103.59715602781102 79.31037775812273 l 5.574354042558926 -32.06179506570027 a53.542773788150804,53.542773788150804 0 0,0 0.9066700756547685,0.1656881610366321 l -6.125419239316595 31.961091423312897" fill="#00e48c" stroke="none" /><path d="M 103.95276090670814 79.375362276772 l 5.23894578043636 -27.335667732840303 a48.83316876122082,48.83316876122082 0 0,0 0.824195968625586,0.1653259576731835 l -5.708708158529071 27.24143781908991" fill="#00d46e" stroke="none" /><path d="M 104.307194497241 79.44645832069477 l 3.3468396260204374 -15.970815293208789 a37.3177289048474,37.3177289048474 0 0,0 0.6275727371815741,0.1371630930081805 l -3.6212550873555394 15.910838702104737" fill="#00ad30" stroke="none" /><path d="M 105.01212808612495 79.60689891045804 l 6.692360791478062 -27.229549565205737 a49.0399012567325,49.0399012567325 0 0,0 0.8180115004760697,0.2085293452571802 l -7.160081180639156 27.11031722377969" fill="#00d56f" stroke="none" /><path d="M 105.36241919743992 79.69619591428918 l 7.8960900633039355 -29.89707812566944 a51.92221723518851,51.92221723518851 0 0,0 0.8621612736235835,0.23566124441211683 l -8.40954922615123 29.75673034043103" fill="#00df81" stroke="none" /><path d="M 105.71112130821622 79.79150937346287 l 5.434964155790202 -19.231323635140235 a40.984560143626574,40.984560143626574 0 0,0 0.6772401567686173,0.19770497290863207 l -5.765194530282247 19.134920333312902" fill="#00b941" stroke="none" /><path d="M 106.0581310904928 79.89281104454417 l 0.9338259219830519 -3.0994070587681226 a24.237028725314183,24.237028725314183 0 0,0 0.39842746847661675,0.12379335390122255 l -0.9870387631703869 3.0828735699843794" fill="#008000" stroke="none" /><path d="M 106.40334571778207 80.00007090966166 l 6.96263255650756 -21.746781065643482 a43.83420107719928,43.83420107719928 0 0,0 0.7166206763372591,0.23625856999999822 l -7.335936055087236 21.623708771384248" fill="#00c350" stroke="none" /><path d="M 107.08798089147638 80.2323363322302 l 10.497719634512457 -29.277081046187945 a52.10224416517055,52.10224416517055 0 0,0 0.8416191470351668,0.3099754345692093 l -11.0001211073202 29.092042343812412" fill="#00df83" stroke="none" /><path d="M 107.76421540070413 80.48803036053334 l 12.820248308110603 -32.21810354921271 a55.675134649910234,55.675134649910234 0 0,0 0.8873983633411162,0.36199207365279246 l -13.372930541040105 31.992650589376336" fill="#00eb9b" stroke="none" /><path d="M 108.09893153111575 80.62456947434976 l 14.29272391705297 -34.193112784472255 a58.06009874326751,58.06009874326751 0 0,0 0.9187768493659952,0.39337229789138456 l -14.879184524209279 33.94202095861808" fill="#00f4ad" stroke="none" /><path d="M 108.43124777332544 80.76684994638697 l 5.495700224240612 -12.536652925431069 a34.68833034111311,34.68833034111311 0 0,0 0.5448015060490684,0.2444365551814904 l -5.710683848756461 12.440196039733047" fill="#00a424" stroke="none" /><path d="M 108.76106565485865 80.91482961587045 l 14.327697870540762 -31.2115632782588 a55.343043087971274,55.343043087971274 0 0,0 0.8623547405413992,0.4048871135988349 l -14.862830822381758 30.960311182019964" fill="#00ea99" stroke="none" /><path d="M 109.08828744355905 81.06846463323043 l 6.2840259199809285 -13.090063412786089 a35.52028725314183,35.52028725314183 0 0,0 0.5489216103660776,0.2693534502662543 l -6.508418797357438 12.979954802385002" fill="#00a728" stroke="none" /><path d="M 109.41281617654863 81.2277094730956 l 11.030063049251861 -21.997619437900358 a45.608078994614004,45.608078994614004 0 0,0 0.6987581475114585,0.357931063069063 l -11.407081684352075 21.804495849518794" fill="#00c95a" stroke="none" /><path d="M 109.73455568895987 81.39251694778311 l 9.868981106388203 -18.864435578506487 a42.28999102333932,42.28999102333932 0 0,0 0.6421130057173808,0.3429945298725971 l -10.192239158633896 18.691762322132135" fill="#00be48" stroke="none" /><path d="M 110.05341064243156 81.56283822128135 l 20.730120711886396 -38.01740552049849 a64.30197486535009,64.30197486535009 0 0,0 0.9672116611933126,0.5382522422762318 l -21.381456462151746 37.65493788066208" fill="#0affd8" stroke="none" /><path d="M 110.36928655335952 81.73862282372117 l 14.324632603097019 -25.22714726135371 a50.01041292639138,50.01041292639138 0 0,0 0.7449247892444479,0.431508519498526 l -14.756754124806795 24.976834584465138" fill="#00d875" stroke="none" /><line stroke="#e1ed5e" stroke-width="0.3" x1="143.23703022742887" x2="145.7803849466894" y1="26.81831364943548" y2="22.513508569990506" /><path d="M 143.74570117128098 25.957352633546492 a86.0,86.0 0 0,1 28.547481713284135,27.462654790039103" fill="none" id="id14" stroke="none" /><text fill="#e1ed5e" style="font-size:6.75px; font-family:Arial;" text-anchor="middle"><textPath startOffset="19.985693538727396" xlink:href="#id14">February</textPath></text><path d="M 110.68208982089419 81.91981866633111 l 7.7635332034619715 -13.140320898069525 a36.262387791741475,36.262387791741475 0 0,0 0.5346767061833141,0.3221367329369483 l -7.988571975862923 13.004737555673962" fill="#00a92b" stroke="none" /><path d="M 110.99172775467656 82.1063720568725 l 13.779456194192969 -22.431820356231885 a47.32603231597846,47.32603231597846 0 0,0 0.6904661855155783,0.43236986202636546 l -14.16354153208081 22.191306152882575" fill="#00cf64" stroke="none" /><path d="M 111.60114157652 82.49532879139004 l 20.20740436933487 -30.490445024871573 a57.57877019748654,57.57877019748654 0 0,0 0.8214442501434038,0.5546428245449465 l -20.729253313884815 30.138090288027954" fill="#00f2a9" stroke="none" /><path d="M 111.90073688211348 82.69761687909136 l 7.884149160336126 -11.462699386250081 a34.91234290843806,34.91234290843806 0 0,0 0.4922122656840982,0.3448261473253847 l -8.080292565603875 11.325288396160762" fill="#00a525" stroke="none" /><path d="M 112.19680574252982 82.90503203632743 l 11.628935313583789 -16.299044260755924 a41.02226211849192,41.02226211849192 0 0,0 0.5712929852531197,0.41506864973752844 l -11.907773615190697 16.09645637620172" fill="#00ba42" stroke="none" /><path d="M 112.48926042617603 83.11751280151076 l 7.397326915198725 -9.999413310906505 a33.43819569120287,33.43819569120287 0 0,0 0.45978131510546166,0.34629775427112763 l -7.56835438406257 9.87059896712953" fill="#00a01f" stroke="none" /><path d="M 113.06298171725822 83.55741782278167 l 12.802660178548047 -16.11491132952151 a41.58150807899462,41.58150807899462 0 0,0 0.5565914573127877,0.45005825013894335 l -13.078155034425325 15.892146982118438" fill="#00bb44" stroke="none" /><path d="M 113.34407831869373 83.78471172551755 l 10.910241412900858 -13.257769133934639 a38.169793536804306,38.169793536804306 0 0,0 0.5037366949786622,0.42186499535281685 l -11.136835644838637 13.068002981188002" fill="#00b034" stroke="none" /><path d="M 113.6212207817346 84.01681056812373 l 5.97100192855811 -7.00639512797688 a30.20556552962298,30.20556552962298 0 0,0 0.3928251076915035,0.34065406242718144 l -6.090720834896377 6.902576072130027" fill="#009513" stroke="none" /><path d="M 113.89432698308785 84.25364557470407 l 6.938432765432468 -7.863282735001914 a31.48680430879713,31.48680430879713 0 0,0 0.4033144949896031,0.36209973577436494 l -7.0727582480180615 7.742683990458253" fill="#009918" stroke="none" /><path d="M 114.16331599549186 84.49514656593476 l 16.263445032465523 -17.803904935935687 a45.113868940754045,45.113868940754045 0 0,0 0.5688474679535331,0.5286817262261565 l -16.567500384213904 17.52131862363489" fill="#00c758" stroke="none" /><path d="M 114.42810811169701 84.74124197986012 l 10.763230500679775 -11.38288737881829 a36.66579892280072,36.66579892280072 0 0,0 0.454859762177492,0.43757473082983006 l -10.957573506469686 11.195929561226158" fill="#00ab2d" stroke="none" /><path d="M 114.68862486808459 84.99185889309783 l 13.385240156944405 -13.676404348897437 a40.13657989228007,40.13657989228007 0 0,0 0.4895978510536312,0.4874953622875222 l -13.61867380816536 13.443973135959796" fill="#00b63d" stroke="none" /><path d="M 114.94478906791727 85.2469230424477 l 20.907947722036862 -20.639740070327882 a50.37926391382406,50.37926391382406 0 0,0 0.6039171950210422,0.6223897552893353 l -21.260129180761012 20.27678611948843" fill="#00d977" stroke="none" /><path d="M 115.4437574822437 85.77008943001954 l 16.56368406088575 -15.261813270948377 a43.52284560143626,43.52284560143626 0 0,0 0.5029092982702338,0.5553250080477435 l -16.82393699977202 14.974435475631084" fill="#00c24f" stroke="none" /><path d="M 115.68641384162765 86.03803664274999 l 13.25084228494885 -11.794140859919969 a38.73940754039498,38.73940754039498 0 0,0 0.4390616283232221,0.5019233406502713 l -13.451895776849922 11.564301963066749" fill="#00b236" stroke="none" /><path d="M 115.9244219780498 86.31012108654704 l 26.00059760219195 -22.352147747783697 a55.28774685816876,55.28774685816876 0 0,0 0.614192597439131,0.7270103090502278 l -26.381500813118198 21.901278489104364" fill="#00ea99" stroke="none" /><path d="M 116.15771136456269 86.58626213691792 l 16.888482780706816 -14.020406468110455 a42.949775583482946,42.949775583482946 0 0,0 0.46733754694312807,0.5729005739387162 l -17.12731881972635 13.727621724563638" fill="#00c04c" stroke="none" /><path d="M 116.60985879189232 87.15038557335679 l 22.797553045604452 -17.636499513767927 a49.82315978456015,49.82315978456015 0 0,0 0.5189297037591275,0.6828506618908692 l -23.097758689587696 17.241464075996024" fill="#00d874" stroke="none" /><path d="M 116.82858285166822 87.43820079747576 l 17.162687122227208 -12.81119339076107 a42.416921005385994,42.416921005385994 0 0,0 0.4317181848050993,0.588863118899501 l -17.380667919545935 12.513867828190078" fill="#00be49" stroke="none" /><path d="M 117.04232023915458 87.72973835380427 l 4.635133746672518 -3.3372394743595497 a26.71153500897666,26.71153500897666 0 0,0 0.2654457267638193,0.3754541557194985 l -4.691892093240221 3.256958818308258" fill="#008907" stroke="none" /><path d="M 117.45458315368197 88.32363383020206 l 22.811082400365457 -15.259634016519891 a48.444524236983845,48.444524236983845 0 0,0 0.45769317176676905,0.697098101124394 l -23.070372207490152 14.864717851417822" fill="#00d36b" stroke="none" /><path d="M 117.65298651832404 88.62581576622439 l 20.636615912362135 -13.296598346417186 a45.54932675044883,45.54932675044883 0 0,0 0.4189939494172663,0.6627478063635177 l -20.862437458025358 12.939402892339462" fill="#00c95a" stroke="none" /><line stroke="#e1ed5e" stroke-width="0.3" x1="172.23445277983987" x2="176.4835382374775" y1="55.19839476539836" y2="52.563006222186495" /><path d="M 173.08426987136738 54.67131705675599 a86.0,86.0 0 0,1 12.851231095245387,41.99856678651699" fill="none" id="id15" stroke="none" /><text fill="#e1ed5e" style="font-size:6.75px; font-family:Arial;" text-anchor="middle"><textPath startOffset="22.20632615414155" xlink:href="#id15">March</textPath></text><path d="M 118.03404312379186 89.2402003453031 l 14.62851211977479 -8.727929648090312 a38.034380610412924,38.034380610412924 0 0,0 0.3306099151402022,0.5651195137531738 l -14.776581709385319 8.474830721983242" fill="#00af33" stroke="none" /><path d="M 118.56541770881063 90.18545643968196 l 17.57492878676367 -9.290925033446497 a40.87962298025134,40.87962298025134 0 0,0 0.3235146531089859,0.6249273371606446 l -17.732252873032774 8.987024974025509" fill="#00b941" stroke="none" /><path d="M 118.73160827565052 90.50648371742162 l 21.564329646839557 -10.929190468459634 a45.17576301615799,45.17576301615799 0 0,0 0.34557304693978685,0.6966541754774536 l -21.74926270673275 10.556376704483231" fill="#00c858" stroke="none" /><path d="M 118.89224826269711 90.83032412892265 l 22.714225836129046 -11.02473806630038 a46.2483842010772,46.2483842010772 0 0,0 0.34144919135406654,0.7191790773919985 l -22.900633221324867 10.63211657326784" fill="#00cb5e" stroke="none" /><path d="M 119.04729006885535 91.15688171328212 l 13.42600275739155 -6.233313509282261 a35.8024236983842,35.8024236983842 0 0,0 0.2547047213159599,0.561208091029497 l -13.531309795670857 6.001283409410701" fill="#00a829" stroke="none" /><path d="M 119.196687751892 91.48605970444005 l 25.038695914088827 -11.104934603638712 a48.39079892280072,48.39079892280072 0 0,0 0.3311527315876791,0.7643461617538428 l -25.226139355519187 10.672289297298267" fill="#00d36b" stroke="none" /><path d="M 119.34039704204932 91.81776055985345 l 22.447765740950697 -9.496857473475897 a45.374012567324954,45.374012567324954 0 0,0 0.29812522444018935,0.7219338780626035 l -22.607912652277083 9.10904902495999" fill="#00c859" stroke="none" /><path d="M 119.47837535516314 92.15188598940014 l 12.280643564361604 -4.9480456690707415 a34.23999102333932,34.23999102333932 0 0,0 0.21555941263229214,0.5485751929600916 l -12.363996526875598 4.735921471214866" fill="#00a222" stroke="none" /><path d="M 119.61058180528143 92.48833698450437 l 15.500105277872798 -5.937180686843721 a37.598294434470375,37.598294434470375 0 0,0 0.22629770936580648,0.606365352957805 l -15.600007575740229 5.6694921968565835" fill="#00ae31" stroke="none" /><path d="M 119.85752413597 93.16781622104841 l 18.86078575362141 -6.489245769101455 a40.94591561938959,40.94591561938959 0 0,0 0.2235699759005695,0.6684457714190519 l -18.96969302329375 6.163626894760089" fill="#00b941" stroke="none" /><path d="M 119.97218684219823 93.5106431181261 l 14.120371954143021 -4.587986966035801 a35.84703770197487,35.84703770197487 0 0,0 0.18562708444019674,0.5884885848505579 l -14.197254522351423 4.344248214758824" fill="#00a829" stroke="none" /><path d="M 120.08093135843002 93.85539295169968 l 38.54072708535063 -11.793159344466751 a61.304667863554755,61.304667863554755 0 0,0 0.3000837302809127,1.0117331588939273 l -38.738016712743246 11.127996798826294" fill="#00ffc6" stroke="none" /><path d="M 120.18372546131832 94.20196356495316 l 3.299332501351942 -0.9477759738079263 a24.432764811490124,24.432764811490124 0 0,0 0.11263880311394685,0.40522170524119966 l -3.315158075032252 0.8908429651477748" fill="#008101" stroke="none" /><path d="M 120.28053869075195 94.5502522615342 l 21.39681789247661 -5.749712159917257 a43.15587971274685,43.15587971274685 0 0,0 0.18660534187054295,0.719066503336856 l -21.492619566217456 5.380549231031551" fill="#00c14d" stroke="none" /><path d="M 120.37134235888165 94.90015583598534 l 23.36060217120827 -5.848187544634871 a45.08150807899462,45.08150807899462 0 0,0 0.1819730095178866,0.7543956056202145 l -23.457807980986978 5.445206707355251" fill="#00c757" stroke="none" /><path d="M 120.45610955862082 95.25157060432595 l 20.495589482813852 -4.757593779157625 a42.040529622980245,42.040529622980245 0 0,0 0.15756312641598372,0.706324600698517 l -20.574446996231874 4.404091008909144" fill="#00bd47" stroke="none" /><path d="M 120.53481517161879 95.60439243477599 l 21.788286833800186 -4.663921132939666 a43.2818671454219,43.2818671454219 0 0,0 0.14967426981971912,0.7298648953759483 l -21.865340399534904 4.288180581400306" fill="#00c14d" stroke="none" /><path d="M 120.67395015179393 96.31383870115 l 17.929177057134762 -3.196768788885977 a39.211938958707364,39.211938958707364 0 0,0 0.11275885713804677,0.6655091577416747 l -17.981547775793032 2.8876738428284643" fill="#00b339" stroke="none" /><path d="M 120.73433829027371 96.67025291283417 l 30.861716240042806 -4.956112334842414 a52.257136445242374,52.257136445242374 0 0,0 0.134982937042513,0.8893689023513189 l -30.94245507052462 4.424144320099014" fill="#00e084" stroke="none" /><path d="M 120.83666639777658 97.38593545837742 l 20.25433706158498 -2.541008399136776 a41.41310592459605,41.41310592459605 0 0,0 0.08264803096784767,0.7080778570305882 l -20.295075445556414 2.191986803781335" fill="#00bb44" stroke="none" /><path d="M 120.87857604477298 97.74499172005257 l 33.817420702561535 -3.652479150264342 a55.01409335727109,55.01409335727109 0 0,0 0.09358388298609208,0.9423769303200483 l -33.87528171122986 3.0698266892398585" fill="#00e997" stroke="none" /><path d="M 120.91429891909075 98.10471618934814 l 31.920589530685877 -2.8926896759971568 a53.05139138240575,53.05139138240575 0 0,0 0.07458903403140656,0.9101751422783095 l -31.96565304853678 2.3428006165110786" fill="#00e389" stroke="none" /><path d="M 120.96714384426684 98.82574320788733 l 29.76744685753827 -1.6671143631169891 a50.81409335727109,50.81409335727109 0 0,0 0.04139265658234113,0.8737335589682189 l -29.79173312235411 1.1544696975257704" fill="#00db7a" stroke="none" /><path d="M 120.98425023603335 99.18683210126433 l 24.708923258180263 -0.9575039841725319 a45.72746858168761,45.72746858168761 0 0,0 0.023709269032728828,0.7867952133928177 l -24.72174422166864 0.5320386233547151" fill="#00ca5b" stroke="none" /><line stroke="#e1ed5e" stroke-width="0.3" x1="184.98032266829074" x2="189.97916517819016" y1="98.17113171792111" y2="98.06355123074" /><path d="M 185.9800911702706 98.14961562048488 a86.0,86.0 0 0,1 -9.607161424134198,41.387399972396054" fill="none" id="id16" stroke="none" /><text fill="#e1ed5e" style="font-size:6.75px; font-family:Arial;" text-anchor="middle"><textPath startOffset="21.466115282336823" xlink:href="#id16">April</textPath></text><path d="M 120.99980553446 99.90962569577887 l 20.147434612631898 -0.08670605934752255 a41.14762118491921,41.14762118491921 0 0,0 -0.0030482602765658116,0.7083083358482649 l -20.145942055065827 -0.26011175470442705" fill="#00ba42" stroke="none" /><path d="M 120.99824983174949 100.27111621757518 l 28.794682597676 0.37177886227242307 a49.79708258527828,49.79708258527828 0 0,0 -0.01844374222941911,0.8570082281076328 l -28.784016792761573 -0.8673769061701707" fill="#00d774" stroke="none" /><path d="M 120.9904718944345 100.63252640178507 l 19.247546714690166 0.5800051341323603 a40.25628366247756,40.25628366247756 0 0,0 -0.026833433838649532,0.69245169569263 l -19.23471114800031 -0.9112340768389964" fill="#00b73e" stroke="none" /><path d="M 120.9764740272857 100.99374915477107 l 3.1445881171963315 0.14897316772600336 a24.148114901256733,24.148114901256733 0 0,0 -0.02324388196864898,0.41503512690693245 l -3.1415578843401533 -0.20308001096835912" fill="#008000" stroke="none" /><path d="M 120.95626037817324 101.35467743843564 l 29.80905762590064 1.9269496130566577 a50.87127468581688,50.87127468581688 0 0,0 -0.06400924487290696,0.8733552907089909 l -29.771471822363395 -2.4397780402624187" fill="#00db7b" stroke="none" /><path d="M 120.92983693683757 101.71520430193887 l 19.114602575334764 1.566445484788367 a40.17868043087971,40.17868043087971 0 0,0 -0.06242122238627729,0.6888129875560016 l -19.084806756671412 -1.8952398608929393" fill="#00b73d" stroke="none" /><path d="M 120.89721153311464 102.0752229133903 l 4.7103140179219825 0.4677634412498244 a25.733482944344704,25.733482944344704 0 0,0 -0.047567361060066496,0.4404146867101178 l -4.701564355360865 -0.5487744498447337" fill="#008504" stroke="none" /><path d="M 120.8583938346157 102.4346265915055 l 11.245869817744556 1.3126367216948538 a32.32221723518851,32.32221723518851 0 0,0 -0.06925957111328554,0.5520669268727659 l -11.221608737384422 -1.5060214028550145" fill="#009c1b" stroke="none" /><path d="M 120.81339534386255 102.79330883721812 l 43.56489021824874 5.846724709188554 a64.95547576301615,64.95547576301615 0 0,0 -0.15826231233727964,1.106886243879148 l -43.45779385489486 -6.595756425048111" fill="#0cffdc" stroke="none" /><path d="M 120.76222939487914 103.15116336523771 l 22.7036407311747 3.4458188265293805 a43.96364452423698,43.96364452423698 0 0,0 -0.11999614171491488,0.747216089004037 l -22.6409628350985 -3.8361141452266225" fill="#00c451" stroke="none" /><path d="M 120.64145759157962 103.86396538481128 l 32.72924833140024 6.126732187508516 a54.297755834829445,54.297755834829445 0 0,0 -0.17988088155714804,0.9172087396867687 l -32.618937516867426 -6.6892046542632295" fill="#00e792" stroke="none" /><path d="M 120.5718875245553 104.21870165774334 l 23.388672602723002 4.796343153429556 a44.875403949730696,44.875403949730696 0 0,0 -0.16169240845168079,0.7553731021117556 l -23.302646155546878 -5.198230074957481" fill="#00c756" stroke="none" /><path d="M 120.49622156327973 104.57218783832717 l 15.360820268841586 3.4266098950527044 a36.738375224416515,36.738375224416515 0 0,0 -0.14299876187975263,0.6160349235526669 l -15.299560941031281 -3.690513475953936" fill="#00ab2d" stroke="none" /><path d="M 120.32669344350535 105.2749913415812 l 30.797190978811887 7.99219588811982 a52.817324955116696,52.817324955116696 0 0,0 -0.23594737412004535,0.8780479536783151 l -30.655055528350065 -8.521134774973683" fill="#00e287" stroke="none" /><path d="M 120.23288151984713 105.62410040840565 l 15.727705343008635 4.371804083176732 a37.32401256732496,37.32401256732496 0 0,0 -0.17739101310356148,0.6175213881280995 l -15.650121693018974 -4.641882946809414" fill="#00ad30" stroke="none" /><path d="M 120.13307415673323 105.97154293290107 l 25.855517945327147 7.668840548688848 a47.968850987432674,47.968850987432674 0 0,0 -0.24161048514824465,0.789597044953576 l -25.71968068767277 -8.11276456619448" fill="#00d168" stroke="none" /><path d="M 120.02730092923936 106.31721596034902 l 22.503447172196175 7.098267317265897 a44.5964093357271,44.5964093357271 0 0,0 -0.23722688093581443,0.7301092660315952 l -22.37792804024411 -7.484575483275288" fill="#00c655" stroke="none" /><path d="M 119.9155931802556 106.66101706037122 l 22.63089540424826 7.569183554553793 a44.86315080789946,44.86315080789946 0 0,0 -0.25125323275169426,0.730259503407683 l -22.497251340553337 -7.957615761050776" fill="#00c756" stroke="none" /><path d="M 119.79798401119884 107.00284435728193 l 5.197415102401346 1.8384037991805195 a26.512971274685817,26.512971274685817 0 0,0 -0.15589089148042987,0.42894478088036525 l -5.16499994991569 -1.927596377067016" fill="#008807" stroke="none" /><path d="M 119.67450827220406 107.3425965602758 l 38.11685778277666 14.225347082231497 a61.68482944344703,61.68482944344703 0 0,0 -0.37981910996840873,0.991587843048796 l -37.866344393214746 -14.879358492113436" fill="#01ffc9" stroke="none" /><path d="M 119.41010516605496 108.01547362559984 l 20.177332841828708 8.332303088778092 a42.83007181328546,42.83007181328546 0 0,0 -0.287265409064962,0.6790105701995401 l -20.030916451571436 -8.678388184643795" fill="#00c04b" stroke="none" /><path d="M 119.12269723197855 108.67885076344098 l 17.907072747557883 8.127138661498124 a40.66503590664273,40.66503590664273 0 0,0 -0.2947738415290812,0.6349166303416169 l -17.764524289188973 -8.434175359118571" fill="#00b840" stroke="none" /><path d="M 118.97047184881838 109.00673069616215 l 16.785915867065608 7.9695552597713695 a39.58173249551167,39.58173249551167 0 0,0 -0.2975165510459074,0.6129722166461207 l -16.646246059404987 -8.257316432382765" fill="#00b53a" stroke="none" /><path d="M 118.81262510543309 109.33194174019688 l 19.82136909672381 9.8323259292583 a43.12603231597845,43.12603231597845 0 0,0 -0.33560540799607363,0.6621813088695596 l -19.649185018941466 -10.172061449830553" fill="#00c14d" stroke="none" /><path d="M 118.64920377521936 109.65438752849418 l 16.183011193394645 8.377679997609084 a39.22293536804309,39.22293536804309 0 0,0 -0.3155531690708576,0.5969076765654086 l -16.036405516098892 -8.655002689260627" fill="#00b339" stroke="none" /><line stroke="#e1ed5e" stroke-width="0.3" x1="174.80103733775053" x2="179.2010983576182" y1="140.37084112569926" y2="142.7455964860345" /><path d="M 175.68104954172406 140.8457921977663 a86.0,86.0 0 0,1 -30.038265399797805,32.042727171017184" fill="none" id="id17" stroke="none" /><text fill="#e1ed5e" style="font-size:6.75px; font-family:Arial;" text-anchor="middle"><textPath startOffset="22.206326154141568" xlink:href="#id17">May</textPath></text><path d="M 118.48025628344425 109.97397251340804 l 25.2436319448089 13.62423157419482 a49.685547576301616,49.685547576301616 0 0,0 -0.41268245745839877,0.7491385320097893 l -25.005373077898994 -14.056740624602414" fill="#00d773" stroke="none" /><path d="M 118.30583269289576 110.29060199501025 l 21.325309135732024 11.987997072732984 a45.46386894075404,45.46386894075404 0 0,0 -0.3893612417230688,0.6788841443009053 l -21.115795897856575 -12.353301062892205" fill="#00c95a" stroke="none" /><path d="M 118.12598468904814 110.60418214915192 l 12.71557893603797 7.438951178808867 a35.731732495511665,35.731732495511665 0 0,0 -0.31515239060018424,0.5282135341775472 l -12.58564566973956 -7.656726806872518" fill="#00a729" stroke="none" /><path d="M 117.94076556474637 110.91462005526583 l 21.864435687808342 13.301662484468038 a46.5927289048474,46.5927289048474 0 0,0 -0.42274106622561997,0.681593202441542 l -21.63222998191476 -13.676052018274852" fill="#00cd60" stroke="none" /><path d="M 117.55443506779139 111.5257021239791 l 13.155846221062324 8.637723979568536 a36.73806104129264,36.73806104129264 0 0,0 -0.3516302944062472,0.5256395803124864 l -13.005212821245356 -8.86290047408683" fill="#00ab2d" stroke="none" /><path d="M 117.35343817320211 111.8261652097733 l 19.015048052144255 12.95853291388085 a44.010771992818675,44.010771992818675 0 0,0 -0.4320162196997002,0.6223515857696335 l -18.78917092528242 -13.283925761837503" fill="#00c451" stroke="none" /><path d="M 117.14729908036423 112.12312394758627 l 30.669652978120055 21.683415139646 a58.560592459605026,58.560592459605026 0 0,0 -0.5890085951393087,0.8180814225009524 l -30.291864590605144 -22.208130167598085" fill="#00f5b1" stroke="none" /><path d="M 116.93607887273984 112.41649034213515 l 34.60012534873194 25.36668171289018 a63.902648114901254,63.902648114901254 0 0,0 -0.6580108420569291,0.8815130535302498 l -34.158353239979924 -25.958507645929746" fill="#08ffd6" stroke="none" /><path d="M 116.71984013943494 112.70617746262583 l 29.891592120016703 22.71599913336229 a58.54362657091561,58.54362657091561 0 0,0 -0.6166405282294135,0.7970910067162319 l -29.49614477456922 -23.227168134191775" fill="#00f5b1" stroke="none" /><path d="M 116.498646956653 112.99209946851258 l 27.507618444784715 21.661274158752857 a56.012567324955114,56.012567324955114 0 0,0 -0.6030208653330437,0.7523612481997237 l -27.130679667396816 -22.13156324053083" fill="#00ed9e" stroke="none" /><path d="M 116.27256486870786 113.27417163493432 l 5.801544297147041 4.732548026039571 a28.486983842010773,28.486983842010773 0 0,0 -0.3132265961946802,0.3773016130684385 l -5.719221701058817 -4.8317108962217805" fill="#008f0d" stroke="none" /><path d="M 115.32070863581623 114.36230785411682 l 19.792686874666845 18.554537450673063 a48.12971274685817,48.12971274685817 0 0,0 -0.5718118102073074,0.5995423969288709 l -19.470368513080576 -18.892486964184442" fill="#00d269" stroke="none" /><path d="M 115.07121518719521 114.62390073753431 l 22.172544497571113 21.51446222508527 a51.894883303411135,51.894883303411135 0 0,0 -0.6275805774547721,0.6357358115984096 l -21.798923295060803 -21.892938530664345" fill="#00df81" stroke="none" /><path d="M 114.81725581225074 114.88116024355365 l 16.088604736297086 16.15799229018411 a43.80184021543985,43.80184021543985 0 0,0 -0.5388670240803208,0.5273947995369482 l -15.80808775984097 -16.432537192643633" fill="#00c350" stroke="none" /><path d="M 114.55890576462653 115.13401014063108 l 28.45826086116077 29.58241611151604 a62.04865350089767,62.04865350089767 0 0,0 -0.7760932285231991,0.7338445888655668 l -27.944831798246764 -30.067895337127528" fill="#02ffcb" stroke="none" /><path d="M 114.29624159901734 115.38237550388516 l 17.460279629751387 18.786796222451486 a46.64771095152604,46.64771095152604 0 0,0 -0.5928711937762764,0.5415737786743009 l -17.134308886508247 -19.08456276771237" fill="#00cd60" stroke="none" /><path d="M 114.0293411484842 115.62618273729858 l 21.526978718277803 23.977213161581076 a53.22293536804309,53.22293536804309 0 0,0 -0.6869754110603102,0.6061759269992893 l -21.111060954310904 -24.344212230352653" fill="#00e38a" stroke="none" /><path d="M 113.75828350139079 115.86535959552629 l 20.68517991654344 23.853107667169773 a52.57289048473968,52.57289048473968 0 0,0 -0.6887912937374256,0.5870028835310273 l -20.271523146228965 -24.205634940923748" fill="#00e186" stroke="none" /><path d="M 113.48314897796784 116.09983520530334 l 11.782020980792455 14.068567846142313 a39.350493716337525,39.350493716337525 0 0,0 -0.5230427739402016,0.4304285943820314 l -11.53810807830756 -14.269291559381523" fill="#00b439" stroke="none" /><path d="M 113.20401910651253 116.32954008644616 l 24.204207615295346 29.933581232072548 a59.49497307001795,59.49497307001795 0 0,0 -0.8018860165929312,0.6370667490773986 l -23.685364105985062 -30.345781895155074" fill="#00f8b8" stroke="none" /><path d="M 112.92097659922987 116.55440617244103 l 35.04437944067609 44.89899713591862 a77.95637342908438,77.95637342908438 0 0,0 -1.0649259032208311,0.8165397718196482 l -34.26632480896176 -45.49557624956564" fill="#38e6ff" stroke="none" /><path d="M 112.63410532772338 116.77436683061366 l 17.357907336178414 23.04618313019275 a49.85175044883304,49.85175044883304 0 0,0 -0.6898889491130459,0.5103633516384217 l -16.958633416646805 -23.341556430570943" fill="#00d874" stroke="none" /><path d="M 112.34349029814194 116.9893568818739 l 4.959372111858195 6.82599011165056 a29.43738779174147,29.43738779174147 0 0,0 -0.4125056555535422,0.2943118325330023 l -4.841139128455768 -6.910346206027781" fill="#009210" stroke="none" /><path d="M 112.04921762599082 117.19931262002967 l 12.496286143532073 17.837467845907494 a42.77917414721723,42.77917414721723 0 0,0 -0.6067372619651139,0.41731942130533783 l -12.187391996944076 -18.049928056577926" fill="#00c04b" stroke="none" /><path d="M 111.7513745106137 117.40417183066458 l 15.626128293369774 23.14280951731953 a48.924281867145424,48.924281867145424 0 0,0 -0.7020059034546907,0.46525123359786036 l -15.22544769117512 -23.40835877200871" fill="#00d46e" stroke="none" /><path d="M 111.45004920935366 117.60387380957326 l 17.48770606727812 26.886467053415416 a53.0733842010772,53.0733842010772 0 0,0 -0.7701155234772931,0.4915241638380923 l -17.022308741753893 -27.183505646077315" fill="#00e389" stroke="none" /><path d="M 111.1453310114006 117.79835938074945 l 16.99629629953698 27.141965489533373 a53.02437163375224,53.02437163375224 0 0,0 -0.7777433035102361,0.47775345963257704 l -16.526573796094432 -27.43050741599433" fill="#00e289" stroke="none" /><line stroke="#e1ed5e" stroke-width="0.3" x1="143.8653032363475" x2="146.44561519142675" y1="172.8068346515853" y2="177.08958963109032" /><path d="M 144.38136562736335 173.6633856474863 a86.0,86.0 0 0,1 -40.68145358897372,12.25698825130547" fill="none" id="id18" stroke="none" /><text fill="#e1ed5e" style="font-size:6.75px; font-family:Arial;" text-anchor="middle"><textPath startOffset="21.466115282336833" xlink:href="#id18">June</textPath></text><path d="M 110.8373102113329 117.98757091392108 l 15.116296653392851 25.089754995149242 a50.29160682226211,50.29160682226211 0 0,0 -0.7453506600331514,0.44036630781518876 l -14.682178122331319 -25.34623987525818" fill="#00d977" stroke="none" /><path d="M 110.5260780823613 118.17145234162733 l 12.55050557710627 21.66627609763599 a46.038824057450626,46.038824057450626 0 0,0 -0.6891600529503604,0.39132306403776357 l -12.175696757234709 -21.87910232746838" fill="#00cb5d" stroke="none" /><path d="M 110.21172684928248 118.3499491758327 l 10.236629773825175 18.394698453445812 a42.0512118491921,42.0512118491921 0 0,0 -0.635528351152969,0.3465407293015715 l -9.918478610803557 -18.568179834507156" fill="#00bd47" stroke="none" /><path d="M 109.89434966115114 118.52300852407294 l 15.520095689313735 29.05485197034563 a53.940215439856374,53.940215439856374 0 0,0 -0.8227400821460372,0.4304187258811377 l -15.017664704641202 -29.317700115171487" fill="#00e68f" stroke="none" /><path d="M 109.57404056367764 118.69057910512821 l 16.134779341926087 31.498547309080738 a56.390529622980246,56.390529622980246 0 0,0 -0.867732347207886,0.43509901271806894 l -15.590193087035441 -31.77161416270811" fill="#00eea1" stroke="none" /><path d="M 109.2508944713604 118.85261126421891 l 9.884229197586384 20.143298714025395 a43.43770197486535,43.43770197486535 0 0,0 -0.6740855621328519,0.32360203393591896 l -9.5360309674533 -20.310455024460875" fill="#00c24e" stroke="none" /><path d="M 108.92500713936063 119.00905698771935 l 12.678210321185112 27.002871676690255 a50.8310592459605,50.8310592459605 0 0,0 -0.7952204653019261,0.3650467125193114 l -12.211521860115766 -27.217105459543642" fill="#00db7a" stroke="none" /><path d="M 108.59647513512805 119.15986991738527 l 9.461009932529763 21.086749713684846 a44.111938958707356,44.111938958707356 0 0,0 -0.6954548090470085,0.3048669507533212 l -9.096634448825 -21.246481217732622" fill="#00c452" stroke="none" /><path d="M 108.2653958097858 119.30500536409082 l 13.801628161732395 32.23566200906907 a56.06597845601436,56.06597845601436 0 0,0 -0.890457331727679,0.37221123688039776 l -13.244699370507256 -32.46845828896944" fill="#00ed9e" stroke="none" /><path d="M 107.93186726928326 119.44442032107085 l 13.321834524981135 32.65754974930301 a56.27019748653501,56.27019748653501 0 0,0 -0.8999987325090029,0.35812806952233783 l -12.757714716430266 -32.88202466323142" fill="#00eda0" stroke="none" /><path d="M 107.59598834532513 119.57807347666477 l 12.316774638933834 31.74553565830234 a55.05116696588869,55.05116696588869 0 0,0 -0.8864018539554855,0.3351613347743288 l -11.768502564218073 -31.9528452431833" fill="#00e997" stroke="none" /><path d="M 107.2578585660854 119.70592522655815 l 14.136210613791567 38.381446373720415 a61.90192998204668,61.90192998204668 0 0,0 -1.0030483777218209,0.35965746149913014 l -13.473442675440012 -38.619091376259505" fill="#02ffca" stroke="none" /><path d="M 106.91757812671514 119.82793768551818 l 6.92627167193722 19.852856099126555 a42.02639138240574,42.02639138240574 0 0,0 -0.685090751696361,0.2324199793620507 l -6.583511187303633 -19.969139065386727" fill="#00bd47" stroke="none" /><path d="M 106.57524785965236 119.94407469862006 l 4.14799373504042 12.581715346230007 a34.24784560143627,34.24784560143627 0 0,0 -0.561466772247411,0.1797639299373433 l -3.9308056177020685 -12.651252122827058" fill="#00a222" stroke="none" /><path d="M 106.2309692047433 120.05430185196036 l 9.269452302579982 29.833624331954315 a52.240484739676845,52.240484739676845 0 0,0 -0.8610351959892665,0.2594228413721512 l -8.754542132150469 -29.98876254243219" fill="#00e084" stroke="none" /><path d="M 105.88484417918355 120.15858648285463 l 3.117453062485507 10.67886340791318 a32.124596050269304,32.124596050269304 0 0,0 -0.532149795386599,0.1503908476768867 l -2.933172098994302 -10.730943048928587" fill="#009b1a" stroke="none" /><path d="M 105.53697534728816 120.25689768951611 l 9.704038047686662 35.50200128729781 a57.80435368043087,57.80435368043087 0 0,0 -0.9620559075435706,0.25408770917233253 l -9.091491697331593 -35.66378034577372" fill="#00f3ab" stroke="none" /><path d="M 105.18746579009965 120.34920634021253 l 6.338037010001321 24.862626208459844 a46.657764811490125,46.657764811490125 0 0,0 -0.7799550037284475,0.19169396370549047 l -5.909128721529663 -24.968041430479364" fill="#00cd60" stroke="none" /><path d="M 104.83641907484287 120.43548508189849 l 6.22692573793765 26.310839911623862 a48.03765709156194,48.03765709156194 0 0,0 -0.8063002950071749,0.18351132205524814 l -5.773105293537613 -26.414127967256796" fill="#00d169" stroke="none" /><path d="M 104.48393922423573 120.51570834832081 l 5.108698739425844 23.374218100683347 a44.92598743267504,44.92598743267504 0 0,0 -0.7569141884474707,0.1586187275279727 l -4.705593089548994 -23.458692808937858" fill="#00c756" stroke="none" /><path d="M 103.41894727170886 120.7198165907248 l 2.2264078238839 13.492680085695506 a34.675134649910234,34.675134649910234 0 0,0 -0.5897483105473129,0.09210655732090552 l -1.9938236497280697 -13.529004950363516" fill="#00a424" stroke="none" /><path d="M 103.06178313531738 120.77559828337769 l 5.774191345843227 39.18052798346211 a60.603725314183116,60.603725314183116 0 0,0 -1.0333553001226616,0.1432136286420618 l -5.098907454533735 -39.27411617759678" fill="#00fcc0" stroke="none" /><path d="M 102.34483914955558 120.86867818915974 l 1.3564213901491144 12.071924628723238 a33.147890484739676,33.147890484739676 0 0,0 -0.567566709980938,0.058830610129790684 l -1.1484220835625738 -12.093484607308788" fill="#009f1e" stroke="none" /><path d="M 101.26447882468166 120.96189622390904 l 1.4518804889141066 24.068547091563772 a45.11229802513465,45.11229802513465 0 0,0 -0.7755275165886014,0.04008591421667383 l -1.0373649039120256 -24.089972812542648" fill="#00c758" stroke="none" /><path d="M 100.90346689309514 120.98055641714683 l 0.728234325738987 16.911257593210692 a37.92692998204668,37.92692998204668 0 0,0 -0.6524870440939957,0.022472973087906384 l -0.43702692997033904 -16.92128736472469" fill="#00af32" stroke="none" /><line stroke="#e1ed5e" stroke-width="0.3" x1="102.19456741930631" x2="102.32365962044197" y1="184.97166512339345" y2="189.96999836594603" /><path d="M 102.22038585953345 185.97133177190398 a86.0,86.0 0 0,1 -42.740103519485714,-10.115201625700543" fill="none" id="id19" stroke="none" /><text fill="#e1ed5e" style="font-size:6.75px; font-family:Arial;" text-anchor="middle"><textPath startOffset="22.20632615414155" xlink:href="#id19">July</textPath></text><path d="M 100.54218724476979 120.99299961872073 l 0.7285864173844732 28.21020695322977 a49.219614003590664,49.219614003590664 0 0,0 -0.8471405975629044,0.01458429364039687 l -0.24288612992890085 -28.218568724149325" fill="#00d570" stroke="none" /><path d="M 100.18074693466247 120.99922214144158 l 0.15873766923430915 18.442180414792976 a39.442863554757636,39.442863554757636 0 0,0 -0.6789692077935165,0.0 l 0.15873766923429644 -18.442180414792976" fill="#00b43a" stroke="none" /><path d="M 99.81925306533755 120.99922214144158 l -0.06386986609503836 7.420416333912458 a28.420691202872533,28.420691202872533 0 0,0 -0.48916111627766534,-0.008421352226279119 l 0.19159067226537166 -7.418217504407019" fill="#008f0d" stroke="none" /><path d="M 99.45781275523022 120.99299961872073 l -1.2666123507154714 49.04208435764166 a70.0584380610413,70.0584380610413 0 0,0 -1.205270850710324,-0.04151196508316953 l 2.1106035531004386 -49.0130155941324" fill="#1dfff6" stroke="none" /><path d="M 99.09653310690486 120.98055641714683 l -2.4878861371828958 57.77437541931794 a78.82791741472172,78.82791741472172 0 0,0 -1.3551342251824126,-0.07004496054723323 l 3.4820084307787975 -57.722990652008505" fill="#3be3ff" stroke="none" /><path d="M 98.73552117531835 120.96189622390904 l -0.673991428589663 11.173092112046783 a32.19340215439856,32.19340215439856 0 0,0 -0.5528637940045688,-0.038128724153946865 l 0.8662179833731618 -11.159835043376551" fill="#009b1a" stroke="none" /><path d="M 98.37488393609728 120.93702456842531 l -2.9467263853503556 37.963862456903705 a59.07805206463196,59.07805206463196 0 0,0 -1.013204578468488,-0.08742355437278529 l 3.599775281560385 -37.90751465025225" fill="#00f7b5" stroke="none" /><path d="M 98.01472825383883 120.90594882070398 l -0.8137713240772582 8.569437249994731 a29.607989228007185,29.607989228007185 0 0,0 -0.5069556098306718,-0.05254802177537433 l 0.9611595305135232 -8.554159859763597" fill="#009311" stroke="none" /><path d="M 97.65516085044442 120.86867818915974 l -4.880064924853808 43.431765662170015 a64.70507181328546,64.70507181328546 0 0,0 -1.10575599348946,-0.13389165163974615 l 5.626948341394657 -43.34132848180492" fill="#0bffda" stroke="none" /><path d="M 97.2962882734958 120.8252237178851 l -4.458575966943023 34.34199033298096 a55.630206463195684,55.630206463195684 0 0,0 -0.9485517333735207,-0.13146062702248498 l 5.049056291503375 -34.260155140465876" fill="#00eb9b" stroke="none" /><path d="M 96.93821686468263 120.77559828337769 l -4.58575774825682 31.116462725174408 a52.45255834829443,52.45255834829443 0 0,0 -0.8921034620948783,-0.13932821374488388 l 5.120697073960216 -31.03291620408242" fill="#00e085" stroke="none" /><path d="M 96.58105272829116 120.7198165907248 l -4.523250872081711 27.412218152322016 a48.78289946140036,48.78289946140036 0 0,0 -0.8273371341787294,-0.14384316564365487 l 4.99443697773249 -27.330296408157356" fill="#00d46d" stroke="none" /><path d="M 96.22490169976321 120.6578951692458 l -6.723447813536636 36.79169893383243 a58.40098743267505,58.40098743267505 0 0,0 -0.9873448514090992,-0.18922699067310067 l 7.35576027951743 -36.670514744810866" fill="#00f5af" stroke="none" /><path d="M 95.86986931433489 120.58985236759428 l -9.68566314656842 48.28572978629065 a70.2475763016158,70.2475763016158 0 0,0 -1.1835329671143966,-0.24802084053432238 l 10.515387575112202 -48.11185296502978" fill="#1efff7" stroke="none" /><path d="M 95.51606077576429 120.51570834832081 l -5.777264542967615 26.433158097681627 a48.057136445242364,48.057136445242364 0 0,0 -0.806627251182183,-0.18358573621619706 l 6.2314119435426605 -26.329795627887744" fill="#00d169" stroke="none" /><path d="M 95.16358092515715 120.4354850818985 l -3.9814351163098887 16.822892446833976 a38.28761220825852,38.28761220825852 0 0,0 -0.6400352619397573,-0.1573050954042348 l 4.270423662992857 -16.75186609311571" fill="#00b034" stroke="none" /><path d="M 94.81253420990036 120.34920634021253 l -9.474032374761272 37.164397312424065 a59.35296229802514,59.35296229802514 0 0,0 -0.987829884314721,-0.2608948506936234 l 10.112352701887483 -36.995811112426864" fill="#00f8b7" stroke="none" /><path d="M 94.46302465271185 120.25689768951611 l -3.7841796953840516 13.844334879634731 a35.352199281867144,35.352199281867144 0 0,0 -0.5856156318626681,-0.1655008271208294 l 4.021926495351334 -13.77714525917538" fill="#00a627" stroke="none" /><path d="M 94.11515582081647 120.15858648285463 l -9.63075352160638 32.9902325106753 a55.36723518850987,55.36723518850987 0 0,0 -0.9125707473712333,-0.27495008025096357 l 10.19719924341786 -32.81956706131861" fill="#00ea99" stroke="none" /><path d="M 93.76903079525671 120.05430185196036 l -7.16971636051476 23.07564864503697 a45.163824057450626,45.163824057450626 0 0,0 -0.7404257427165967,-0.23706094094355445 l 7.565863448322296 -22.94881485743371" fill="#00c858" stroke="none" /><path d="M 93.42475214034765 119.94407469862007 l -9.443409538228416 28.64379704920306 a51.16032315978457,51.16032315978457 0 0,0 -0.8339870043003278,-0.2829336724335314 l 9.935066275465969 -28.477000389871407" fill="#00dc7c" stroke="none" /><path d="M 93.08242187328487 119.8279376855182 l -9.76937144331649 28.002067292407084 a50.65731597845601,50.65731597845601 0 0,0 -0.8208425589746562,-0.29432493746891686 l 10.249933562920873 -27.82975481389821" fill="#00da79" stroke="none" /><path d="M 92.7421414339146 119.70592522655815 l -1.1527442629796918 3.129833964768721 a24.33536804308797,24.33536804308797 0 0,0 -0.3918339344822191,-0.1481580661241864 l 1.2064484182221937 -3.109527648537901" fill="#008101" stroke="none" /><path d="M 92.40401165467489 119.57807347666478 l -10.100823460814507 26.034092589459043 a48.92491023339318,48.92491023339318 0 0,0 -0.7825164859019421,-0.31137945904013925 l 10.547461022758307 -25.856366286012836" fill="#00d46e" stroke="none" /><path d="M 92.06813273071674 119.44442032107085 l -16.73263238634767 41.01888321531467 a65.30044883303412,65.30044883303412 0 0,0 -1.0371220663544054,-0.4335171078492331 l 17.43622591219954 -40.724781064445466" fill="#0dffdd" stroke="none" /><path d="M 91.7346041902142 119.30500536409082 l -12.577894515208744 29.37745834235688 a52.95682226211849,52.95682226211849 0 0,0 -0.8349004279434281,-0.3659958121485174 l 13.081715617809916 -29.15659797691391" fill="#00e288" stroke="none" /><path d="M 91.40352486487194 119.15986991738527 l -6.445941611272931 14.366749257771279 a36.74654398563734,36.74654398563734 0 0,0 -0.5748769402010531,-0.26389780731294127 l 6.6922865472414035 -14.253664380124262" fill="#00ab2d" stroke="none" /><path d="M 91.07499286063937 119.00905698771935 l -8.262040944762703 17.59702874199782 a40.44008078994614,40.44008078994614 0 0,0 -0.6275671444995338,-0.3012703665523463 l 8.563720757262479 -17.452204098945913" fill="#00b83f" stroke="none" /><path d="M 90.7491055286396 118.85261126421891 l -7.350198274843451 14.979138635680336 a37.68532315978456,37.68532315978456 0 0,0 -0.5798983293712736,-0.2907730608385988 l 7.606950511897485 -14.850397733932434" fill="#00ae31" stroke="none" /><path d="M 90.42595943632237 118.69057910512821 l -10.209445170806205 19.931025079250723 a43.39371633752244,43.39371633752244 0 0,0 -0.6618762912425274,-0.3462623933727034 l 10.551012364575229 -19.752333266933306" fill="#00c24e" stroke="none" /><path d="M 90.10565033884886 118.52300852407294 l -8.092820107347885 15.150402094719736 a38.17639138240575,38.17639138240575 0 0,0 -0.5769674166642952,-0.31460863860967764 l 8.35241033588082 -15.008852804350292" fill="#00b034" stroke="none" /><line stroke="#e1ed5e" stroke-width="0.3" x1="58.666819895761336" x2="56.23545636021788" y1="174.27360380694188" y2="178.64263932499728" /><path d="M 58.180547188652646 175.14741091055294 a86.0,86.0 0 0,1 -31.652253787137756,-30.449443065178592" fill="none" id="id20" stroke="none" /><text fill="#e1ed5e" style="font-size:6.75px; font-family:Arial;" text-anchor="middle"><textPath startOffset="22.20632615414155" xlink:href="#id20">August</textPath></text><path d="M 89.7882731507175 118.34994917583269 l -18.84433328093806 33.86229998719192 a59.752603231597845,59.752603231597845 0 0,0 -0.894443071691459,-0.5078881196366472 l 19.424425119550726 -33.53290870176064" fill="#00f9ba" stroke="none" /><path d="M 89.4739219176387 118.17145234162733 l -11.701206667797853 20.200108496223727 a44.344434470377024,44.344434470377024 0 0,0 -0.6572101308694209,-0.3882913295828188 l 12.047184669695655 -19.99569859434716" fill="#00c553" stroke="none" /><path d="M 89.1626897886671 117.98757091392108 l -17.01590656416449 28.242693068570848 a53.9725763016158,53.9725763016158 0 0,0 -0.7916512444827721,-0.48629685291671765 l 17.49953700857957 -27.945607748825754" fill="#00e68f" stroke="none" /><path d="M 88.8546689885994 117.79835938074946 l -8.693658332456508 13.883199626483163 a37.380565529622984,37.380565529622984 0 0,0 -0.5424065984120765,-0.34618955418656866 l 8.93134673291551 -13.73149564347279" fill="#00ad30" stroke="none" /><path d="M 88.54995079064634 117.60387380957326 l -22.24622591972316 34.20245159384518 a61.80076301615799,61.80076301615799 0 0,0 -0.8867682635211445,-0.5877016510663434 l 22.831668881984264 -33.81445192168752" fill="#01ffc9" stroke="none" /><path d="M 88.24862548938628 117.40417183066458 l -17.90783592949702 26.52209350921607 a53.001750448833036,53.001750448833036 0 0,0 -0.7517241178152645,-0.5170427028198016 l 18.361716931935174 -26.209910017031167" fill="#00e289" stroke="none" /><path d="M 87.95078237400918 117.19931262002967 l -18.619502407775492 26.5778785545333 a53.45103231597846,53.45103231597846 0 0,0 -0.7490084813742133,-0.5343976640518927 l 19.074238216998594 -26.253436628637186" fill="#00e48c" stroke="none" /><path d="M 87.65650970185807 116.9893568818739 l -26.518928887091285 36.50017427045319 a66.11669658886893,66.11669658886893 0 0,0 -0.914976463571474,-0.6768777137522963 l 27.14329032108132 -36.03828660796113" fill="#10ffe2" stroke="none" /><path d="M 87.36589467227662 116.77436683061367 l -16.09374072289573 21.36774259513673 a47.750493716337516,47.750493716337516 0 0,0 -0.6522973736890245,-0.5001538107577994 l 16.459166825078242 -21.087549442551563" fill="#00d067" stroke="none" /><path d="M 87.07902340077011 116.55440617244103 l -19.571104007819162 25.074575632915963 a52.808213644524244,52.808213644524244 0 0,0 -0.7117604378601696,-0.5654655386011915 l 19.99982193839669 -24.73397618030964" fill="#00e287" stroke="none" /><path d="M 86.79598089348748 116.32954008644616 l -12.497987324844729 15.456383649148762 a40.87710951526033,40.87710951526033 0 0,0 -0.5433343964028235,-0.4471272182221372 l 12.76219184979224 -15.238961312069444" fill="#00b941" stroke="none" /><path d="M 86.51685102203217 116.09983520530335 l -8.191154210044315 9.78081849710574 a33.75771992818672,33.75771992818672 0 0,0 -0.4422816278231834,-0.37692199832592393 l 8.358301314444555 -9.638372108556865" fill="#00a120" stroke="none" /><path d="M 86.24171649860922 115.8653595955263 l -29.460717027776113 33.9726150824312 a65.96745960502693,65.96745960502693 0 0,0 -0.8514754469175391,-0.7513280825520853 l 30.04113482760024 -33.46046385810682" fill="#10ffe1" stroke="none" /><path d="M 85.97065885151581 115.62618273729859 l -23.55938611416008 26.240952351366584 a56.26517055655297,56.26517055655297 0 0,0 -0.7151047319461072,-0.6532312176632201 l 24.007590395573043 -25.83152836711679" fill="#00eda0" stroke="none" /><path d="M 85.44109423537348 115.13401014063109 l -22.109323320356825 22.98268350261248 a52.89084380610413,52.89084380610413 0 0,0 -0.650683429342449,-0.6368306863196129 l 22.50165670207507 -22.598702713370297" fill="#00e288" stroke="none" /><path d="M 85.18274418774928 114.88116024355367 l -3.3030686954299204 3.317314297261365 a25.68132854578097,25.68132854578097 0 0,0 -0.3105721021538108,-0.31460789979085085 l 3.3596814226392646 -3.2599659034898494" fill="#008504" stroke="none" /><path d="M 84.9287848128048 114.62390073753433 l -17.41081615641029 16.89406222844779 a45.25996409335727,45.25996409335727 0 0,0 -0.5377173583864886,-0.5637945005025637 l 17.699040066175737 -16.591860611362726" fill="#00c858" stroke="none" /><path d="M 84.19399662182784 113.82643327865904 l -5.718443651869527 5.0022562768481835 a28.597576301615796,28.597576301615796 0 0,0 -0.32091586017128326,-0.37329764632135226 l 5.803702021611589 -4.903081531365301" fill="#008f0d" stroke="none" /><path d="M 83.95833913139862 113.55231037782056 l -14.105333521386008 11.916462979133307 a39.46517055655296,39.46517055655296 0 0,0 -0.43393646411390047,-0.5227044250662214 l 14.308365985393445 -11.671897296953324" fill="#00b43a" stroke="none" /><path d="M 83.50135304334701 112.99209946851258 l -12.7941033671041 10.074902747635313 a37.28473967684022,37.28473967684022 0 0,0 -0.39272048753885974,-0.5076441693984453 l 12.965630671861026 -9.853180584123615" fill="#00ad30" stroke="none" /><path d="M 83.28015986056508 112.70617746262583 l -8.944514121271311 6.7973487063302205 a32.23424596050269,32.23424596050269 0 0,0 -0.33191869121610346,-0.4446593282612736 l 9.0601940791825 -6.642376498559639" fill="#009c1a" stroke="none" /><path d="M 83.06392112726016 112.41649034213515 l -14.201576131946776 10.411721285098604 a38.60933572710952,38.60933572710952 0 0,0 -0.388336757548569,-0.539365791342318 l 14.378692681870954 -10.165721888305148" fill="#00b136" stroke="none" /><path d="M 82.85270091963577 112.12312394758628 l -21.637305491263916 15.297554158996446 a47.498833034111314,47.498833034111314 0 0,0 -0.4662555405956655,-0.6716758812095013 l 21.897421939021715 -14.922837015599931" fill="#00d065" stroke="none" /><path d="M 82.6465618267979 111.8261652097733 l -8.619860873555995 5.874334397511717 a31.431193895870734,31.431193895870734 0 0,0 -0.3008367793477726,-0.4497101670546899 l 8.719700758314499 -5.725087316251206" fill="#009917" stroke="none" /><path d="M 82.44556493220864 111.52570212397912 l -10.103780243761248 6.633831334703781 a33.086938958707364,33.086938958707364 0 0,0 -0.3084886539931171,-0.47878124163184266 l 10.216473761131411 -6.4589284931504904" fill="#009e1e" stroke="none" /><path d="M 82.24976979558568 111.22182372390057 l -13.571065441893856 8.579725579929544 a37.05570017953322,37.05570017953322 0 0,0 -0.33621053266969303,-0.5420784304276878 l 13.716740614231504 -8.344850818136592" fill="#00ac2e" stroke="none" /><line stroke="#e1ed5e" stroke-width="0.3" x1="26.63291911575756" x2="22.317208475507996" y1="142.92168965132927" y2="145.44649492493687" /><path d="M 25.769776987707644 143.4266507060508 a86.0,86.0 0 0,1 -11.730757126820373,-40.83630448921669" fill="none" id="id21" stroke="none" /><text fill="#e1ed5e" style="font-size:6.75px; font-family:Arial;" text-anchor="middle"><textPath startOffset="21.46611528233685" xlink:href="#id21">September</textPath></text><path d="M 81.69416730710424 110.29060199501025 l -22.08996929250289 12.417849867018877 a46.34106822262119,46.34106822262119 0 0,0 -0.3849035956781817,-0.6987118289628422 l 22.30044929763259 -12.035767519658211" fill="#00cc5f" stroke="none" /><path d="M 81.51974371655577 109.97397251340807 l -13.483343180351962 7.277090328566297 a36.3217684021544,36.3217684021544 0 0,0 -0.2922129365895511,-0.5527567527070348 l 13.606608625166398 -7.043918560773136" fill="#00a92b" stroke="none" /><path d="M 81.35079622478065 109.6543875284942 l -5.934598508361994 3.072244505252417 a27.682675044883304,27.682675044883304 0 0,0 -0.21542569427187372,-0.4250553322393242 l 5.986602872420134 -2.9696349613104083" fill="#008c0a" stroke="none" /><path d="M 81.18737489456691 109.33194174019688 l -12.874432937952127 6.386320752245448 a35.3713644524237,35.3713644524237 0 0,0 -0.26586927085280837,-0.5477694458335773 l 12.982455465419655 -6.163762350446586" fill="#00a627" stroke="none" /><path d="M 81.02952815118164 109.00673069616217 l -8.565661885058923 4.066773375376633 a30.482046678635548,30.482046678635548 0 0,0 -0.22095910643626593,-0.47592625781879405 l 8.634395608335014 -3.918727050279012" fill="#009614" stroke="none" /><path d="M 80.87730276802145 108.67885076344099 l -12.000036096620404 5.44622555987087 a34.178096947935366,34.178096947935366 0 0,0 -0.23852880069707433,-0.5378194758075788 l 12.092005982048757 -5.238857747570595" fill="#00a222" stroke="none" /><path d="M 80.73074385275274 108.34839909993369 l -6.63497801060586 2.8746021137787827 a28.23092459605027,28.23092459605027 0 0,0 -0.18934752520893613,-0.4475616172391876 l 6.683476517007103 -2.759965970873436" fill="#008e0c" stroke="none" /><path d="M 80.58989483394504 108.01547362559985 l -14.68332057916273 6.063530714111388 a36.88604129263914,36.88604129263914 0 0,0 -0.23729560709664727,-0.5889482363427757 l 14.785518800516765 -5.809883109925807" fill="#00ab2e" stroke="none" /><path d="M 80.32549172779594 107.34259656027581 l -9.312423970791736 3.475429793199368 a30.93981149012567,30.93981149012567 0 0,0 -0.1819198137191579,-0.5005651959040784 l 9.370868045516117 -3.3146168002891727" fill="#009715" stroke="none" /><path d="M 80.20201598880116 107.00284435728193 l -32.68948099084286 11.562760499741254 a55.6741921005386,55.6741921005386 0 0,0 -0.31179978432625804,-0.9062361234959204 l 32.883671606112344 -10.998351673156035" fill="#00eb9b" stroke="none" /><path d="M 79.97269907076064 106.31721596034903 l -38.63045821220889 12.185213975462585 a61.50668761220826,61.50668761220826 0 0,0 -0.3097981362476418,-1.0124382340574993 l 38.834483120962666 -11.518448768853037" fill="#00ffc7" stroke="none" /><path d="M 79.76711848015287 105.62410040840567 l -19.96982984359417 5.550980371677596 a41.72697486535009,41.72697486535009 0 0,0 -0.18640418002651907,-0.6936792979357196 l 20.06242209996246 -5.206410140566338" fill="#00bc45" stroke="none" /><path d="M 79.67330655649465 105.27499134158121 l -14.67785546156172 3.8090583049284428 a36.16404847396768,36.16404847396768 0 0,0 -0.1511806802523532,-0.6038916673573191 l 14.741247456109132 -3.555838798173732" fill="#00a92a" stroke="none" /><path d="M 79.58551787078972 104.9243191809786 l -25.930423889436764 6.254857846575155 a47.67414721723519,47.67414721723519 0 0,0 -0.18556465777524775,-0.7994076890174647 l 26.034249113142568 -5.807581500209116" fill="#00d067" stroke="none" /><path d="M 79.50377843672027 104.57218783832718 l -39.00537676315353 8.701111505613659 a60.964093357271096,60.964093357271096 0 0,0 -0.21966222510337396,-1.0261887863627706 l 39.149373026981344 -8.028408899834725" fill="#00fdc3" stroke="none" /><path d="M 79.35854240842038 103.8639653848113 l -53.277442604717486 9.97323920089235 a75.20287253141831,75.20287253141831 0 0,0 -0.2272328480205235,-1.2744424869015256 l 53.4412218950772 -9.05467796325761" fill="#2ff1ff" stroke="none" /><path d="M 79.29508885075956 103.50808413554451 l -5.6718570188897734 0.9609967163647513 a26.75269299820467,26.75269299820467 0 0,0 -0.07301987756038439,-0.4546948472714371 l 5.687558650811448 -0.8632226394001006" fill="#008907" stroke="none" /><path d="M 79.23777060512086 103.15116336523772 l -29.872884513846913 4.533922513987311 a51.21499102333932,51.21499102333932 0 0,0 -0.12478398180407235,-0.872738878104053 l 29.946502546667585 -4.019038163902858" fill="#00dc7d" stroke="none" /><path d="M 79.1416061653843 102.43462659150553 l -16.342819944925555 1.9075612596819975 a37.453770197486534,37.453770197486534 0 0,0 -0.06923186472261528,-0.6410010842027997 l 16.373234111149223 -1.6259638535944159" fill="#00ad30" stroke="none" /><path d="M 79.10278846688536 102.07522291339032 l -44.41751709320163 4.410935357650537 a65.63599640933572,65.63599640933572 0 0,0 -0.1019714705529053,-1.1252466804057306 l 44.48686316003161 -3.6457072886962405" fill="#0effdf" stroke="none" /><path d="M 79.07016306316243 101.71520430193888 l -17.222337395662276 1.4113739767600006 a38.28007181328546,38.28007181328546 0 0,0 -0.04816624913730374,-0.6571902012153603 l 17.244080203463916 -1.1147106390478796" fill="#00b034" stroke="none" /><path d="M 79.04373962182676 101.35467743843564 l -19.896533267487637 1.286173402799608 a40.93806104129264,40.93806104129264 0 0,0 -0.03940512386826195,-0.703604957532802 l 19.91572474224343 -0.9434967289313685" fill="#00b941" stroke="none" /><path d="M 79.0095281055655 100.63252640178507 l -28.401829415509525 0.8558600804524571 a49.41472172351885,49.41472172351885 0 0,0 -0.01830212419063476,-0.8504277943226891 l 28.412353602385167 -0.3668424703396392" fill="#00d671" stroke="none" /><line stroke="#e1ed5e" stroke-width="0.3" x1="15.007084014347285" x2="10.007500721073583" y1="101.09737516637583" y2="101.16192664675087" /><path d="M 14.007167355692545 101.11028546245083 a86.0,86.0 0 0,1 10.666146001902534,-42.60595125391555" fill="none" id="id22" stroke="none" /><text fill="#e1ed5e" style="font-size:6.75px; font-family:Arial;" text-anchor="middle"><textPath startOffset="22.20632615414155" xlink:href="#id22">October</textPath></text><path d="M 79.00019446554 99.90962569577889 l -19.139858664860903 -0.08236987751571881 a40.14003590664273,40.14003590664273 0 0,0 0.008920631517663992,-0.6909127419239094 l 19.135605026225523 0.41181887750010016" fill="#00b73d" stroke="none" /><path d="M 79.00486145842228 99.54816195383935 l -6.91671081217147 -0.14885508342994425 a27.91831238779174,27.91831238779174 0 0,0 0.014475386455286949,-0.4803676047249401 l 6.913123731260538 0.26789283557987875" fill="#008d0b" stroke="none" /><path d="M 79.01574976396665 99.18683210126434 l -8.344724285962993 -0.323369281095058 a29.350987432675044,29.350987432675044 0 0,0 0.023909023321761542,-0.5046816938850761 l 8.337921654407733 0.46696208160314323" fill="#009210" stroke="none" /><path d="M 79.03285615573316 98.82574320788736 l -17.347143246378767 -0.9715200569094741 a38.37432675044883,38.37432675044883 0 0,0 0.04261269621066688,-0.6591995495532187 l 17.327849959163686 1.2699786707157046" fill="#00b035" stroke="none" /><path d="M 79.21141760316559 97.0276538004421 l -15.582106195113768 -2.2279255625052508 a36.740574506283664,36.740574506283664 0 0,0 0.09490283993429083,-0.6252911399890598 l 15.541447461740175 2.4958158148864027" fill="#00ab2d" stroke="none" /><path d="M 79.26566170972629 96.67025291283419 l -26.755485899702393 -4.2966889028732975 a48.098294434470375,48.098294434470375 0 0,0 0.1383126888071373,-0.8163293187721409 l 26.677561349375033 4.756604009961266" fill="#00d269" stroke="none" /><path d="M 79.32604984820605 96.31383870115002 l -19.028447237258572 -3.392768448612372 a40.32854578096948,40.32854578096948 0 0,0 0.12773447754234235,-0.6823626866682251 l 18.96722703580637 3.71980921274317" fill="#00b73e" stroke="none" /><path d="M 79.3925641242962 95.95851677861259 l -19.88599063409478 -3.8999950296153196 a41.26481149012567,41.26481149012567 0 0,0 0.1426990316356166,-0.6958511567848402 l 19.81591230654417 4.241721842563562" fill="#00ba43" stroke="none" /><path d="M 79.46518482838121 95.60439243477599 l -14.63305276218138 -3.13229785056283 a35.96454219030521,35.96454219030521 0 0,0 0.1347910161561454,-0.6042416955657716 l 14.576967359023197 3.3837177156785607" fill="#00a82a" stroke="none" /><path d="M 79.54389044137918 95.25157060432595 l -21.156954724528095 -4.911114962940559 a42.71947935368043,42.71947935368043 0 0,0 0.17243860186321086,-0.7148693305097519 l 21.06928332240407 5.274569525109707" fill="#00bf4a" stroke="none" /><path d="M 79.71946130924805 94.55025226153421 l -43.54975640759467 -11.702607613734209 a66.09470377019748,66.09470377019748 0 0,0 0.3047067485929785,-1.0961922965253896 l 43.34186288843533 12.45051121367854" fill="#10ffe2" stroke="none" /><path d="M 79.91906864156998 93.8553929516997 l -19.52212626676815 -5.973617085555865 a41.41561938958708,41.41561938958708 0 0,0 0.21446292833146874,-0.6799060900908146 l 19.416407854668478 6.308773342073094" fill="#00bb44" stroke="none" /><path d="M 80.803312248108 91.48605970444005 l -25.245195293107532 -11.196519329439242 a48.61669658886894,48.61669658886894 0 0,0 0.3458677060606069,-0.7620736438027819 l 25.048725270083573 11.629414982084096" fill="#00d36c" stroke="none" /><path d="M 80.95270993114464 91.15688171328213 l -23.53554289028672 -10.926887182825093 a46.948384201077204,46.948384201077204 0 0,0 0.34661725155935175,-0.7300643302039987 l 23.343967444885617 11.330393928669624" fill="#00ce62" stroke="none" /><path d="M 81.10775173730289 90.83032412892265 l -18.637864309429197 -9.046206267786353 a41.717235188509875,41.717235188509875 0 0,0 0.3191169581096028,-0.6433203147682209 l 18.47938733836618 9.365686171053536" fill="#00bc45" stroke="none" /><path d="M 81.43458229118936 90.18545643968196 l -25.051092506846672 -13.243173005761287 a49.336175942549374,49.336175942549374 0 0,0 0.4033629440413431,-0.7473702750942821 l 24.819421463586856 13.672424264188042" fill="#00d671" stroke="none" /><path d="M 81.6062741919709 89.86733742301443 l -11.450672215321536 -6.307900805331683 a34.07315978456015,34.07315978456015 0 0,0 0.28741904251699424,-0.5112864055591355 l 11.34039553151211 6.504070720825603" fill="#00a222" stroke="none" /><line stroke="#e1ed5e" stroke-width="0.3" x1="26.266209847984243" x2="21.928928074336255" y1="57.711370442889674" y2="55.22380399835377" /><path d="M 25.398753493254645 57.213857153982495 a86.0,86.0 0 0,1 29.58750427330803,-30.492523968695096" fill="none" id="id23" stroke="none" /><text fill="#e1ed5e" style="font-size:6.75px; font-family:Arial;" text-anchor="middle"><textPath startOffset="21.46611528233685" xlink:href="#id23">November</textPath></text><path d="M 81.78341655067845 89.55222093294921 l -18.619942867409453 -10.679118280384648 a42.46499102333932,42.46499102333932 0 0,0 0.36912253738167083,-0.6309500692137641 l 18.433360655557458 10.998047761952304" fill="#00be49" stroke="none" /><path d="M 81.96595687620814 89.24020034530311 l -10.873308466319752 -6.487431569184394 a33.66157989228007,33.66157989228007 0 0,0 0.30116566983265586,-0.49503717502384864 l 10.76002699820088 6.673636517415317" fill="#00a020" stroke="none" /><path d="M 82.15384107792192 88.93136811851018 l -17.48838134943319 -10.846729327312735 a41.57899461400359,41.57899461400359 0 0,0 0.38247211120301167,-0.6049790290469886 l 17.299081641984216 11.146156004073939" fill="#00bb44" stroke="none" /><path d="M 82.34701348167596 88.62581576622439 l -8.477870545155621 -5.462467293599594 a31.085278276481148,31.085278276481148 0 0,0 0.2936868476613909,-0.447305217684764 l 8.382587062136311 5.607590575262025" fill="#009816" stroke="none" /><path d="M 82.54541684631803 88.32363383020206 l -25.813667635270235 -17.26823452849381 a52.05700179533214,52.05700179533214 0 0,0 0.5046443788651468,-0.740503356138911 l 25.512598790736348 17.710015907903138" fill="#00df82" stroke="none" /><path d="M 82.7489923806493 88.02491185347247 l -14.796016828278534 -10.27091342405939 a39.01149012567325,39.01149012567325 0 0,0 0.3876764605654106,-0.5483408603650923 l 14.617027747909244 10.524080784756269" fill="#00b338" stroke="none" /><path d="M 82.95767976084542 87.72973835380427 l -13.180006250783642 -9.48944292362582 a37.240754039497304,37.240754039497304 0 0,0 0.37903530840116706,-0.5170037346907492 l 13.01470832986884 9.71490910198807" fill="#00ad2f" stroke="none" /><path d="M 83.39014120810768 87.1503855733568 l -15.219739849913791 -11.774199359278729 a40.24245960502694,40.24245960502694 0 0,0 0.42857437512029667,-0.5442459339935658 l 15.014811394199523 12.034437687225342" fill="#00b73e" stroke="none" /><path d="M 83.84228863543731 86.58626213691792 l -22.013068705562652 -18.274712706283367 a49.61014362657092,49.61014362657092 0 0,0 0.5511199986408755,-0.6523522461948436 l 21.695238093434654 18.650923902107326" fill="#00d772" stroke="none" /><path d="M 84.31358615837235 86.03803664274999 l -14.774189266486925 -13.150022130894083 a40.77877019748654,40.77877019748654 0 0,0 0.4712013293465242,-0.520312276809134 l 14.545644296524355 13.402387194972773" fill="#00b940" stroke="none" /><path d="M 84.5562425177563 85.77008943001954 l -35.56962600009761 -32.77392807877128 a69.36660682226211,69.36660682226211 0 0,0 0.8166519985947764,-0.8711474126869625 l 35.000206679532376 33.38134490833629" fill="#1bfff3" stroke="none" /><path d="M 85.05521093208273 85.24692304244772 l -22.36352188170386 -22.076642089981746 a52.4245960502693,52.4245960502693 0 0,0 0.6394906999413842,-0.6367445236463607 l 21.980195381595163 22.45832246427822" fill="#00e085" stroke="none" /><path d="M 85.31137513191541 84.99185889309783 l -11.812432135088015 -12.069383614275973 a37.88797127468582,37.88797127468582 0 0,0 0.4700214944088889,-0.45216030522380435 l 11.602927397066699 12.27092700626209" fill="#00af32" stroke="none" /><path d="M 85.57189188830299 84.74124197986013 l -21.601364554841897 -22.84499063185842 a52.44061938958708,52.44061938958708 0 0,0 0.6612315515846315,-0.6145426635801094 l 21.20492511946241 23.213437881513176" fill="#00e085" stroke="none" /><path d="M 86.10567301691215 84.25364557470407 l -10.886176088828956 -12.337235710627215 a37.45345601436266,37.45345601436266 0 0,0 0.48708433807774953,-0.4223947381722516 l 10.672197952104431 12.522795442219149" fill="#00ad30" stroke="none" /><path d="M 86.37877921826538 84.01681056812374 l -32.40746012590287 -38.02703021250932 a70.96297127468583,70.96297127468583 0 0,0 0.9365167925603014,-0.7843058809881295 l 31.748085796383464 38.57923725089126" fill="#21fffb" stroke="none" /><path d="M 86.65592168130627 83.78471172551755 l -4.817364001048468 -5.853903441999722 a28.581238779174146,28.581238779174146 0 0,0 0.3825756707448742,-0.30934958605448387 l 4.715884931739094 5.93595912531834" fill="#008f0d" stroke="none" /><path d="M 86.93701828274178 83.55741782278169 l -20.135245622141888 -25.344552872116566 a53.3693447037702,53.3693447037702 0 0,0 0.7242155139547254,-0.5652616959577946 l 19.695997553027738 25.687392957297583" fill="#00e48b" stroke="none" /><path d="M 87.22198572758235 83.33499621200491 l -10.00026820152854 -13.042285280520996 a37.43491921005386,37.43491921005386 0 0,0 0.5147369955069994,-0.38768923339882494 l 9.774285052263151 13.212491103425675" fill="#00ad30" stroke="none" /><path d="M 87.51073957382395 83.11751280151077 l -20.585604744940376 -27.826804528090353 a55.61355475763016,55.61355475763016 0 0,0 0.7744973601468746,-0.5627052699745904 l 20.10356206843972 28.17702903288161" fill="#00eb9b" stroke="none" /><path d="M 87.80319425747018 82.90503203632743 l -4.550992447915827 -6.378643043297336 a28.83572710951526,28.83572710951526 0 0,0 0.4065409935519399,-0.2848079463064834 l 4.440520314780227 6.456035832367761" fill="#00900e" stroke="none" /><path d="M 88.09926311788651 82.69761687909137 l -13.901997841942267 -20.211999911438443 a45.53141831238779,45.53141831238779 0 0,0 0.6495713896858811,-0.43859350194011676 l 13.552021757849845 20.448305325677225" fill="#00c95a" stroke="none" /><path d="M 88.39885842347998 82.49532879139004 l -17.964065726658028 -27.10552767940052 a53.51795332136445,53.51795332136445 0 0,0 0.7722716461386075,-0.502306960781939 l 17.494827054735136 27.410733564341996" fill="#00e48c" stroke="none" /><path d="M 88.70189139769569 82.29822771554957 l -2.5826421504280015 -4.046459885309965 a25.8004039497307,25.8004039497307 0 0,0 0.37641664910747813,-0.2357120711385741 l 2.512606348948281 4.090316297771469" fill="#008605" stroke="none" /><path d="M 89.00827224532344 82.1063720568725 l -15.566351971905641 -25.34073958468824 a50.7399461400359,50.7399461400359 0 0,0 0.7481434325251658,-0.4507480470624163 l 15.127846473162826 25.604934241209275" fill="#00db7a" stroke="none" /><line stroke="#e1ed5e" stroke-width="0.3" x1="56.762969772571076" x2="54.21961505331055" y1="26.818313649435495" y2="22.513508569990535" /><path d="M 56.25429882871897 25.957352633546506 a86.0,86.0 0 0,1 42.265352541879196,-11.944610805530505" fill="none" id="id24" stroke="none" /><text fill="#e1ed5e" style="font-size:6.75px; font-family:Arial;" text-anchor="middle"><textPath startOffset="22.20632615414155" xlink:href="#id24">December</textPath></text><path d="M 89.3179101791058 81.91981866633112 l -10.819531431396435 -18.31281083616671 a42.27019748653501,42.27019748653501 0 0,0 0.629631233005922,-0.36472305004103905 l 10.502703465925192 18.4963380435978" fill="#00be48" stroke="none" /><path d="M 89.63071344664047 81.73862282372117 l -11.43196777553955 -20.13286780550549 a44.15215439856374,44.15215439856374 0 0,0 0.664123904289429,-0.36958423370537496 l 11.083719782178076 20.326667436771054" fill="#00c452" stroke="none" /><path d="M 90.26544431104013 81.39251694778311 l -6.559610835289538 -12.53861515068595 a35.1508078994614,35.1508078994614 0 0,0 0.5385430378301782,-0.27586266110168933 l 6.342807309870596 12.649670337100144" fill="#00a626" stroke="none" /><path d="M 90.58718382345135 81.22770947309562 l -28.23844852964592 -56.31687158071317 a84.0,84.0 0 0,0 1.298114931958296,-0.6369793594606814 l 27.264862330677197 56.79460610030868" fill="#4dd2ff" stroke="none" /><path d="M 91.23893434514133 80.91482961587045 l -10.564660260048013 -23.01413424537466 a46.32315978456015,46.32315978456015 0 0,0 0.7275336393366066,-0.32642313687377283 l 10.166944502244633 23.192577712764958" fill="#00cc5e" stroke="none" /><path d="M 91.56875222667455 80.76684994638697 l -5.712914596856814 -13.032156881031323 a35.229353680430876,35.229353680430876 0 0,0 0.557489830026522,-0.23868805101036483 l 5.487741009039984 13.128564460004473" fill="#00a626" stroke="none" /><path d="M 92.23578459929587 80.48803036053334 l -11.043446411504226 -27.752886798684855 a50.86938958707361,50.86938958707361 0 0,0 0.8163733655730462,-0.31674018272113724 l 10.564089880931503 27.93886968529654" fill="#00db7b" stroke="none" /><path d="M 92.57280143429618 80.3572730644239 l -4.068069112663325 -10.758830537274708 a32.50224416517056,32.50224416517056 0 0,0 0.5250159844229159,-0.19336781785511598 l 3.8822708024678403 10.827261622936147" fill="#009c1b" stroke="none" /><path d="M 92.91201910852362 80.23233633223022 l -6.7497005347467365 -18.82423387871854 a40.99775583482945,40.99775583482945 0 0,0 0.6663462790212733,-0.23247513269835943 l 6.424672251662178 18.93762986458911" fill="#00b941" stroke="none" /><path d="M 93.94186890950719 79.89281104454417 l -12.370043854435341 -41.05668983603546 a63.87971274685817,63.87971274685817 0 0,0 1.0555659624846496,-0.30814864997382035 l 11.66148767422727 41.263536814927974" fill="#08ffd5" stroke="none" /><path d="M 94.98787191387505 79.60689891045804 l -3.7703441078749615 -15.340591304341256 a36.797127468581685,36.797127468581685 0 0,0 0.6163979919651109,-0.1458814896777557 l 3.5057224289473163 15.403218706159883" fill="#00ab2d" stroke="none" /><path d="M 96.04723909329186 79.375362276772 l -4.29753343941473 -22.423585029128954 a43.831687612208256,43.831687612208256 0 0,0 0.7422267602473871,-0.1356371962411549 l 3.91091155806445 22.494237706720845" fill="#00c350" stroke="none" /><path d="M 96.75951476605007 79.25152402106235 l -7.463684945640188 -47.78916632192475 a69.36849192100539,69.36849192100539 0 0,0 1.1813487853255331,-0.17410010236534507 l 6.639967179886006 47.91056090845107" fill="#1bfff3" stroke="none" /><path d="M 97.83486435360386 79.11191278185805 l -1.654236193748628 -15.959198654339808 a37.044703770197486,37.044703770197486 0 0,0 0.6348313362514125,-0.060284884759187495 l 1.379279730406979 15.985309083614174" fill="#00ac2e" stroke="none" /><path d="M 98.19473922651362 79.07773832637324 l -0.8834542175454746 -10.23888658504386 a31.27692998204668,31.27692998204668 0 0,0 0.5367863053408084,-0.041664948371313425 l 0.7070777228423321 10.252576795603636" fill="#009817" stroke="none" /><path d="M 98.55514903715128 79.0497635885617 l -1.2170124058704768 -17.646593506343155 a38.688509874326755,38.688509874326755 0 0,0 0.664775363642861,-0.040101065357705995 l 0.9130749933879927 17.66492784108117" fill="#00b236" stroke="none" /></svg>