<?xml version="1.0" encoding="utf-8" ?>
<svg baseProfile="full" height="200mm" version="1.1" viewBox="0,0,200,200" width="200mm" xmlns="http://www.w3.org/2000/svg" xmlns:ev="http://www.w3.org/2001/xml-events" xmlns:xlink="http://www.w3.org/1999/xlink"><defs /><rect fill="#1a1a1a" height="200" width="200" x="0" y="0" /><text alignment-baseline="middle" fill="#e1ed5e" style="dominant-baseline: central; font-size:9.0px; font-family:Arial;" text-anchor="middle" x="100.0" y="100.0">2024</text><line stroke="#e1ed5e" stroke-width="0.3" x1="100.0" x2="100.0" y1="15.0" y2="10.0" /><path d="M 100.0 14.0 a86.0,86.0 0 0,1 42.35913384403234,11.155469271406648" fill="none" id="id25" stroke="none" /><text fill="#e1ed5e" style="font-size:6.75px; font-family:Arial;" text-anchor="middle"><textPath startOffset="22.145653131862478" xlink:href="#id25">January</textPath></text><path d="M 100.0 79.0 l 0.0 -18.40746466431095 a39.40746466431095,39.40746466431095 0 0,0 0.6764815332245404,0.005806780357357207 l -0.3159886083756856 18.404752282148028" fill="#00a92b" stroke="none" /><path d="M 101.08105385017728 79.02784411241856 l 1.1479631570483422 -22.27017856591508 a43.299746024734986,43.299746024734986 0 0,0 0.7419837218205164,0.04463589819660374 l -1.530091231001321 22.247190689893785" fill="#00b83f" stroke="none" /><path d="M 101.44090949804482 79.04949213459386 l 2.917937200159437 -42.426166491131085 a63.526391342756185,63.526391342756185 0 0,0 1.0873026046966077,0.08416409818578902 l -3.645808799631278 42.36982462595024" fill="#02ffcb" stroke="none" /><path d="M 102.15924093988457 79.11130261209362 l 2.1963171287264465 -21.24737588214438 a42.36058966431095,42.36058966431095 0 0,0 0.7226799268449036,0.08097779316904923 l -2.5607329571721467 21.20654232846836" fill="#00b43a" stroke="none" /><path d="M 102.87502721639298 79.19773525538626 l 3.2463108216901966 -23.488687957823302 a44.71195892226149,44.71195892226149 0 0,0 0.7594111060319656,0.1116072808290193 l -3.649047033329844 23.429499603695398" fill="#00bd46" stroke="none" /><path d="M 103.94208987418118 79.37332000966035 l 4.645754657928288 -24.30855147933966 a45.748509275618375,45.748509275618375 0 0,0 0.7701075624119387,0.15404308060256 l -5.062358705871183 24.22521900207424" fill="#00c14c" stroke="none" /><path d="M 104.64783097203109 79.52079915486377 l 6.72385529644205 -29.626547070685703 a51.37996908127208,51.37996908127208 0 0,0 0.8584561472598684,0.2025933132984251 l -7.231443597441803 29.50675761374105" fill="#00d56f" stroke="none" /><path d="M 104.9986988182912 79.60360301121754 l 5.31801720017961 -21.69932495455219 a43.341486307420496,43.341486307420496 0 0,0 0.721108852359846,0.18330305039564151 l -5.689731345764851 21.60483667232128" fill="#00b83f" stroke="none" /><path d="M 105.3480935250658 79.69241777938227 l 2.7602682349997307 -10.481188085155395 a31.838560070671377,31.838560070671377 0 0,0 0.527335398097026,0.14372760770769982 l -2.9397850340314498 10.432259983303553" fill="#008e0c" stroke="none" /><path d="M 105.69591212413111 79.78721728523813 l 4.904044482315622 -17.402723810401756 a39.080499116607776,39.080499116607776 0 0,0 0.6441582609687302,0.18750508170491376 l -5.202062755665957 17.315975034394327" fill="#00a82a" stroke="none" /><path d="M 106.04205211174951 79.88797359093562 l 4.276339775867764 -14.23454430972816 a35.863018992932865,35.863018992932865 0 0,0 0.5880841201770985,0.1821899637010055 l -4.5200645289164925 14.159037758220506" fill="#009c1b" stroke="none" /><path d="M 106.38641147887787 79.99465700312896 l 3.6050502959390123 -11.292768705830907 a32.85424028268551,32.85424028268551 0 0,0 0.5358014413655903,0.1761285761457772 l -3.798374474952345 11.229219208283109" fill="#009110" stroke="none" /><path d="M 106.72888874123014 80.10723608172694 l 10.291722388999403 -30.425648523851603 a53.11914752650177,53.11914752650177 0 0,0 0.8612744346029998,0.29959595684091195 l -10.812502595647421 30.2444941344421" fill="#00db7b" stroke="none" /><path d="M 108.07796709384702 80.6158196554323 l 8.854900545563098 -21.248537795994206 a44.01976590106007,44.01976590106007 0 0,0 0.6950195415238215,0.296662513859936 l -9.21835516225735 21.093400632474868" fill="#00ba43" stroke="none" /><path d="M 109.06512990194946 81.05736502329252 l 13.013606591242706 -27.193432642964407 a51.14691916961131,51.14691916961131 0 0,0 0.7887335978523871,0.3858091266542228 l -13.478500438357159 26.966029766212966" fill="#00d46e" stroke="none" /><path d="M 109.3889696526874 81.21577127319529 l 7.2127939348217955 -14.430419528752248 a37.13261925795053,37.13261925795053 0 0,0 0.5677272966762877,0.2898856029000564 l -7.459448453211662 14.304475974179358" fill="#00a121" stroke="none" /><path d="M 109.71004243097381 81.37971332152246 l 12.641497378664006 -24.24173806749671 a48.3398851590106,48.3398851590106 0 0,0 0.7324901000566895,0.3900097206112235 l -13.055776294507256 24.021157879162914" fill="#00ca5c" stroke="none" /><path d="M 110.02825361518725 81.54914285379988 l 7.1507782376404245 -13.156626548320146 a35.97432641342756,35.97432641342756 0 0,0 0.5400531180477406,0.2995583609129736 l -7.375575543844265 13.031935271974026" fill="#009d1c" stroke="none" /><path d="M 110.34350942703115 81.72400993836675 l 14.333116143972386 -25.32524285373628 a50.09993374558304,50.09993374558304 0 0,0 0.7448369845269561,0.43003183351902724 l -14.76574559635974 25.07546412294108" fill="#00d067" stroke="none" /><line stroke="#e1ed5e" stroke-width="0.3" x1="143.13028292997686" x2="145.6673583964461" y1="26.7553504044142" y2="22.446841604673864" /><path d="M 143.63769802327073 25.89364864446614 a86.0,86.0 0 0,1 29.32050498858742,28.57503671076993" fill="none" id="id26" stroke="none" /><text fill="#e1ed5e" style="font-size:6.75px; font-family:Arial;" text-anchor="middle"><textPath startOffset="20.669276256404974" xlink:href="#id26">February</textPath></text><path d="M 110.65571695917076 81.90426304109057 l 11.106961156812318 -18.862048257909187 a42.88929991166078,42.88929991166078 0 0,0 0.6312227474704036,0.37903112335334277 l -11.429116660840155 18.66860313401992" fill="#00b63c" stroke="none" /><path d="M 110.96478420261332 82.08984904055464 l 9.534858170890006 -15.574474249738532 a39.26137367491166,39.26137367491166 0 0,0 0.5717874487037738,0.3568376572080163 l -9.800809748383493 15.40850079568897" fill="#00a92a" stroke="none" /><path d="M 111.27062007382361 82.28071324371311 l 33.81186022147082 -53.157860268860695 a84.0,84.0 0 0,0 1.2100574709719707,0.7843446331844213 l -34.719403324699805 52.56960179397238" fill="#4dd2ff" stroke="none" /><path d="M 111.8722381534696 82.67804972795209 l 11.993503836905546 -17.498880528249813 a42.21449867491166,42.21449867491166 0 0,0 0.5942291919972694,0.41481812617883956 l -12.292128120076576 17.290417586265846" fill="#00b439" stroke="none" /><path d="M 112.45986205192187 83.09580414077388 l 11.662546453524266 -15.822484121105363 a40.65619478798587,40.65619478798587 0 0,0 0.5582424880655907,0.4189155702841938 l -11.932441930500623 15.619949523557153" fill="#00ae31" stroke="none" /><path d="M 112.7482090630111 83.31218511350987 l 4.284361117852727 -5.608366233108734 a28.05758613074205,28.05758613074205 0 0,0 0.38023380906427595,0.29567210975201424 l -4.380004871552229 5.53399307173593" fill="#008000" stroke="none" /><path d="M 113.03279911837588 83.53348406188908 l 20.919973982362077 -26.43170372508275 a54.708756625441694,54.708756625441694 0 0,0 0.7314019655911593,0.5891656502516581 l -21.370626718308493 26.06868978103768" fill="#00e186" stroke="none" /><line stroke="#e1ed5e" stroke-width="0.3" x1="172.87174338648825" x2="177.1583165268699" y1="56.24261187166439" y2="53.66864786411523" /><path d="M 173.72905801456457 55.72781907015455 a86.0,86.0 0 0,1 12.242430191666344,42.057860355516425" fill="none" id="id27" stroke="none" /><text fill="#e1ed5e" style="font-size:6.75px; font-family:Arial;" text-anchor="middle"><textPath startOffset="22.145653131862474" xlink:href="#id27">March</textPath></text><line stroke="#e1ed5e" stroke-width="0.3" x1="184.99686870605535" x2="189.99668451229388" y1="99.2704041080226" y2="99.22748670261217" /><path d="M 185.99683186730306 99.26182062694052 a86.0,86.0 0 0,1 -10.086455211305974,41.156179273409016" fill="none" id="id28" stroke="none" /><text fill="#e1ed5e" style="font-size:6.75px; font-family:Arial;" text-anchor="middle"><textPath startOffset="21.40746469413373" xlink:href="#id28">April</textPath></text><line stroke="#e1ed5e" stroke-width="0.3" x1="174.33088141563837" x2="178.70328620479359" y1="141.23008692659167" y2="143.65538615756765" /><path d="M 175.20536237346943 141.71514677278685 a86.0,86.0 0 0,1 -30.301960400862466,31.631185727798858" fill="none" id="id29" stroke="none" /><text fill="#e1ed5e" style="font-size:6.75px; font-family:Arial;" text-anchor="middle"><textPath startOffset="22.145653131862474" xlink:href="#id29">May</textPath></text><line stroke="#e1ed5e" stroke-width="0.3" x1="143.1302829299769" x2="145.66735839644613" y1="173.24464959558577" y2="177.55315839532614" /><path d="M 143.63769802327073 174.10635135553383 a86.0,86.0 0 0,1 -40.68552437913181,11.842963189579606" fill="none" id="id30" stroke="none" /><text fill="#e1ed5e" style="font-size:6.75px; font-family:Arial;" text-anchor="middle"><textPath startOffset="21.407464694133747" xlink:href="#id30">June</textPath></text><line stroke="#e1ed5e" stroke-width="0.3" x1="101.45913802915013" x2="101.54496967792366" y1="184.9874750549273" y2="189.98673829345242" /><path d="M 101.47630435890484 185.9873277026323 a86.0,86.0 0 0,1 -42.54439059252881,-10.42667462771756" fill="none" id="id31" stroke="none" /><text fill="#e1ed5e" style="font-size:6.75px; font-family:Arial;" text-anchor="middle"><textPath startOffset="22.145653131862474" xlink:href="#id31">July</textPath></text><line stroke="#e1ed5e" stroke-width="0.3" x1="58.13341422392154" x2="55.67067388415222" y1="173.97424548756322" y2="178.32567169271397" /><path d="M 57.64086615596768 174.84453072859336 a86.0,86.0 0 0,1 -31.369924170532247,-30.572349798747897" fill="none" id="id32" stroke="none" /><text fill="#e1ed5e" style="font-size:6.75px; font-family:Arial;" text-anchor="middle"><textPath startOffset="22.145653131862474" xlink:href="#id32">August</textPath></text><line stroke="#e1ed5e" stroke-width="0.3" x1="26.387840678322732" x2="22.057713659400548" y1="142.50000000000003" y2="145.00000000000006" /><path d="M 25.521815274538298 143.00000000000003 a86.0,86.0 0 0,1 -11.493303480769221,-40.785679425670985" fill="none" id="id33" stroke="none" /><text fill="#e1ed5e" style="font-size:6.75px; font-family:Arial;" text-anchor="middle"><textPath startOffset="21.40746469413373" xlink:href="#id33">September</textPath></text><line stroke="#e1ed5e" stroke-width="0.3" x1="15.003131293944662" x2="10.003315487706104" y1="100.72959589197737" y2="100.7725132973878" /><path d="M 14.003168132696942 100.73817937305945 a86.0,86.0 0 0,1 10.791469493833604,-42.45332614584628" fill="none" id="id34" stroke="none" /><text fill="#e1ed5e" style="font-size:6.75px; font-family:Arial;" text-anchor="middle"><textPath startOffset="22.145653131862435" xlink:href="#id34">October</textPath></text><line stroke="#e1ed5e" stroke-width="0.3" x1="26.387840678322718" x2="22.05771365940052" y1="57.49999999999999" y2="54.99999999999999" /><path d="M 25.521815274538284 56.99999999999999 a86.0,86.0 0 0,1 29.574782752854787,-30.34633250058573" fill="none" id="id35" stroke="none" /><text fill="#e1ed5e" style="font-size:6.75px; font-family:Arial;" text-anchor="middle"><textPath startOffset="21.40746469413373" xlink:href="#id35">November</textPath></text><line stroke="#e1ed5e" stroke-width="0.3" x1="56.869717070023135" x2="54.33264160355391" y1="26.7553504044142" y2="22.446841604673864" /><path d="M 56.362301976729285 25.89364864446614 a86.0,86.0 0 0,1 42.16139366436587,-11.88097634709845" fill="none" id="id36" stroke="none" /><text fill="#e1ed5e" style="font-size:6.75px; font-family:Arial;" text-anchor="middle"><textPath startOffset="22.145653131862474" xlink:href="#id36">December</textPath></text></svg>