<?xml version="1.0" encoding="utf-8" ?>
<svg baseProfile="full" height="200mm" version="1.1" viewBox="0,0,200,200" width="200mm" xmlns="http://www.w3.org/2000/svg" xmlns:ev="http://www.w3.org/2001/xml-events" xmlns:xlink="http://www.w3.org/1999/xlink"><defs /><rect fill="#1a1a1a" height="200" width="200" x="0" y="0" /><text alignment-baseline="middle" fill="#e1ed5e" style="dominant-baseline: central; font-size:9.0px; font-family:Arial;" text-anchor="middle" x="100.0" y="100.0">2024</text><line stroke="#e1ed5e" stroke-width="0.3" x1="100.0" x2="100.0" y1="15.0" y2="10.0" /><path d="M 100.0 14.0 a86.0,86.0 0 0,1 42.35913384403234,11.155469271406648" fill="none" id="id25" stroke="none" /><text fill="#e1ed5e" style="font-size:6.75px; font-family:Arial;" text-anchor="middle"><textPath startOffset="22.145653131862478" xlink:href="#id25">January</textPath></text><path d="M 100.0 79.0 l 0.0 -14.905709303885189 a35.90570930388519,35.90570930388519 0 0,0 0.6163692459871576,0.005290788668564148 l -0.25587632113830283 14.90351291341106" fill="#00a222" stroke="none" /><path d="M 101.08105385017728 79.02784411241856 l 0.9295796799060926 -18.033597450970355 a39.0575401260786,39.0575401260786 0 0,0 0.6692893526753506,0.040262785464873406 l -1.2390133847139055 18.01498268768079" fill="#00ae31" stroke="none" /><path d="M 101.44090949804482 79.04949213459386 l 2.3628416224477005 -34.35519861793563 a55.4363571332767,55.4363571332767 0 0,0 0.9488355033529905,0.0734458688146402 l -2.9522461205759245 34.30957498212593" fill="#00e793" stroke="none" /><path d="M 102.15924093988457 79.11130261209362 l 1.778499389077364 -17.205368264738187 a38.29704475343139,38.29704475343139 0 0,0 0.6533550576162875,0.0732097969741431 l -2.073590348294448 17.172302707257074" fill="#00ab2d" stroke="none" /><path d="M 102.87502721639298 79.19773525538626 l 2.628746886147129 -19.02030295936404 a40.201099834577725,40.201099834577725 0 0,0 0.6827963351406211,0.10034754788252571 l -2.954868326895432 18.972374338182636" fill="#00b236" stroke="none" /><path d="M 103.94208987418118 79.37332000966035 l 3.7619666635846185 -19.68419923967452 a41.040461394017974,41.040461394017974 0 0,0 0.6908546351531637,0.13819027554312607 l -4.099317784268739 19.616719567468532" fill="#00b53a" stroke="none" /><path d="M 104.64783097203109 79.52079915486377 l 5.444738549164324 -23.990522669301182 a45.60061698037287,45.60061698037287 0 0,0 0.7618947746683742,0.1798050922898188 l -5.855765477572583 23.893521433365137" fill="#00c553" stroke="none" /><path d="M 104.9986988182912 79.60360301121754 l 4.306340927690487 -17.571340527422063 a39.09133992041848,39.09133992041848 0 0,0 0.6503955832819546,0.16532801391812918 l -4.607341804197835 17.494827281668666" fill="#00ae31" stroke="none" /><path d="M 105.3480935250658 79.69241777938227 l 2.2351669098365954 -8.48729282417555 a29.776679930254392,29.776679930254392 0 0,0 0.4931849094360539,0.13441974016267424 l -2.380533220207342 8.447672589868732" fill="#008d0b" stroke="none" /><path d="M 105.69591212413111 79.78721728523813 l 3.971120564389527 -14.092105944203364 a35.64094424822283,35.64094424822283 0 0,0 0.5874645714660846,0.17100237495337742 l -4.212445148237216 14.02185987494747" fill="#00a121" stroke="none" /><path d="M 106.04205211174951 79.88797359093562 l 3.4628276487913845 -11.526627019170935 a33.03554343452407,33.03554343452407 0 0,0 0.5417189918978326,0.16782592844079802 l -3.6601872735608474 11.46548450292349" fill="#009817" stroke="none" /><path d="M 106.38641147887787 79.99465700312896 l 2.9192413358987532 -9.144481906380358 a30.599141592524703,30.599141592524703 0 0,0 0.4990242972827124,0.1640391983988338 l -3.075788370829208 9.093021786579502" fill="#00900e" stroke="none" /><path d="M 106.72888874123014 80.10723608172694 l 8.333870251243221 -24.637606566101848 a47.008941744534354,47.008941744534354 0 0,0 0.7622034917279017,0.26513394016735564 l -8.75557951501614 24.490914193365903" fill="#00ca5b" stroke="none" /><path d="M 108.07796709384702 80.6158196554323 l 7.170383094793172 -17.206309141192254 a39.64058657844146,39.64058657844146 0 0,0 0.6258775290038573,0.2671499001533691 l -7.464695698967459 17.080684591379484" fill="#00b033" stroke="none" /><path d="M 109.06512990194946 81.05736502329252 l 10.53795513839978 -22.020273261026126 a45.41190146197523,45.41190146197523 0 0,0 0.7002942309515062,0.34254900054981036 l -10.914409618613353 21.836130510379096" fill="#00c452" stroke="none" /><path d="M 109.3889696526874 81.21577127319529 l 5.840663644990047 -11.685239795446897 a34.063620512361965,34.063620512361965 0 0,0 0.5208048226856372,0.2659266533445662 l -6.040395689389263 11.583255190429497" fill="#009c1b" stroke="none" /><path d="M 109.71004243097381 81.37971332152246 l 10.236634350711427 -19.630096118321653 a43.13886529261859,43.13886529261859 0 0,0 0.6536794957327737,0.3480475128336805 l -10.57210266223076 19.4514781377654" fill="#00bc45" stroke="none" /><path d="M 110.02825361518725 81.54914285379988 l 5.790445542099672 -10.653767605989827 a33.12567621943041,33.12567621943041 0 0,0 0.4972886642587951,0.2758376392760648 l -5.972478394514567 10.552797051280617" fill="#009917" stroke="none" /><path d="M 110.34350942703115 81.72400993836675 l 11.606446979909146 -20.50747970522965 a44.56408995395002,44.56408995395002 0 0,0 0.662535454598571,0.3825150230601561 l -11.956774902368116 20.305217784893323" fill="#00c14d" stroke="none" /><line stroke="#e1ed5e" stroke-width="0.3" x1="143.13028292997686" x2="145.6673583964461" y1="26.7553504044142" y2="22.446841604673864" /><path d="M 143.63769802327073 25.89364864446614 a86.0,86.0 0 0,1 29.32050498858742,28.57503671076993" fill="none" id="id26" stroke="none" /><text fill="#e1ed5e" style="font-size:6.75px; font-family:Arial;" text-anchor="middle"><textPath startOffset="20.669276256404974" xlink:href="#id26">February</textPath></text><path d="M 110.65571695917076 81.90426304109057 l 8.994021570715102 -15.273814908000677 a38.725175481736485,38.725175481736485 0 0,0 0.5699372970461871,0.34223097124761476 l -9.254891624318724 15.117169936217142" fill="#00ac2f" stroke="none" /><path d="M 110.96478420261332 82.08984904055464 l 7.720988563113505 -12.61165456302876 a35.78741002369562,35.78741002369562 0 0,0 0.521193986807463,0.3252635951084551 l -7.936346678710681 12.47725517107876" fill="#00a222" stroke="none" /><path d="M 111.27062007382361 82.28071324371311 l 27.37964019901102 -43.045342030205425 a72.01515625698573,72.01515625698573 0 0,0 1.0374104506188029,0.6724369204536221 l -28.11453628188683 42.56899126804791" fill="#23fffe" stroke="none" /><path d="M 111.8722381534696 82.67804972795209 l 9.711912258864993 -14.169970229698247 a38.17874547324183,38.17874547324183 0 0,0 0.537420217843707,0.37516105021238116 l -9.953727567882462 14.00116436368074" fill="#00aa2c" stroke="none" /><path d="M 112.45986205192187 83.09580414077388 l 9.44391475683961 -12.81248412399787 a36.91688648455314,36.91688648455314 0 0,0 0.5068987560257822,0.3803862765672167 l -9.662466501776157 12.648478820166638" fill="#00a627" stroke="none" /><path d="M 112.7482090630111 83.31218511350987 l 3.4693230458509667 -4.541455233784833 a26.714981892967316,26.714981892967316 0 0,0 0.3620389607613573,0.28152368566110864 l -3.5467719512475497 4.481230496502934" fill="#008202" stroke="none" /><path d="M 113.03279911837588 83.53348406188908 l 16.940249866702818 -21.403452312276958 a48.29615057897796,48.29615057897796 0 0,0 0.6456717652311642,0.5201074693641113 l -17.30517240228924 21.109496549119438" fill="#00ce63" stroke="none" /><path d="M 113.31354834802062 83.75963576809568 l 6.248147583903629 -7.621724117776177 a30.855456699602094,30.855456699602094 0 0,0 0.4067420164574399,0.3393186564099029 l -6.378063934522961 7.513343277454404" fill="#00910f" stroke="none" /><path d="M 113.59037401385872 83.9905735841838 l 25.82395877690391 -30.420558505772085 a60.9034738677516,60.9034738677516 0 0,0 0.7912246392785256,0.6834409985817742 l -26.342362895945296 29.97277337472559" fill="#00fbbd" stroke="none" /><path d="M 113.86319453409587 84.22622945171908 l 9.905115207644569 -11.270202849379773 a36.004292037376494,36.004292037376494 0 0,0 0.46074345023370117,0.41199963428407377 l -10.097123684701646 11.098507685212311" fill="#00a323" stroke="none" /><path d="M 114.39649973595853 84.71141617570332 l 15.615571158138764 -16.5831954290366 a43.7782447355479,43.7782447355479 0 0,0 0.5426991250088178,0.519893485407583 l -15.897942769012893 16.312689813323438" fill="#00be49" stroke="none" /><path d="M 114.91283532996326 85.21462403516908 l 20.93210824805277 -20.753202414980404 a50.476237313899944,50.476237313899944 0 0,0 0.6047851207819581,0.6205628125834514 l -21.28528016998554 20.390816910329214" fill="#00d671" stroke="none" /><path d="M 115.16444852881244 85.47280134310134 l 12.571841063610188 -12.043539352388423 a38.409710734564314,38.409710734564314 0 0,0 0.4520350445678725,0.48004555254038167 l -12.77673194191432 11.825952339903548" fill="#00ab2d" stroke="none" /><path d="M 115.41159269507618 85.73525988315684 l 41.381232283640635 -38.30185081581121 a77.38650690749765,77.38650690749765 0 0,0 0.894006880932136,0.9826701690988716 l -42.032636865414645 37.58584307115466" fill="#36e9ff" stroke="none" /><path d="M 115.8921839302757 86.27271002978787 l 12.863950912399595 -11.111574413675973 a37.99847990342916,37.99847990342916 0 0,0 0.4221548542826555,0.4972973568516891 l -13.052800330189362 10.889110274374733" fill="#00aa2c" stroke="none" /><path d="M 116.1254893667686 86.54754324733833 l 27.913743340749615 -23.28663748153775 a57.35167881253633,57.35167881253633 0 0,0 0.624186124505228,0.761405580652185 l -28.30937628449347 22.80402961918707" fill="#00eea1" stroke="none" /><path d="M 116.35404254752997 86.82634096563983 l 17.554620982860783 -14.14076003737441 a43.54164617516878,43.54164617516878 0 0,0 0.46389180545299086,0.5861121420401879 l -17.794779218955334 13.837327951419544" fill="#00bd47" stroke="none" /><path d="M 116.57777611688842 87.10902102172516 l 20.64754714822182 -16.05565754802972 a47.15540752000715,47.15540752000715 0 0,0 0.49142227108597236,0.6432875277183665 l -20.920121396662097 15.698849107070473" fill="#00ca5c" stroke="none" /><path d="M 117.01052211995028 87.68569379921539 l 50.76690584669563 -36.75132480086623 a83.67326865471453,83.67326865471453 0 0,0 0.8322896418388656,1.1707196117337597 l -51.39031058706445 35.87442796242296" fill="#4cd3ff" stroke="none" /><path d="M 117.21940702142032 87.97951657250589 l 10.563987264627782 -7.374483551306575 a33.88335494254929,33.88335494254929 0 0,0 0.3288464518295585,0.47979680091460686 l -10.689023453272664 7.19205201532192" fill="#009b1a" stroke="none" /><path d="M 117.42321728460499 88.27688183743584 l 9.354648203640247 -6.294224796093934 a32.27504806187687,32.27504806187687 0 0,0 0.3053458705978084,0.46233256593269184 l -9.46131851315878 6.1327123518221835" fill="#009614" stroke="none" /><path d="M 117.62189284568427 88.57770195909679 l 23.122677745249145 -14.987840354203449 a48.55528233558367,48.55528233558367 0 0,0 0.44736133857358945,0.7033263289809899 l -23.376556775448623 14.588700350543787" fill="#00cf64" stroke="none" /><line stroke="#e1ed5e" stroke-width="0.3" x1="172.87174338648825" x2="177.1583165268699" y1="56.24261187166439" y2="53.66864786411523" /><path d="M 173.72905801456457 55.72781907015455 a86.0,86.0 0 0,1 12.242430191666344,42.057860355516425" fill="none" id="id27" stroke="none" /><text fill="#e1ed5e" style="font-size:6.75px; font-family:Arial;" text-anchor="middle"><textPath startOffset="22.145653131862474" xlink:href="#id27">March</textPath></text><path d="M 118.00360718960297 89.18935116829356 l 33.51679721800277 -20.125873713607383 a60.0950954531229,60.0950954531229 0 0,0 0.5234748976493924,0.8889748187523732 l -33.85734582578193 19.547547726561454" fill="#00f8b6" stroke="none" /><path d="M 118.18653347947321 89.5 l 9.957181964037597 -5.748781687307194 a32.49756337461439,32.49756337461439 0 0,0 0.27478490349689777,0.4855185950981011 l -10.05440023255587 5.577006322109976" fill="#009615" stroke="none" /><path d="M 118.36410011445183 89.81374322990088 l 38.04514110535472 -21.102998444711094 a64.50596861447669,64.50596861447669 0 0,0 0.5288096416451905,0.9729501795559252 l -38.40179609661526 20.446793431680565" fill="#08ffd5" stroke="none" /><path d="M 118.53625476483649 90.13048839642627 l 14.305576507828833 -7.616913725617633 a37.2070013859704,37.2070013859704 0 0,0 0.29533842422282475,0.5663503702781705 l -14.434223001026602 7.370217112234964" fill="#00a728" stroke="none" /><path d="M 118.70294669586156 90.45014215332178 l 9.83102536340342 -5.0197915993828355 a32.038449501497745,32.038449501497745 0 0,0 0.2459028605339423,0.4919704448637806 l -9.915748137149098 4.850289298355304" fill="#009513" stroke="none" /><path d="M 118.8641267826498 90.77261029715802 l 23.383859220089807 -11.43821732467459 a47.031474940760944,47.031474940760944 0 0,0 0.3485272871200487,0.7282879838178017 l -23.576765765169768 11.035116838791684" fill="#00ca5b" stroke="none" /><path d="M 119.4528033332814 92.08871423366111 l 58.358409999844184 -23.733857299016663 a84.0,84.0 0 0,0 0.5317653001355023,1.3403959311457387 l -58.75723397494581 22.728560350657357" fill="#4dd2ff" stroke="none" /><path d="M 119.58574465831526 92.42381321644754 l 4.80208448635047 -1.8575494398444876 a26.1488353377744,26.1488353377744 0 0,0 0.15834902423588387,0.4200395997814867 l -4.833264194400794 1.7748415598688432" fill="#008000" stroke="none" /><path d="M 119.83427380445688 93.10060997987247 l 14.078281884899967 -4.897157238768929 a35.90570930388519,35.90570930388519 0 0,0 0.19750632730397666,0.583892362099729 l -14.160273633776308 4.6547632021950385" fill="#00a222" stroke="none" /><line stroke="#e1ed5e" stroke-width="0.3" x1="184.99686870605535" x2="189.99668451229388" y1="99.2704041080226" y2="99.22748670261217" /><path d="M 185.99683186730306 99.26182062694052 a86.0,86.0 0 0,1 -10.086455211305974,41.156179273409016" fill="none" id="id28" stroke="none" /><text fill="#e1ed5e" style="font-size:6.75px; font-family:Arial;" text-anchor="middle"><textPath startOffset="21.40746469413373" xlink:href="#id28">April</textPath></text><line stroke="#e1ed5e" stroke-width="0.3" x1="174.33088141563837" x2="178.70328620479359" y1="141.23008692659167" y2="143.65538615756765" /><path d="M 175.20536237346943 141.71514677278685 a86.0,86.0 0 0,1 -30.301960400862466,31.631185727798858" fill="none" id="id29" stroke="none" /><text fill="#e1ed5e" style="font-size:6.75px; font-family:Arial;" text-anchor="middle"><textPath startOffset="22.145653131862474" xlink:href="#id29">May</textPath></text><line stroke="#e1ed5e" stroke-width="0.3" x1="143.1302829299769" x2="145.66735839644613" y1="173.24464959558577" y2="177.55315839532614" /><path d="M 143.63769802327073 174.10635135553383 a86.0,86.0 0 0,1 -40.68552437913181,11.842963189579606" fill="none" id="id30" stroke="none" /><text fill="#e1ed5e" style="font-size:6.75px; font-family:Arial;" text-anchor="middle"><textPath startOffset="21.407464694133747" xlink:href="#id30">June</textPath></text><line stroke="#e1ed5e" stroke-width="0.3" x1="101.45913802915013" x2="101.54496967792366" y1="184.9874750549273" y2="189.98673829345242" /><path d="M 101.47630435890484 185.9873277026323 a86.0,86.0 0 0,1 -42.54439059252881,-10.42667462771756" fill="none" id="id31" stroke="none" /><text fill="#e1ed5e" style="font-size:6.75px; font-family:Arial;" text-anchor="middle"><textPath startOffset="22.145653131862474" xlink:href="#id31">July</textPath></text><line stroke="#e1ed5e" stroke-width="0.3" x1="58.13341422392154" x2="55.67067388415222" y1="173.97424548756322" y2="178.32567169271397" /><path d="M 57.64086615596768 174.84453072859336 a86.0,86.0 0 0,1 -31.369924170532247,-30.572349798747897" fill="none" id="id32" stroke="none" /><text fill="#e1ed5e" style="font-size:6.75px; font-family:Arial;" text-anchor="middle"><textPath startOffset="22.145653131862474" xlink:href="#id32">August</textPath></text><line stroke="#e1ed5e" stroke-width="0.3" x1="26.387840678322732" x2="22.057713659400548" y1="142.50000000000003" y2="145.00000000000006" /><path d="M 25.521815274538298 143.00000000000003 a86.0,86.0 0 0,1 -11.493303480769221,-40.785679425670985" fill="none" id="id33" stroke="none" /><text fill="#e1ed5e" style="font-size:6.75px; font-family:Arial;" text-anchor="middle"><textPath startOffset="21.40746469413373" xlink:href="#id33">September</textPath></text><line stroke="#e1ed5e" stroke-width="0.3" x1="15.003131293944662" x2="10.003315487706104" y1="100.72959589197737" y2="100.7725132973878" /><path d="M 14.003168132696942 100.73817937305945 a86.0,86.0 0 0,1 10.791469493833604,-42.45332614584628" fill="none" id="id34" stroke="none" /><text fill="#e1ed5e" style="font-size:6.75px; font-family:Arial;" text-anchor="middle"><textPath startOffset="22.145653131862435" xlink:href="#id34">October</textPath></text><line stroke="#e1ed5e" stroke-width="0.3" x1="26.387840678322718" x2="22.05771365940052" y1="57.49999999999999" y2="54.99999999999999" /><path d="M 25.521815274538284 56.99999999999999 a86.0,86.0 0 0,1 29.574782752854787,-30.34633250058573" fill="none" id="id35" stroke="none" /><text fill="#e1ed5e" style="font-size:6.75px; font-family:Arial;" text-anchor="middle"><textPath startOffset="21.40746469413373" xlink:href="#id35">November</textPath></text><line stroke="#e1ed5e" stroke-width="0.3" x1="56.869717070023135" x2="54.33264160355391" y1="26.7553504044142" y2="22.446841604673864" /><path d="M 56.362301976729285 25.89364864446614 a86.0,86.0 0 0,1 42.16139366436587,-11.88097634709845" fill="none" id="id36" stroke="none" /><text fill="#e1ed5e" style="font-size:6.75px; font-family:Arial;" text-anchor="middle"><textPath startOffset="22.145653131862474" xlink:href="#id36">December</textPath></text></svg>