<?xml version="1.0" encoding="utf-8" ?>
<svg baseProfile="full" height="200mm" version="1.1" viewBox="0,0,200,200" width="200mm" xmlns="http://www.w3.org/2000/svg" xmlns:ev="http://www.w3.org/2001/xml-events" xmlns:xlink="http://www.w3.org/1999/xlink"><defs /><rect fill="#1a1a1a" height="200" width="200" x="0" y="0" /><text alignment-baseline="middle" fill="#e1ed5e" style="dominant-baseline: central; font-size:9.0px; font-family:Arial;" text-anchor="middle" x="100.0" y="100.0">2024</text><line stroke="#e1ed5e" stroke-width="0.3" x1="100.0" x2="100.0" y1="15.0" y2="10.0" /><path d="M 100.0 14.0 a86.0,86.0 0 0,1 42.35913384403234,11.155469271406648" fill="none" id="id25" stroke="none" /><text fill="#e1ed5e" style="font-size:6.75px; font-family:Arial;" text-anchor="middle"><textPath startOffset="22.145653131862478" xlink:href="#id25">January</textPath></text><path d="M 100.0 79.0 l 0.0 -14.862385321100916 a35.862385321100916,35.862385321100916 0 0,0 0.6156255322123955,0.005284404780273511 l -0.2551326073635407 14.860195314515078" fill="#00a222" stroke="none" /><path d="M 101.08105385017728 79.02784411241856 l 0.9268778229714235 -17.981182148244656 a39.00505523310241,39.00505523310241 0 0,0 0.6683899724293885,0.04020868098263449 l -1.2354121475332742 17.96262148943733" fill="#00ad30" stroke="none" /><path d="M 101.44090949804482 79.04949213459386 l 2.355973937878929 -34.255343991555264 a55.336266616738435,55.336266616738435 0 0,0 0.9471223778780945,0.07331326206832052 l -2.943665310532257 34.209852962491894" fill="#00e792" stroke="none" /><path d="M 102.15924093988457 79.11130261209362 l 1.773330116328019 -17.155360240074486 a38.24677026774012,38.24677026774012 0 0,0 0.6524973650787319,0.07311369073633456 l -2.0675633830075477 17.122390788831183" fill="#00ab2d" stroke="none" /><path d="M 102.87502721639298 79.19773525538626 l 2.6211063383195956 -18.965019761418656 a40.14529114398053,40.14529114398053 0 0,0 0.6818484513870531,0.10020824161292097 l -2.9462798953143308 18.917230446506853" fill="#00b136" stroke="none" /><path d="M 103.94208987418118 79.37332000966035 l 3.7510323715193845 -19.626986403197183 a40.98221306871372,40.98221306871372 0 0,0 0.6898741119290213,0.13799414343714314 l -4.0874029689793625 19.55970286309718" fill="#00b43a" stroke="none" /><path d="M 104.64783097203109 79.52079915486377 l 5.428913219798256 -23.920793348145057 a45.5291143980528,45.5291143980528 0 0,0 0.7607001100464371,0.17952315469194477 l -5.838745483584577 23.824074049806885" fill="#00c452" stroke="none" /><path d="M 104.9986988182912 79.60360301121754 l 4.293824392152936 -17.52026879115063 a39.038756787118515,39.038756787118515 0 0,0 0.6495207133562103,0.1651056254041572 l -4.59395039873454 17.443977933911206" fill="#00ad30" stroke="none" /><path d="M 105.3480935250658 79.69241777938227 l 2.228670316434194 -8.46262420085121 a29.75117019284778,29.75117019284778 0 0,0 0.492762397001421,0.1343045825197857 l -2.373614114370308 8.423119124187282" fill="#008d0b" stroke="none" /><path d="M 105.69591212413111 79.78721728523813 l 3.9595783589527787 -14.051146728987641 a35.59838981464145,35.59838981464145 0 0,0 0.5867631528416576,0.1707982022143913 l -4.200201524176041 13.981104832470733" fill="#00a121" stroke="none" /><path d="M 106.04205211174951 79.88797359093562 l 3.4527628150835366 -11.493124461167264 a33.00056169256693,33.00056169256693 0 0,0 0.5411453590158607,0.16764821550763348 l -3.649548806971027 11.432159657852985" fill="#009817" stroke="none" /><path d="M 106.38641147887787 79.99465700312896 l 2.9107564554545426 -9.117903139237766 a30.571241340572925,30.571241340572925 0 0,0 0.4985692876680751,0.1638896277008632 l -3.06684848077036 9.066592590134881" fill="#00900e" stroke="none" /><path d="M 106.72888874123014 80.10723608172694 l 8.309647556171804 -24.565996472214053 a46.933345815390375,46.933345815390375 0 0,0 0.7609777785121674,0.2647075734845344 l -8.73013110672899 24.419730466160928" fill="#00c95b" stroke="none" /><path d="M 108.07796709384702 80.6158196554323 l 7.149542117190415 -17.15629838183714 a39.58640703988017,39.58640703988017 0 0,0 0.6250220987833633,0.2667847678592654 l -7.442999291144209 17.031038964318473" fill="#00af33" stroke="none" /><path d="M 109.06512990194946 81.05736502329252 l 10.507326190948184 -21.95627054097999 a45.340947388129564,45.340947388129564 0 0,0 0.6992000523996956,0.3420137829901333 l -10.882686492609947 21.772663007892636" fill="#00c451" stroke="none" /><path d="M 109.3889696526874 81.21577127319529 l 5.823687545024221 -11.651276223676708 a34.025650627223364,34.025650627223364 0 0,0 0.5202242942802721,0.26563023140435815 l -6.022839061018072 11.549588040599515" fill="#009c1b" stroke="none" /><path d="M 109.71004243097381 81.37971332152246 l 10.206881203018986 -19.573040534521823 a43.074517880546715,43.074517880546715 0 0,0 0.6527044449615136,0.3475283532179376 l -10.54137446376706 19.39494171358131" fill="#00bc45" stroke="none" /><path d="M 110.02825361518725 81.54914285379988 l 5.773615402864782 -10.622802045415717 a33.09043250327654,33.09043250327654 0 0,0 0.4967595791945815,0.2755441647097253 l -5.955119170215464 10.522124965272846" fill="#009917" stroke="none" /><path d="M 110.34350942703115 81.72400993836675 l 11.572712422304892 -20.447873974325812 a44.49560007489234,44.49560007489234 0 0,0 0.6615172138310883,0.38192714147895007 l -11.922022103996378 20.24619993557069" fill="#00c14d" stroke="none" /><line stroke="#e1ed5e" stroke-width="0.3" x1="143.13028292997686" x2="145.6673583964461" y1="26.7553504044142" y2="22.446841604673864" /><path d="M 143.63769802327073 25.89364864446614 a86.0,86.0 0 0,1 29.32050498858742,28.57503671076993" fill="none" id="id26" stroke="none" /><text fill="#e1ed5e" style="font-size:6.75px; font-family:Arial;" text-anchor="middle"><textPath startOffset="20.669276256404974" xlink:href="#id26">February</textPath></text><path d="M 110.65571695917076 81.90426304109057 l 8.967880121975764 -15.229421012974706 a38.67365661861075,38.67365661861075 0 0,0 0.5691790688075411,0.34177567697597466 l -9.227991947340739 15.073231335462811" fill="#00ac2f" stroke="none" /><path d="M 110.96478420261332 82.08984904055464 l 7.698547230818188 -12.574998333255955 a35.74442988204456,35.74442988204456 0 0,0 0.5205680406614347,0.3248729584185566 l -7.913279400269335 12.440989577995852" fill="#00a222" stroke="none" /><path d="M 111.27062007382361 82.28071324371311 l 27.300060285272043 -42.92022918793542 a71.8668788616364,71.8668788616364 0 0,0 1.0352744485947705,0.6710523897480886 l -28.032820366123822 42.44526295648343" fill="#22fffd" stroke="none" /><path d="M 111.8722381534696 82.67804972795209 l 9.683684234895964 -14.128784699122717 a38.128814828683765,38.128814828683765 0 0,0 0.5367173729088393,0.374670409862155 l -9.924796698978565 13.960469473455435" fill="#00aa2c" stroke="none" /><path d="M 112.45986205192187 83.09580414077388 l 9.416465677295648 -12.775244175848123 a36.870623478749295,36.870623478749295 0 0,0 0.5062635274806611,0.3799095892244773 l -9.634382193687076 12.611715559359629" fill="#00a627" stroke="none" /><path d="M 112.7482090630111 83.31218511350987 l 3.459239333036822 -4.528255330019588 a26.698371091555888,26.698371091555888 0 0,0 0.3618138527188177,0.281348640285676 l -3.5364631303908656 4.468205638113122" fill="#008202" stroke="none" /><path d="M 113.03279911837588 83.53348406188908 l 16.891012418244394 -21.34124240461028 a48.21681333083692,48.21681333083692 0 0,0 0.6446111046931771,0.5192530763149289 l -17.254874293292833 21.048141034501942" fill="#00ce62" stroke="none" /><path d="M 113.31354834802062 83.75963576809568 l 6.229987117142876 -7.59957130117865 a30.826811458528365,30.826811458528365 0 0,0 0.4063644098891862,0.3390036435806227 l -6.359525861193956 7.491505473686157" fill="#00910f" stroke="none" /><path d="M 113.59037401385872 83.9905735841838 l 25.74890050744063 -30.332140053075676 a60.78749297884291,60.78749297884291 0 0,0 0.7897178789714002,0.6821394949154271 l -26.265797866174893 29.88565642569553" fill="#00fabc" stroke="none" /><path d="M 113.86319453409587 84.22622945171908 l 9.876325632322558 -11.237445597492774 a35.96068152031455,35.96068152031455 0 0,0 0.46018537065594595,0.4115005960843556 l -10.06777602980188 11.066249471525031" fill="#00a323" stroke="none" /><path d="M 114.39649973595853 84.71141617570332 l 15.570183936220694 -16.534995772205214 a43.712038944017976,43.712038944017976 0 0,0 0.5418784017168985,0.5191072510594362 l -15.851734823802904 16.265276390840196" fill="#00be48" stroke="none" /><path d="M 114.91283532996326 85.21462403516908 l 20.87126831894314 -20.69288248214026 a50.39056356487549,50.39056356487549 0 0,0 0.6037586138272226,0.6195095260175658 l -21.223413733921173 20.33155026405495" fill="#00d670" stroke="none" /><path d="M 115.16444852881244 85.47280134310134 l 12.535300553212307 -12.008534370007041 a38.359108781127134,38.359108781127134 0 0,0 0.4514395218253226,0.47941312802499697 l -12.739595908773891 11.791579782037548" fill="#00ab2d" stroke="none" /><path d="M 115.41159269507618 85.73525988315684 l 41.26095623648996 -38.19052510218567 a77.22261748736192,77.22261748736192 0 0,0 0.8921135499734398,0.9805890667124982 l -41.910467487305276 37.4765984599155" fill="#35eaff" stroke="none" /><path d="M 115.8921839302757 86.27271002978787 l 12.826561374169357 -11.079278221070185 a37.94907320726456,37.94907320726456 0 0,0 0.4216059566248292,0.4966507567909532 l -13.014861894301298 10.857460681829679" fill="#00aa2b" stroke="none" /><path d="M 116.1254893667686 86.54754324733833 l 27.832611036926675 -23.218954028118276 a57.24602134431754,57.24602134431754 0 0,0 0.6230362030560568,0.7600028634588082 l -28.22709405922136 22.73774888296097" fill="#00eea0" stroke="none" /><path d="M 116.35404254752997 86.82634096563983 l 17.503597842549862 -14.099659407278525 a43.47612806590526,43.47612806590526 0 0,0 0.46319377686046015,0.5852302057163205 l -17.743058050051882 13.797109257647527" fill="#00bd47" stroke="none" /><path d="M 116.57777611688842 87.10902102172516 l 20.587534306232893 -16.008991199114703 a47.07938588279349,47.07938588279349 0 0,0 0.4906300241820438,0.6422504510896568 l -20.85931630776924 15.653219834784165" fill="#00ca5c" stroke="none" /><path d="M 117.01052211995028 87.68569379921539 l 50.61935000013557 -36.64450574713915 a83.49110653435686,83.49110653435686 0 0,0 0.8304776934311282,1.1681708793817611 l -51.240942792096654 35.77015764104789" fill="#4bd4ff" stroke="none" /><path d="M 117.21940702142032 87.97951657250589 l 10.533282653860509 -7.353049348350774 a33.84590900580416,33.84590900580416 0 0,0 0.3284830296284527,0.47926655706218946 l -10.657955420304285 7.171148056218536" fill="#009b1a" stroke="none" /><path d="M 117.42321728460499 88.27688183743584 l 9.327458580559256 -6.275930404250718 a32.24227672720464,32.24227672720464 0 0,0 0.30503582948812635,0.4618631241763541 l -9.433818848968105 6.114887401735306" fill="#009614" stroke="none" /><path d="M 117.62189284568427 88.57770195909679 l 23.055470846728706 -14.944277654553213 a48.475191911627036,48.475191911627036 0 0,0 0.44662342999712323,0.7021662141354282 l -23.308611968351716 14.546297765739112" fill="#00cf64" stroke="none" /><line stroke="#e1ed5e" stroke-width="0.3" x1="172.87174338648825" x2="177.1583165268699" y1="56.24261187166439" y2="53.66864786411523" /><path d="M 173.72905801456457 55.72781907015455 a86.0,86.0 0 0,1 12.242430191666344,42.057860355516425" fill="none" id="id27" stroke="none" /><text fill="#e1ed5e" style="font-size:6.75px; font-family:Arial;" text-anchor="middle"><textPath startOffset="22.145653131862474" xlink:href="#id27">March</textPath></text><path d="M 118.00360718960297 89.18935116829356 l 33.41937943559116 -20.067377134309446 a59.98146414529114,59.98146414529114 0 0,0 0.522485080813451,0.8872938933703155 l -33.758938226534376 19.490732072645574" fill="#00f7b5" stroke="none" /><path d="M 118.18653347947321 89.5 l 9.928241054806435 -5.73207264557199 a32.46414529114398,32.46414529114398 0 0,0 0.27450233508597993,0.4850193237911914 l -10.02517675491379 5.5607965516816815" fill="#009615" stroke="none" /><path d="M 118.36410011445183 89.81374322990088 l 37.93456152778011 -21.041661817068903 a64.37951694439244,64.37951694439244 0 0,0 0.5277730110235758,0.9710428959702943 l -38.29017988841903 20.387364087624004" fill="#08ffd4" stroke="none" /><path d="M 118.53625476483649 90.13048839642627 l 14.263996832705113 -7.594774890598767 a37.15989515072084,37.15989515072084 0 0,0 0.29496450854105954,0.5656333376557551 l -14.392269410221116 7.348795309838514" fill="#00a728" stroke="none" /><path d="M 118.70294669586156 90.45014215332178 l 9.802451132891298 -5.005201393683893 a32.00636584909193,32.00636584909193 0 0,0 0.2456566107301683,0.49147778030002864 l -9.886927656833203 4.8361917572201145" fill="#009513" stroke="none" /><path d="M 118.8641267826498 90.77261029715802 l 23.31589318817364 -11.4049717326431 a46.95581351806778,46.95581351806778 0 0,0 0.34796659727512874,0.7271163576875261 l -23.50823904340868 11.00304287289047" fill="#00c95b" stroke="none" /><path d="M 119.4528033332814 92.08871423366111 l 58.188789172105935 -23.664873985035157 a83.81688822317918,83.81688822317918 0 0,0 0.5306061038383657,1.3374739992338875 l -58.586453950910425 22.662498968587705" fill="#4cd3ff" stroke="none" /><path d="M 119.58574465831526 92.42381321644754 l 4.788127054243496 -1.8521504052657187 a26.133870061786183,26.133870061786183 0 0,0 0.15825839928760055,0.41979920633927365 l -4.8192161373455376 1.7696829187322873" fill="#008000" stroke="none" /><path d="M 119.83427380445688 93.10060997987247 l 14.037362849812212 -4.88292347427112 a35.862385321100916,35.862385321100916 0 0,0 0.1972680153226847,0.5831878350723032 l -14.119116286707262 4.6412339647246545" fill="#00a222" stroke="none" /><path d="M 119.94978838288452 93.4421083053983 l 17.446126492588583 -5.734888302217406 a39.36453847594083,39.36453847594083 0 0,0 0.20551154114794615,0.6437619755754731 l -17.542002749513788 5.434557292950546" fill="#00af32" stroke="none" /><path d="M 120.26092885502905 94.47779374421319 l 20.002430899487052 -5.45175148851449 a41.73207264557199,41.73207264557199 0 0,0 0.18244967888974656,0.6927911484370017 l -20.093070059181528 5.10757983570469" fill="#00b73e" stroke="none" /><path d="M 120.35273937422433 94.82641323984039 l 35.567074839247496 -9.04101134017247 a57.69818386070024,57.69818386070024 0 0,0 0.23577256536211877,0.9620325242626386 l -35.71703493112591 8.429122991301737" fill="#00efa4" stroke="none" /><path d="M 120.51834098615036 95.52812308129327 l 32.09712393545896 -6.995418770978234 a53.85058977719528,53.85058977719528 0 0,0 0.1890983696965872,0.9049041533785996 l -32.212480015979914 6.44339816631423" fill="#00e287" stroke="none" /><path d="M 120.592083275326 95.88100663000786 l 11.533373198847903 -2.306997650724459 a32.76184235161955,32.76184235161955 0 0,0 0.10557692112388355,0.5524230638805431 l -11.571276412253942 2.1086720218106016" fill="#009716" stroke="none" /><path d="M 120.65975698304385 96.23510406497455 l 25.90578910433003 -4.720897742048322 a47.33242838419771,47.33242838419771 0 0,0 0.13880839240840784,0.800609920516863 l -25.98301231423067 4.275494788610867" fill="#00cb5d" stroke="none" /><path d="M 120.7213421655516 96.59031103205396 l 23.27998757992744 -3.830713097202816 a44.59305373525557,44.59305373525557 0 0,0 0.11780743248714948,0.7564082259173487 l -23.34231650455285 3.4305166893540258" fill="#00c14d" stroke="none" /><path d="M 120.77682067341334 96.94652285012252 l 62.330462020240034 -9.160431449632455 a84.0,84.0 0 0,0 0.19742193377914985,1.4284467671996575 l -62.478528470574396 8.089096374232712" fill="#4dd2ff" stroke="none" /><path d="M 120.86939407059847 97.66154086499901 l 43.94534964014244 -4.92416808840566 a65.22037071709417,65.22037071709417 0 0,0 0.1151220525686422,1.1137014282943187 l -44.023404085192745 4.169062137828409" fill="#0bffd9" stroke="none" /><path d="M 120.9064616781168 98.02013634271609 l 22.455699436675193 -2.126578083755819 a43.5561692566935,43.5561692566935 0 0,0 0.06410301908992534,0.7449742501879791 l -22.488896078462858 1.740782786192178" fill="#00bd47" stroke="none" /><path d="M 120.96210409425399 98.7389718711861 l 25.25298013762003 -1.5191565763976398 a46.29863321475379,46.29863321475379 0 0,0 0.04091566870471245,0.7937530421626828 l -25.275337395781314 1.0854317408582264" fill="#00c757" stroke="none" /><path d="M 120.98066250479742 99.09900007780936 l 21.49862734530155 -0.9232435611074299 a42.51844223928103,42.51844223928103 0 0,0 0.02505614433893029,0.7294823037764413 l -21.51130817663733 0.5540549927668688" fill="#00ba42" stroke="none" /><path d="M 120.99303781780057 99.45929381324524 l 62.206480719101194 -1.6022182817456947 a83.2271110278974,83.2271110278974 0 0,0 0.02452650806864571,1.42854613547574 l -62.224818658768505 0.534125230300888" fill="#4ad4ff" stroke="none" /><line stroke="#e1ed5e" stroke-width="0.3" x1="184.99686870605535" x2="189.99668451229388" y1="99.2704041080226" y2="99.22748670261217" /><path d="M 185.99683186730306 99.26182062694052 a86.0,86.0 0 0,1 -10.086455211305974,41.156179273409016" fill="none" id="id28" stroke="none" /><text fill="#e1ed5e" style="font-size:6.75px; font-family:Arial;" text-anchor="middle"><textPath startOffset="21.40746469413373" xlink:href="#id28">April</textPath></text><path d="M 120.99922638620191 100.18025310272382 l 14.083922262658486 0.12089353387005983 a35.0844411158959,35.0844411158959 0 0,0 -0.010339164936581616,0.602204523891724 l -14.079771666123236 -0.36264497373085486" fill="#00a01f" stroke="none" /><path d="M 120.99303781780057 100.54070618675476 l 33.7212637052455 0.8685401354897901 a54.73244710728328,54.73244710728328 0 0,0 -0.03225386497053391,0.9390360865633488 l -33.70138515327812 -1.4472824866172498" fill="#00e58e" stroke="none" /><path d="M 120.96210409425399 101.26102812881392 l 22.42155141437444 1.348824855464958 a43.462085751731884,43.462085751731884 0 0,0 -0.051194278142955615,0.7443535685989613 l -22.395093175066418 -1.7335218482182628" fill="#00bd47" stroke="none" /><path d="M 120.93736805541906 101.62068470465957 l 25.797198477355202 1.9968663150331152 a46.874368095862195,46.874368095862195 0 0,0 -0.06898651934169991,0.8017279255999851 l -25.759118335315762 -2.4394152880087576" fill="#00c95a" stroke="none" /><path d="M 120.82617615685814 102.69636545807757 l 9.62570743816055 1.2462405412464346 a30.706047556637333,30.706047556637333 0 0,0 -0.0721672296112639,0.5221661234018763 l -9.602895691994076 -1.411294972848396" fill="#00900e" stroke="none" /><path d="M 120.77682067341334 103.0534771498775 l 21.46480590875412 3.1545872873998437 a42.69537539786557,42.69537539786557 0 0,0 -0.11279408188905259,0.7242189187425195 l -21.407490334726802 -3.5225943880738138" fill="#00ba43" stroke="none" /><path d="M 120.7213421655516 103.40968896794604 l 16.679829686047977 2.744659627419584 a37.904137801909755,37.904137801909755 0 0,0 -0.11115872592048155,0.6411339918274502 l -16.63025614263526 -3.030586652167622" fill="#00a92b" stroke="none" /><path d="M 120.65975698304385 103.76489593502545 l 27.682096077930332 5.0446000445368675 a49.13798914061037,49.13798914061037 0 0,0 -0.15834999594971902,0.8285540911481418 l -27.591419789698453 -5.519056700718323" fill="#00d168" stroke="none" /><path d="M 120.592083275326 104.11899336999214 l 13.827379854683695 2.76586322929501 a35.10129189290395,35.10129189290395 0 0,0 -0.12325950558118638,0.5898413546492689 l -13.777862638278144 -3.002821035229688" fill="#00a01f" stroke="none" /><path d="M 120.51834098615036 104.47187691870673 l 46.68448059450828 10.174665260378944 a68.78037820632841,68.78037820632841 0 0,0 -0.2613298628009982,1.1514675940968653 l -46.50293987014962 -10.974567188414827" fill="#17ffed" stroke="none" /><path d="M 120.35273937422433 105.17358676015961 l 14.10216688927384 3.584715677158762 a35.55064594645197,35.55064594645197 0 0,0 -0.1554249172414746,0.5901737266225302 l -14.038552491227636 -3.8262699081540954" fill="#00a121" stroke="none" /><path d="M 120.16314734710363 105.8691983318838 l 15.216604766323298 4.429331878302655 a36.8481557760719,36.8481557760719 0 0,0 -0.18200125324636604,0.605822979357567 l -15.138327193073303 -4.689892461250945" fill="#00a626" stroke="none" /><path d="M 119.94978838288452 106.5578916946017 l 16.659063131935024 5.476164942505812 a38.536041939711666,38.536041939711666 0 0,0 -0.21197498280645027,0.6266663711811933 l -16.56260272755621 -5.761332988161166" fill="#00ac2e" stroke="none" /><path d="M 119.71291397450082 107.23885506374661 l 11.845042727075219 4.349663760319564 a33.61842351619547,33.61842351619547 0 0,0 -0.20358247284719555,0.540026696279969 l -11.768629570413582 -4.552358736793693" fill="#009a19" stroke="none" /><path d="M 119.58574465831526 107.57618678355244 l 22.976723479115943 8.887890237959997 a45.635835985770456,45.635835985770456 0 0,0 -0.2888994526179498,0.7282153436876335 l -22.82076535153187 -9.281006598861195" fill="#00c553" stroke="none" /><line stroke="#e1ed5e" stroke-width="0.3" x1="174.33088141563837" x2="178.70328620479359" y1="141.23008692659167" y2="143.65538615756765" /><path d="M 175.20536237346943 141.71514677278685 a86.0,86.0 0 0,1 -30.301960400862466,31.631185727798858" fill="none" id="id29" stroke="none" /><text fill="#e1ed5e" style="font-size:6.75px; font-family:Arial;" text-anchor="middle"><textPath startOffset="22.145653131862474" xlink:href="#id29">May</textPath></text><line stroke="#e1ed5e" stroke-width="0.3" x1="143.1302829299769" x2="145.66735839644613" y1="173.24464959558577" y2="177.55315839532614" /><path d="M 143.63769802327073 174.10635135553383 a86.0,86.0 0 0,1 -40.68552437913181,11.842963189579606" fill="none" id="id30" stroke="none" /><text fill="#e1ed5e" style="font-size:6.75px; font-family:Arial;" text-anchor="middle"><textPath startOffset="21.407464694133747" xlink:href="#id30">June</textPath></text><line stroke="#e1ed5e" stroke-width="0.3" x1="101.45913802915013" x2="101.54496967792366" y1="184.9874750549273" y2="189.98673829345242" /><path d="M 101.47630435890484 185.9873277026323 a86.0,86.0 0 0,1 -42.54439059252881,-10.42667462771756" fill="none" id="id31" stroke="none" /><text fill="#e1ed5e" style="font-size:6.75px; font-family:Arial;" text-anchor="middle"><textPath startOffset="22.145653131862474" xlink:href="#id31">July</textPath></text><line stroke="#e1ed5e" stroke-width="0.3" x1="58.13341422392154" x2="55.67067388415222" y1="173.97424548756322" y2="178.32567169271397" /><path d="M 57.64086615596768 174.84453072859336 a86.0,86.0 0 0,1 -31.369924170532247,-30.572349798747897" fill="none" id="id32" stroke="none" /><text fill="#e1ed5e" style="font-size:6.75px; font-family:Arial;" text-anchor="middle"><textPath startOffset="22.145653131862474" xlink:href="#id32">August</textPath></text><line stroke="#e1ed5e" stroke-width="0.3" x1="26.387840678322732" x2="22.057713659400548" y1="142.50000000000003" y2="145.00000000000006" /><path d="M 25.521815274538298 143.00000000000003 a86.0,86.0 0 0,1 -11.493303480769221,-40.785679425670985" fill="none" id="id33" stroke="none" /><text fill="#e1ed5e" style="font-size:6.75px; font-family:Arial;" text-anchor="middle"><textPath startOffset="21.40746469413373" xlink:href="#id33">September</textPath></text><line stroke="#e1ed5e" stroke-width="0.3" x1="15.003131293944662" x2="10.003315487706104" y1="100.72959589197737" y2="100.7725132973878" /><path d="M 14.003168132696942 100.73817937305945 a86.0,86.0 0 0,1 10.791469493833604,-42.45332614584628" fill="none" id="id34" stroke="none" /><text fill="#e1ed5e" style="font-size:6.75px; font-family:Arial;" text-anchor="middle"><textPath startOffset="22.145653131862435" xlink:href="#id34">October</textPath></text><line stroke="#e1ed5e" stroke-width="0.3" x1="26.387840678322718" x2="22.05771365940052" y1="57.49999999999999" y2="54.99999999999999" /><path d="M 25.521815274538284 56.99999999999999 a86.0,86.0 0 0,1 29.574782752854787,-30.34633250058573" fill="none" id="id35" stroke="none" /><text fill="#e1ed5e" style="font-size:6.75px; font-family:Arial;" text-anchor="middle"><textPath startOffset="21.40746469413373" xlink:href="#id35">November</textPath></text><line stroke="#e1ed5e" stroke-width="0.3" x1="56.869717070023135" x2="54.33264160355391" y1="26.7553504044142" y2="22.446841604673864" /><path d="M 56.362301976729285 25.89364864446614 a86.0,86.0 0 0,1 42.16139366436587,-11.88097634709845" fill="none" id="id36" stroke="none" /><text fill="#e1ed5e" style="font-size:6.75px; font-family:Arial;" text-anchor="middle"><textPath startOffset="22.145653131862474" xlink:href="#id36">December</textPath></text></svg>