<?xml version="1.0" encoding="utf-8" ?>
<svg baseProfile="full" height="200mm" version="1.1" viewBox="0,0,200,200" width="200mm" xmlns="http://www.w3.org/2000/svg" xmlns:ev="http://www.w3.org/2001/xml-events" xmlns:xlink="http://www.w3.org/1999/xlink"><defs /><rect fill="#1a1a1a" height="200" width="200" x="0" y="0" /><text alignment-baseline="middle" fill="#e1ed5e" style="dominant-baseline: central; font-size:9.0px; font-family:Arial;" text-anchor="middle" x="100.0" y="100.0">2025</text><line stroke="#e1ed5e" stroke-width="0.3" x1="100.0" x2="100.0" y1="15.0" y2="10.0" /><path d="M 100.0 14.0 a86.0,86.0 0 0,1 42.46469731375804,11.215312516191453" fill="none" id="id37" stroke="none" /><text fill="#e1ed5e" style="font-size:6.75px; font-family:Arial;" text-anchor="middle"><textPath startOffset="22.20632615414155" xlink:href="#id37">January</textPath></text><path d="M 100.0 79.0 l 0.0 -15.21355728854229 a36.21355728854229,36.21355728854229 0 0,0 0.6233568592774015,0.00536542928858462 l -0.26187638000487307 15.211303235862264" fill="#009f1e" stroke="none" /><path d="M 101.80526077348638 79.07773832637324 l 0.5698068648166856 -6.603837242915388 a27.628374325134974,27.628374325134974 0 0,0 0.4734646523314814,0.04496117373772945 l -0.6833966442384112 6.5930505246624795" fill="#008000" stroke="none" /><path d="M 102.52436894288641 79.15227682838746 l 1.4300214387516876 -11.809957957444178 a32.89622075584883,32.89622075584883 0 0,0 0.5615624108917284,0.07290691788285404 l -1.6330985781512621 11.783592716397187" fill="#009311" stroke="none" /><path d="M 104.307194497241 79.44645832069477 l 3.879144974119873 -18.51092815908633 a39.9130173965207,39.9130173965207 0 0,0 0.6712177378365761,0.14670219967981415 l -4.197205436109977 18.441412461310644" fill="#00ac2f" stroke="none" /><path d="M 105.01212808612495 79.60689891045804 l 5.153441835403821 -20.96807154617572 a42.59208158368327,42.59208158368327 0 0,0 0.7104584567222139,0.18111167963590752 l -5.513609180811059 20.876256870370945" fill="#00b63d" stroke="none" /><path d="M 108.09893153111575 80.62456947434976 l 7.279483549763107 -17.41502903675222 a39.875224955009,39.875224955009 0 0,0 0.6310088054435447,0.2701650394851707 l -7.5781761129969665 17.28714446930426" fill="#00ac2f" stroke="none" /><path d="M 108.43124777332544 80.76684994638697 l 13.563165034273766 -30.939950446174127 a54.78224355128974,54.78224355128974 0 0,0 0.8603887387487272,0.3860313473467973 l -14.093735891489274 30.701898768310798" fill="#00e289" stroke="none" /><path d="M 109.41281617654863 81.2277094730956 l 5.295532556032703 -10.561055668355433 a32.814337132573485,32.814337132573485 0 0,0 0.5027461347205898,0.25752609696969897 l -5.4765391783420485 10.468337046073232" fill="#009311" stroke="none" /><path d="M 109.73455568895987 81.39251694778311 l 10.230918756483316 -19.5562749295045 a43.070785842831434,43.070785842831434 0 0,0 0.6539682579002425,0.3493271950152986 l -10.56603206091187 19.377269007987447" fill="#00b83f" stroke="none" /><path d="M 110.36928655335952 81.73862282372117 l 8.309321308256008 -14.633567093368814 a37.82813437312538,37.82813437312538 0 0,0 0.5634649541263927,0.3263952705762326 l -8.55998299484773 14.488367665402532" fill="#00a525" stroke="none" /><line stroke="#e1ed5e" stroke-width="0.3" x1="143.23703022742887" x2="145.7803849466894" y1="26.81831364943548" y2="22.513508569990506" /><path d="M 143.74570117128098 25.957352633546492 a86.0,86.0 0 0,1 28.547481713284135,27.462654790039103" fill="none" id="id38" stroke="none" /><text fill="#e1ed5e" style="font-size:6.75px; font-family:Arial;" text-anchor="middle"><textPath startOffset="19.985693538727396" xlink:href="#id38">February</textPath></text><path d="M 110.68208982089419 81.91981866633111 l 16.032746689788404 -27.136540909921738 a52.51889622075585,52.51889622075585 0 0,0 0.774373452872627,0.4665513408320551 l -16.49748220887867 26.85654295963107" fill="#00da79" stroke="none" /><path d="M 111.60114157652 82.49532879139004 l 6.535936091150799 -9.861909844082904 a32.831133773245355,32.831133773245355 0 0,0 0.4683835026559594,0.31625463181220714 l -6.7047242882133 9.747943299972027" fill="#009311" stroke="none" /><path d="M 111.90073688211348 82.69761687909136 l 12.005442425567376 -17.45461364626756 a42.18476304739052,42.18476304739052 0 0,0 0.594742605827363,0.41665520287812496 l -12.30411617097839 17.2453736006255" fill="#00b53a" stroke="none" /><path d="M 112.48926042617603 83.11751280151076 l 12.54669953631441 -16.96013111081983 a42.09658068386322,42.09658068386322 0 0,0 0.578835694575527,0.43596704463184965 l -12.83678138464832 16.741647476682132" fill="#00b43a" stroke="none" /><path d="M 112.77801427241765 83.33499621200491 l 8.321934110230812 -10.853412784943018 a34.67666466706659,34.67666466706659 0 0,0 0.47055812027463,0.36727807674357443 l -8.507524785664872 10.70855631897622" fill="#009a18" stroke="none" /><path d="M 113.6212207817346 84.01681056812373 l 7.689003452676826 -9.022304292378866 a32.85422915416917,32.85422915416917 0 0,0 0.4272711296516131,0.3705253132342516 l -7.843168380975204 8.888613985724945" fill="#009311" stroke="none" /><path d="M 113.89432698308785 84.25364557470407 l 12.507950425487195 -14.175182488038853 a39.90461907618476,39.90461907618476 0 0,0 0.5111382893171978,0.45890500293248676 l -12.750099702400382 13.957778476337069" fill="#00ac2f" stroke="none" /><path d="M 114.42810811169701 84.74124197986012 l 14.70795743919843 -15.554718733587903 a42.40731853629274,42.40731853629274 0 0,0 0.5260865272461884,0.506094822393024 l -14.973527210057036 15.299240824432577" fill="#00b53c" stroke="none" /><path d="M 114.68862486808459 84.99185889309783 l 18.79914886386231 -19.208079814982483 a47.87672465506898,47.87672465506898 0 0,0 0.5840144219940556,0.5815064784668409 l -19.126999086023687 18.88163748586552" fill="#00c95b" stroke="none" /><path d="M 115.68641384162765 86.03803664274999 l 17.317474668991466 -15.413717195636345 a44.18356328734254,44.18356328734254 0 0,0 0.5007641694528857,0.5724600115242119 l -17.580230702022202 15.113341627909184" fill="#00bc45" stroke="none" /><path d="M 116.15771136456269 86.58626213691792 l 19.189907348494327 -15.930993008953402 a45.940911817636476,45.940911817636476 0 0,0 0.4998841726530792,0.612798888702774 l -19.461290013223817 15.598309950642529" fill="#00c24f" stroke="none" /><path d="M 116.38621287248628 86.86637796730983 l 24.66614887104114 -19.77002732695293 a52.61127774445111,52.61127774445111 0 0,0 0.5602998848706707,0.7115239544415881 l -25.002802836505776 19.342510978558305" fill="#00da79" stroke="none" /><path d="M 116.82858285166822 87.43820079747576 l 16.865598330846037 -12.589429634683363 a42.046190761847626,42.046190761847626 0 0,0 0.42794490319957185,0.5837163670300607 l -17.079805846559236 12.297250823981809" fill="#00b43a" stroke="none" /><path d="M 117.04232023915458 87.72973835380427 l 20.16555289246095 -14.518950868099035 a45.84853029394121,45.84853029394121 0 0,0 0.4556195082326144,0.6444414829288775 l -20.41248502049745 14.169682884838362" fill="#00c24f" stroke="none" /><path d="M 117.2510076193507 88.02491185347247 l 15.177851134801653 -10.535970374869253 a39.47630473905219,39.47630473905219 0 0,0 0.3826861824131649,0.5615447516966424 l -15.356961782883552 10.273147599902204" fill="#00ab2d" stroke="none" /><path d="M 117.65298651832404 88.62581576622439 l 20.635744688286813 -13.2960369987307 a45.54829034193162,45.54829034193162 0 0,0 0.4189844158208596,0.6627327265035005 l -20.86155670035363 12.938856624512994" fill="#00c14d" stroke="none" /><line stroke="#e1ed5e" stroke-width="0.3" x1="172.23445277983987" x2="176.4835382374775" y1="55.19839476539836" y2="52.563006222186495" /><path d="M 173.08426987136738 54.67131705675599 a86.0,86.0 0 0,1 12.851231095245387,41.99856678651699" fill="none" id="id39" stroke="none" /><text fill="#e1ed5e" style="font-size:6.75px; font-family:Arial;" text-anchor="middle"><textPath startOffset="22.20632615414155" xlink:href="#id39">March</textPath></text><path d="M 117.84615892207809 88.93136811851018 l 24.92253027630341 -15.457573497365503 a50.326934613077384,50.326934613077384 0 0,0 0.45026837783235474,0.7401228230580141 l -25.184914452421985 15.026282901100407" fill="#00d26a" stroke="none" /><path d="M 118.21658344932153 89.55222093294921 l 17.021814528830138 -9.762541807704132 a40.62267546490702,40.62267546490702 0 0,0 0.34266650232693524,0.609565471883784 l -17.187338672449506 9.468092825885554" fill="#00af33" stroke="none" /><path d="M 118.56541770881063 90.18545643968196 l 18.57841090256805 -9.821412367048922 a42.01469706058788,42.01469706058788 0 0,0 0.3324974438145282,0.6422792296388962 l -18.744717779542693 9.50016041514968" fill="#00b43a" stroke="none" /><path d="M 118.73160827565052 90.50648371742162 l 19.92644591610893 -10.099081508361737 a43.33953209358128,43.33953209358128 0 0,0 0.3315267559103929,0.668337709878492 l -20.09733268497273 9.754584209984294" fill="#00b941" stroke="none" /><path d="M 118.89224826269711 90.83032412892265 l 22.754940493972413 -11.04449962196248 a46.29364127174565,46.29364127174565 0 0,0 0.341783321733965,0.7198828411859354 l -22.941682009548135 10.651174365136004" fill="#00c451" stroke="none" /><path d="M 119.04729006885535 91.15688171328212 l 38.106006226534255 -17.69154138344579 a63.0125974805039,63.0125974805039 0 0,0 0.4482826697956439,0.9877314407750462 l -38.40489121329325 17.032987933828682" fill="#01ffc9" stroke="none" /><path d="M 119.34039704204932 91.81776055985345 l 19.355866265838213 -8.188783922802136 a42.01679664067187,42.01679664067187 0 0,0 0.2760669868059806,0.6685181059876524 l -19.49395493953039 7.85439124636118" fill="#00b43a" stroke="none" /><path d="M 119.61058180528143 92.48833698450437 l 36.06645194042711 -13.814941128778466 a59.62177564487103,59.62177564487103 0 0,0 0.35885327937605954,0.961548378102182 l -36.29890980830479 13.19206961364695" fill="#00f4ad" stroke="none" /><path d="M 120.08093135843002 93.85539295169968 l 11.25110371252168 -3.4427492400194932 a32.76604679064187,32.76604679064187 0 0,0 0.1603883992876199,0.5407499490535548 l -11.308698008921 3.248569904219409" fill="#009311" stroke="none" /><path d="M 120.28053869075195 94.5502522615342 l 16.233352605294957 -4.362195600295659 a37.80923815236953,37.80923815236953 0 0,0 0.16348654825830727,0.6299803607994704 l -16.306035485423568 4.082118813947338" fill="#00a525" stroke="none" /><path d="M 120.53481517161879 95.60439243477599 l 9.53651434434806 -2.041351443757805 a30.75254949010198,30.75254949010198 0 0,0 0.10634627601810041,0.5185822099754557 l -9.570239916281158 1.8768935776189375" fill="#008b0a" stroke="none" /><path d="M 120.67395015179393 96.31383870115 l 16.732216204636263 -2.9833509012388206 a37.99610077984403,37.99610077984403 0 0,0 0.10926256169451348,0.6448738241200042 l -16.781090627850997 2.6948912888029786" fill="#00a626" stroke="none" /><path d="M 120.78858239683441 97.02765380044208 l 16.667030817857945 -2.383047807863917 a37.83653269346131,37.83653269346131 0 0,0 0.08663485112764786,0.6455302697113261 l -16.70558166804343 2.0957991960879268" fill="#00a525" stroke="none" /><path d="M 120.83666639777658 97.38593545837742 l 26.578103369609437 -3.33435667086791 a47.78644271145771,47.78644271145771 0 0,0 0.0953672831072102,0.8170486418442664 l -26.631561005720236 2.876364290698791" fill="#00c95a" stroke="none" /><path d="M 120.91429891909075 98.10471618934814 l 26.549575422485045 -2.4059606622522223 a47.65836832633474,47.65836832633474 0 0,0 0.06700656786455597,0.8176498493602137 l -26.587056474169096 1.9485968956842399" fill="#00c859" stroke="none" /><path d="M 120.94382443527127 98.46500227214037 l 26.785983020994802 -1.9631764581864053 a47.857828434313134,47.857828434313134 0 0,0 0.05314363213810766,0.8221084672481818 l -26.815807244137325 1.5018089266851884" fill="#00c95a" stroke="none" /><line stroke="#e1ed5e" stroke-width="0.3" x1="184.98032266829074" x2="189.97916517819016" y1="98.17113171792111" y2="98.06355123074" /><path d="M 185.9800911702706 98.14961562048488 a86.0,86.0 0 0,1 -9.607161424134198,41.387399972396054" fill="none" id="id40" stroke="none" /><text fill="#e1ed5e" style="font-size:6.75px; font-family:Arial;" text-anchor="middle"><textPath startOffset="21.466115282336823" xlink:href="#id40">April</textPath></text><path d="M 120.99513854157772 99.54816195383933 l 21.14627331212296 -0.45509062957634105 a42.15116976604679,42.15116976604679 0 0,0 0.009367581394195421,0.7255295024173316 l -21.15097390063487 0.09102486909854672" fill="#00b53a" stroke="none" /><path d="M 120.99980553446 99.90962569577887 l 15.88527581220999 -0.0683635258685333 a36.88542291541692,36.88542291541692 0 0,0 -0.0027325120193972268,0.6349395607796108 l -15.88409900290109 -0.2050855131147622" fill="#00a121" stroke="none" /><path d="M 120.9904718944345 100.63252640178507 l 26.799472714649934 0.807574700139507 a47.81163767246551,47.81163767246551 0 0,0 -0.03186956915740861,0.822411970705564 l -26.78160101264132 -1.2687639178590773" fill="#00c95a" stroke="none" /><path d="M 120.9764740272857 100.99374915477107 l 32.91179833135319 1.5591787128396633 a53.94871025794841,53.94871025794841 0 0,0 -0.051928585677357995,0.9272197809199458 l -32.8800833947883 -2.1254702100950325" fill="#00df83" stroke="none" /><path d="M 120.95626037817324 101.35467743843564 l 15.802051166984858 1.0214934253830839 a36.83503299340132,36.83503299340132 0 0,0 -0.04634801587611076,0.6323818529594744 l -15.78212659244441 -1.2933484148393284" fill="#00a121" stroke="none" /><path d="M 120.89721153311464 102.0752229133903 l 26.88515476985796 2.669862872376163 a48.01739652069586,48.01739652069586 0 0,0 -0.08875832480213391,0.8217918534787862 l -26.835214143554772 -3.1322510477397407" fill="#00ca5b" stroke="none" /><path d="M 120.8583938346157 102.4346265915055 l 21.39851821005716 2.497670811381526 a42.54379124175165,42.54379124175165 0 0,0 -0.0911622093712374,0.7266525039866544 l -21.352354491439073 -2.865641069655575" fill="#00b63c" stroke="none" /><path d="M 120.76222939487914 103.15116336523771 l 10.82326175413916 1.6426880410267337 a31.947210557888422,31.947210557888422 0 0,0 -0.08719800296327088,0.5429820476892815 l -10.7933819968146 -1.82874931840922" fill="#00900e" stroke="none" /><path d="M 120.70491114924044 103.5080841355445 l 39.826213317360214 6.747853497674528 a61.39382123575285,61.39382123575285 0 0,0 -0.18550744646668496,1.0404242761257712 l -39.704159428554334 -7.432396524533518" fill="#00fabc" stroke="none" /><path d="M 120.49622156327973 104.57218783832717 l 19.260546538019018 4.296540041235457 a40.73395320935813,40.73395320935813 0 0,0 -0.15855096584496545,0.6830334111958101 l -19.1837350062435 -4.627442109779832" fill="#00af33" stroke="none" /><path d="M 120.41448212921028 104.9243191809786 l 26.04979358279453 6.283651840314927 a47.79694061187762,47.79694061187762 0 0,0 -0.19981098081113172,0.7981455445029275 l -25.93777128768834 -6.73112522421525" fill="#00c95a" stroke="none" /><path d="M 120.23288151984713 105.62410040840565 l 14.170299444763959 3.938894557176728 a35.70755848830234,35.70755848830234 0 0,0 -0.1697084407596588,0.5907773459401694 l -14.100398367118201 -4.1822293786214795" fill="#009d1c" stroke="none" /><path d="M 119.79798401119884 107.00284435728193 l 19.978109640574868 7.0665574983049835 a42.19106178764247,42.19106178764247 0 0,0 -0.24807488253349017,0.6825955328096175 l -19.85351049703615 -7.409400828120732" fill="#00b53a" stroke="none" /><path d="M 119.67450827220406 107.3425965602758 l 25.849101500203314 9.646976744509516 a48.59058188362327,48.59058188362327 0 0,0 -0.29919239025869554,0.7810969198940764 l -25.67921483035111 -10.090497231236736" fill="#00cc5f" stroke="none" /><path d="M 119.54520255179757 107.68017299344265 l 6.409544528083985 2.5185930232445393 a27.886622675464906,27.886622675464906 0 0,0 -0.1794004676498014,0.4452572481815388 l -6.365241446176791 -2.6285496392688916" fill="#008101" stroke="none" /><path d="M 119.41010516605496 108.01547362559984 l 12.286080364556485 5.073581636040047 a34.29244151169766,34.29244151169766 0 0,0 -0.2300027018782262,0.5436584455403471 l -12.19692668148595 -5.284314607246558" fill="#009817" stroke="none" /><path d="M 119.26925614724726 108.34839909993367 l 41.47648626215622 17.96967448734973 a66.20185962807439,66.20185962807439 0 0,0 -0.46202251123157717,1.0417387924464172 l -41.16102266619337 -18.680961616288837" fill="#0dffdc" stroke="none" /><path d="M 118.81262510543309 109.33194174019688 l 17.240204130813805 8.55194740958254 a40.24475104979004,40.24475104979004 0 0,0 -0.3131833690798635,0.6179404989084938 l -17.090442091947672 -8.847442120193728" fill="#00ae31" stroke="none" /><path d="M 118.64920377521936 109.65438752849418 l 18.673442892303722 9.666935722642394 a42.02729454109178,42.02729454109178 0 0,0 -0.3381145713719571,0.6395853472326383 l -18.504275812706872 -9.986936084961167" fill="#00b43a" stroke="none" /><line stroke="#e1ed5e" stroke-width="0.3" x1="174.80103733775053" x2="179.2010983576182" y1="140.37084112569926" y2="142.7455964860345" /><path d="M 175.68104954172406 140.8457921977663 a86.0,86.0 0 0,1 -30.038265399797805,32.042727171017184" fill="none" id="id41" stroke="none" /><text fill="#e1ed5e" style="font-size:6.75px; font-family:Arial;" text-anchor="middle"><textPath startOffset="22.206326154141568" xlink:href="#id41">May</textPath></text><path d="M 118.12598468904814 110.60418214915192 l 34.934473790320034 20.437594410038166 a61.47360527894421,61.47360527894421 0 0,0 -0.5421946351161373,0.9087493954317895 l -34.57749827950567 -21.03590589935606" fill="#00fabc" stroke="none" /><path d="M 117.35343817320211 111.8261652097733 l 17.375993131835532 11.841536150357877 a42.02729454109178,42.02729454109178 0 0,0 -0.4125461129109697,0.5943034447912846 l -17.169586111762428 -12.138880857336181" fill="#00b43a" stroke="none" /><path d="M 116.93607887273984 112.41649034213515 l 20.33108368576157 14.905498854030855 a46.20965806838632,46.20965806838632 0 0,0 -0.4758246631981322,0.6374448945090467 l -20.071497755868347 -15.253256628049217" fill="#00c351" stroke="none" /><path d="M 116.71984013943494 112.70617746262583 l 26.819947530203365 20.38171477808126 a54.685662867426515,54.685662867426515 0 0,0 -0.5760045629612267,0.7445635438238573 l -26.46513615002407 -20.84035631601837" fill="#00e288" stroke="none" /><path d="M 116.27256486870786 113.27417163493432 l 12.244283463496831 9.988143943662838 a36.80143971205759,36.80143971205759 0 0,0 -0.4046476018662239,0.48742410371024103 l -12.070539861737064 -10.19742930448685" fill="#00a121" stroke="none" /><path d="M 115.80600337817218 113.82643327865902 l 15.309794113950419 13.392370086347597 a41.34073185362928,41.34073185362928 0 0,0 -0.47313709762289735,0.5315745448712597 l -15.076998166679182 -13.653918800959723" fill="#00b236" stroke="none" /><path d="M 115.32070863581623 114.36230785411682 l 17.26298603535783 16.183084334722714 a44.6622675464907,44.6622675464907 0 0,0 -0.530616340638539,0.5563491117833342 l -16.981863143340327 -16.477840563088556" fill="#00be48" stroke="none" /><path d="M 115.07121518719521 114.62390073753431 l 29.173545014925647 28.30767268340351 a61.6499700059988,61.6499700059988 0 0,0 -0.7455518022889731,0.7552400395166711 l -28.681952587581137 -28.805653216900847" fill="#00fbbe" stroke="none" /><path d="M 113.20401910651253 116.32954008644616 l 10.98618746294714 13.586725914757547 a38.47270545890822,38.47270545890822 0 0,0 -0.5185433816683922,0.4119622235323007 l -10.750686588561397 -13.773822052294973" fill="#00a728" stroke="none" /><path d="M 112.63410532772338 116.77436683061366 l 12.63663164352576 16.777721033139283 a42.00419916016797,42.00419916016797 0 0,0 -0.581288170546511,0.43002309193283156 l -12.345958502560686 -16.992754073811884" fill="#00b43a" stroke="none" /><path d="M 111.45004920935366 117.60387380957326 l 8.754101810030743 13.458990504079853 a37.05548890221955,37.05548890221955 0 0,0 -0.5376896096454432,0.3431789487791039 l -8.52113039833837 -13.607683881682766" fill="#00a222" stroke="none" /><path d="M 111.1453310114006 117.79835938074945 l 7.811314776036612 12.474155094886388 a35.71805638872225,35.71805638872225 0 0,0 -0.5239002050341496,0.3218222957724086 l -7.595435371070154 -12.606765857487174" fill="#009d1c" stroke="none" /><line stroke="#e1ed5e" stroke-width="0.3" x1="143.8653032363475" x2="146.44561519142675" y1="172.8068346515853" y2="177.08958963109032" /><path d="M 144.38136562736335 173.6633856474863 a86.0,86.0 0 0,1 -40.68145358897372,12.25698825130547" fill="none" id="id42" stroke="none" /><text fill="#e1ed5e" style="font-size:6.75px; font-family:Arial;" text-anchor="middle"><textPath startOffset="21.466115282336833" xlink:href="#id42">June</textPath></text><path d="M 110.5260780823613 118.17145234162733 l 8.432859795437016 14.557873186708635 a37.82393521295741,37.82393521295741 0 0,0 -0.5661905082898019,0.3214977472715225 l -8.181020520226015 -14.700874099774786" fill="#00a525" stroke="none" /><path d="M 109.89434966115114 118.52300852407294 l 9.260248668069968 17.335921095165634 a40.65416916616677,40.65416916616677 0 0,0 -0.6200904873404784,0.32440203569020687 l -8.960467278202994 -17.492752549800556" fill="#00af33" stroke="none" /><path d="M 109.2508944713604 118.85261126421891 l 5.569774695714089 11.35077234884286 a33.64367126574685,33.64367126574685 0 0,0 -0.5220974413081655,0.25063849963717755 l -5.37356458640569 -11.444965124979598" fill="#009614" stroke="none" /><path d="M 108.59647513512805 119.15986991738527 l 9.05938870319243 20.191614162286665 a43.13083383323335,43.13083383323335 0 0,0 -0.6799870174740679,0.29808632548423697 l -8.71048101106061 -20.344565041065355" fill="#00b83f" stroke="none" /><path d="M 108.2653958097858 119.30500536409082 l 6.36142940849141 14.858021524972115 a37.162567486502695,37.162567486502695 0 0,0 -0.5902274711952548,0.24671513082848173 l -6.104730477798694 -14.965321698820569" fill="#00a322" stroke="none" /><path d="M 107.59598834532513 119.57807347666477 l 10.011257464964952 25.80324315051371 a48.67729454109178,48.67729454109178 0 0,0 -0.7837734693888784,0.29635606129302516 l -9.565613774815798 -25.971747461913363" fill="#00cc60" stroke="none" /><path d="M 106.2309692047433 120.05430185196036 l 8.020270319506727 25.813146660918626 a48.03041391721656,48.03041391721656 0 0,0 -0.7916442021305788,0.23851590414553098 l -7.574751142935902 -25.947377934169882" fill="#00ca5c" stroke="none" /><path d="M 103.7750983002368 120.6578951692458 l 2.4971056143138117 13.664530537865454 a34.89082183563288,34.89082183563288 0 0,0 -0.5917334325212432,0.10288044212536687 l -2.2615232103205183 -13.705489558511827" fill="#009a19" stroke="none" /><path d="M 102.70371172650421 120.8252237178851 l 2.286071792746059 17.60837002421058 a38.75614877024595,38.75614877024595 0 0,0 -0.6623104277039163,0.08019656921203232 l -1.9826339419907626 -17.64511212214796" fill="#00a82a" stroke="none" /><path d="M 102.34483914955558 120.86867818915974 l 1.4589016224439535 12.983981640785947 a34.06568686262747,34.06568686262747 0 0,0 -0.5832814557162664,0.06045950777897619 l -1.2351875701220845 -13.00717051702068" fill="#009716" stroke="none" /><path d="M 101.98527174616119 120.90594882070398 l 1.7411321493027356 18.335031299261676 a39.41751649670066,39.41751649670066 0 0,0 -0.6760210736572981,0.05832994278348061 l -1.4252667579038958 -18.36228549432382" fill="#00ab2d" stroke="none" /><path d="M 101.62511606390274 120.93702456842531 l 2.440761198954893 31.44530924483954 a52.539892021595676,52.539892021595676 0 0,0 -0.9022781717924462,0.06222638540536694 l -1.899120266383517 -31.48266397476119" fill="#00da79" stroke="none" /><line stroke="#e1ed5e" stroke-width="0.3" x1="102.19456741930631" x2="102.32365962044197" y1="184.97166512339345" y2="189.96999836594603" /><path d="M 102.22038585953345 185.97133177190398 a86.0,86.0 0 0,1 -42.740103519485714,-10.115201625700543" fill="none" id="id43" stroke="none" /><text fill="#e1ed5e" style="font-size:6.75px; font-family:Arial;" text-anchor="middle"><textPath startOffset="22.20632615414155" xlink:href="#id43">July</textPath></text><path d="M 100.54218724476979 120.99299961872073 l 0.4951890102951485 19.173270497601873 a40.179664067186565,40.179664067186565 0 0,0 -0.6915500114501114,0.011905660598752409 l -0.16507930895236916 -19.178953635479786" fill="#00ad30" stroke="none" /><path d="M 100.18074693466247 120.99922214144158 l 0.14803828121924556 17.199122953678206 a38.1997600479904,38.1997600479904 0 0,0 -0.6575704317633901,0.0 l 0.1480382812192337 -17.199122953678206" fill="#00a627" stroke="none" /><path d="M 99.45781275523022 120.99299961872073 l -0.475945211865494 18.42816803163048 a39.43431313737253,39.43431313737253 0 0,0 -0.6784197515343786,-0.02336614796651735 l 0.7930853150745156 -18.41724508523787" fill="#00ab2d" stroke="none" /><path d="M 99.09653310690486 120.98055641714683 l -2.073620014462029 48.15417369871922 a69.19880023995202,69.19880023995202 0 0,0 -1.1895996446711525,-0.06148871353815689 l 2.9022077275466702 -48.11134517841886" fill="#17ffed" stroke="none" /><path d="M 98.73552117531835 120.96189622390904 l -1.5008385138063045 24.88014869143756 a45.925374925015,45.925374925015 0 0,0 -0.7886857344357124,-0.054392385861686154 l 1.928887009020947 -24.85062796105959" fill="#00c24f" stroke="none" /><path d="M 98.01472825383883 120.90594882070398 l -0.9948192353289157 10.4759663556657 a31.523095380923813,31.523095380923813 0 0,0 -0.5397465501463329,-0.055946936813158196 l 1.1749983820808418 -10.45729005039678" fill="#008e0c" stroke="none" /><path d="M 97.65516085044442 120.86867818915974 l -2.5820894214362315 22.98016612431567 a44.124775044991,44.124775044991 0 0,0 -0.754055796555889,-0.09130565569966745 l 2.97727264104351 -22.932314939890656" fill="#00bc45" stroke="none" /><path d="M 97.2962882734958 120.8252237178851 l -0.8944793144373504 6.889688590530071 a27.94751049790042,27.94751049790042 0 0,0 -0.4765335455620968,-0.06604320723134734 l 1.0129414511862782 -6.873270817806119" fill="#008101" stroke="none" /><path d="M 96.93821686468263 120.77559828337769 l -2.76729849462797 18.77738537109921 a39.980203959208154,39.980203959208154 0 0,0 -0.6799759533259964,-0.10619825949774164 l 3.0901103115624835 -18.726968804254366" fill="#00ad2f" stroke="none" /><path d="M 96.58105272829116 120.7198165907248 l -4.445110010128158 26.93866176222609 a48.30293941211758,48.30293941211758 0 0,0 -0.8191972167880444,-0.14242793666723974 l 4.9081561983882525 -26.858155247037843" fill="#00cb5d" stroke="none" /><path d="M 95.51606077576429 120.51570834832081 l -3.2466194622990447 14.85450508483697 a36.20515896820636,36.20515896820636 0 0,0 -0.6076947154438589,-0.1383093387508868 l 3.5018343271357666 -14.796419012508396" fill="#009f1e" stroke="none" /><path d="M 95.16358092515715 120.4354850818985 l -4.072901206498833 17.209367211040895 a38.68476304739052,38.68476304739052 0 0,0 -0.6466742380130319,-0.1589367941975603 l 4.368528729255075 -17.136709158529307" fill="#00a829" stroke="none" /><path d="M 94.46302465271185 120.25689768951611 l -3.880643589731047 14.197245831184556 a35.71805638872225,35.71805638872225 0 0,0 -0.5916761215961116,-0.1672135820560962 l 4.124450879431773 -14.12834345578994" fill="#009d1c" stroke="none" /><path d="M 93.76903079525671 120.05430185196036 l -9.357667308983102 30.117543303169025 a52.5377924415117,52.5377924415117 0 0,0 -0.8613162149359527,-0.27576625255290566 l 9.874704869009994 -29.952004203956413" fill="#00da79" stroke="none" /><path d="M 93.08242187328487 119.8279376855182 l -4.949920681153785 14.18801739804576 a36.026694661067786,36.026694661067786 0 0,0 -0.583770451825087,-0.2093193144666431 l 5.193410693608598 -14.10071054253916" fill="#009e1e" stroke="none" /><path d="M 92.7421414339146 119.70592522655815 l -6.361692266433782 17.27273010010351 a39.40701859628074,39.40701859628074 0 0,0 -0.6345088808788492,-0.2399169659816638 l 6.658071368072914 -17.160664884015212" fill="#00ab2d" stroke="none" /><path d="M 92.06813273071674 119.44442032107085 l -5.892991969410506 14.446259488690009 a36.60197960407918,36.60197960407918 0 0,0 -0.581324039850104,-0.2429934958041199 l 6.140787468758073 -14.342680949865915" fill="#00a020" stroke="none" /><path d="M 91.7346041902142 119.30500536409082 l -13.260002115959095 30.970617483723387 a54.68986202759448,54.68986202759448 0 0,0 -0.8622229820550992,-0.37797321693522384 l 13.791145772671937 -30.73777971349371" fill="#00e288" stroke="none" /><path d="M 90.7491055286396 118.85261126421891 l -7.405710061206023 15.092267385782925 a37.81133773245351,37.81133773245351 0 0,0 -0.581837430168083,-0.2917453662331912 l 7.664401399056867 -14.962554178640431" fill="#00a525" stroke="none" /><path d="M 90.42595943632237 118.69057910512821 l -7.828084756024363 15.282099172339386 a38.17036592681464,38.17036592681464 0 0,0 -0.5822054981072096,-0.3045823998785292 l 8.089981156658068 -15.145087353516141" fill="#00a627" stroke="none" /><line stroke="#e1ed5e" stroke-width="0.3" x1="58.666819895761336" x2="56.23545636021788" y1="174.27360380694188" y2="178.64263932499728" /><path d="M 58.180547188652646 175.14741091055294 a86.0,86.0 0 0,1 -31.652253787137756,-30.449443065178592" fill="none" id="id44" stroke="none" /><text fill="#e1ed5e" style="font-size:6.75px; font-family:Arial;" text-anchor="middle"><textPath startOffset="22.20632615414155" xlink:href="#id44">August</textPath></text><path d="M 89.7882731507175 118.34994917583269 l -8.251467346120888 14.82746343122174 a37.96880623875225,37.96880623875225 0 0,0 -0.5683590980800728,-0.32272912915115526 l 8.505475211122167 -14.683231136275952" fill="#00a526" stroke="none" /><path d="M 89.4739219176387 118.17145234162733 l -3.4886971448737922 6.022631924864487 a27.96010797840432,27.96010797840432 0 0,0 -0.41438494916167123,-0.24482593208999578 l 3.5918499650638456 -5.961687420480742" fill="#008101" stroke="none" /><path d="M 89.1626897886671 117.98757091392108 l -17.005757225241947 28.225847379923145 a53.95290941811638,53.95290941811638 0 0,0 -0.7913627773784706,-0.4861196528605446 l 17.489099202552726 -27.928939260234223" fill="#00df83" stroke="none" /><path d="M 88.54995079064634 117.60387380957326 l -10.333892642755009 15.887839320037774 a39.95290941811638,39.95290941811638 0 0,0 -0.5732772603156636,-0.37993690828367344 l 10.605844601810634 -15.707604390662782" fill="#00ad2f" stroke="none" /><path d="M 88.24862548938628 117.40417183066458 l -11.127501298742496 16.48019510180206 a40.88512297540492,40.88512297540492 0 0,0 -0.579873923789088,-0.3988425723548676 l 11.409532107154474 -16.28621174008209" fill="#00b034" stroke="none" /><path d="M 87.65650970185807 116.9893568818739 l -11.120495008653968 15.306048276601254 a39.91931613677265,39.91931613677265 0 0,0 -0.5524358685694699,-0.40867884869134335 l 11.382315847642003 -15.112359479170143" fill="#00ac2f" stroke="none" /><path d="M 87.36589467227662 116.77436683061367 l -15.571957974315952 20.674968947654385 a46.883203359328135,46.883203359328135 0 0,0 -0.6404497219042331,-0.4910695365790107 l 15.925536424713671 -20.403860069248008" fill="#00c655" stroke="none" /><path d="M 86.51685102203217 116.09983520530335 l -12.162064595003578 14.522366848854903 a39.942411517696456,39.942411517696456 0 0,0 -0.5233112551087857,-0.44597720459893725 l 12.41024132668942 -14.310865254033013" fill="#00ad2f" stroke="none" /><path d="M 86.24171649860922 115.8653595955263 l -11.804997901313303 13.61292901907685 a39.01859628074385,39.01859628074385 0 0,0 -0.5036328047974379,-0.4443973938516081 l 12.037573059017328 -13.407708483452954" fill="#00a92b" stroke="none" /><path d="M 85.70375840098266 115.38237550388516 l -10.059682900808241 10.823951089416493 a35.776844631073786,35.776844631073786 0 0,0 -0.4474902401500179,-0.4231299529943351 l 10.244508975349076 -10.649186499676226" fill="#009d1d" stroke="none" /><path d="M 85.18274418774928 114.88116024355367 l -14.835032963795118 14.89901406508162 a42.0251949610078,42.0251949610078 0 0,0 -0.5082234402008045,-0.5148276617159584 l 15.089297029051455 -14.641445909384997" fill="#00b43a" stroke="none" /><path d="M 84.43433777217949 114.09645910891817 l -6.248363711727589 5.658596612908065 a29.429814037192564,29.429814037192564 0 0,0 -0.3368188266825877,-0.3784195223697568 l 6.344841388058516 -5.550202920797444" fill="#008705" stroke="none" /><path d="M 83.95833913139862 113.55231037782056 l -11.233332605847242 9.490140160593402 a35.705458908218354,35.705458908218354 0 0,0 -0.3925968232164087,-0.4729081645194339 l 11.395025428957187 -9.295370738960207" fill="#009d1c" stroke="none" /><path d="M 83.72743513129214 113.27417163493432 l -33.2870103193124 27.153524460183593 a63.95740851829634,63.95740851829634 0 0,0 -0.6885535455893648,-0.8590764180702914 l 33.74948177695663 -26.57652020853504" fill="#04ffcf" stroke="none" /><path d="M 82.44556493220864 111.52570212397912 l -19.881687707252613 13.053704625118522 a44.78404319136173,44.78404319136173 0 0,0 -0.417547516913379,-0.6480430187637981 l 20.10344008754304 -12.709540006433276" fill="#00be48" stroke="none" /><path d="M 82.24976979558568 111.22182372390057 l -28.845455083238384 18.236305019824012 a55.126574685062984,55.126574685062984 0 0,0 -0.5001696081661817,-0.8064326658341955 l 29.155089331072524 -17.737076022624553" fill="#00e48b" stroke="none" /><line stroke="#e1ed5e" stroke-width="0.3" x1="26.63291911575756" x2="22.317208475507996" y1="142.92168965132927" y2="145.44649492493687" /><path d="M 25.769776987707644 143.4266507060508 a86.0,86.0 0 0,1 -11.730757126820373,-40.83630448921669" fill="none" id="id45" stroke="none" /><text fill="#e1ed5e" style="font-size:6.75px; font-family:Arial;" text-anchor="middle"><textPath startOffset="21.46611528233685" xlink:href="#id45">September</textPath></text><path d="M 81.69416730710424 110.29060199501025 l -29.534215373451193 16.602623914565125 a54.880923815236955,54.880923815236955 0 0,0 -0.4558346564034002,-0.827472307498432 l 29.815626439306108 -16.09178108866887" fill="#00e389" stroke="none" /><path d="M 81.51974371655577 109.97397251340807 l -22.182959102082737 11.972356928212086 a46.20755848830234,46.20755848830234 0 0,0 -0.3717452908405026,-0.7032019943995736 l 22.385756901148124 -11.588739918726386" fill="#00c351" stroke="none" /><path d="M 81.18737489456691 109.33194174019688 l -21.601979537682364 10.715591970222075 a45.11367726454709,45.11367726454709 0 0,0 -0.3390974780163501,-0.6986412420689788 l 21.783230272313435 -10.342161772187811" fill="#00bf4a" stroke="none" /><path d="M 81.02952815118164 109.00673069616217 l -56.9114155464551 27.020192088486496 a84.0,84.0 0 0,0 -0.6089015326406932,-1.3115197308846915 l 57.36809169593562 -26.03655229032298" fill="#4dd2ff" stroke="none" /><path d="M 80.58989483394504 108.01547362559985 l -12.297724098909242 5.078389958550913 a34.30503899220156,34.30503899220156 0 0,0 -0.22069148026880034,-0.5477381552505902 l 12.38331819343543 -4.865952435457518" fill="#009817" stroke="none" /><path d="M 80.0844068197444 106.66101706037122 l -21.494583921301665 7.189130090652607 a43.66496700659868,43.66496700659868 0 0,0 -0.23227215113128005,-0.7148601756810261 l 21.615148323449194 -6.818071014993777" fill="#00ba42" stroke="none" /><path d="M 79.76711848015287 105.62410040840567 l -22.409504246837272 6.229132605910621 a44.259148170365926,44.259148170365926 0 0,0 -0.19771599187316388,-0.7357747579143811 l 22.51340831505221 -5.842466914820701" fill="#00bc46" stroke="none" /><path d="M 79.23777060512086 103.15116336523772 l -11.908909221997765 1.8074609304507914 a33.045290941811636,33.045290941811636 0 0,0 -0.08051398430811318,-0.5631146187263022 l 11.938257257322476 -1.6022008397440886" fill="#009412" stroke="none" /><line stroke="#e1ed5e" stroke-width="0.3" x1="15.007084014347285" x2="10.007500721073583" y1="101.09737516637583" y2="101.16192664675087" /><path d="M 14.007167355692545 101.11028546245083 a86.0,86.0 0 0,1 10.666146001902534,-42.60595125391555" fill="none" id="id46" stroke="none" /><text fill="#e1ed5e" style="font-size:6.75px; font-family:Arial;" text-anchor="middle"><textPath startOffset="22.20632615414155" xlink:href="#id46">October</textPath></text><path d="M 79.08570108090925 98.10471618934814 l -9.367732369278809 -0.8489173636992912 a30.406118776244753,30.406118776244753 0 0,0 0.05172352188261991,-0.5208488066725095 l 9.351731721713959 1.010041701076231" fill="#008a09" stroke="none" /><path d="M 79.46518482838121 95.60439243477599 l -15.654665635232284 -3.350980572368832 a37.009298140371925,37.009298140371925 0 0,0 0.13870664270296776,-0.6217946815979672 l 15.59466460552728 3.6199534235167588" fill="#00a222" stroke="none" /><path d="M 79.54389044137918 95.25157060432595 l -16.367750929578342 -3.799408163725197 a37.80293941211758,37.80293941211758 0 0,0 0.15259282456548992,-0.6325957712430076 l 16.299925304752037 4.080589166627601" fill="#00a525" stroke="none" /><path d="M 79.71946130924805 94.55025226153421 l -13.662294510926479 -3.671305765025242 a35.14697060587882,35.14697060587882 0 0,0 0.16203293948401526,-0.5829186943378225 l 13.597074800876102 3.9059357627820073" fill="#009b1a" stroke="none" /><path d="M 79.81627453868168 94.20196356495316 l -20.238210623031534 -5.81368800310786 a42.05668866226755,42.05668866226755 0 0,0 0.20586569435666846,-0.6940767800519969 l 20.135139031563156 6.161194169906396" fill="#00b43a" stroke="none" /><path d="M 80.14247586403 93.16781622104843 l -16.414917972025595 -5.647720004436271 a38.35932813437313,38.35932813437313 0 0,0 0.22019518232401317,-0.6225214322321352 l 16.31526970889177 5.9294390630950184" fill="#00a728" stroke="none" /><path d="M 80.2630227832202 92.82701384747504 l -20.313181710611012 -7.382395466315929 a42.613077384523095,42.613077384523095 0 0,0 0.25648083101089447,-0.6872411128626761 l 20.18309629109849 7.730959716207947" fill="#00b63d" stroke="none" /><path d="M 80.52162464483688 92.15188598940014 l -14.769445980159684 -5.950819501738581 a36.923215356928615,36.923215356928615 0 0,0 0.24260014141364641,-0.587475485303746 l 14.664824151859838 6.204169557495639" fill="#00a221" stroke="none" /><path d="M 80.65960295795068 91.81776055985345 l -17.261720095418355 -7.30282458330216 a39.74295140971806,39.74295140971806 0 0,0 0.27197292075463875,-0.6277509990122239 l 17.133456464821034 7.598874726900982" fill="#00ac2e" stroke="none" /><line stroke="#e1ed5e" stroke-width="0.3" x1="26.266209847984243" x2="21.928928074336255" y1="57.711370442889674" y2="55.22380399835377" /><path d="M 25.398753493254645 57.213857153982495 a86.0,86.0 0 0,1 29.58750427330803,-30.492523968695096" fill="none" id="id47" stroke="none" /><text fill="#e1ed5e" style="font-size:6.75px; font-family:Arial;" text-anchor="middle"><textPath startOffset="21.46611528233685" xlink:href="#id47">November</textPath></text><line stroke="#e1ed5e" stroke-width="0.3" x1="56.762969772571076" x2="54.21961505331055" y1="26.818313649435495" y2="22.513508569990535" /><path d="M 56.25429882871897 25.957352633546506 a86.0,86.0 0 0,1 42.265352541879196,-11.944610805530505" fill="none" id="id48" stroke="none" /><text fill="#e1ed5e" style="font-size:6.75px; font-family:Arial;" text-anchor="middle"><textPath startOffset="22.20632615414155" xlink:href="#id48">December</textPath></text></svg>