<?xml version="1.0" encoding="utf-8" ?>
<svg baseProfile="full" height="200mm" version="1.1" viewBox="0,0,200,200" width="200mm" xmlns="http://www.w3.org/2000/svg" xmlns:ev="http://www.w3.org/2001/xml-events" xmlns:xlink="http://www.w3.org/1999/xlink"><defs /><rect fill="#1a1a1a" height="200" width="200" x="0" y="0" /><text alignment-baseline="middle" fill="#e1ed5e" style="dominant-baseline: central; font-size:9.0px; font-family:Arial;" text-anchor="middle" x="100.0" y="100.0">2024</text><line stroke="#e1ed5e" stroke-width="0.3" x1="100.0" x2="100.0" y1="15.0" y2="10.0" /><path d="M 100.0 14.0 a86.0,86.0 0 0,1 42.35913384403234,11.155469271406648" fill="none" id="id25" stroke="none" /><text fill="#e1ed5e" style="font-size:6.75px; font-family:Arial;" text-anchor="middle"><textPath startOffset="22.145653131862478" xlink:href="#id25">January</textPath></text><path d="M 100.0 79.0 l 0.0 -14.855895196506552 a35.85589519650655,35.85589519650655 0 0,0 0.6155141205934594,0.00528344844551987 l -0.25502119574460475 14.853706146255467" fill="#00a627" stroke="none" /><path d="M 101.08105385017728 79.02784411241856 l 0.926473072830388 -17.97333010363844 a38.99719276356831,38.99719276356831 0 0,0 0.6682552412832916,0.040200575891452255 l -1.234872666246142 17.954777549922294" fill="#00b136" stroke="none" /><path d="M 101.44090949804482 79.04949213459386 l 2.3549451282990694 -34.240385326056774 a55.32127261384903,55.32127261384903 0 0,0 0.9468657440909097,0.07329339699012692 l -2.942379867165213 34.19491416207159" fill="#00e997" stroke="none" /><path d="M 102.15924093988457 79.11130261209362 l 1.7725557363645579 -17.147868816388872 a38.239238927011854,38.239238927011854 0 0,0 0.6523688789360772,0.07309929359605365 l -2.0666605169014316 17.11491376228585" fill="#00af32" stroke="none" /><path d="M 102.87502721639298 79.19773525538626 l 2.6199617503989314 -18.956738093400563 a40.13693075483468,40.13693075483468 0 0,0 0.6817064542005924,0.10018737291645291 l -2.944993310207206 18.908969647185227" fill="#00b53b" stroke="none" /><path d="M 103.94208987418118 79.37332000966035 l 3.749394366116975 -19.618415666776578 a40.97348721147848,40.97348721147848 0 0,0 0.6897272252052397,0.1379647619785842 l -4.085618076853172 19.551161508135134" fill="#00b83f" stroke="none" /><path d="M 104.64783097203109 79.52079915486377 l 5.426542515335461 -23.910347586857657 a45.518402994385525,45.518402994385525 0 0,0 0.7605211439923819,0.17948091919048706 l -5.836195813067728 23.813670524020942" fill="#00c858" stroke="none" /><path d="M 104.9986988182912 79.60360301121754 l 4.29194935966728 -17.512618018752754 a39.0308796007486,39.0308796007486 0 0,0 0.6493896539646901,0.16507231061933653 l -4.591944306857364 17.436360476298148" fill="#00b136" stroke="none" /><path d="M 105.3480935250658 79.69241777938227 l 2.227697097955402 -8.45892873176787 a29.747348721147848,29.747348721147848 0 0,0 0.4926991027665144,0.13428733139460494 l -2.372577601656609 8.419440906229122" fill="#009110" stroke="none" /><path d="M 105.69591212413111 79.78721728523813 l 3.957849285433587 -14.04501085705359 a35.59201497192764,35.59201497192764 0 0,0 0.5866580772236563,0.17076761623337958 l -4.198367375038848 13.974999546517695" fill="#00a526" stroke="none" /><path d="M 106.04205211174951 79.88797359093562 l 3.451255058395728 -11.488105629524837 a32.99532127261385,32.99532127261385 0 0,0 0.5410594262683116,0.16762159332278012 l -3.6479551175356697 11.42716744839541" fill="#009d1b" stroke="none" /><path d="M 106.38641147887787 79.99465700312896 l 2.909485382766572 -9.113921522146397 a30.567061759201497,30.567061759201497 0 0,0 0.49850112521160533,0.16386722134754317 l -3.0655092456259196 9.062633379396832" fill="#009412" stroke="none" /><path d="M 106.72888874123014 80.10723608172694 l 8.306018889116707 -24.55526896283754 a46.92202121023082,46.92202121023082 0 0,0 0.7607941612411818,0.2646437018661706 l -8.726318822402908 24.409066828402782" fill="#00cc60" stroke="none" /><path d="M 108.07796709384702 80.6158196554323 l 7.1464200463968846 -17.14880654848263 a39.578290704928264,39.578290704928264 0 0,0 0.624893951545829,0.2667300694236678 l -7.439749073113143 17.02360182939956" fill="#00b338" stroke="none" /><path d="M 109.06512990194946 81.05736502329252 l 10.502737838899735 -21.94668264991406 a45.33031815346226,45.33031815346226 0 0,0 0.6990361396042102,0.34193360502808645 l -10.877934227766012 21.763155294788753" fill="#00c757" stroke="none" /><path d="M 109.3889696526874 81.21577127319529 l 5.821144450026394 -11.64618833012925 a34.01996257018091,34.01996257018091 0 0,0 0.5201373285527638,0.26558582608423714 l -6.020209000292737 11.54454455237218" fill="#00a020" stroke="none" /><path d="M 109.71004243097381 81.37971332152246 l 10.202424049655223 -19.56449335524911 a43.06487835308796,43.06487835308796 0 0,0 0.6525583780354228,0.34745058080704655 l -10.536771243477206 19.386472306719487" fill="#00bf4a" stroke="none" /><path d="M 110.02825361518725 81.54914285379988 l 5.771094173431216 -10.618163267229944 a33.085152838427945,33.085152838427945 0 0,0 0.4966803199075288,0.2755002009192699 l -5.952518681494845 10.517530150877528" fill="#009d1c" stroke="none" /><path d="M 110.34350942703115 81.72400993836675 l 11.56765883609428 -20.438944771716937 a44.48533998752339,44.48533998752339 0 0,0 0.6613646768521837,0.3818390742131182 l -11.916815980806861 20.237358800227646" fill="#00c452" stroke="none" /><line stroke="#e1ed5e" stroke-width="0.3" x1="143.13028292997686" x2="145.6673583964461" y1="26.7553504044142" y2="22.446841604673864" /><path d="M 143.63769802327073 25.89364864446614 a86.0,86.0 0 0,1 29.32050498858742,28.57503671076993" fill="none" id="id26" stroke="none" /><text fill="#e1ed5e" style="font-size:6.75px; font-family:Arial;" text-anchor="middle"><textPath startOffset="20.669276256404974" xlink:href="#id26">February</textPath></text><path d="M 110.65571695917076 81.90426304109057 l 8.963964017119004 -15.222770610785632 a38.66593886462882,38.66593886462882 0 0,0 0.5690654828576001,0.3417074718766245 l -9.223962256534039 15.066649138373087" fill="#00b034" stroke="none" /><path d="M 110.96478420261332 82.08984904055464 l 7.6951854198003655 -12.569507067608248 a35.737991266375545,35.737991266375545 0 0,0 0.5204742711551242,0.3248144393114562 l -7.909823819745202 12.435556831455246" fill="#00a627" stroke="none" /><path d="M 111.27062007382361 82.28071324371311 l 27.28813886156669 -42.90148672977475 a71.8446662507798,71.8446662507798 0 0,0 1.034954466026713,0.6708449809133934 l -28.02057895985041 42.42672790715746" fill="#23fffe" stroke="none" /><path d="M 111.8722381534696 82.67804972795209 l 9.679455551823958 -14.122614924144935 a38.12133499688085,38.12133499688085 0 0,0 0.5366120836232137,0.3745969097636104 l -9.920462726620933 13.954373198576198" fill="#00ae31" stroke="none" /><path d="M 112.45986205192187 83.09580414077388 l 9.412353683550107 -12.76966546660103 a36.86369307548347,36.86369307548347 0 0,0 0.5061683674298352,0.3798381793482815 l -9.630175039890707 12.606208259988733" fill="#00aa2c" stroke="none" /><path d="M 112.7482090630111 83.31218511350987 l 3.4577287481752337 -4.526277925945344 a26.695882719900187,26.695882719900187 0 0,0 0.36178013053656705,0.2813224177127911 l -3.5349188233470263 4.466254456611762" fill="#008706" stroke="none" /><path d="M 113.03279911837588 83.53348406188908 l 16.883636430288828 -21.331923084782936 a48.20492825951341,48.20492825951341 0 0,0 0.6444522130446843,0.5191250844502528 l -17.24733941368877 21.038949706539277" fill="#00d168" stroke="none" /><path d="M 113.31354834802062 83.75963576809568 l 6.227266598751113 -7.596252711090801 a30.822520274485342,30.822520274485342 0 0,0 0.406307842752046,0.3389564532629404 l -6.356748775665052 7.48823407391599" fill="#009513" stroke="none" /><path d="M 113.59037401385872 83.9905735841838 l 25.737656446083673 -30.31889457706997 a60.77011852776045,60.77011852776045 0 0,0 0.7894921596007739,0.6819445238991039 l -26.25432808544731 29.872605920706146" fill="#00fcc0" stroke="none" /><path d="M 113.86319453409587 84.22622945171908 l 9.872012826369579 -11.232538416009152 a35.954148471615724,35.954148471615724 0 0,0 0.46010176786228685,0.4114258379507452 l -10.063379621055242 11.06141704817502" fill="#00a728" stroke="none" /><path d="M 114.39649973595853 84.71141617570332 l 15.563384729261644 -16.527775250033944 a43.70212102308172,43.70212102308172 0 0,0 0.5417554537310547,0.5189894696701939 l -15.844812668858012 16.25817365005817" fill="#00c14e" stroke="none" /><path d="M 114.91283532996326 85.21462403516908 l 20.862154227974166 -20.683846288916612 a50.37772925764192,50.37772925764192 0 0,0 0.6036048385368391,0.6193517390227686 l -21.214145867661816 20.3226718578261" fill="#00d875" stroke="none" /><path d="M 115.16444852881244 85.47280134310134 l 12.529826622839723 -12.003290468535418 a38.351528384279476,38.351528384279476 0 0,0 0.45135030987966246,0.4793183880302504 l -12.734032766455647 11.786430620560674" fill="#00af32" stroke="none" /><path d="M 115.41159269507618 85.73525988315684 l 41.242938351670524 -38.1738480169882 a77.19806612601371,77.19806612601371 0 0,0 0.8918299206062714,0.9802773083534282 l -41.89216597311867 37.460233133077104" fill="#36e9ff" stroke="none" /><path d="M 115.8921839302757 86.27271002978787 l 12.82096025566535 -11.074440108309888 a37.94167186525265,37.94167186525265 0 0,0 0.4215237293234615,0.4965538932366997 l -13.009178548495923 10.852719432623637" fill="#00ae31" stroke="none" /><path d="M 116.1254893667686 86.54754324733833 l 27.820457058307934 -23.20881474688329 a57.23019338739863,57.23019338739863 0 0,0 0.6228639397275438,0.7597927302076478 l -28.214767817274105 22.72781973497715" fill="#00f0a5" stroke="none" /><path d="M 116.35404254752997 86.82634096563983 l 17.495954350042204 -14.093502350768802 a43.466313162819716,43.466313162819716 0 0,0 0.4630892090842585,0.5850980877470494 l -17.735309989768023 13.791084319107073" fill="#00c14c" stroke="none" /><path d="M 116.57777611688842 87.10902102172516 l 20.578544116579515 -16.00200037326356 a47.06799750467873,47.06799750467873 0 0,0 0.49051134208530306,0.6420950924152766 l -20.850207436019122 15.646384367607402" fill="#00cd61" stroke="none" /><path d="M 117.01052211995028 87.68569379921539 l 50.59724548048485 -36.628503779563985 a83.4638178415471,83.4638178415471 0 0,0 0.8302062555307085,1.1677890679817213 l -51.21856683454552 35.754537484872756" fill="#4bd4ff" stroke="none" /><path d="M 117.21940702142032 87.97951657250589 l 10.528682967112093 -7.349838409770706 a33.84029943855271,33.84029943855271 0 0,0 0.3284285873723637,0.47918712418352905 l -10.653301291299782 7.1680165505171285" fill="#009f1f" stroke="none" /><path d="M 117.42321728460499 88.27688183743584 l 9.323385454541544 -6.273189823288164 a32.23736743605739,32.23736743605739 0 0,0 0.30498938395607006,0.4617927997211072 l -9.429699277418338 6.112217145227998" fill="#009a19" stroke="none" /><path d="M 117.62189284568427 88.57770195909679 l 23.045402955529262 -14.937751769114545 a48.46319401122895,48.46319401122895 0 0,0 0.4465128880226154,0.7019924237909679 l -23.298433535177768 14.539945670644906" fill="#00d269" stroke="none" /><line stroke="#e1ed5e" stroke-width="0.3" x1="172.87174338648825" x2="177.1583165268699" y1="56.24261187166439" y2="53.66864786411523" /><path d="M 173.72905801456457 55.72781907015455 a86.0,86.0 0 0,1 12.242430191666344,42.057860355516425" fill="none" id="id27" stroke="none" /><text fill="#e1ed5e" style="font-size:6.75px; font-family:Arial;" text-anchor="middle"><textPath startOffset="22.145653131862474" xlink:href="#id27">March</textPath></text><path d="M 118.00360718960297 89.18935116829356 l 33.404785820117105 -20.058614087525907 a59.96444167186525,59.96444167186525 0 0,0 0.522336801865441,0.8870420832997199 l -33.74419633211231 19.48222083593263" fill="#00f9ba" stroke="none" /><path d="M 118.18653347947321 89.5 l 9.92390557836329 -5.729569557080475 a32.45913911416095,32.45913911416095 0 0,0 0.27446000508593305,0.4849445307370908 l -10.020798948470597 5.5583682562442664" fill="#009b19" stroke="none" /><path d="M 118.36410011445183 89.81374322990088 l 37.917996217069295 -21.03247331845883 a64.3605739238927,64.3605739238927 0 0,0 0.5276177191630348,0.9707571764377856 l -38.27345928584767 20.37846130854644" fill="#09ffd7" stroke="none" /><path d="M 118.53625476483649 90.13048839642627 l 14.25776801312751 -7.591458395013352 a37.1528384279476,37.1528384279476 0 0,0 0.29490849431507,0.5655259229916676 l -14.385984576417524 7.345586228917186" fill="#00ab2d" stroke="none" /><path d="M 118.70294669586156 90.45014215332178 l 9.798170586545059 -5.003015716219403 a32.00155957579538,32.00155957579538 0 0,0 0.2456197214184033,0.49140397696532834 l -9.882610221175199 4.834079883090324" fill="#009918" stroke="none" /><path d="M 118.8641267826498 90.77261029715802 l 23.305711575427704 -11.399991395641942 a46.94447910168434,46.94447910168434 0 0,0 0.347882603451882,0.7269408429016079 l -23.4979734368395 10.998238050675232" fill="#00cd60" stroke="none" /><path d="M 119.4528033332814 92.08871423366111 l 58.1633792205024 -23.654539978928156 a83.7894572676232,83.7894572676232 0 0,0 0.5304324510965297,1.337036280886094 l -58.56087034656505 22.652602680828497" fill="#4cd3ff" stroke="none" /><path d="M 119.58574465831526 92.42381321644754 l 4.786036169066972 -1.8513416059621097 a26.131628197130382,26.131628197130382 0 0,0 0.1582448232687787,0.4197631943364206 l -4.817111676150191 1.7689101314315312" fill="#008504" stroke="none" /><path d="M 119.83427380445688 93.10060997987247 l 14.031232997039371 -4.8807911932779895 a35.85589519650655,35.85589519650655 0 0,0 0.19723231513190084,0.583082293801759 l -14.112950733743636 4.639207225002068" fill="#00a627" stroke="none" /><path d="M 119.94978838288452 93.4421083053983 l 17.43850809674029 -5.732383984181503 a39.3565190268247,39.3565190268247 0 0,0 0.20546967378684342,0.6436308266631294 l -17.53434248630439 5.432184123826987" fill="#00b237" stroke="none" /><path d="M 120.26092885502905 94.47779374421319 l 19.99369621350474 -5.449370811008588 a41.72301933873986,41.72301933873986 0 0,0 0.182410098470666,0.6926408551388314 l -20.084295792780136 5.1053494514969575" fill="#00bb43" stroke="none" /><path d="M 120.35273937422433 94.82641323984039 l 35.55154336551857 -9.037063300285933 a57.68215845290081,57.68215845290081 0 0,0 0.23570708060583997,0.9617653241102934 l -35.7014379726407 8.425442151567545" fill="#00f1a8" stroke="none" /><path d="M 120.51834098615036 95.52812308129327 l 32.083107724133434 -6.992364002955973 a53.83624454148472,53.83624454148472 0 0,0 0.18904799586229856,0.9046630963459953 l -32.1984134308201 6.440584455324573" fill="#00e48c" stroke="none" /><path d="M 120.592083275326 95.88100663000786 l 11.528336791337487 -2.3059902281695575 a32.75670617592015,32.75670617592015 0 0,0 0.10556036950230885,0.5523364588024148 l -11.566223453121953 2.107751204333828" fill="#009c1b" stroke="none" /><path d="M 120.65975698304385 96.23510406497455 l 25.894476532668754 -4.718836214650049 a47.32092950717405,47.32092950717405 0 0,0 0.13877467048268705,0.8004154214105584 l -25.971666020643674 4.273627760318898" fill="#00ce62" stroke="none" /><path d="M 120.7213421655516 96.59031103205396 l 23.26982164648642 -3.829040296723688 a44.58275109170306,44.58275109170306 0 0,0 0.11778021461613401,0.7562334676606461 l -23.33212335324082 3.4290186471316004" fill="#00c453" stroke="none" /><path d="M 120.77682067341334 96.94652285012252 l 62.303243477873124 -9.156431261226505 a83.97248908296945,83.97248908296945 0 0,0 0.19735727594057592,1.4279789352890029 l -62.451245270368915 8.085564017737415" fill="#4dd2ff" stroke="none" /><path d="M 120.86939407059847 97.66154086499901 l 43.92615953112928 -4.922017796663999 a65.20106051154086,65.20106051154086 0 0,0 0.11508796765813989,1.1133716877045472 l -44.00417989126909 4.1672415866765204" fill="#0cffdc" stroke="none" /><path d="M 120.9064616781168 98.02013634271609 l 22.445893454388436 -2.125649447038022 a43.546319401122894,43.546319401122894 0 0,0 0.06408852273979972,0.7448057806257243 l -22.479075599825975 1.7400226190366357" fill="#00c14d" stroke="none" /><path d="M 120.96210409425399 98.7389718711861 l 25.241952635376528 -1.5184931892463747 a46.28758577666875,46.28758577666875 0 0,0 0.0409059057098822,0.793563642671181 l -25.26430013054298 1.084957753198463" fill="#00ca5c" stroke="none" /><path d="M 120.98066250479742 99.09900007780936 l 21.48923929842588 -0.922840397980309 a42.509045539613226,42.509045539613226 0 0,0 0.025050606857997638,0.7293210860610088 l -21.501914592280723 0.5538130473551802" fill="#00bd47" stroke="none" /><path d="M 120.99303781780057 99.45929381324524 l 62.17931631704046 -1.601518623107378 a83.19993761696819,83.19993761696819 0 0,0 0.024518500234729856,1.42807971929607 l -62.19764624887385 0.5338919878422413" fill="#4ad4ff" stroke="none" /><line stroke="#e1ed5e" stroke-width="0.3" x1="184.99686870605535" x2="189.99668451229388" y1="99.2704041080226" y2="99.22748670261217" /><path d="M 185.99683186730306 99.26182062694052 a86.0,86.0 0 0,1 -10.086455211305974,41.156179273409016" fill="none" id="id28" stroke="none" /><text fill="#e1ed5e" style="font-size:6.75px; font-family:Arial;" text-anchor="middle"><textPath startOffset="21.40746469413373" xlink:href="#id28">April</textPath></text><path d="M 120.99922638620191 100.18025310272382 l 14.07777207826431 0.12084074193387201 a35.07829070492826,35.07829070492826 0 0,0 -0.010337352449011638,0.6020989555773743 l -14.073623294216631 -0.36248661348031735" fill="#00a424" stroke="none" /><path d="M 120.99303781780057 100.54070618675476 l 33.70653826257946 0.868160860321454 a54.717716781035556,54.717716781035556 0 0,0 -0.03224518438015514,0.9387833606458259 l -33.68666839120245 -1.4466504855313906" fill="#00e793" stroke="none" /><path d="M 120.96210409425399 101.26102812881392 l 22.411760343887813 1.3482358489778556 a43.45227698066126,43.45227698066126 0 0,0 -0.0511827243266639,0.7441855786457939 l -22.385313658396086 -1.732764851777993" fill="#00c14c" stroke="none" /><path d="M 120.93736805541906 101.62068470465957 l 25.78593332518169 1.9959943210090838 a46.86306924516532,46.86306924516532 0 0,0 -0.06896989045871327,0.8015346727733583 l -25.74786981202524 -2.4383500411580994" fill="#00cc60" stroke="none" /><path d="M 120.82617615685814 102.69636545807757 l 9.621504072467031 1.2456963314030958 a30.701809107922646,30.701809107922646 0 0,0 -0.07215726815005584,0.5220940472308712 l -9.598702287761766 -1.410678686834052" fill="#009513" stroke="none" /><path d="M 120.77682067341334 103.0534771498775 l 21.455432631064713 3.153209738366045 a42.685901434809736,42.685901434809736 0 0,0 -0.11276905325410616,0.7240582169518324 l -21.39814208567234 -3.521056137249328" fill="#00be48" stroke="none" /><path d="M 120.7213421655516 103.40968896794604 l 16.672545917626124 2.743461086097567 a37.896756082345604,37.896756082345604 0 0,0 -0.11113707808493015,0.6410091328646782 l -16.622994022048957 -3.029263251882833" fill="#00ad30" stroke="none" /><path d="M 120.65975698304385 103.76489593502545 l 27.670007826367918 5.0423971624213495 a49.12570180910792,49.12570180910792 0 0,0 -0.15831039931730337,0.8283469048353989 l -27.579371134768454 -5.516646632290063" fill="#00d46d" stroke="none" /><path d="M 120.592083275326 104.11899336999214 l 13.821341697541914 2.7646554287582004 a35.095134123518406,35.095134123518406 0 0,0 -0.12323788234258135,0.5897378796248433 l -13.77184610437497 -3.0015097596684526" fill="#00a424" stroke="none" /><path d="M 120.51834098615036 104.47187691870673 l 46.66409435844081 10.170222175112405 a68.75951341235185,68.75951341235185 0 0,0 -0.2612505873755141,1.1511182919448846 l -46.482632909507636 -10.969774800996307" fill="#19ffef" stroke="none" /><path d="M 120.35273937422433 105.17358676015961 l 14.096008737793808 3.5831502991338016 a35.54429195258889,35.54429195258889 0 0,0 -0.15539713802835398,0.590068244425589 l -14.032422118960724 -3.824599047932194" fill="#00a526" stroke="none" /><path d="M 120.16314734710363 105.8691983318838 l 15.209959960748481 4.427397672242259 a36.84123518402994,36.84123518402994 0 0,0 -0.18196707089996864,0.6057091974436157 l -15.131716569844883 -4.6878444732765985" fill="#00aa2c" stroke="none" /><path d="M 119.94978838288452 106.5578916946017 l 16.651788431877414 5.473773604102972 a38.528384279475986,38.528384279475986 0 0,0 -0.2119328603591233,0.6265418436503395 l -16.555370149945926 -5.758817122227471" fill="#00b033" stroke="none" /><path d="M 119.71291397450082 107.23885506374661 l 11.839870219334136 4.347764343830342 a33.612913287585776,33.612913287585776 0 0,0 -0.2035491046565136,0.5399381831898056 l -11.763490430863182 -4.550370807214306" fill="#009f1e" stroke="none" /><path d="M 119.58574465831526 107.57618678355244 l 22.96668997541327 8.884009063183596 a45.62507797878977,45.62507797878977 0 0,0 -0.2888313486321052,0.7280436771544888 l -22.810799951815042 -9.276953757551649" fill="#00c858" stroke="none" /><path d="M 119.16976305983485 108.57439118712176 l 7.956792750305749 3.5589721908938254 a29.716469120399253,29.716469120399253 0 0,0 -0.21228247703404263,0.46387552320684994 l -7.894525808416651 -3.6950366963153645" fill="#00910f" stroke="none" /><path d="M 119.0197475246899 108.90220220490707 l 57.05924257406971 26.70660661472122 a84.0,84.0 0 0,0 -0.6224829681603521,1.300749991739586 l -56.592380347949444 -27.682169108525912" fill="#4dd2ff" stroke="none" /><path d="M 118.8641267826498 109.22738970284198 l 3.3211017252584165 1.6245172763536497 a24.697130380536493,24.697130380536493 0 0,0 -0.1895564580074302,0.37923989485207454 l -3.2927253540392543 -1.68128902736947" fill="#008000" stroke="none" /><path d="M 118.5362547648365 109.86951160357373 l 12.825548702806396 6.828882282340823 a35.53025577043044,35.53025577043044 0 0,0 -0.29127136953504945,0.5359065133664251 l -12.706431983656007 -7.048043629181851" fill="#00a526" stroke="none" /><line stroke="#e1ed5e" stroke-width="0.3" x1="174.33088141563837" x2="178.70328620479359" y1="141.23008692659167" y2="143.65538615756765" /><path d="M 175.20536237346943 141.71514677278685 a86.0,86.0 0 0,1 -30.301960400862466,31.631185727798858" fill="none" id="id29" stroke="none" /><text fill="#e1ed5e" style="font-size:6.75px; font-family:Arial;" text-anchor="middle"><textPath startOffset="22.145653131862474" xlink:href="#id29">May</textPath></text><path d="M 118.36410011445183 110.18625677009912 l 13.533724792483689 7.506929004574874 a36.47629444791017,36.47629444791017 0 0,0 -0.3084272791240376,0.5449614492810845 l -13.402864148338272 -7.738147223955082" fill="#00a92a" stroke="none" /><path d="M 118.00360718960297 110.81064883170644 l 10.28376439548706 6.175105042939352 a32.99532127261385,32.99532127261385 0 0,0 -0.29575126126628537,0.48308745870831454 l -10.17624516976537 -6.350729617772224" fill="#009d1b" stroke="none" /><path d="M 117.81537515405839 111.11811171558189 l 43.70808041205331 27.277074812771733 a72.52121023081722,72.52121023081722 0 0,0 -0.6681700553115544,1.0504743070460854 l -43.23339266511587 -28.02336279449649" fill="#26fdff" stroke="none" /><path d="M 117.423217284605 111.72311816256416 l 16.340962365491755 10.994928753482325 a40.69557080474111,40.69557080474111 0 0,0 -0.3949607141030977,0.5762594854203629 l -16.149811914573338 -11.273822973972733" fill="#00b73e" stroke="none" /><path d="M 117.01052211995028 112.31430620078461 l 15.972093490401583 11.562563954323736 a40.71802869619464,40.71802869619464 0 0,0 -0.4147382906973222,0.5626721441259278 l -15.771253180120434 -11.835042407718541" fill="#00b73e" stroke="none" /><path d="M 116.79662413953412 112.60449989151573 l 34.897041134030715 26.187390247830518 a64.630068621335,64.630068621335 0 0,0 -0.6735315581540372,0.8816744302771182 l -34.44235759852238 -26.782585591348514" fill="#0affd9" stroke="none" /><path d="M 115.6541949942343 113.99807769240083 l 12.58501854050331 11.253601181993393 a37.88271990018715,37.88271990018715 0 0,0 -0.4376397593404035,0.4810427587168352 l -12.389981080321025 -11.4679815162679" fill="#00ad30" stroke="none" /><path d="M 115.16444852881244 114.52719865689866 l 14.458459052700542 13.850876708911503 a41.02233312538989,41.02233312538989 0 0,0 -0.49151240294935994,0.5043350253054117 l -14.218559848600375 -14.097034426284653" fill="#00b840" stroke="none" /><path d="M 114.39649973595853 115.28858382429668 l 41.351607231067746 43.913973883699676 a81.31908920773549,81.31908920773549 0 0,0 -1.0245052394395464,0.948266754650112 l -40.59167222031424 -44.617358384482166" fill="#44daff" stroke="none" /><line stroke="#e1ed5e" stroke-width="0.3" x1="143.1302829299769" x2="145.66735839644613" y1="173.24464959558577" y2="177.55315839532614" /><path d="M 143.63769802327073 174.10635135553383 a86.0,86.0 0 0,1 -40.68552437913181,11.842963189579606" fill="none" id="id30" stroke="none" /><text fill="#e1ed5e" style="font-size:6.75px; font-family:Arial;" text-anchor="middle"><textPath startOffset="21.407464694133747" xlink:href="#id30">June</textPath></text><path d="M 109.06512990194946 118.94263497670748 l 4.242538960884733 8.865274715282002 a30.82813474734872,30.82813474734872 0 0,0 -0.47932066310949234,0.22434627265434326 l -4.089729583903734 -8.936797219506879" fill="#009513" stroke="none" /><path d="M 108.4095320186766 119.2426549942271 l 5.763613402516026 13.188275397300016 a35.3927011852776,35.3927011852776 0 0,0 -0.5588084908577123,0.23852211594030684 l -5.536369836487883 -13.285272162899727" fill="#00a525" stroke="none" /><path d="M 107.74402155503746 119.51999308798841 l 5.248488006956593 13.229618343654915 a35.23268870867124,35.23268870867124 0 0,0 -0.5641051052755384,0.2182079730784465 l -5.020610639187525 -13.317766204871402" fill="#00a425" stroke="none" /><path d="M 107.407793817531 119.65005319985036 l 5.104782612428341 13.54104236412467 a35.47130380536494,35.47130380536494 0 0,0 -0.5716130482241781,0.20990422897363778 l -4.871580412550036 -13.626677442107031" fill="#00a526" stroke="none" /><path d="M 107.06938296918513 119.77432235084164 l 4.748727754231606 13.283036691869606 a35.10636306924516,35.10636306924516 0 0,0 -0.5692149518842757,0.19800250803512126 l -4.520007030302308 -13.362597632473317" fill="#00a424" stroke="none" /><path d="M 105.69591212413111 120.21278271476187 l 3.9934836345213682 14.171464590818522 a35.72339363693076,35.72339363693076 0 0,0 -0.5916790823169373,0.1612647649654922 l -3.749623151269736 -14.237929849928156" fill="#00a627" stroke="none" /><path d="M 105.3480935250658 120.30758222061773 l 2.533683734003192 9.62080982842918 a30.948845913911416,30.948845913911416 0 0,0 -0.5149220449096875,0.1308911702290473 l -2.368156395868107 -9.662886230493498" fill="#009614" stroke="none" /><path d="M 104.9986988182912 120.39639698878246 l 6.702203343836656 27.347276775352643 a49.156581409856514,49.156581409856514 0 0,0 -0.8213078023231738,0.19382640504306659 l -6.231763387773603 -27.458299324041935" fill="#00d46e" stroke="none" /><path d="M 104.29559338865022 120.5559693870025 l 3.53263842709778 16.90495370316898 a38.270118527760445,38.270118527760445 0 0,0 -0.6442200666052424,0.12886205575627355 l -3.2419218749615792 -16.963105155588117" fill="#00af32" stroke="none" /><path d="M 103.58742460773223 120.69131181640829 l 3.6383218537487174 20.98487360601458 a42.297941359950094,42.297941359950094 0 0,0 -0.7164918722036274,0.11789846491396912 l -3.2775524784920176 -21.04423806942422" fill="#00bd46" stroke="none" /><path d="M 103.2317021107853 120.74984581791261 l 2.180772514291626 14.002123922398571 a35.17092950717405,35.17092950717405 0 0,0 -0.5973613127452783,0.08779154170698715 l -1.940086095938662 -14.037496537404442" fill="#00a424" stroke="none" /><path d="M 102.875027216393 120.80226474461374 l 4.4547420637925965 32.232294446326236 a53.538677479725514,53.538677479725514 0 0,0 -0.9114887897923218,0.11801047247992236 l -3.9007754521094995 -32.30401651500655" fill="#00e38a" stroke="none" /><path d="M 101.80034050326958 120.92268563240118 l 2.2747729841686226 26.43631021265342 a47.533998752339365,47.533998752339365 0 0,0 -0.8135806168526678,0.06297628518782929 l -1.8206233725407188 -26.471464264836303" fill="#00cf64" stroke="none" /><path d="M 101.08105385017728 120.97215588758144 l 0.7970327466200998 15.462222355419918 a36.48275109170306,36.48275109170306 0 0,0 -0.625721291697305,0.026871164578493298 l -0.5314856943219654 -15.473626088424242" fill="#00a92a" stroke="none" /><path d="M 100.72087961077811 120.9876233191556 l 0.5950292308178774 17.3236268214228 a38.333842794759825,38.333842794759825 0 0,0 -0.657857455416028,0.016944074470471318 l -0.29755846133110553 -17.331288613243313" fill="#00af32" stroke="none" /><line stroke="#e1ed5e" stroke-width="0.3" x1="101.45913802915013" x2="101.54496967792366" y1="184.9874750549273" y2="189.98673829345242" /><path d="M 101.47630435890484 185.9873277026323 a86.0,86.0 0 0,1 -42.54439059252881,-10.42667462771756" fill="none" id="id31" stroke="none" /><text fill="#e1ed5e" style="font-size:6.75px; font-family:Arial;" text-anchor="middle"><textPath startOffset="22.145653131862474" xlink:href="#id31">July</textPath></text><path d="M 100.0 121.0 l 1.381337415806818e-15 11.279475982532752 a32.27947598253275,32.27947598253275 0 0,0 -0.5541201290253098,-0.004756454866554972 l 0.19362720417645635 -11.277813925860631" fill="#009a19" stroke="none" /><path d="M 96.76829788921471 120.74984581791261 l -1.7401251362057508 11.172851655986815 a32.30754834684966,32.30754834684966 0 0,0 -0.5472629413416776,-0.09005190873979832 l 1.9316655806004919 -11.141333748751348" fill="#009a19" stroke="none" /><path d="M 96.41257539226777 120.69131181640829 l -1.9767441716075536 11.401335082510688 a32.57142857142857,32.57142857142857 0 0,0 -0.5500930663289725,-0.10024528124930994 l 2.1721719714875833 -11.365721627330013" fill="#009b1a" stroke="none" /><path d="M 95.70440661134978 120.55596938700252 l -4.731048114573892 22.639777886932592 a44.12882096069869,44.12882096069869 0 0,0 -0.7401823453639669,-0.16131929711576315 l 5.118992876556995 -22.555227131683107" fill="#00c350" stroke="none" /><path d="M 95.35216902796893 120.47920084513623 l -3.7750941519553716 16.633761385132487 a38.056768558951966,38.056768558951966 0 0,0 -0.6358522104713822,-0.15005939033543927 l 4.060078516166642 -16.566505851150822" fill="#00ae31" stroke="none" /><path d="M 94.6519064749342 120.30758222061772 l -7.427325144627309 28.202763348631702 a50.16437928883344,50.16437928883344 0 0,0 -0.8308621012963162,-0.22645516038795846 l 7.910368646858321 -28.0711076940996" fill="#00d874" stroke="none" /><path d="M 93.61358852112213 120.00534299687104 l -5.554316872147684 17.398818492689102 a39.26388022457891,39.26388022457891 0 0,0 -0.6403326766019374,-0.21049006942211815 l 5.852172286397365 -17.300907501864963" fill="#00b237" stroke="none" /><path d="M 93.27111125876986 119.89276391827306 l -6.2983262141645175 18.619882312950885 a40.65626949469744,40.65626949469744 0 0,0 -0.6592011949107874,-0.2293043945174174 l 6.617033181120327 -18.50901948586488" fill="#00b73e" stroke="none" /><path d="M 92.93061703081489 119.77432235084164 l -4.753452856474614 13.29625364380182 a35.12039925140362,35.12039925140362 0 0,0 -0.5659582907101689,-0.20782772368793948 l 4.981000298838902 -13.212695071105161" fill="#00a424" stroke="none" /><path d="M 92.25597844496254 119.51999308798841 l -5.218467069638693 13.153945970486085 a35.15127885215222,35.15127885215222 0 0,0 -0.558981559815573,-0.2273329340789111 l 5.443503090644707 -13.062425779827883" fill="#00a424" stroke="none" /><path d="M 91.92203290615298 119.3841803445677 l -10.824375120139361 25.97455981293288 a49.13973799126637,49.13973799126637 0 0,0 -0.7758577872961402,-0.33116755404090825 l 11.268667982605933 -25.784917609232572" fill="#00d46e" stroke="none" /><path d="M 91.59046798132341 119.24265499422711 l -3.7715863010417903 8.630127551773272 a30.418278228321896,30.418278228321896 0 0,0 -0.47667846062614155,-0.21321221233282886 l 3.9191781645235673 -8.564111588530588" fill="#009412" stroke="none" /><path d="M 91.26138138417905 119.09545874513695 l -10.54147951018202 23.03503516390463 a46.332501559575796,46.332501559575796 0 0,0 -0.7203849844651569,-0.3371765470999442 l 10.935353208518666 -22.85068238523416" fill="#00ca5d" stroke="none" /><path d="M 90.6110303473126 118.78422872680471 l -7.174140076832878 14.353085919581458 a37.04616344354336,37.04616344354336 0 0,0 -0.5664054581748185,-0.28921066274273294 l 7.419472756721279 -14.227817305165889" fill="#00aa2c" stroke="none" /><path d="M 89.97174638481275 118.45085714620012 l -15.058467096435038 27.705883386944016 a52.533686837180284,52.533686837180284 0 0,0 -0.7886452425242065,-0.4374482218459859 l 15.531856527115346 -27.44330224966488" fill="#00e084" stroke="none" /><line stroke="#e1ed5e" stroke-width="0.3" x1="58.13341422392154" x2="55.67067388415222" y1="173.97424548756322" y2="178.32567169271397" /><path d="M 57.64086615596768 174.84453072859336 a86.0,86.0 0 0,1 -31.369924170532247,-30.572349798747897" fill="none" id="id32" stroke="none" /><text fill="#e1ed5e" style="font-size:6.75px; font-family:Arial;" text-anchor="middle"><textPath startOffset="22.145653131862474" xlink:href="#id32">August</textPath></text><path d="M 89.65649057296885 118.27599006163327 l -6.939765682328134 12.261901005169415 a35.08951965065502,35.08951965065502 0 0,0 -0.5216767778140482,-0.3011902281009196 l 7.149234928002582 -12.140963879792324" fill="#00a424" stroke="none" /><path d="M 89.03521579738668 117.91015095944536 l -11.812476056794504 19.29479189673426 a43.623518402994385,43.623518402994385 0 0,0 -0.6353160360017998,-0.39648419423598114 l 12.141956221586016 -19.089171905656734" fill="#00c14d" stroke="none" /><path d="M 88.4268655584334 117.5232005979908 l -9.317708864807146 14.108198809586355 a37.90742358078603,37.90742358078603 0 0,0 -0.5399167191281999,-0.3632800643470457 l 9.558521872032353 -13.946169071182188" fill="#00ad30" stroke="none" /><path d="M 88.1277618465304 117.32195027204791 l -7.981305455012732 11.644963183066878 a35.117592014971926,35.117592014971926 0 0,0 -0.49433012313250857,-0.34508081755856485 l 8.180030669319006 -11.506237549703185" fill="#00a424" stroke="none" /><path d="M 87.54013794807813 116.9041958592261 l -11.694237340684001 15.865478895948645 a40.70960698689956,40.70960698689956 0 0,0 -0.5589758808233272,-0.419465921882142 l 11.964866210418094 -15.662393946802489" fill="#00b73e" stroke="none" /><path d="M 86.96720088162412 116.46651593811092 l -18.007353848257697 22.75170333343478 a50.01559575795383,50.01559575795383 0 0,0 -0.6686590466318176,-0.5386243960762055 l 18.395263665244777 -22.439230643565164" fill="#00d773" stroke="none" /><line stroke="#e1ed5e" stroke-width="0.3" x1="26.387840678322732" x2="22.057713659400548" y1="142.50000000000003" y2="145.00000000000006" /><path d="M 25.521815274538298 143.00000000000003 a86.0,86.0 0 0,1 -11.493303480769221,-40.785679425670985" fill="none" id="id33" stroke="none" /><text fill="#e1ed5e" style="font-size:6.75px; font-family:Arial;" text-anchor="middle"><textPath startOffset="21.40746469413373" xlink:href="#id33">September</textPath></text><line stroke="#e1ed5e" stroke-width="0.3" x1="15.003131293944662" x2="10.003315487706104" y1="100.72959589197737" y2="100.7725132973878" /><path d="M 14.003168132696942 100.73817937305945 a86.0,86.0 0 0,1 10.791469493833604,-42.45332614584628" fill="none" id="id34" stroke="none" /><text fill="#e1ed5e" style="font-size:6.75px; font-family:Arial;" text-anchor="middle"><textPath startOffset="22.145653131862435" xlink:href="#id34">October</textPath></text><line stroke="#e1ed5e" stroke-width="0.3" x1="26.387840678322718" x2="22.05771365940052" y1="57.49999999999999" y2="54.99999999999999" /><path d="M 25.521815274538284 56.99999999999999 a86.0,86.0 0 0,1 29.574782752854787,-30.34633250058573" fill="none" id="id35" stroke="none" /><text fill="#e1ed5e" style="font-size:6.75px; font-family:Arial;" text-anchor="middle"><textPath startOffset="21.40746469413373" xlink:href="#id35">November</textPath></text><line stroke="#e1ed5e" stroke-width="0.3" x1="56.869717070023135" x2="54.33264160355391" y1="26.7553504044142" y2="22.446841604673864" /><path d="M 56.362301976729285 25.89364864446614 a86.0,86.0 0 0,1 42.16139366436587,-11.88097634709845" fill="none" id="id36" stroke="none" /><text fill="#e1ed5e" style="font-size:6.75px; font-family:Arial;" text-anchor="middle"><textPath startOffset="22.145653131862474" xlink:href="#id36">December</textPath></text></svg>