<?xml version="1.0" encoding="utf-8" ?>
<svg baseProfile="full" height="200mm" version="1.1" viewBox="0,0,200,200" width="200mm" xmlns="http://www.w3.org/2000/svg" xmlns:ev="http://www.w3.org/2001/xml-events" xmlns:xlink="http://www.w3.org/1999/xlink"><defs /><rect fill="#1a1a1a" height="200" width="200" x="0" y="0" /><text alignment-baseline="middle" fill="#e1ed5e" style="dominant-baseline: central; font-size:9.0px; font-family:Arial;" text-anchor="middle" x="100.0" y="100.0">2024</text><line stroke="#e1ed5e" stroke-width="0.3" x1="100.0" x2="100.0" y1="15.0" y2="10.0" /><path d="M 100.0 14.0 a86.0,86.0 0 0,1 42.35913384403234,11.155469271406648" fill="none" id="id25" stroke="none" /><text fill="#e1ed5e" style="font-size:6.75px; font-family:Arial;" text-anchor="middle"><textPath startOffset="22.145653131862478" xlink:href="#id25">January</textPath></text><path d="M 100.0 79.0 l 0.0 -16.653978720215797 a37.6539787202158,37.6539787202158 0 0,0 0.6463806152879585,0.005548400179291729 l -0.2858876904391038 16.65152471823094" fill="#00a525" stroke="none" /><path d="M 101.08105385017728 79.02784411241856 l 1.0386087567041098 -20.148732413499868 a41.17548329087367,41.17548329087367 0 0,0 0.7055823912331579,0.04244608454094609 l -1.38433550006973 20.127934351134233" fill="#00b236" stroke="none" /><path d="M 101.44090949804482 79.04949213459386 l 2.6399759513106407 -38.384670936978175 a59.475348419001946,59.475348419001946 0 0,0 1.0179659175397666,0.07879700008399236 l -3.2985108636256406 38.33369616989913" fill="#00f4ad" stroke="none" /><path d="M 102.15924093988457 79.11130261209362 l 1.9870970495775717 -19.223361405534696 a40.32579049902593,40.32579049902593 0 0,0 0.6879658559699373,0.07708800912088648 l -2.316798807148306 19.18641763590684" fill="#00af32" stroke="none" /><path d="M 102.87502721639298 79.19773525538626 l 2.937068864701176 -21.25116720575931 a42.453169488985466,42.453169488985466 0 0,0 0.7210466544810985,0.10596902760348813 l -3.3014406247899566 21.19761710485694" fill="#00b63d" stroke="none" /><path d="M 103.94208987418118 79.37332000966035 l 4.203202375962693 -21.99293093530146 a43.39097857035816,43.39097857035816 0 0,0 0.7304220676605973,0.14610487019518928 l -4.580120929154247 21.91753666844341" fill="#00ba42" stroke="none" /><path d="M 104.64783097203109 79.52079915486377 l 6.083344179487408 -26.804336907151185 a48.48598831110445,48.48598831110445 0 0,0 0.8101035377385871,0.19118222910873267 l -6.542579870965881 26.695958534396222" fill="#00cc5f" stroke="none" /><path d="M 104.9986988182912 79.60360301121754 l 4.8114255222365285 -19.632258033710432 a41.21324741495579,41.21324741495579 0 0,0 0.685699547417988,0.17430214354643106 l -5.147730362879911 19.546770658328732" fill="#00b236" stroke="none" /><path d="M 105.3480935250658 79.69241777938227 l 2.4973264534849453 -9.482755312369973 a30.806084219991007,30.806084219991007 0 0,0 0.5102347169564352,0.1390667410194805 l -2.6597425713760736 9.438488077206351" fill="#008c0b" stroke="none" /><path d="M 105.69591212413111 79.78721728523813 l 4.436887639927097 -15.744948981167722 a37.358159748239174,37.358159748239174 0 0,0 0.6157691882238834,0.1792414363756681 l -4.706516840532585 15.666463850489539" fill="#00a424" stroke="none" /><path d="M 106.04205211174951 79.88797359093562 l 3.8689777721423106 -12.87856868663751 a34.4471751835756,34.4471751835756 0 0,0 0.5648670212179134,0.17499724709552605 l -4.089485426231854 12.810254851735339" fill="#009918" stroke="none" /><path d="M 106.38641147887787 79.99465700312896 l 3.2616349947573506 -10.217025166092684 a31.725011239322644,31.725011239322644 0 0,0 0.5173854760637059,0.1700748825634978 l -3.436543208468799 10.159529362127165" fill="#00900e" stroke="none" /><path d="M 106.72888874123014 80.10723608172694 l 9.31133802435472 -27.527316352664975 a50.05949348119287,50.05949348119287 0 0,0 0.8116651706998192,0.28233927965404343 l -9.782508967099558 27.36341864044234" fill="#00d269" stroke="none" /><path d="M 108.07796709384702 80.6158196554323 l 8.011387116301457 -19.22441263604811 a41.82691443129028,41.82691443129028 0 0,0 0.6603970352030294,0.28188422469307567 l -8.340219226674916 19.084053761695632" fill="#00b43a" stroke="none" /><path d="M 109.06512990194946 81.05736502329252 l 11.773936888984858 -24.60299975170445 a48.2751386183126,48.2751386183126 0 0,0 0.7444480408092149,0.3641468415268436 l -12.19454517905614 24.397259160080385" fill="#00cb5e" stroke="none" /><path d="M 109.3889696526874 81.21577127319529 l 6.5257067659469685 -13.055784929554958 a35.59583395774015,35.59583395774015 0 0,0 0.5442311097254173,0.2778882824259816 l -6.7488650973859645 12.941838695456143" fill="#009e1d" stroke="none" /><path d="M 109.71004243097381 81.37971332152246 l 11.437274615233653 -21.93248213589592 a45.7355012737899,45.7355012737899 0 0,0 0.6930260962346666,0.36899736139485156 l -11.81208952725488 21.732914306778497" fill="#00c24f" stroke="none" /><path d="M 110.02825361518725 81.54914285379988 l 6.469598653286544 -11.903332835964553 a34.54787951446126,34.54787951446126 0 0,0 0.5186390382769864,0.28768033184098946 l -6.672981879719631 11.790519588690419" fill="#009a18" stroke="none" /><path d="M 110.34350942703115 81.72400993836675 l 12.967750616895342 -22.9127727941891 a47.327888505919375,47.327888505919375 0 0,0 0.7036249177053026,0.4062380356456847 l -13.359168002461042 22.68678786126724" fill="#00c858" stroke="none" /><line stroke="#e1ed5e" stroke-width="0.3" x1="143.13028292997686" x2="145.6673583964461" y1="26.7553504044142" y2="22.446841604673864" /><path d="M 143.63769802327073 25.89364864446614 a86.0,86.0 0 0,1 29.32050498858742,28.57503671076993" fill="none" id="id26" stroke="none" /><text fill="#e1ed5e" style="font-size:6.75px; font-family:Arial;" text-anchor="middle"><textPath startOffset="20.669276256404974" xlink:href="#id26">February</textPath></text><path d="M 110.65571695917076 81.90426304109057 l 10.048917551934895 -17.065258906401475 a40.8041360707328,40.8041360707328 0 0,0 0.6005343741160358,0.36060363690262964 l -10.340384682608367 16.890241268962924" fill="#00b034" stroke="none" /><path d="M 110.96478420261332 82.08984904055464 l 8.626572315857926 -14.090857565875634 a37.52180428592837,37.52180428592837 0 0,0 0.5464530334842286,0.3410271083857717 l -8.867189478131866 13.940694660648317" fill="#00a525" stroke="none" /><path d="M 111.27062007382361 82.28071324371311 l 30.590959205318924 -48.09406889403091 a77.99865128128278,77.99865128128278 0 0,0 1.1236053655792106,0.7283074229535397 l -31.41205020315514 47.561847629373474" fill="#37e7ff" stroke="none" /><path d="M 111.8722381534696 82.67804972795209 l 10.851008616515974 -15.831945857818106 a40.1936160647385,40.1936160647385 0 0,0 0.5657823910578043,0.39496004983319677 l -11.12118609874754 15.643340992179782" fill="#00ae31" stroke="none" /><path d="M 112.45986205192187 83.09580414077388 l 10.551578069145885 -14.315242140039976 a38.78375543233928,38.78375543233928 0 0,0 0.5325323789395647,0.39962222508591044 l -10.795763436996216 14.132000887690051" fill="#00a92b" stroke="none" /><path d="M 112.7482090630111 83.31218511350987 l 3.87623500507261 -5.074116050455337 a27.38528398021879,27.38528398021879 0 0,0 0.3711228325766916,0.2885873593280201 l -3.9627677822845278 5.006827639506526" fill="#008000" stroke="none" /><path d="M 113.03279911837588 83.53348406188908 l 18.92714764816134 -23.913832752320232 a51.49767720665368,51.49767720665368 0 0,0 0.6884730097267395,0.5545851221886209 l -19.334871428243343 23.585399336338202" fill="#00d773" stroke="none" /><path d="M 113.31354834802062 83.75963576809568 l 6.980983915738669 -8.515665285094146 a32.011389180278734,32.011389180278734 0 0,0 0.4219797202015926,0.3520304908209885 l -7.126137970102155 8.394572610361287" fill="#00910f" stroke="none" /><path d="M 113.59037401385872 83.9905735841838 l 28.852814124731992 -33.98854248956512 a65.58369548928518,65.58369548928518 0 0,0 0.8520275201171875,0.7359610788903395 l -29.43202112461204 33.488237278210065" fill="#0bffd9" stroke="none" /><path d="M 113.86319453409587 84.22622945171908 l 11.066872064008493 -12.592068891157265 a37.76412408212198,37.76412408212198 0 0,0 0.4832638510594175,0.4321375155701118 l -11.281400941891285 12.400235845703767" fill="#00a526" stroke="none" /><path d="M 114.39649973595853 84.71141617570332 l 17.447099260407107 -18.52821480399929 a46.449872621010044,46.449872621010044 0 0,0 0.575818089109545,0.5516207038348026 l -17.762589835381963 18.225981969858907" fill="#00c553" stroke="none" /><path d="M 114.91283532996326 85.21462403516908 l 23.38720541406645 -23.187315970621245 a53.933463209950546,53.933463209950546 0 0,0 0.6462081525366983,0.6630664923337386 l -23.78180036775396 22.782426786219762" fill="#00e083" stroke="none" /><path d="M 115.16444852881244 85.47280134310134 l 14.046374397810533 -13.456108931258898 a40.451670912633,40.451670912633 0 0,0 0.4760664038894222,0.5055660233588286 l -14.275296635436215 13.213001447955573" fill="#00af33" stroke="none" /><path d="M 115.41159269507618 85.73525988315684 l 46.23477808522854 -42.794220350529464 a84.0,84.0 0 0,0 0.9704091966324899,1.066649697769313 l -46.96258498270291 41.99423307720248" fill="#4dd2ff" stroke="none" /><path d="M 115.8921839302757 86.27271002978787 l 14.37274539475707 -12.414835152139993 a39.99220740296718,39.99220740296718 0 0,0 0.4443047335458742,0.5233898589286817 l -14.583744691810056 12.16627851076176" fill="#00ad30" stroke="none" /><path d="M 116.1254893667686 86.54754324733833 l 31.18770654391062 -26.017894028150998 a61.61531545032219,61.61531545032219 0 0,0 0.670589349037451,0.8180099695227278 l -31.629742712186694 25.478681776929776" fill="#00fbbe" stroke="none" /><path d="M 116.35404254752997 86.82634096563983 l 19.613577477578655 -15.799309643636215 a46.18552375243519,46.18552375243519 0 0,0 0.4920596229438747,0.6217012592699209 l -19.88190353116409 15.460288440451617" fill="#00c451" stroke="none" /><path d="M 116.57777611688842 87.10902102172516 l 23.06926854809318 -17.93880275622063 a50.22313801888206,50.22313801888206 0 0,0 0.5233921164997181,0.6851370816107845 l -23.373812641947207 17.540144761368964" fill="#00d26a" stroke="none" /><line stroke="#e1ed5e" stroke-width="0.3" x1="172.87174338648825" x2="177.1583165268699" y1="56.24261187166439" y2="53.66864786411523" /><path d="M 173.72905801456457 55.72781907015455 a86.0,86.0 0 0,1 12.242430191666344,42.057860355516425" fill="none" id="id27" stroke="none" /><text fill="#e1ed5e" style="font-size:6.75px; font-family:Arial;" text-anchor="middle"><textPath startOffset="22.145653131862474" xlink:href="#id27">March</textPath></text><line stroke="#e1ed5e" stroke-width="0.3" x1="184.99686870605535" x2="189.99668451229388" y1="99.2704041080226" y2="99.22748670261217" /><path d="M 185.99683186730306 99.26182062694052 a86.0,86.0 0 0,1 -10.086455211305974,41.156179273409016" fill="none" id="id28" stroke="none" /><text fill="#e1ed5e" style="font-size:6.75px; font-family:Arial;" text-anchor="middle"><textPath startOffset="21.40746469413373" xlink:href="#id28">April</textPath></text><line stroke="#e1ed5e" stroke-width="0.3" x1="174.33088141563837" x2="178.70328620479359" y1="141.23008692659167" y2="143.65538615756765" /><path d="M 175.20536237346943 141.71514677278685 a86.0,86.0 0 0,1 -30.301960400862466,31.631185727798858" fill="none" id="id29" stroke="none" /><text fill="#e1ed5e" style="font-size:6.75px; font-family:Arial;" text-anchor="middle"><textPath startOffset="22.145653131862474" xlink:href="#id29">May</textPath></text><line stroke="#e1ed5e" stroke-width="0.3" x1="143.1302829299769" x2="145.66735839644613" y1="173.24464959558577" y2="177.55315839532614" /><path d="M 143.63769802327073 174.10635135553383 a86.0,86.0 0 0,1 -40.68552437913181,11.842963189579606" fill="none" id="id30" stroke="none" /><text fill="#e1ed5e" style="font-size:6.75px; font-family:Arial;" text-anchor="middle"><textPath startOffset="21.407464694133747" xlink:href="#id30">June</textPath></text><line stroke="#e1ed5e" stroke-width="0.3" x1="101.45913802915013" x2="101.54496967792366" y1="184.9874750549273" y2="189.98673829345242" /><path d="M 101.47630435890484 185.9873277026323 a86.0,86.0 0 0,1 -42.54439059252881,-10.42667462771756" fill="none" id="id31" stroke="none" /><text fill="#e1ed5e" style="font-size:6.75px; font-family:Arial;" text-anchor="middle"><textPath startOffset="22.145653131862474" xlink:href="#id31">July</textPath></text><line stroke="#e1ed5e" stroke-width="0.3" x1="58.13341422392154" x2="55.67067388415222" y1="173.97424548756322" y2="178.32567169271397" /><path d="M 57.64086615596768 174.84453072859336 a86.0,86.0 0 0,1 -31.369924170532247,-30.572349798747897" fill="none" id="id32" stroke="none" /><text fill="#e1ed5e" style="font-size:6.75px; font-family:Arial;" text-anchor="middle"><textPath startOffset="22.145653131862474" xlink:href="#id32">August</textPath></text><line stroke="#e1ed5e" stroke-width="0.3" x1="26.387840678322732" x2="22.057713659400548" y1="142.50000000000003" y2="145.00000000000006" /><path d="M 25.521815274538298 143.00000000000003 a86.0,86.0 0 0,1 -11.493303480769221,-40.785679425670985" fill="none" id="id33" stroke="none" /><text fill="#e1ed5e" style="font-size:6.75px; font-family:Arial;" text-anchor="middle"><textPath startOffset="21.40746469413373" xlink:href="#id33">September</textPath></text><line stroke="#e1ed5e" stroke-width="0.3" x1="15.003131293944662" x2="10.003315487706104" y1="100.72959589197737" y2="100.7725132973878" /><path d="M 14.003168132696942 100.73817937305945 a86.0,86.0 0 0,1 10.791469493833604,-42.45332614584628" fill="none" id="id34" stroke="none" /><text fill="#e1ed5e" style="font-size:6.75px; font-family:Arial;" text-anchor="middle"><textPath startOffset="22.145653131862435" xlink:href="#id34">October</textPath></text><line stroke="#e1ed5e" stroke-width="0.3" x1="26.387840678322718" x2="22.05771365940052" y1="57.49999999999999" y2="54.99999999999999" /><path d="M 25.521815274538284 56.99999999999999 a86.0,86.0 0 0,1 29.574782752854787,-30.34633250058573" fill="none" id="id35" stroke="none" /><text fill="#e1ed5e" style="font-size:6.75px; font-family:Arial;" text-anchor="middle"><textPath startOffset="21.40746469413373" xlink:href="#id35">November</textPath></text><line stroke="#e1ed5e" stroke-width="0.3" x1="56.869717070023135" x2="54.33264160355391" y1="26.7553504044142" y2="22.446841604673864" /><path d="M 56.362301976729285 25.89364864446614 a86.0,86.0 0 0,1 42.16139366436587,-11.88097634709845" fill="none" id="id36" stroke="none" /><text fill="#e1ed5e" style="font-size:6.75px; font-family:Arial;" text-anchor="middle"><textPath startOffset="22.145653131862474" xlink:href="#id36">December</textPath></text></svg>