<?xml version="1.0" encoding="utf-8" ?>
<svg baseProfile="full" height="200mm" version="1.1" viewBox="0,0,200,200" width="200mm" xmlns="http://www.w3.org/2000/svg" xmlns:ev="http://www.w3.org/2001/xml-events" xmlns:xlink="http://www.w3.org/1999/xlink"><defs /><rect fill="#1a1a1a" height="200" width="200" x="0" y="0" /><text alignment-baseline="middle" fill="#e1ed5e" style="dominant-baseline: central; font-size:9.0px; font-family:Arial;" text-anchor="middle" x="100.0" y="100.0">2026</text><line stroke="#e1ed5e" stroke-width="0.3" x1="100.0" x2="100.0" y1="15.0" y2="10.0" /><path d="M 100.0 14.0 a86.0,86.0 0 0,1 42.46469731375804,11.215312516191453" fill="none" id="id49" stroke="none" /><text fill="#e1ed5e" style="font-size:6.75px; font-family:Arial;" text-anchor="middle"><textPath startOffset="22.20632615414155" xlink:href="#id49">January</textPath></text><path d="M 100.0 79.0 l 0.0 -28.059104449823124 a49.059104449823124,49.059104449823124 0 0,0 0.8444718375810997,0.007268635715334571 l -0.48299135830857126 28.054947190716348" fill="#00c04c" stroke="none" /><path d="M 105.71112130821622 79.79150937346287 l 7.2587915863969465 -25.684837323041457 a47.69083969465649,47.69083969465649 0 0,0 0.7880565666204613,0.23005532173042528 l -7.699838370740835 25.556083672392326" fill="#00bb44" stroke="none" /><path d="M 107.08798089147638 80.2323363322302 l 7.937852366827486 -22.137869477124426 a44.51796685905791,44.51796685905791 0 0,0 0.7191086275839592,0.26485377634652524 l -8.317743320184022 21.997952432971577" fill="#00ae31" stroke="none" /><path d="M 108.09893153111575 80.62456947434976 l 11.323952907428131 -27.09079117296628 a50.362269595978404,50.362269595978404 0 0,0 0.7969619133946001,0.34121749957052355 l -11.788598578613048 26.891854145432966" fill="#00c654" stroke="none" /><path d="M 110.36928655335952 81.73862282372117 l 14.596831746101843 -25.706517871076183 a50.56167380376094,50.56167380376094 0 0,0 0.7531360370399349,0.436265004221044 l -15.037164515607108 25.45144870946509" fill="#00c656" stroke="none" /><line stroke="#e1ed5e" stroke-width="0.3" x1="143.23703022742887" x2="145.7803849466894" y1="26.81831364943548" y2="22.513508569990506" /><path d="M 143.74570117128098 25.957352633546492 a86.0,86.0 0 0,1 28.547481713284135,27.462654790039103" fill="none" id="id50" stroke="none" /><text fill="#e1ed5e" style="font-size:6.75px; font-family:Arial;" text-anchor="middle"><textPath startOffset="19.985693538727396" xlink:href="#id50">February</textPath></text><path d="M 112.48926042617603 83.11751280151076 l 19.9878161065542 -27.018737541689433 a54.60840625581828,54.60840625581828 0 0,0 0.7508755877853481,0.5655439254364563 l -20.44993784809793 26.67067702674713" fill="#00d672" stroke="none" /><path d="M 113.34407831869373 83.78471172551755 l 16.296868689531095 -19.80342272136802 a46.64690001861851,46.64690001861851 0 0,0 0.615611274494368,0.5155567383565515 l -16.63533750098458 19.51996482561765" fill="#00b73d" stroke="none" /><path d="M 113.6212207817346 84.01681056812373 l 15.813651495905074 -18.55579551339871 a45.38009681623534,45.38009681623534 0 0,0 0.5901707551678145,0.5117902632423358 l -16.130716049719652 18.280840256736703" fill="#00b236" stroke="none" /><path d="M 114.16331599549186 84.49514656593476 l 14.843002217394302 -16.248918966113337 a43.00777322658723,43.00777322658723 0 0,0 0.5422913945685411,0.504000750200237 l -15.12050149575769 15.991013629838458" fill="#00a829" stroke="none" /><path d="M 114.42810811169701 84.74124197986012 l 33.67610692892601 -35.614895779180515 a70.0153137218395,70.0153137218395 0 0,0 0.8685791632510749,0.8355724668731649 l -34.2841693357895 35.02994022554505" fill="#15ffea" stroke="none" /><path d="M 115.19652480421416 85.50635884689758 l 44.78957117518362 -42.717922707856914 a82.89447961273507,82.89447961273507 0 0,0 0.975915437548636,1.0410385450408008 l -45.51825393470272 41.94061474593806" fill="#49d6ff" stroke="none" /><path d="M 115.4437574822437 85.77008943001954 l 17.32786139031299 -15.965927866755685 a44.56195308136287,44.56195308136287 0 0,0 0.5149162524648832,0.5685833867607768 l -17.600121283393907 15.66529169272536" fill="#00ae32" stroke="none" /><path d="M 115.9244219780498 86.31012108654704 l 22.472380633518625 -19.319016426087643 a50.63498417426922,50.63498417426922 0 0,0 0.5625049711478474,0.6658284626379175 l -22.801596218153588 18.92932901382062" fill="#00c756" stroke="none" /><path d="M 116.15771136456269 86.58626213691792 l 22.62335298628795 -18.781355830356162 a50.40332340346304,50.40332340346304 0 0,0 0.5484397810500827,0.6723223233177378 l -22.943291259414444 18.38914933743032" fill="#00c655" stroke="none" /><path d="M 116.82858285166822 87.43820079747576 l 23.767122550982908 -17.74111484839837 a50.65844349283188,50.65844349283188 0 0,0 0.5156001602992366,0.7032780392050442 l -24.068985323795772 17.329374365521836" fill="#00c756" stroke="none" /><path d="M 117.45458315368197 88.32363383020206 l 30.778692431301785 -20.5896227879643 a58.030534351145036,58.030534351145036 0 0,0 0.5482596793926044,0.835037105649481 l -31.128548746052314 20.056767618337144" fill="#00e48c" stroke="none" /><path d="M 117.65298651832404 88.62581576622439 l 42.17193632780037 -27.17225058714855 a71.16775274622975,71.16775274622975 0 0,0 0.6546498032267948,1.0354987742144888 l -42.633413727273116 26.442304165219856" fill="#1afff1" stroke="none" /><line stroke="#e1ed5e" stroke-width="0.3" x1="172.23445277983987" x2="176.4835382374775" y1="55.19839476539836" y2="52.563006222186495" /><path d="M 173.08426987136738 54.67131705675599 a86.0,86.0 0 0,1 12.851231095245387,41.99856678651699" fill="none" id="id51" stroke="none" /><text fill="#e1ed5e" style="font-size:6.75px; font-family:Arial;" text-anchor="middle"><textPath startOffset="22.20632615414155" xlink:href="#id51">March</textPath></text><path d="M 118.21658344932153 89.55222093294921 l 19.848817816289696 -11.383916411310373 a43.88163284304599,43.88163284304599 0 0,0 0.3701569497979336,0.6584679104681297 l -20.041832407380063 11.04056499090745" fill="#00ac2e" stroke="none" /><path d="M 118.89224826269711 90.83032412892265 l 34.30309590763134 -16.649594398382796 a59.13018990876932,59.13018990876932 0 0,0 0.43655483056835986,0.9194958085392289 l -34.58460893204145 16.056656174203027" fill="#00e995" stroke="none" /><path d="M 119.47837535516314 92.15188598940014 l 24.824864811009196 -10.002290528962693 a47.76415006516477,47.76415006516477 0 0,0 0.30070136776348483,0.7652521818919892 l -24.993359728654383 9.573489342174918" fill="#00bb44" stroke="none" /><path d="M 119.7369772167798 92.82701384747503 l 28.012470177529774 -10.180538715452956 a50.80506423384844,50.80506423384844 0 0,0 0.2916378082214363,0.8244993562116124 l -28.183561066561023 9.696841732814729" fill="#00c757" stroke="none" /><path d="M 119.85752413597 93.16781622104841 l 31.854855325920216 -10.959987979789021 a54.68758145596723,54.68758145596723 0 0,0 0.29860124222942697,0.8927797075824975 l -32.03879386192141 10.41003516928421" fill="#00d773" stroke="none" /><path d="M 120.91429891909075 98.10471618934814 l 15.332350026795734 -1.3894395837724292 a36.3951778067399,36.3951778067399 0 0,0 0.05117078148691736,0.6244131449770033 l -15.353995292102145 1.1253125215876572" fill="#008e0c" stroke="none" /><path d="M 120.96714384426684 98.82574320788733 l 22.005546425271312 -1.232412127562672 a43.04002978961087,43.04002978961087 0 0,0 0.035059981486812664,0.7400607965544626 l -22.02350001499162 0.8534402243852097" fill="#00a82a" stroke="none" /><line stroke="#e1ed5e" stroke-width="0.3" x1="184.98032266829074" x2="189.97916517819016" y1="98.17113171792111" y2="98.06355123074" /><path d="M 185.9800911702706 98.14961562048488 a86.0,86.0 0 0,1 -9.607161424134198,41.387399972396054" fill="none" id="id52" stroke="none" /><text fill="#e1ed5e" style="font-size:6.75px; font-family:Arial;" text-anchor="middle"><textPath startOffset="21.466115282336823" xlink:href="#id52">April</textPath></text><path d="M 120.9904718944345 100.63252640178507 l 30.014303509450194 0.904450338057967 a51.027927760193634,51.027927760193634 0 0,0 -0.034013435888837665,0.8777356449860744 l -29.994287940710155 -1.4209632300580475" fill="#00c859" stroke="none" /><path d="M 120.92983693683757 101.71520430193887 l 36.31936561358413 2.9763792394611355 a57.44111897225842,57.44111897225842 0 0,0 -0.08923998556030849,0.9847558044099447 l -36.26275103174675 -3.6011164324196505" fill="#00e288" stroke="none" /><path d="M 120.89721153311464 102.0752229133903 l 14.467749224704306 1.4367373679839568 a35.53891267920313,35.53891267920313 0 0,0 -0.06569232368389293,0.6082293301486108 l -14.440874599519361 -1.6855630200173588" fill="#008a09" stroke="none" /><path d="M 120.76222939487914 103.15116336523771 l 55.31321159319692 8.395098747397217 a76.94666263265687,76.94666263265687 0 0,0 -0.21002131951703312,1.30780295711357 l -55.1605085193186 -9.345980934203991" fill="#31efff" stroke="none" /><path d="M 120.5718875245553 104.21870165774334 l 25.19587024919118 5.166947343148408 a46.72021038912679,46.72021038912679 0 0,0 -0.16833950619473997,0.7864261298345452 l -25.103196704271998 -5.5998872923991225" fill="#00b73e" stroke="none" /><path d="M 120.41448212921028 104.9243191809786 l 21.109091440160423 5.091870722651259 a42.71453174455409,42.71453174455409 0 0,0 -0.1785644096360145,0.7132760540948239 l -21.01831571622935 -5.454474616143479" fill="#00a728" stroke="none" /><path d="M 120.32669344350535 105.2749913415812 l 32.61315970013169 8.463458924981575 a54.69344628560789,54.69344628560789 0 0,0 -0.24432844797859787,0.9092370473419927 l -32.462643175811316 -9.023586905499116" fill="#00d773" stroke="none" /><path d="M 120.23288151984713 105.62410040840565 l 34.61834350158539 9.622803337953062 a56.93087879352076,56.93087879352076 0 0,0 -0.2705771853399233,0.9419146785601672 l -34.447573679359365 -10.217275492017812" fill="#00e084" stroke="none" /><path d="M 119.79798401119884 107.00284435728193 l 31.407689921024165 11.109371742814439 a54.314578290821075,54.314578290821075 0 0,0 -0.3193586996499334,0.8787379823328297 l -31.211806960369003 -11.6483575221534" fill="#00d570" stroke="none" /><path d="M 119.41010516605496 108.01547362559984 l 58.230315498164885 24.046420876799505 a84.0,84.0 0 0,0 -0.5633960752307643,1.331701897335346 l -57.80776844174181 -25.045197299801014" fill="#4dd2ff" stroke="none" /><path d="M 118.97047184881838 109.00673069616215 l 30.712667652466983 14.58164713619028 a54.99841742692236,54.99841742692236 0 0,0 -0.4133962420087733,0.8517187024603338 l -30.457118153843496 -15.10815479461589" fill="#00d875" stroke="none" /><path d="M 118.81262510543309 109.33194174019688 l 24.19441592176114 12.001561640366774 a48.007540495252286,48.007540495252286 0 0,0 -0.3735931489535088,0.7371347256764975 l -23.98424410302136 -12.416250577745966" fill="#00bc45" stroke="none" /><line stroke="#e1ed5e" stroke-width="0.3" x1="174.80103733775053" x2="179.2010983576182" y1="140.37084112569926" y2="142.7455964860345" /><path d="M 175.68104954172406 140.8457921977663 a86.0,86.0 0 0,1 -30.038265399797805,32.042727171017184" fill="none" id="id53" stroke="none" /><text fill="#e1ed5e" style="font-size:6.75px; font-family:Arial;" text-anchor="middle"><textPath startOffset="22.206326154141568" xlink:href="#id53">May</textPath></text><path d="M 118.48025628344425 109.97397251340804 l 19.434203603232913 10.488827080405326 a43.08401601191584,43.08401601191584 0 0,0 -0.3578508937165245,0.64960331691398 l -19.25077630006488 -10.82180091571711" fill="#00a82a" stroke="none" /><path d="M 118.30583269289576 110.29060199501025 l 28.17193010264441 15.83681687586221 a53.318143734872464,53.318143734872464 0 0,0 -0.4566267485513011,0.7961672252823723 l -27.89515135794073 -16.319403947002897" fill="#00d169" stroke="none" /><path d="M 115.56566222782051 114.09645910891815 l 12.408913469367064 11.23766780666735 a37.74115620927202,37.74115620927202 0 0,0 -0.44023008475503533,0.4777828105038942 l -12.213636976616307 -11.449601871972579" fill="#009311" stroke="none" /><path d="M 114.81725581225074 114.88116024355365 l 20.583667752329266 20.672441787043116 a50.172542357102955,50.172542357102955 0 0,0 -0.6172418432088109,0.6041010557669704 l -20.22477595674466 -21.02369294573266" fill="#00c553" stroke="none" /><path d="M 114.55890576462653 115.13401014063108 l 21.073548507023695 21.905993620706614 a51.39682554459132,51.39682554459132 0 0,0 -0.6428621093633954,0.607866249832806 l -20.693350563269494 -22.265494507285343" fill="#00ca5b" stroke="none" /><line stroke="#e1ed5e" stroke-width="0.3" x1="143.8653032363475" x2="146.44561519142675" y1="172.8068346515853" y2="177.08958963109032" /><path d="M 144.38136562736335 173.6633856474863 a86.0,86.0 0 0,1 -40.68145358897372,12.25698825130547" fill="none" id="id54" stroke="none" /><text fill="#e1ed5e" style="font-size:6.75px; font-family:Arial;" text-anchor="middle"><textPath startOffset="21.466115282336833" xlink:href="#id54">June</textPath></text><path d="M 110.5260780823613 118.17145234162733 l 14.73376559731748 25.4352967239535 a50.39452615900205,50.39452615900205 0 0,0 -0.7543610208811515,0.42834587526960227 l -14.29375580951513 -25.68514576501773" fill="#00c655" stroke="none" /><path d="M 110.21172684928248 118.3499491758327 l 13.312699943897972 23.922238713308612 a48.37702476261404,48.37702476261404 0 0,0 -0.7311316233009142,0.39867125596283 l -12.89894550872841 -24.147850621031214" fill="#00be48" stroke="none" /><path d="M 108.2653958097858 119.30500536409082 l 8.712829031103102 20.350049175226438 a43.13679947868181,43.13679947868181 0 0,0 -0.685112084384544,0.28637690683697464 l -8.361245487221096 -20.497011125083386" fill="#00a92a" stroke="none" /><path d="M 107.93186726928326 119.44442032107085 l 6.275641400264238 15.384297924853948 a37.615062371997766,37.615062371997766 0 0,0 -0.6016241273392712,0.23939865637524002 l -6.009896196883101 -15.490043425635259" fill="#009311" stroke="none" /><path d="M 107.2578585660854 119.70592522655815 l 10.141881028321073 27.536379688442665 a50.34467510705642,50.34467510705642 0 0,0 -0.8157765793039243,0.29250845739791725 l -9.666384888387414 -27.70687568688054" fill="#00c554" stroke="none" /><path d="M 106.91757812671514 119.82793768551818 l 10.144536234420366 29.07740666169875 a51.79622044312046,51.79622044312046 0 0,0 -0.844353046530271,0.28645039677287565 l -9.642513454952867 -29.24772004536975" fill="#00cb5e" stroke="none" /><path d="M 105.88484417918355 120.15858648285463 l 6.088364902751479 20.855748545634416 a42.72626140383541,42.72626140383541 0 0,0 -0.7077683164671187,0.20002239594023433 l -5.728465418179755 -20.95745973491317" fill="#00a728" stroke="none" /><path d="M 105.53697534728816 120.25689768951611 l 3.156880051616675 11.549373477885073 a32.97304971141315,32.97304971141315 0 0,0 -0.5487807620852615,0.1449379870574475 l -2.9576088467199164 -11.602002814246104" fill="#008000" stroke="none" /><path d="M 104.83641907484287 120.43548508189849 l 6.325344589691624 26.72669241440998 a48.46499720722398,48.46499720722398 0 0,0 -0.8134730940608412,0.18514382776723382 l -5.86435134623792 -26.831612975754897" fill="#00be48" stroke="none" /><path d="M 104.48393922423573 120.51570834832081 l 6.344594511149781 29.028906073385052 a50.71415937441817,50.71415937441817 0 0,0 -0.8544334577666906,0.17905483857591062 l -5.843969591953712 -29.133816892687502" fill="#00c757" stroke="none" /><path d="M 103.41894727170886 120.7198165907248 l 3.6035487814455145 21.8385555241283 a43.13386706386148,43.13386706386148 0 0,0 -0.7336128751947196,0.11457524359462469 l -3.227100042642278 -21.89734907507003" fill="#00a92a" stroke="none" /><path d="M 103.06178313531738 120.77559828337769 l 4.30322760058221 29.19936651306039 a50.51475516663564,50.51475516663564 0 0,0 -0.8613280737318837,0.11937222257995679 l -3.7999709356634965 -29.26911330113295" fill="#00c655" stroke="none" /><path d="M 101.98527174616119 120.90594882070398 l 3.5866848610826874 37.76966568268499 a58.939582945447775,58.939582945447775 0 0,0 -1.0108297956069876,0.08721864811492988 l -2.936010747734158 -37.82580858307858" fill="#00e894" stroke="none" /><line stroke="#e1ed5e" stroke-width="0.3" x1="102.19456741930631" x2="102.32365962044197" y1="184.97166512339345" y2="189.96999836594603" /><path d="M 102.22038585953345 185.97133177190398 a86.0,86.0 0 0,1 -42.740103519485714,-10.115201625700543" fill="none" id="id55" stroke="none" /><text fill="#e1ed5e" style="font-size:6.75px; font-family:Arial;" text-anchor="middle"><textPath startOffset="22.20632615414155" xlink:href="#id55">July</textPath></text><line stroke="#e1ed5e" stroke-width="0.3" x1="58.666819895761336" x2="56.23545636021788" y1="174.27360380694188" y2="178.64263932499728" /><path d="M 58.180547188652646 175.14741091055294 a86.0,86.0 0 0,1 -31.652253787137756,-30.449443065178592" fill="none" id="id56" stroke="none" /><text fill="#e1ed5e" style="font-size:6.75px; font-family:Arial;" text-anchor="middle"><textPath startOffset="22.20632615414155" xlink:href="#id56">August</textPath></text><line stroke="#e1ed5e" stroke-width="0.3" x1="26.63291911575756" x2="22.317208475507996" y1="142.92168965132927" y2="145.44649492493687" /><path d="M 25.769776987707644 143.4266507060508 a86.0,86.0 0 0,1 -11.730757126820373,-40.83630448921669" fill="none" id="id57" stroke="none" /><text fill="#e1ed5e" style="font-size:6.75px; font-family:Arial;" text-anchor="middle"><textPath startOffset="21.46611528233685" xlink:href="#id57">September</textPath></text><line stroke="#e1ed5e" stroke-width="0.3" x1="15.007084014347285" x2="10.007500721073583" y1="101.09737516637583" y2="101.16192664675087" /><path d="M 14.007167355692545 101.11028546245083 a86.0,86.0 0 0,1 10.666146001902534,-42.60595125391555" fill="none" id="id58" stroke="none" /><text fill="#e1ed5e" style="font-size:6.75px; font-family:Arial;" text-anchor="middle"><textPath startOffset="22.20632615414155" xlink:href="#id58">October</textPath></text><line stroke="#e1ed5e" stroke-width="0.3" x1="26.266209847984243" x2="21.928928074336255" y1="57.711370442889674" y2="55.22380399835377" /><path d="M 25.398753493254645 57.213857153982495 a86.0,86.0 0 0,1 29.58750427330803,-30.492523968695096" fill="none" id="id59" stroke="none" /><text fill="#e1ed5e" style="font-size:6.75px; font-family:Arial;" text-anchor="middle"><textPath startOffset="21.46611528233685" xlink:href="#id59">November</textPath></text><line stroke="#e1ed5e" stroke-width="0.3" x1="56.762969772571076" x2="54.21961505331055" y1="26.818313649435495" y2="22.513508569990535" /><path d="M 56.25429882871897 25.957352633546506 a86.0,86.0 0 0,1 42.265352541879196,-11.944610805530505" fill="none" id="id60" stroke="none" /><text fill="#e1ed5e" style="font-size:6.75px; font-family:Arial;" text-anchor="middle"><textPath startOffset="22.20632615414155" xlink:href="#id60">December</textPath></text></svg>