<?xml version="1.0" encoding="utf-8" ?>
<svg baseProfile="full" height="200mm" version="1.1" viewBox="0,0,200,200" width="200mm" xmlns="http://www.w3.org/2000/svg" xmlns:ev="http://www.w3.org/2001/xml-events" xmlns:xlink="http://www.w3.org/1999/xlink"><defs /><rect fill="#1a1a1a" height="200" width="200" x="0" y="0" /><text alignment-baseline="middle" fill="#e1ed5e" style="dominant-baseline: central; font-size:9.0px; font-family:Arial;" text-anchor="middle" x="100.0" y="100.0">2024</text><line stroke="#e1ed5e" stroke-width="0.3" x1="100.0" x2="100.0" y1="15.0" y2="10.0" /><path d="M 100.0 14.0 a86.0,86.0 0 0,1 42.35913384403234,11.155469271406648" fill="none" id="id25" stroke="none" /><text fill="#e1ed5e" style="font-size:6.75px; font-family:Arial;" text-anchor="middle"><textPath startOffset="22.145653131862478" xlink:href="#id25">January</textPath></text><path d="M 100.0 79.0 l 0.0 -14.983416475664015 a35.983416475664015,35.983416475664015 0 0,0 0.6177031929222186,0.005302238998661626 l -0.25721026807336383 14.981208634859788" fill="#00a728" stroke="none" /><path d="M 101.08105385017728 79.02784411241856 l 0.9344258100966057 -18.127611082012223 a39.15167857624377,39.15167857624377 0 0,0 0.6709025075788474,0.04035982885805078 l -1.2454726698079155 18.108899275329478" fill="#00b237" stroke="none" /><path d="M 101.44090949804482 79.04949213459386 l 2.3751597038015246 -34.53430081737298 a55.61588243225024,55.61588243225024 0 0,0 0.9519082156707683,0.07368371618122707 l -2.9676369142475263 34.4884393341967" fill="#00eb9a" stroke="none" /><path d="M 102.15924093988457 79.11130261209362 l 1.7877711489593011 -17.2950641309334 a38.387218551975195,38.387218551975195 0 0,0 0.6548934402179317,0.07338217595341637 l -2.0844004907780294 17.261826194473013" fill="#00b033" stroke="none" /><path d="M 102.87502721639298 79.19773525538626 l 2.642451197809215 -19.11946053175568 a40.30119994606984,40.30119994606984 0 0,0 0.6844964873641978,0.10059741171143424 l -2.970272790781095 19.071282046745363" fill="#00b63d" stroke="none" /><path d="M 103.94208987418118 79.37332000966035 l 3.7815787319400087 -19.78681786858118 a41.14493730618848,41.14493730618848 0 0,0 0.69261333049267,0.13854206386616297 l -4.120688547963636 19.718986408052157" fill="#00b941" stroke="none" /><path d="M 104.64783097203109 79.52079915486377 l 5.473123326104823 -24.11559123384385 a45.7288661183767,45.7288661183767 0 0,0 0.7640375603272371,0.1803107838708076 l -5.886293040171945 24.018084306326816" fill="#00c95a" stroke="none" /><path d="M 104.9986988182912 79.60360301121754 l 4.328790954548249 -17.662944298092185 a39.18565457732237,39.18565457732237 0 0,0 0.6519647757530728,0.165726896508008 l -4.631361023526717 17.58603216974891" fill="#00b237" stroke="none" /><path d="M 105.3480935250658 79.69241777938227 l 2.2468193911426515 -8.531539193669254 a29.822434946743968,29.822434946743968 0 0,0 0.4939427401853689,0.13462629030332368 l -2.3929435322627133 8.491712409221787" fill="#009210" stroke="none" /><path d="M 105.69591212413111 79.78721728523813 l 3.9918230040762457 -14.165571599208873 a35.717271133881624,35.717271133881624 0 0,0 0.5887226565735553,0.17136858519263334 l -4.2344056730314055 14.094959319713723" fill="#00a627" stroke="none" /><path d="M 106.04205211174951 79.88797359093562 l 3.480880231024085 -11.586718194139426 a33.09828771740596,33.09828771740596 0 0,0 0.5427478767332673,0.16814467959286777 l -3.6792687406289826 11.525256926739912" fill="#009d1c" stroke="none" /><path d="M 106.38641147887787 79.99465700312896 l 2.9344600674148316 -9.192154366096332 a30.649184306323313,30.649184306323313 0 0,0 0.49984041593139933,0.16430747280883332 l -3.091823220993973 9.140425971885477" fill="#009513" stroke="none" /><path d="M 106.72888874123014 80.10723608172694 l 8.377316790686132 -24.766048540020677 a47.14453282998517,47.14453282998517 0 0,0 0.7644019670592422,0.2658986840097614 l -8.801224529790394 24.618591423442325" fill="#00ce62" stroke="none" /><path d="M 108.07796709384702 80.6158196554323 l 7.207764086164163 -17.296009912410543 a39.737764594849665,39.737764594849665 0 0,0 0.6274118538469752,0.2678048121923013 l -7.503611015181568 17.16973045055884" fill="#00b43a" stroke="none" /><path d="M 109.06512990194946 81.05736502329252 l 10.592892120829982 -22.13507042512118 a45.53916677902117,45.53916677902117 0 0,0 0.7022567818348272,0.34350898253152157 l -10.971309151926876 21.94996769249244" fill="#00c859" stroke="none" /><path d="M 109.3889696526874 81.21577127319529 l 5.8711124779781745 -11.746157858287749 a34.13172441688014,34.13172441688014 0 0,0 0.5218460755349612,0.26645832446865136 l -6.071885775226714 11.643641582146262" fill="#00a121" stroke="none" /><path d="M 109.71004243097381 81.37971332152246 l 10.290000472893917 -19.73243269419354 a43.254280706485105,43.254280706485105 0 0,0 0.6554283755195808,0.3489786928141095 l -10.627217664200057 19.552883533656857" fill="#00c04c" stroke="none" /><path d="M 110.02825361518725 81.54914285379988 l 5.820632575621021 -10.709308347632664 a33.1888903869489,33.1888903869489 0 0,0 0.49823764681598925,0.27636402390355425 l -6.00361441059311 10.607811408295964" fill="#009e1d" stroke="none" /><path d="M 110.34350942703115 81.72400993836675 l 11.66695427619558 -20.614390300070628 a44.68693541863287,44.68693541863287 0 0,0 0.6643618012349128,0.3835694647822816 l -12.01910854529089 20.411073938012176" fill="#00c554" stroke="none" /><line stroke="#e1ed5e" stroke-width="0.3" x1="143.13028292997686" x2="145.6673583964461" y1="26.7553504044142" y2="22.446841604673864" /><path d="M 143.63769802327073 25.89364864446614 a86.0,86.0 0 0,1 29.32050498858742,28.57503671076993" fill="none" id="id26" stroke="none" /><text fill="#e1ed5e" style="font-size:6.75px; font-family:Arial;" text-anchor="middle"><textPath startOffset="20.669276256404974" xlink:href="#id26">February</textPath></text><path d="M 110.65571695917076 81.90426304109057 l 9.040909643260289 -15.353441105894168 a38.817581232304164,38.817581232304164 0 0,0 0.5712972775512439,0.3430476004654877 l -9.303139677368966 15.195979504892758" fill="#00b135" stroke="none" /><path d="M 110.96478420261332 82.08984904055464 l 7.761239997805033 -12.677402256584616 a35.8645004718889,35.8645004718889 0 0,0 0.5223167022543765,0.3259642525830046 l -7.977720828849122 12.542302207160066" fill="#00a728" stroke="none" /><path d="M 111.27062007382361 82.28071324371311 l 27.52237707659339 -43.269748109730116 a72.2811109613051,72.2811109613051 0 0,0 1.0412416467723957,0.6749202555131821 l -28.26110435562279 42.790914012513035" fill="#25feff" stroke="none" /><path d="M 111.8722381534696 82.67804972795209 l 9.762542874209398 -14.243841810600003 a38.26830254820008,38.26830254820008 0 0,0 0.5386808612236011,0.3760410771980461 l -10.00561882660676 14.074155917596832" fill="#00af33" stroke="none" /><path d="M 112.45986205192187 83.09580414077388 l 9.493148234516719 -12.879278792030036 a36.999865174598895,36.999865174598895 0 0,0 0.5080381206571533,0.38124127702761945 l -9.712839344084637 12.714418487738401" fill="#00ab2d" stroke="none" /><path d="M 112.7482090630111 83.31218511350987 l 3.4874094902048727 -4.56513097002676 a26.74477551570716,26.74477551570716 0 0,0 0.36244272117778825,0.2818376522030484 l -3.5652621560178868 4.504592266202921" fill="#008806" stroke="none" /><path d="M 113.03279911837588 83.53348406188908 l 17.028563604716275 -21.51503383527476 a48.438452204395304,48.438452204395304 0 0,0 0.647574197217503,0.5216399339062116 l -17.39538857228904 21.21954560757514" fill="#00d26a" stroke="none" /><path d="M 113.31354834802062 83.75963576809568 l 6.280720732064737 -7.661458062212923 a30.906835647836054,30.906835647836054 0 0,0 0.4074193027219603,0.3398836727002865 l -6.411314368948591 7.552512205600767" fill="#009614" stroke="none" /><path d="M 113.59037401385872 83.9905735841838 l 25.958585500112797 -30.579148447198072 a61.11150060671431,61.11150060671431 0 0,0 0.7939272089521943,0.6857754138980025 l -26.47969218882785 30.129028900835348" fill="#00fec3" stroke="none" /><path d="M 113.86319453409587 84.22622945171908 l 9.956753038038114 -11.328957221341845 a36.08251314547661,36.08251314547661 0 0,0 0.46174443820451694,0.41289472389997534 l -10.149762503066007 11.156366967558483" fill="#00a829" stroke="none" /><path d="M 114.39649973595853 84.71141617570332 l 15.696979016407795 -16.669647753416108 a43.89699339355535,43.89699339355535 0 0,0 0.5441711984824324,0.5213036984956566 l -15.980822700755539 16.39773192461487" fill="#00c24f" stroke="none" /><path d="M 114.91283532996326 85.21462403516908 l 21.04123253715322 -20.86139402345363 a50.62990427396522,50.62990427396522 0 0,0 0.6066262938952655,0.622452018396203 l -21.396245632199296 20.497119312989685" fill="#00da78" stroke="none" /><path d="M 115.16444852881244 85.47280134310134 l 12.637381199486278 -12.106325319979863 a38.500471888903874,38.500471888903874 0 0,0 0.45310319170208135,0.4811798877814156 l -12.843340224924619 11.887603972253952" fill="#00b034" stroke="none" /><path d="M 115.41159269507618 85.73525988315684 l 41.59696294495483 -38.50152789525187 a77.6804637993798,77.6804637993798 0 0,0 0.8974028151142305,0.9864028956451013 l -42.251763460910944 37.78178742404909" fill="#37e7ff" stroke="none" /><path d="M 115.8921839302757 86.27271002978787 l 12.93101388960684 -11.169501816129188 a38.0870972091142,38.0870972091142 0 0,0 0.4231393732914018,0.4984571177684544 l -13.120847826405353 10.945877915911181" fill="#00af32" stroke="none" /><path d="M 116.1254893667686 86.54754324733833 l 28.059264630917564 -23.408036517439882 a57.54118916003775,57.54118916003775 0 0,0 0.6262486574913539,0.7639215355320861 l -28.456960107647543 22.922912700209302" fill="#00f1a8" stroke="none" /><path d="M 116.35404254752997 86.82634096563983 l 17.646137590384573 -14.214479338274836 a43.659161386005124,43.659161386005124 0 0,0 0.46514381009938727,0.5876940090111449 l -17.88754783112552 13.909465385349014" fill="#00c24e" stroke="none" /><path d="M 116.57777611688842 87.10902102172516 l 20.75518794949788 -16.139359686161555 a47.291762167992445,47.291762167992445 0 0,0 0.4928432684712167,0.6451476589102801 l -21.029183195323405 15.780691114010391" fill="#00ce63" stroke="none" /><path d="M 117.01052211995028 87.68569379921539 l 51.03156635985084 -36.94291860235382 a84.0,84.0 0 0,0 0.8355396058801574,1.175291093161984 l -51.65822106426096 36.06145028248233" fill="#4dd2ff" stroke="none" /><path d="M 117.21940702142032 87.97951657250589 l 10.619059959009913 -7.412928569146294 a33.950519077794254,33.950519077794254 0 0,0 0.32949829659531316,0.48074786190845975 l -10.744747992420551 7.229545972167785" fill="#00a020" stroke="none" /><path d="M 117.42321728460499 88.27688183743584 l 9.403416312562195 -6.32703815622817 a32.33382769313739,32.33382769313739 0 0,0 0.3059019694654615,0.463174570495881 l -9.510642720948379 6.1646837073932295" fill="#009b1a" stroke="none" /><path d="M 117.62189284568427 88.57770195909679 l 23.243222018245813 -15.065975695585301 a48.69893487933126,48.69893487933126 0 0,0 0.44868487313397504,0.7054071451431633 l -23.498424583005676 14.664754875763466" fill="#00d36b" stroke="none" /><line stroke="#e1ed5e" stroke-width="0.3" x1="172.87174338648825" x2="177.1583165268699" y1="56.24261187166439" y2="53.66864786411523" /><path d="M 173.72905801456457 55.72781907015455 a86.0,86.0 0 0,1 12.242430191666344,42.057860355516425" fill="none" id="id27" stroke="none" /><text fill="#e1ed5e" style="font-size:6.75px; font-family:Arial;" text-anchor="middle"><textPath startOffset="22.145653131862474" xlink:href="#id27">March</textPath></text><path d="M 118.00360718960297 89.18935116829356 l 33.69152862231217 -20.230794901454157 a60.298907914251046,60.298907914251046 0 0,0 0.5252502622847968,0.8919897760350719 l -34.03385259472673 19.649453957125527" fill="#00fbbd" stroke="none" /><path d="M 118.18653347947321 89.5 l 10.00909123138865 -5.7787515167857615 a32.55750303357152,32.55750303357152 0 0,0 0.2752917265227447,0.48641410282192815 l -10.10681632293277 5.606080643864716" fill="#009c1a" stroke="none" /><path d="M 118.36410011445183 89.81374322990088 l 38.243479893194426 -21.213013626931513 a64.73277605500877,64.73277605500877 0 0,0 0.5306689728656401,0.9763711395807126 l -38.60199421567541 20.553387653876197" fill="#0bffda" stroke="none" /><path d="M 118.53625476483649 90.13048839642627 l 14.380155038003123 -7.656622592283025 a37.291492517190235,37.291492517190235 0 0,0 0.29600909040461165,0.5676364611123977 l -14.50947219738268 7.408639888066129" fill="#00ac2e" stroke="none" /><path d="M 118.70294669586156 90.45014215332178 l 9.88227694500221 -5.0459610221291555 a32.09599568558716,32.09599568558716 0 0,0 0.24634454143612639,0.4928541025384555 l -9.967441399650074 4.8755750634269495" fill="#009a19" stroke="none" /><path d="M 118.8641267826498 90.77261029715802 l 23.505765097107933 -11.497847597905555 a47.1671834973709,47.1671834973709 0 0,0 0.3495329569429454,0.730389446959342 l -23.699677312010788 11.092645648881108" fill="#00ce62" stroke="none" /><path d="M 119.4528033332814 92.08871423366111 l 3.2495649629143397 -1.321569780840486 a24.508022111365783,24.508022111365783 0 0,0 0.1551489968306899,0.3910768228393392 l -3.271772634711154 1.2655919407875815" fill="#008000" stroke="none" /><line stroke="#e1ed5e" stroke-width="0.3" x1="184.99686870605535" x2="189.99668451229388" y1="99.2704041080226" y2="99.22748670261217" /><path d="M 185.99683186730306 99.26182062694052 a86.0,86.0 0 0,1 -10.086455211305974,41.156179273409016" fill="none" id="id28" stroke="none" /><text fill="#e1ed5e" style="font-size:6.75px; font-family:Arial;" text-anchor="middle"><textPath startOffset="21.40746469413373" xlink:href="#id28">April</textPath></text><line stroke="#e1ed5e" stroke-width="0.3" x1="174.33088141563837" x2="178.70328620479359" y1="141.23008692659167" y2="143.65538615756765" /><path d="M 175.20536237346943 141.71514677278685 a86.0,86.0 0 0,1 -30.301960400862466,31.631185727798858" fill="none" id="id29" stroke="none" /><text fill="#e1ed5e" style="font-size:6.75px; font-family:Arial;" text-anchor="middle"><textPath startOffset="22.145653131862474" xlink:href="#id29">May</textPath></text><line stroke="#e1ed5e" stroke-width="0.3" x1="143.1302829299769" x2="145.66735839644613" y1="173.24464959558577" y2="177.55315839532614" /><path d="M 143.63769802327073 174.10635135553383 a86.0,86.0 0 0,1 -40.68552437913181,11.842963189579606" fill="none" id="id30" stroke="none" /><text fill="#e1ed5e" style="font-size:6.75px; font-family:Arial;" text-anchor="middle"><textPath startOffset="21.407464694133747" xlink:href="#id30">June</textPath></text><line stroke="#e1ed5e" stroke-width="0.3" x1="101.45913802915013" x2="101.54496967792366" y1="184.9874750549273" y2="189.98673829345242" /><path d="M 101.47630435890484 185.9873277026323 a86.0,86.0 0 0,1 -42.54439059252881,-10.42667462771756" fill="none" id="id31" stroke="none" /><text fill="#e1ed5e" style="font-size:6.75px; font-family:Arial;" text-anchor="middle"><textPath startOffset="22.145653131862474" xlink:href="#id31">July</textPath></text><line stroke="#e1ed5e" stroke-width="0.3" x1="58.13341422392154" x2="55.67067388415222" y1="173.97424548756322" y2="178.32567169271397" /><path d="M 57.64086615596768 174.84453072859336 a86.0,86.0 0 0,1 -31.369924170532247,-30.572349798747897" fill="none" id="id32" stroke="none" /><text fill="#e1ed5e" style="font-size:6.75px; font-family:Arial;" text-anchor="middle"><textPath startOffset="22.145653131862474" xlink:href="#id32">August</textPath></text><line stroke="#e1ed5e" stroke-width="0.3" x1="26.387840678322732" x2="22.057713659400548" y1="142.50000000000003" y2="145.00000000000006" /><path d="M 25.521815274538298 143.00000000000003 a86.0,86.0 0 0,1 -11.493303480769221,-40.785679425670985" fill="none" id="id33" stroke="none" /><text fill="#e1ed5e" style="font-size:6.75px; font-family:Arial;" text-anchor="middle"><textPath startOffset="21.40746469413373" xlink:href="#id33">September</textPath></text><line stroke="#e1ed5e" stroke-width="0.3" x1="15.003131293944662" x2="10.003315487706104" y1="100.72959589197737" y2="100.7725132973878" /><path d="M 14.003168132696942 100.73817937305945 a86.0,86.0 0 0,1 10.791469493833604,-42.45332614584628" fill="none" id="id34" stroke="none" /><text fill="#e1ed5e" style="font-size:6.75px; font-family:Arial;" text-anchor="middle"><textPath startOffset="22.145653131862435" xlink:href="#id34">October</textPath></text><line stroke="#e1ed5e" stroke-width="0.3" x1="26.387840678322718" x2="22.05771365940052" y1="57.49999999999999" y2="54.99999999999999" /><path d="M 25.521815274538284 56.99999999999999 a86.0,86.0 0 0,1 29.574782752854787,-30.34633250058573" fill="none" id="id35" stroke="none" /><text fill="#e1ed5e" style="font-size:6.75px; font-family:Arial;" text-anchor="middle"><textPath startOffset="21.40746469413373" xlink:href="#id35">November</textPath></text><line stroke="#e1ed5e" stroke-width="0.3" x1="56.869717070023135" x2="54.33264160355391" y1="26.7553504044142" y2="22.446841604673864" /><path d="M 56.362301976729285 25.89364864446614 a86.0,86.0 0 0,1 42.16139366436587,-11.88097634709845" fill="none" id="id36" stroke="none" /><text fill="#e1ed5e" style="font-size:6.75px; font-family:Arial;" text-anchor="middle"><textPath startOffset="22.145653131862474" xlink:href="#id36">December</textPath></text></svg>