<?xml version="1.0" encoding="utf-8" ?>
<svg baseProfile="full" height="200mm" version="1.1" viewBox="0,0,200,200" width="200mm" xmlns="http://www.w3.org/2000/svg" xmlns:ev="http://www.w3.org/2001/xml-events" xmlns:xlink="http://www.w3.org/1999/xlink"><defs /><rect fill="#1a1a1a" height="200" width="200" x="0" y="0" /><text alignment-baseline="middle" fill="#e1ed5e" style="dominant-baseline: central; font-size:9.0px; font-family:Arial;" text-anchor="middle" x="100.0" y="100.0">2022</text><line stroke="#e1ed5e" stroke-width="0.3" x1="100.0" x2="100.0" y1="15.0" y2="10.0" /><path d="M 100.0 14.0 a86.0,86.0 0 0,1 42.46469731375804,11.215312516191453" fill="none" id="id1" stroke="none" /><text fill="#e1ed5e" style="font-size:6.75px; font-family:Arial;" text-anchor="middle"><textPath startOffset="22.20632615414155" xlink:href="#id1">January</textPath></text><line stroke="#e1ed5e" stroke-width="0.3" x1="143.23703022742887" x2="145.7803849466894" y1="26.81831364943548" y2="22.513508569990506" /><path d="M 143.74570117128098 25.957352633546492 a86.0,86.0 0 0,1 28.547481713284135,27.462654790039103" fill="none" id="id2" stroke="none" /><text fill="#e1ed5e" style="font-size:6.75px; font-family:Arial;" text-anchor="middle"><textPath startOffset="19.985693538727396" xlink:href="#id2">February</textPath></text><line stroke="#e1ed5e" stroke-width="0.3" x1="172.23445277983987" x2="176.4835382374775" y1="55.19839476539836" y2="52.563006222186495" /><path d="M 173.08426987136738 54.67131705675599 a86.0,86.0 0 0,1 12.851231095245387,41.99856678651699" fill="none" id="id3" stroke="none" /><text fill="#e1ed5e" style="font-size:6.75px; font-family:Arial;" text-anchor="middle"><textPath startOffset="22.20632615414155" xlink:href="#id3">March</textPath></text><line stroke="#e1ed5e" stroke-width="0.3" x1="184.98032266829074" x2="189.97916517819016" y1="98.17113171792111" y2="98.06355123074" /><path d="M 185.9800911702706 98.14961562048488 a86.0,86.0 0 0,1 -9.607161424134198,41.387399972396054" fill="none" id="id4" stroke="none" /><text fill="#e1ed5e" style="font-size:6.75px; font-family:Arial;" text-anchor="middle"><textPath startOffset="21.466115282336823" xlink:href="#id4">April</textPath></text><line stroke="#e1ed5e" stroke-width="0.3" x1="174.80103733775053" x2="179.2010983576182" y1="140.37084112569926" y2="142.7455964860345" /><path d="M 175.68104954172406 140.8457921977663 a86.0,86.0 0 0,1 -30.038265399797805,32.042727171017184" fill="none" id="id5" stroke="none" /><text fill="#e1ed5e" style="font-size:6.75px; font-family:Arial;" text-anchor="middle"><textPath startOffset="22.206326154141568" xlink:href="#id5">May</textPath></text><line stroke="#e1ed5e" stroke-width="0.3" x1="143.8653032363475" x2="146.44561519142675" y1="172.8068346515853" y2="177.08958963109032" /><path d="M 144.38136562736335 173.6633856474863 a86.0,86.0 0 0,1 -40.68145358897372,12.25698825130547" fill="none" id="id6" stroke="none" /><text fill="#e1ed5e" style="font-size:6.75px; font-family:Arial;" text-anchor="middle"><textPath startOffset="21.466115282336833" xlink:href="#id6">June</textPath></text><line stroke="#e1ed5e" stroke-width="0.3" x1="102.19456741930631" x2="102.32365962044197" y1="184.97166512339345" y2="189.96999836594603" /><path d="M 102.22038585953345 185.97133177190398 a86.0,86.0 0 0,1 -42.740103519485714,-10.115201625700543" fill="none" id="id7" stroke="none" /><text fill="#e1ed5e" style="font-size:6.75px; font-family:Arial;" text-anchor="middle"><textPath startOffset="22.20632615414155" xlink:href="#id7">July</textPath></text><line stroke="#e1ed5e" stroke-width="0.3" x1="58.666819895761336" x2="56.23545636021788" y1="174.27360380694188" y2="178.64263932499728" /><path d="M 58.180547188652646 175.14741091055294 a86.0,86.0 0 0,1 -31.652253787137756,-30.449443065178592" fill="none" id="id8" stroke="none" /><text fill="#e1ed5e" style="font-size:6.75px; font-family:Arial;" text-anchor="middle"><textPath startOffset="22.20632615414155" xlink:href="#id8">August</textPath></text><line stroke="#e1ed5e" stroke-width="0.3" x1="26.63291911575756" x2="22.317208475507996" y1="142.92168965132927" y2="145.44649492493687" /><path d="M 25.769776987707644 143.4266507060508 a86.0,86.0 0 0,1 -11.730757126820373,-40.83630448921669" fill="none" id="id9" stroke="none" /><text fill="#e1ed5e" style="font-size:6.75px; font-family:Arial;" text-anchor="middle"><textPath startOffset="21.46611528233685" xlink:href="#id9">September</textPath></text><line stroke="#e1ed5e" stroke-width="0.3" x1="15.007084014347285" x2="10.007500721073583" y1="101.09737516637583" y2="101.16192664675087" /><path d="M 14.007167355692545 101.11028546245083 a86.0,86.0 0 0,1 10.666146001902534,-42.60595125391555" fill="none" id="id10" stroke="none" /><text fill="#e1ed5e" style="font-size:6.75px; font-family:Arial;" text-anchor="middle"><textPath startOffset="22.20632615414155" xlink:href="#id10">October</textPath></text><path d="M 79.12142395522702 97.74499172005258 l -22.468968577373627 -2.4267799717376235 a43.59964181048519,43.59964181048519 0 0,0 0.08701169511654284,-0.7454630666118032 l 22.423866529253495 2.813186776674289" fill="#f7ff19" stroke="none" /><path d="M 79.16333360222342 97.38593545837743 l -28.900733508517707 -3.625742297220861 a50.12727938782156,50.12727938782156 0 0,0 0.11477714996724939,-0.855223084136035 l 28.834040359492626 4.122683723421555" fill="#a7ff21" stroke="none" /><path d="M 79.21141760316559 97.0276538004421 l -15.92397965345274 -2.2768065422289236 a37.08592478020189,37.08592478020189 0 0,0 0.09579489788949018,-0.6311686873430602 l 15.882428862123948 2.550574341964076" fill="#ffb210" stroke="none" /><path d="M 79.26566170972629 96.67025291283419 l -5.663072776622593 -0.9094382380754603 a26.735631716053405,26.735631716053405 0 0,0 0.07688166811492145,-0.45375995723597723 l 5.646579246987448 1.0067839836272654" fill="#ff1f03" stroke="none" /><path d="M 79.32604984820605 96.31383870115002 l -14.212559337326967 -2.534096570911854 a35.436706284597854,35.436706284597854 0 0,0 0.11224032693042302,-0.5995923145446401 l 14.166833286486682 2.778366962919067" fill="#ff9c0e" stroke="none" /><path d="M 79.3925641242962 95.95851677861259 l -48.92480592312072 -9.595021109882493 a70.85680560078151,70.85680560078151 0 0,0 0.24503195771157665,-1.1948628471301954 l 48.75239466949415 10.43575961317609" fill="#3cffa4" stroke="none" /><path d="M 79.46518482838121 95.60439243477599 l -10.46024685699936 -2.2390822529673846 a31.697207749918597,31.697207749918597 0 0,0 0.11879753172767181,-0.5325460408800713 l 10.42015493826965 2.418806463397415" fill="#ff6709" stroke="none" /><path d="M 79.54389044137918 95.25157060432595 l -21.628931581740346 -5.020673859095376 a43.20400521002931,43.20400521002931 0 0,0 0.17439440662720732,-0.7229774039175554 l 21.539304374852325 5.3922364946723285" fill="#fcff18" stroke="none" /><path d="M 79.62865764111835 94.90015583598534 l -9.589489351207517 -2.4006715140357153 a30.88542005861283,30.88542005861283 0 0,0 0.13354806824040152,-0.5146151846158785 l 9.546744951096807 2.5653831242004577" fill="#ff5c08" stroke="none" /><path d="M 79.71946130924805 94.55025226153421 l -3.9541956019421547 -1.0625639125139343 a25.094472484532726,25.094472484532726 0 0,0 0.11568937724577208,-0.4161962434774816 l 3.935319454130022 1.1304714594103586" fill="#ff0601" stroke="none" /><path d="M 79.81627453868168 94.20196356495316 l -14.511072379217559 -4.168493399672408 a36.097932269619015,36.097932269619015 0 0,0 0.17669783637037384,-0.5957372630411312 l 14.437168645735479 4.417660049460078" fill="#ffa50f" stroke="none" /><path d="M 79.91906864156998 93.8553929516997 l -3.5425604531062964 -1.083995634497738 a24.704697167046564,24.704697167046564 0 0,0 0.12792858771826207,-0.4055685827059587 l 3.5233763816198307 1.1448143836301112" fill="#ff0000" stroke="none" /><path d="M 80.02781315780177 93.51064311812611 l -12.699554285219463 -4.126335320646809 a34.353101595571474,34.353101595571474 0 0,0 0.18757236172768899,-0.5608174869049519 l 12.626644629720001 4.344325910474083" fill="#ff8d0d" stroke="none" /><path d="M 80.14247586403 93.16781622104843 l -21.505582248687475 -7.3992149872421225 a43.74287691305764,43.74287691305764 0 0,0 0.25109852611356226,-0.709889346614221 l 21.375030641764106 7.768301960282955" fill="#f5ff19" stroke="none" /><path d="M 80.2630227832202 92.82701384747504 l -20.85892847318325 -7.580735563065288 a43.1937479648323,43.1937479648323 0 0,0 0.25997578800818877,-0.6966058600321272 l 20.725348096673436 7.938664560126757" fill="#fcff18" stroke="none" /><path d="M 80.38941819471856 92.48833698450439 l -22.580175070464602 -8.64913992070063 a45.179990231195056,45.179990231195056 0 0,0 0.2844326726117225,-0.7238501272421555 l 22.427948847971187 9.036539052838549" fill="#e3ff1b" stroke="none" /><path d="M 80.52162464483688 92.15188598940014 l -22.758561129113442 -9.169747435385768 a45.53642950179095,45.53642950179095 0 0,0 0.2991923679944097,-0.72451805082421 l 22.597347074232832 9.56014005666329" fill="#deff1b" stroke="none" /><path d="M 80.65960295795068 91.81776055985345 l -7.7243055474784725 -3.267881076117977 a29.387129599478996,29.387129599478996 0 0,0 0.2011049302143939,-0.46417790601388814 l 7.666909907421398 3.4003581267184644" fill="#ff4606" stroke="none" /><path d="M 80.803312248108 91.48605970444005 l -17.73954511621494 -7.867681651224456 a40.40597525236079,40.40597525236079 0 0,0 0.2874551944542312,-0.6333694173499581 l 17.60148760479736 8.171873077416485" fill="#ffde14" stroke="none" /><path d="M 80.95270993114464 91.15688171328213 l -14.533338389282232 -6.747418137316367 a37.023282318463046,37.023282318463046 0 0,0 0.273340788598155,-0.5757254113798043 l 14.415039406842325 6.996585964336703" fill="#ffb210" stroke="none" /><path d="M 81.10775173730289 90.83032412892265 l -24.472281235342713 -11.878040328160733 a48.202580592640835,48.202580592640835 0 0,0 0.3687267581911381,-0.7433306445015609 l 24.264194464198162 12.297530561161256" fill="#beff1f" stroke="none" /><path d="M 81.26839172434947 90.50648371742162 l -4.8693729332652955 -2.4678858615675967 a26.459052425919896,26.459052425919896 0 0,0 0.20939261527189942,-0.4044798843744824 l 4.826170884833282 2.551338468202415" fill="#ff1b02" stroke="none" /><path d="M 81.43458229118936 90.18545643968196 l -19.86237151837506 -10.500173685066036 a43.467030283295344,43.467030283295344 0 0,0 0.3553779547936774,-0.6584613776752164 l 19.67868546436291 10.840516046073725" fill="#f8ff18" stroke="none" /><path d="M 81.6062741919709 89.86733742301443 l -17.336687662236955 -9.550365603871018 a40.793186258547706,40.793186258547706 0 0,0 0.3441048206207784,-0.6121240796366729 l 17.169725200323747 9.847373193442476" fill="#ffe415" stroke="none" /><line stroke="#e1ed5e" stroke-width="0.3" x1="26.266209847984243" x2="21.928928074336255" y1="57.711370442889674" y2="55.22380399835377" /><path d="M 25.398753493254645 57.213857153982495 a86.0,86.0 0 0,1 29.58750427330803,-30.492523968695096" fill="none" id="id11" stroke="none" /><text fill="#e1ed5e" style="font-size:6.75px; font-family:Arial;" text-anchor="middle"><textPath startOffset="21.46611528233685" xlink:href="#id11">November</textPath></text><path d="M 81.78341655067845 89.55222093294921 l -25.468113234623576 -14.606757687039792 a50.35953272549658,50.35953272549658 0 0,0 0.4377450236778318,-0.7482481425996599 l 25.212908536475418 15.042985241993344" fill="#a5ff21" stroke="none" /><path d="M 81.96595687620814 89.24020034530311 l -17.014348309772743 -10.15141074088175 a40.812601758384886,40.812601758384886 0 0,0 0.3651449095826992,-0.6002022229645178 l 16.837087601903825 10.442780737053344" fill="#ffe415" stroke="none" /><path d="M 82.15384107792192 88.93136811851018 l -32.7881765477353 -20.336043058722225 a59.582627808531434,59.582627808531434 0 0,0 0.5480818778931508,-0.8669339086792941 l 32.43326707359618 20.897424615115735" fill="#3fff2d" stroke="none" /><path d="M 82.34701348167596 88.62581576622439 l -15.006721967209979 -9.66914126529899 a38.85200260501466,38.85200260501466 0 0,0 0.3670651447579884,-0.5590653983584788 l 14.838060187094069 9.926024727635134" fill="#ffca12" stroke="none" /><path d="M 82.54541684631803 88.32363383020206 l -19.111173062939056 -12.784553641441901 a43.99308042982742,43.99308042982742 0 0,0 0.42647213597048567,-0.6257952356391254 l 18.88827646129983 13.111626900351443" fill="#f2ff19" stroke="none" /><path d="M 82.7489923806493 88.02491185347247 l -31.566226291432393 -21.912247135588764 a59.42620481927711,59.42620481927711 0 0,0 0.5905475713682422,-0.8352876594526714 l 31.18436610026027 22.452361295373223" fill="#41ff2d" stroke="none" /><path d="M 83.17141714833178 87.43820079747576 l -30.013856190768923 -22.404027605004384 a58.45359817648975,58.45359817648975 0 0,0 0.6088194429366889,-0.801135021891753 l 29.623760807608125 22.917347402777164" fill="#4bff2c" stroke="none" /><path d="M 83.39014120810768 87.1503855733568 l -12.849132401938482 -9.940264944479228 a37.24527841094107,37.24527841094107 0 0,0 0.3966549777975446,-0.5037115408592194 l 12.676123343546966 10.159968879291496" fill="#ffb510" stroke="none" /><path d="M 83.6137871275137 86.86637796730984 l -19.204844246595997 -15.39276753538263 a45.61225985021166,45.61225985021166 0 0,0 0.4963081026465134,-0.6084150497139986 l 18.93703765187309 15.721066754704712" fill="#deff1b" stroke="none" /><path d="M 83.84228863543731 86.58626213691792 l -30.68974891568032 -25.47788097896159 a60.887129599479,60.887129599479 0 0,0 0.6763962433710675,-0.8006398057937276 l 30.24664205882213 26.002379734384434" fill="#32ff2f" stroke="none" /><path d="M 84.07557802195018 86.31012108654704 l -44.8178548519437 -38.5289341697637 a80.10261315532401,80.10261315532401 0 0,0 0.9078606514115991,-1.0378416641455783 l 44.14800233695426 39.29469139011223" fill="#48f8ff" stroke="none" /><path d="M 84.31358615837235 86.03803664274999 l -33.7546677344626 -30.043924558082114 a66.18866004558777,66.18866004558777 0 0,0 0.764814251388789,-0.8445269987418164 l 33.232509842457766 30.620504344093487" fill="#36ff6d" stroke="none" /><path d="M 84.5562425177563 85.77008943001954 l -14.479196153239775 -13.34116173623529 a40.68841582546402,40.68841582546402 0 0,0 0.47902409568138815,-0.5109895062837142 l 14.247404735587931 13.588420659397054" fill="#ffe215" stroke="none" /><path d="M 85.05521093208273 85.24692304244772 l -11.72843019818107 -11.5779776160574 a37.480462390100946,37.480462390100946 0 0,0 0.4571977455961581,-0.4552343931796032 l 11.527396652417599 11.778147859887111" fill="#ffb811" stroke="none" /><path d="M 85.31137513191541 84.99185889309783 l -21.606053625970404 -22.07604214104652 a51.88969391077825,51.88969391077825 0 0,0 0.6437207022657103,-0.6192588055603627 l 21.222849680092267 22.4446840333692" fill="#93ff23" stroke="none" /><path d="M 85.57189188830299 84.74124197986013 l -21.728742897247766 -22.97970235488758 a52.62601758384892,52.62601758384892 0 0,0 0.6635692649274508,-0.6167153133590562 l 21.32996574852546 23.35032225432128" fill="#8bff24" stroke="none" /><path d="M 85.83668400450813 84.49514656593479 l -8.529070884548572 -9.336937341210962 a33.6460843373494,33.6460843373494 0 0,0 0.4309727141507748,-0.3869315580239202 l 8.367087182801825 9.482367908004163" fill="#ff830c" stroke="none" /><path d="M 86.10567301691215 84.25364557470407 l -36.83665818282796 -41.746755801581074 a76.67522793878216,76.67522793878216 0 0,0 0.9971657257263609,-0.864732291115665 l 36.11259865845483 42.37465308611642" fill="#43ffe3" stroke="none" /><path d="M 86.37877921826538 84.01681056812374 l -17.689544300445363 -20.75697487384679 a48.27218332790622,48.27218332790622 0 0,0 0.6370605611360618,-0.5335198990705114 l 17.329626202350187 21.058395930311114" fill="#bdff1f" stroke="none" /><path d="M 86.65592168130627 83.78471172551755 l -10.200798950117397 -12.3956778172135 a37.053321393682836,37.053321393682836 0 0,0 0.4959791769362634,-0.401047334709358 l 9.985916374616632 12.569431249186993" fill="#ffb210" stroke="none" /><path d="M 86.93701828274178 83.55741782278169 l -21.786169524704444 -27.422596960653827 a56.02336372517096,56.02336372517096 0 0,0 0.7602302291493376,-0.5933717524231358 l 21.31090674039568 27.793547102300185" fill="#65ff29" stroke="none" /><path d="M 87.22198572758235 83.33499621200491 l -22.441473012254 -29.268024341206388 a57.88139042657115,57.88139042657115 0 0,0 0.7958797195945108,-0.5994401044816137 l 21.9343471389011 29.649981035193854" fill="#51ff2b" stroke="none" /><path d="M 87.51073957382395 83.11751280151077 l -11.701165260892155 -15.817171392341839 a40.67486160859655,40.67486160859655 0 0,0 0.5664549420998006,-0.41155360563432075 l 11.427165002438572 16.01624423279283" fill="#ffe215" stroke="none" /><path d="M 87.80319425747018 82.90503203632743 l -16.629473996901694 -23.30776854455303 a49.63200097688049,49.63200097688049 0 0,0 0.6997376175908413,-0.49021091840761055 l 16.22580523972719 23.590564305724584" fill="#adff20" stroke="none" /><path d="M 88.09926311788651 82.69761687909137 l -17.636654564938446 -25.64178649410602 a52.12158091826767,52.12158091826767 0 0,0 0.7435895696772705,-0.5020749967584159 l 17.192660300854634 25.941573403163105" fill="#90ff24" stroke="none" /><path d="M 88.39885842347998 82.49532879139004 l -2.423627800165206 -3.656951127965173 a25.387170302832953,25.387170302832953 0 0,0 0.3663404630375376,-0.2382780275825466 l 2.360320311343381 3.698128079707254" fill="#ff0a01" stroke="none" /><path d="M 88.70189139769569 82.29822771554957 l -18.784215811107742 -29.430935967670237 a55.91456366004559,55.91456366004559 0 0,0 0.8157691147095708,-0.5108345447923331 l 18.274827544025932 29.7499148537855" fill="#66ff29" stroke="none" /><path d="M 89.00827224532344 82.1063720568725 l -9.861722715004266 -16.05407276080848 a39.841094106154344,39.841094106154344 0 0,0 0.5874435266027537,-0.35392815182768167 l 9.583917122183863 16.221447522094785" fill="#ffd714" stroke="none" /><line stroke="#e1ed5e" stroke-width="0.3" x1="56.762969772571076" x2="54.21961505331055" y1="26.818313649435495" y2="22.513508569990535" /><path d="M 56.25429882871897 25.957352633546506 a86.0,86.0 0 0,1 42.265352541879196,-11.944610805530505" fill="none" id="id12" stroke="none" /><text fill="#e1ed5e" style="font-size:6.75px; font-family:Arial;" text-anchor="middle"><textPath startOffset="22.20632615414155" xlink:href="#id12">December</textPath></text><path d="M 89.3179101791058 81.91981866633112 l -5.397568505233665 -9.13576078948899 a31.61112015630088,31.61112015630088 0 0,0 0.47086007977725214,-0.272752550122162 l 5.239511692991092 9.227317497001197" fill="#ff6609" stroke="none" /><path d="M 89.63071344664047 81.73862282372117 l -19.815577813429126 -34.89726497139705 a61.130739172907845,61.130739172907845 0 0,0 0.9195108534257834,-0.5117067943981741 l 19.211942870931296 35.23318716335541" fill="#30ff2f" stroke="none" /><path d="M 90.26544431104013 81.39251694778311 l -16.031994044425417 -30.644958743542073 a55.58523282318463,55.58523282318463 0 0,0 0.8516174145617367,-0.4362315167383574 l 15.502116142274918 30.916382785592937" fill="#6aff28" stroke="none" /><path d="M 90.58718382345135 81.22770947309562 l -10.282035914766583 -20.505804190774747 a43.939229892543146,43.939229892543146 0 0,0 0.6790258383602211,-0.33319502990652095 l 9.927538809395935 20.6797543808161" fill="#f2ff19" stroke="none" /><path d="M 90.91171255644093 81.06846463323043 l -16.47186041327103 -34.31203182193952 a59.060973624226634,59.060973624226634 0 0,0 0.9202874967479088,-0.43208731943124346 l 15.878794705223516 34.59048412401077" fill="#45ff2d" stroke="none" /><path d="M 91.23893434514133 80.91482961587045 l -1.9403374230256383 -4.226845429540903 a25.650928036470205,25.650928036470205 0 0,0 0.4028635592547536,-0.18075313584672204 l 1.8672917453041102 4.259618895904154" fill="#ff0e01" stroke="none" /><path d="M 91.56875222667455 80.76684994638697 l -14.706246188796314 -33.54751838385762 a57.62935525887333,57.62935525887333 0 0,0 0.9119605133617201,-0.39045389854441853 l 14.126601917644285 33.79569181036483" fill="#54ff2b" stroke="none" /><path d="M 91.90106846888425 80.62456947434976 l -12.707301558961872 -30.400237065621106 a53.949202214262456,53.949202214262456 0 0,0 0.8598889620929479,-0.35077029816373345 l 12.182128727280544 30.614468249968414" fill="#7cff26" stroke="none" /><path d="M 92.23578459929587 80.48803036053334 l -12.544434098905949 -31.524964809701867 a54.92913546076197,54.92913546076197 0 0,0 0.8815258753471449,-0.34201834430851724 l 11.999925058559128 31.736225857900937" fill="#71ff27" stroke="none" /><path d="M 92.57280143429618 80.3572730644239 l -11.554619641460395 -30.55852572862287 a53.670058612829706,53.670058612829706 0 0,0 0.8669444027759033,-0.319302939987147 l 11.026892912911922 30.75289193641634" fill="#7fff26" stroke="none" /><path d="M 92.91201910852362 80.23233633223022 l -21.26394267442915 -59.30299100330936 a84.0,84.0 0 0,0 1.3652719837468588,-0.4763165873111608 l 20.239988686619004 59.66022844379273" fill="#4dd2ff" stroke="none" /><path d="M 93.25333710446033 80.11325718540243 l -15.535653036403074 -45.793533955286875 a69.35704982090525,69.35704982090525 0 0,0 1.133879362005038,-0.3738221983616683 l 14.745090852155627 46.05416987790778" fill="#3aff93" stroke="none" /><path d="M 93.59665428221793 80.00007090966166 l -11.123828615132256 -34.74367827710862 a57.48099153370238,57.48099153370238 0 0,0 0.9449180508821345,-0.2935906380344584 l 10.524125191539392 34.9300090500256" fill="#55ff2b" stroke="none" /><path d="M 93.94186890950719 79.89281104454417 l -7.781311060684211 -25.826494917532116 a47.973257896450676,47.973257896450676 0 0,0 0.7927233227497861,-0.23141767581546097 l 7.335597520211003 25.956610922266275" fill="#c1ff1e" stroke="none" /><path d="M 94.98787191387505 79.60689891045804 l -8.508108993013307 -34.617376849502165 a56.647590361445786,56.647590361445786 0 0,0 0.9489181180860045,-0.22457826023617894 l 7.910967187964769 34.75870102187922" fill="#5eff29" stroke="none" /><path d="M 95.692805502759 79.44645832069477 l -2.428244262487233 -11.587361492157969 a32.83905893845653,32.83905893845653 0 0,0 0.5542507413941655,-0.11117748460340826 l 2.2284271116259315 11.627442932838587" fill="#ff780b" stroke="none" /><path d="M 97.47563105711357 79.15227682838746 l -3.948869503612087 -32.61208647179577 a53.85029306414849,53.85029306414849 0 0,0 0.9211818235429443,-0.10350551118396176 l 3.3869209765594244 32.675227936450334" fill="#7dff26" stroke="none" /><path d="M 98.91598698831166 79.02799685794201 l -1.2294990348705177 -23.786668005305433 a44.81842233800066,44.81842233800066 0 0,0 0.7707897192960019,-0.03319182671213471 l 0.8198684831851918 23.804307558541762" fill="#e7ff1a" stroke="none" /><path d="M 99.63851952072746 79.00311137660856 l -0.544074615863726 -31.60301805257932 a52.607701074568546,52.607701074568546 0 0,0 0.9055550951362539,-0.007794398597784279 l 7.741653989875345e-15 31.607701074568546" fill="#8bff24" stroke="none" /></svg>