<?xml version="1.0" encoding="utf-8" ?>
<svg baseProfile="full" height="200mm" version="1.1" viewBox="0,0,200,200" width="200mm" xmlns="http://www.w3.org/2000/svg" xmlns:ev="http://www.w3.org/2001/xml-events" xmlns:xlink="http://www.w3.org/1999/xlink"><defs /><rect fill="#1a1a1a" height="200" width="200" x="0" y="0" /><text alignment-baseline="middle" fill="#e1ed5e" style="dominant-baseline: central; font-size:9.0px; font-family:Arial;" text-anchor="middle" x="100.0" y="100.0">2023</text><line stroke="#e1ed5e" stroke-width="0.3" x1="100.0" x2="100.0" y1="15.0" y2="10.0" /><path d="M 100.0 14.0 a86.0,86.0 0 0,1 42.46469731375804,11.215312516191453" fill="none" id="id13" stroke="none" /><text fill="#e1ed5e" style="font-size:6.75px; font-family:Arial;" text-anchor="middle"><textPath startOffset="22.20632615414155" xlink:href="#id13">January</textPath></text><path d="M 100.0 79.0 l 0.0 -17.73438807332471 a38.73438807332471,38.73438807332471 0 0,0 0.6667488173844535,0.005738917571342102 l -0.3052683381119251 17.731760532361925" fill="#00b135" stroke="none" /><path d="M 100.36148047927253 79.00311137660856 l 0.3726121407950738 -21.643480266880893 a42.64668745721457,42.64668745721457 0 0,0 0.7338750925812598,0.01895382849895274 l -0.7451138685712014 21.633859646239582" fill="#00be49" stroke="none" /><path d="M 100.72285384407766 79.0124445844662 l 0.5443966258372751 -15.806174991526937 a36.815547273142165,36.815547273142165 0 0,0 0.6331558289666305,0.027265021873968696 l -0.8163932871932371 15.794462243128773" fill="#00aa2c" stroke="none" /><path d="M 101.08401301168833 79.027996857942 l 1.7761315672228746 -34.36216761871877 a55.4080398570016,55.4080398570016 0 0,0 0.9520630276101705,0.057431041796796596 l -2.367356643672657 34.32650330754167" fill="#00ea99" stroke="none" /><path d="M 101.44485096284872 79.0497635885617 l 1.0536709370922857 -15.278153802397707 a36.31444435993002,36.31444435993002 0 0,0 0.6232420007225798,0.0483755742733636 l -1.3165031271772065 15.257752965935879" fill="#00a92a" stroke="none" /><path d="M 101.80526077348638 79.07773832637324 l 1.9806101313430806 -22.95449170003745 a44.03978093861717,44.03978093861717 0 0,0 0.754705265155159,0.07166835872609884 l -2.375440523588484 22.916997796796174" fill="#00c350" stroke="none" /><path d="M 102.16513564639614 79.11191278185805 l 1.9310335454337753 -18.62959357087726 a39.72940594812505,39.72940594812505 0 0,0 0.6796250222069186,0.07636379001311942 l -2.2514252711504192 18.59359382739354" fill="#00b43a" stroke="none" /><path d="M 102.52436894288641 79.15227682838746 l 3.0486550460697437 -25.17758611525657 a46.36148931315129,46.36148931315129 0 0,0 0.7914243372955062,0.10274959301152463 l -3.481594111873096 25.12137819908091" fill="#00cb5e" stroke="none" /><path d="M 102.88285421437855 79.19881850522331 l 4.126272851530278 -29.77304577302504 a51.05761770746178,51.05761770746178 0 0,0 0.8695137084573084,0.12814371803732472 l -4.638155540416242 29.697607570826747" fill="#00db7b" stroke="none" /><path d="M 103.2404852339499 79.25152402106235 l 0.6063959888346961 -3.8826878383039536 a24.929755837833724,24.929755837833724 0 0,0 0.4234150383544841,0.06986710928853443 l -0.6731402333280554 3.8716744660757945" fill="#008201" stroke="none" /><path d="M 103.59715602781102 79.31037775812273 l 6.072919800355952 -34.929376319280976 a56.45337339316954,56.45337339316954 0 0,0 0.9559569051814654,0.17469501409914986 l -6.673271826640318 34.81966582383109" fill="#00eea0" stroke="none" /><path d="M 103.95276090670814 79.375362276772 l 5.707512892094336 -29.78054794569722 a51.32254506731574,51.32254506731574 0 0,0 0.8662111392139996,0.17375380563501594 l -6.219290440775461 29.677890183984996" fill="#00dc7c" stroke="none" /><path d="M 104.307194497241 79.44645832069477 l 3.6461782797249676 -17.399232212640726 a38.77717349965772,38.77717349965772 0 0,0 0.6521162361031013,0.14252735124609947 l -3.945137239981597 17.333891363298754" fill="#00b135" stroke="none" /><path d="M 105.01212808612495 79.60689891045804 l 7.290920176831112 -29.664938654201688 a51.54776755153267,51.54776755153267 0 0,0 0.859844037211066,0.21919339031121535 l -7.800473102727203 29.535042267721604" fill="#00dd7e" stroke="none" /><path d="M 105.36241919743992 79.69619591428918 l 8.602310029956348 -32.571048831125175 a54.687875560964486,54.687875560964486 0 0,0 0.9080846496180645,0.2482138378369868 l -9.161692568798124 32.41814845246189" fill="#00e893" stroke="none" /><path d="M 105.71112130821622 79.79150937346287 l 5.9210629938337425 -20.951357807421136 a42.771963185517606,42.771963185517606 0 0,0 0.7067756967880026,0.20632720695812512 l -6.280828908345173 20.846332271544306" fill="#00bf4a" stroke="none" /><path d="M 106.0581310904928 79.89281104454417 l 1.017346563996358 -3.3766155419714665 a24.5265459800715,24.5265459800715 0 0,0 0.4031867823430388,0.12527209588667268 l -1.075318719050115 3.3586033112022733" fill="#008000" stroke="none" /><path d="M 106.40334571778207 80.00007090966166 l 7.585364831905682 -23.691795734403456 a45.87647372024036,45.87647372024036 0 0,0 0.7500086420525154,0.2472660573577633 l -7.992056296200616 23.557715952786456" fill="#00c95b" stroke="none" /><path d="M 107.08798089147638 80.2323363322302 l 11.436627264842809 -31.895599709774128 a54.88400395527496,54.88400395527496 0 0,0 0.8865535320950995,0.3265251478036573 l -11.983963122710485 31.694011294164145" fill="#00e895" stroke="none" /><path d="M 107.76421540070413 80.48803036053334 l 13.966881041532224 -35.09966490827963 a58.776450901346315,58.776450901346315 0 0,0 0.9368298192869893,0.38215640568305653 l -14.568994730407601 34.854047616413" fill="#00f6b1" stroke="none" /><path d="M 108.09893153111575 80.62456947434976 l 15.57105368876909 -37.25131738659758 a61.37472427169697,61.37472427169697 0 0,0 0.9712294160298032,0.41582974954907637 l -16.20996686258921 36.97776810908571" fill="#00ffc6" stroke="none" /><path d="M 108.43124777332544 80.76684994638697 l 5.987231247567222 -13.657921115123703 a35.912603635810456,35.912603635810456 0 0,0 0.5640294691192957,0.25306358172943094 l -6.221442835153298 13.55283720287774" fill="#00a728" stroke="none" /><path d="M 108.76106565485865 80.91482961587045 l 15.609155684625682 -34.003100482220034 a58.41465733627444,58.41465733627444 0 0,0 0.9102166028522277,0.4273588997112764 l -16.192150498777508 33.72937659986876" fill="#00f4af" stroke="none" /><path d="M 109.08828744355905 81.06846463323043 l 6.8460641617021585 -14.260828192916724 a36.8189701072488,36.8189701072488 0 0,0 0.5689911294707733,0.279201476129964 l -7.090526558183363 14.140871556651929" fill="#00aa2c" stroke="none" /><path d="M 109.41281617654863 81.2277094730956 l 12.01658304793045 -23.965068889631414 a47.80900585684947,47.80900585684947 0 0,0 0.7324783920594798,0.3752038820279634 l -12.427321927578685 23.754672482290953" fill="#00d066" stroke="none" /><path d="M 109.73455568895987 81.39251694778311 l 10.751654866688561 -20.551655577057893 a44.19415075682666,44.19415075682666 0 0,0 0.6710249468232746,0.35843828752743734 l -11.103824860040147 20.3635385630287" fill="#00c451" stroke="none" /><path d="M 110.05341064243156 81.56283822128135 l 22.58420609344587 -41.41765179981505 a68.17486879135924,68.17486879135924 0 0,0 1.0254666086602422,0.5706710574702849 l -23.29379679117815 41.02276534478458" fill="#17ffec" stroke="none" /><path d="M 110.36928655335952 81.73862282372117 l 15.605816262118543 -27.483443093191536 a52.60508100707386,52.60508100707386 0 0,0 0.7835733918066097,0.45389628469721194 l -16.07658638639048 27.210742651104272" fill="#00e085" stroke="none" /><line stroke="#e1ed5e" stroke-width="0.3" x1="143.23703022742887" x2="145.7803849466894" y1="26.81831364943548" y2="22.513508569990506" /><path d="M 143.74570117128098 25.957352633546492 a86.0,86.0 0 0,1 28.547481713284135,27.462654790039103" fill="none" id="id14" stroke="none" /><text fill="#e1ed5e" style="font-size:6.75px; font-family:Arial;" text-anchor="middle"><textPath startOffset="19.985693538727396" xlink:href="#id14">February</textPath></text><path d="M 110.68208982089419 81.91981866633111 l 8.457897390812647 -14.315580667403212 a37.62744352323724,37.62744352323724 0 0,0 0.5548039936213198,0.3342631984125905 l -8.703063450651605 14.167870859532007" fill="#00ad30" stroke="none" /><path d="M 110.99172775467656 82.1063720568725 l 15.01187971215364 -24.438104390092356 a49.680611546360396,49.680611546360396 0 0,0 0.7248184702970583,0.45388125960504366 l -15.430317334822961 24.176078789164368" fill="#00d672" stroke="none" /><path d="M 111.60114157652 82.49532879139004 l 22.014738420166623 -33.21748599021639 a60.85034608655968,60.85034608655968 0 0,0 0.8681180014890733,0.5861571498006791 l -22.58326111606224 32.83361692811704" fill="#00fdc2" stroke="none" /><path d="M 111.90073688211348 82.69761687909136 l 8.589301142197566 -12.487914032157613 a36.156651707613904,36.156651707613904 0 0,0 0.5097551746449567,0.3571160761459216 l -8.802987456426173 12.338213113247756" fill="#00a829" stroke="none" /><path d="M 112.19680574252982 82.90503203632743 l 12.669017967596195 -17.756817715974186 a42.81303719479729,42.81303719479729 0 0,0 0.5962320594637104,0.4331879477606042 l -12.972795343413695 17.536110533396908" fill="#00bf4a" stroke="none" /><path d="M 112.48926042617603 83.11751280151076 l 8.058937905636533 -10.89375282303933 a34.55065794477828,34.55065794477828 0 0,0 0.47507787484443864,0.35781880593558435 l -8.245261934239355 10.753417427597899" fill="#00a323" stroke="none" /><path d="M 113.06298171725822 83.55741782278167 l 13.947719843758243 -17.556216082950233 a43.42230166577927,43.42230166577927 0 0,0 0.5812314964170471,0.4699821148280598 l -14.24785473873978 17.313527870858046" fill="#00c14d" stroke="none" /><path d="M 113.34407831869373 83.78471172551755 l 11.886044660459639 -14.443533379350932 a39.70544610937856,39.70544610937856 0 0,0 0.5240031014709622,0.4388375279594687 l -12.132905298889717 14.236794693997643" fill="#00b43a" stroke="none" /><path d="M 113.6212207817346 84.01681056812373 l 6.505043555370982 -7.633041492692109 a31.028903932456075,31.028903932456075 0 0,0 0.4035326707213124,0.34993955557255346 l -6.635470024739059 7.519936943699884" fill="#009715" stroke="none" /><path d="M 113.89432698308785 84.25364557470407 l 7.559000630912637 -8.56656844050562 a32.424735681143986,32.424735681143986 0 0,0 0.41532845849199923,0.3728859908280858 l -7.705340077000626 8.435183440908236" fill="#009b1a" stroke="none" /><path d="M 114.16331599549186 84.49514656593476 l 17.718034521237794 -19.39627192381653 a47.27059405187495,47.27059405187495 0 0,0 0.5960419349176521,0.5539560195092287 l -18.049284339950294 19.088411318232662" fill="#00ce63" stroke="none" /><path d="M 114.42810811169701 84.74124197986012 l 11.72588521007676 -12.400963702749369 a38.06693542252985,38.06693542252985 0 0,0 0.4722416448520484,0.4542960881911057 l -11.937610098541226 12.197284527795961" fill="#00af32" stroke="none" /><path d="M 114.68862486808459 84.99185889309783 l 14.582405308492394 -14.899610992409539 a41.848140260135395,41.848140260135395 0 0,0 0.5104759697249162,0.5082838236821884 l -14.836717078384634 14.646391318077232" fill="#00bc45" stroke="none" /><path d="M 114.94478906791727 85.2469230424477 l 22.777937808858248 -22.485741879745223 a53.00692173119343,53.00692173119343 0 0,0 0.6354160224206499,0.6548520657497283 l -23.161618094982007 22.09032561844538" fill="#00e288" stroke="none" /><path d="M 115.4437574822437 85.77008943001954 l 18.045126687722405 -16.626817617764882 a45.5372708602723,45.5372708602723 0 0,0 0.5261861125350078,0.5810278477315023 l -18.32865644087345 16.31373698276383" fill="#00c859" stroke="none" /><path d="M 115.68641384162765 86.03803664274999 l 14.435986998543626 -12.84899936558667 a40.32600593291245,40.32600593291245 0 0,0 0.45704369149719665,0.5224799473720529 l -14.655022553618672 12.59860386201167" fill="#00b63d" stroke="none" /><path d="M 115.9244219780498 86.31012108654704 l 28.326070212604343 -24.351305927401075 a58.35441545599757,58.35441545599757 0 0,0 0.6482602753355979,0.7673356941808889 l -28.741041101427058 23.86011128359108" fill="#00f4ae" stroke="none" /><path d="M 116.15771136456269 86.58626213691792 l 18.39897514472248 -15.274380385451913 a44.912945919221116,44.912945919221116 0 0,0 0.48869885084917736,0.5990870067385277 l -18.659172487648068 14.955409209105285" fill="#00c655" stroke="none" /><path d="M 116.60985879189232 87.15038557335679 l 24.83654791807259 -19.213893894863272 a52.4010800943181,52.4010800943181 0 0,0 0.5457798559462212,0.7181823148296226 l -25.163603714242925 18.78352680415262" fill="#00e084" stroke="none" /><path d="M 116.82858285166822 87.43820079747576 l 18.697704102777386 -13.957016259632347 a44.33243325473492,44.33243325473492 0 0,0 0.45121421260862254,0.6154556789134299 l -18.935180927899637 13.633098137047424" fill="#00c452" stroke="none" /><path d="M 117.04232023915458 87.72973835380427 l 5.049696393977841 -3.635719498193923 a27.2223701224614,27.2223701224614 0 0,0 0.2705221477897867,0.3826343932528649 l -5.111531161571511 3.5482586046092646" fill="#008a08" stroke="none" /><path d="M 117.45458315368197 88.32363383020206 l 24.851287327479824 -16.624443452566954 a50.899140488324335,50.899140488324335 0 0,0 0.48088384429872477,0.7324190864111527 l -25.133767807136472 16.194206302178127" fill="#00db7a" stroke="none" /><path d="M 117.65298651832404 88.62581576622439 l 22.482338299595003 -14.485835445476834 a47.7449988590553,47.7449988590553 0 0,0 0.43919124746846744,0.6946950814888995 l -22.728357143309424 14.096692716273727" fill="#00d066" stroke="none" /><line stroke="#e1ed5e" stroke-width="0.3" x1="172.23445277983987" x2="176.4835382374775" y1="55.19839476539836" y2="52.563006222186495" /><path d="M 173.08426987136738 54.67131705675599 a86.0,86.0 0 0,1 12.851231095245387,41.99856678651699" fill="none" id="id15" stroke="none" /><text fill="#e1ed5e" style="font-size:6.75px; font-family:Arial;" text-anchor="middle"><textPath startOffset="22.20632615414155" xlink:href="#id15">March</textPath></text><path d="M 118.03404312379186 89.2402003453031 l 15.936874519212648 -9.50854868049783 a39.55792195938237,39.55792195938237 0 0,0 0.34385314055919264,0.5877564788488208 l -16.098187334242166 9.232812789295114" fill="#00b439" stroke="none" /><path d="M 118.56541770881063 90.18545643968196 l 19.146816331383867 -10.12189792188708 a42.65764052635582,42.65764052635582 0 0,0 0.3375855932917651,0.6521079149034666 l -19.31821135783575 9.790817284723268" fill="#00be49" stroke="none" /><path d="M 118.73160827565052 90.50648371742162 l 23.49302600693406 -11.906688504360181 a47.33802388377577,47.33802388377577 0 0,0 0.36211331159528554,0.7299983397223088 l -23.694499331482753 11.500530576138923" fill="#00ce63" stroke="none" /><path d="M 118.89224826269711 90.83032412892265 l 24.74576798976733 -12.01078180277169 a48.50657944778276,48.50657944778276 0 0,0 0.3581213184829804,0.7542948290480072 l -24.948847502092068 11.583044558083143" fill="#00d26b" stroke="none" /><path d="M 119.04729006885535 91.15688171328212 l 14.626813683252848 -6.790816073635911 a37.126340610025096,37.126340610025096 0 0,0 0.26412329841749277,0.5819606771930194 l -14.741539298633688 6.538033387600828" fill="#00ab2e" stroke="none" /><path d="M 119.196687751892 91.48605970444005 l 27.27813680846848 -12.098151054133126 a50.84061002510079,50.84061002510079 0 0,0 0.34791752275582494,0.8030416111935652 l -27.48234504106699 11.626810298352957" fill="#00da79" stroke="none" /><path d="M 119.34039704204932 91.81776055985345 l 24.455475917240403 -10.346248794300639 a47.55400471590477,47.55400471590477 0 0,0 0.31244863583363586,0.7566191548746347 l -24.629946239960237 9.9237550689727" fill="#00cf65" stroke="none" /><path d="M 119.47837535516314 92.15188598940014 l 13.379014481988227 -5.390594907920684 a35.424165208792886,35.424165208792886 0 0,0 0.22301443479327046,0.5675474112016429 l -13.469822466663198 5.159498491823257" fill="#00a626" stroke="none" /><path d="M 119.61058180528143 92.48833698450437 l 16.886422270800804 -6.468197368904929 a39.0828325853807,39.0828325853807 0 0,0 0.23523289081672774,0.6303071969535471 l -16.995259750119157 6.176567034922049" fill="#00b237" stroke="none" /><path d="M 119.85752413597 93.16781622104841 l 20.547679314760373 -7.069638709647086 a42.72986232600593,42.72986232600593 0 0,0 0.23331055481235846,0.6975688625610156 l -20.6663271633445 6.714896744163757" fill="#00bf49" stroke="none" /><path d="M 119.97218684219823 93.5106431181261 l 15.38328670443425 -4.998332843068484 a37.1749448543394,37.1749448543394 0 0,0 0.19250339972041672,0.610288383411455 l -15.467045587922874 4.73279429323061" fill="#00ac2e" stroke="none" /><path d="M 120.08093135843002 93.85539295169968 l 41.98777882599239 -12.84793006417799 a64.9094850536244,64.9094850536244 0 0,0 0.31772915642993754,1.071224763857217 l -42.20271387953403 12.123275913574243" fill="#0cffdb" stroke="none" /><path d="M 120.18372546131832 94.20196356495316 l 3.594422155902442 -1.032544297275671 a24.73978854491519,24.73978854491519 0 0,0 0.1140542297399303,0.41031374790472647 l -3.6116631562087353 0.9705192459519928" fill="#008101" stroke="none" /><path d="M 120.28053869075195 94.5502522615342 l 23.310532135519296 -6.263961807183652 a45.13748383661672,45.13748383661672 0 0,0 0.19517376678617718,0.7520841398172942 l -23.414902234175777 5.861781241817507" fill="#00c757" stroke="none" /><path d="M 120.37134235888165 94.90015583598534 l 25.44995570619415 -6.371244751383718 a47.23533886057656,47.23533886057656 0 0,0 0.190667019235351,0.7904378887228078 l -25.55585552569032 5.932221631001504" fill="#00ce63" stroke="none" /><path d="M 120.45610955862082 95.25157060432595 l 22.3286985792187 -5.183109153618355 a43.922377728759415,43.922377728759415 0 0,0 0.1646160792128601,0.7379416051418475 l -22.414609045433597 4.797989378926544" fill="#00c350" stroke="none" /><path d="M 120.53481517161879 95.60439243477599 l 23.737013745197785 -5.0810585010000215 a45.27473948429299,45.27473948429299 0 0,0 0.15656587898164034,0.7634708291546537 l -23.820958920094423 4.6717120156819565" fill="#00c757" stroke="none" /><path d="M 120.67395015179393 96.31383870115 l 19.532748283131745 -3.4826852271969493 a40.840800182551156,40.840800182551156 0 0,0 0.11744285224041905,0.6931543619816359 l -19.589802996892388 3.1459450768994754" fill="#00b840" stroke="none" /><path d="M 120.73433829027371 96.67025291283417 l 33.621963405303674 -5.399383049813651 a55.05274967673234,55.05274967673234 0 0,0 0.14220415332972466,0.9369476952247929 l -33.7099234520727 4.819836242196776" fill="#00e996" stroke="none" /><path d="M 120.83666639777658 97.38593545837742 l 22.06586873479566 -2.768274153771671 a43.23883775766335,43.23883775766335 0 0,0 0.08629163937898866,0.7392940687830861 l -22.11025072717824 2.388036346663732" fill="#00c04c" stroke="none" /><path d="M 120.87857604477298 97.74499172005257 l 36.842023705992894 -3.9791539580512985 a58.0562866053092,58.0562866053092 0 0,0 0.09875892522657007,0.9944888994460034 l -36.90505975690169 3.34438952790086" fill="#00f3ac" stroke="none" /><path d="M 120.91429891909075 98.10471618934814 l 34.77554147438922 -3.1514095221666536 a55.918042138891,55.918042138891 0 0,0 0.07861947895019052,0.9593567790300933 l -34.82463543715891 2.5523388259287914" fill="#00ec9c" stroke="none" /><path d="M 120.96714384426684 98.82574320788733 l 32.42982344627006 -1.8162197355845369 a53.480641971552444,53.480641971552444 0 0,0 0.04356480064235655,0.919584086980925 l -32.45628185514592 1.257724541980612" fill="#00e38b" stroke="none" /><path d="M 120.98425023603335 99.18683210126433 l 26.918869550523787 -1.0431423730904177 a47.9390735529018,47.9390735529018 0 0,0 0.024855965731299993,0.8248484942596255 l -26.932837210710733 0.5796237314057933" fill="#00d167" stroke="none" /><line stroke="#e1ed5e" stroke-width="0.3" x1="184.98032266829074" x2="189.97916517819016" y1="98.17113171792111" y2="98.06355123074" /><path d="M 185.9800911702706 98.14961562048488 a86.0,86.0 0 0,1 -9.607161424134198,41.387399972396054" fill="none" id="id16" stroke="none" /><text fill="#e1ed5e" style="font-size:6.75px; font-family:Arial;" text-anchor="middle"><textPath startOffset="21.466115282336823" xlink:href="#id16">April</textPath></text><path d="M 120.99980553446 99.90962569577887 l 21.94940501648908 -0.09446097980182998 a42.94960827565224,42.94960827565224 0 0,0 -0.0031817534290102855,0.7393274431672795 l -21.94777896577057 -0.2833759415691342" fill="#00bf4b" stroke="none" /><path d="M 120.99824983174949 100.27111621757518 l 31.370055930663117 0.40503046573833396 a52.37267057123299,52.37267057123299 0 0,0 -0.019397683272466902,0.9013341199387117 l -31.358436184705642 -0.9449544014671605" fill="#00e083" stroke="none" /><path d="M 120.9904718944345 100.63252640178507 l 20.96903186620344 0.6318803284628808 a41.97855023959839,41.97855023959839 0 0,0 -0.027981436635856696,0.7220765468527895 l -20.95504829671638 -0.9927341223296765" fill="#00bc45" stroke="none" /><path d="M 120.9764740272857 100.99374915477107 l 3.4258375580534848 0.1622972084474361 a24.42967977485358,24.42967977485358 0 0,0 -0.023514903566614877,0.41987439960062495 l -3.422536303599341 -0.22124332438348437" fill="#008000" stroke="none" /><path d="M 120.95626037817324 101.35467743843564 l 32.475155848404285 2.0992944420243673 a53.5429375522933,53.5429375522933 0 0,0 -0.06737088901676444,0.9192222542132191 l -32.434208400723186 -2.6579898327343567" fill="#00e48b" stroke="none" /><path d="M 120.92983693683757 101.71520430193887 l 20.824197309577027 1.706547113462949 a41.894006237164376,41.894006237164376 0 0,0 -0.0650861365265815,0.7182200930305449 l -20.79173657677337 -2.0647485950420648" fill="#00bc45" stroke="none" /><path d="M 120.89721153311464 102.0752229133903 l 5.131600728431884 0.5095998285291309 a26.156841865064273,26.156841865064273 0 0,0 -0.0483499238667966,0.4476602463896177 l -5.122068503064036 -0.59785639680354" fill="#008605" stroke="none" /><path d="M 120.8583938346157 102.4346265915055 l 12.251691400830923 1.4300378980226454 a33.33486727009964,33.33486727009964 0 0,0 -0.0714294626957678,0.5693630977605217 l -12.225260428888307 -1.640718750070562" fill="#009e1e" stroke="none" /><path d="M 120.81339534386255 102.79330883721812 l 47.461299082698055 6.369651081107526 a68.88681828554043,68.88681828554043 0 0,0 -0.16784092523936264,1.1738790402068275 l -47.34462410644209 -7.1856755932947625" fill="#19fff0" stroke="none" /><path d="M 120.76222939487914 103.15116336523771 l 24.7342361615097 3.7540101005969397 a46.01749448543394,46.01749448543394 0 0,0 -0.12560200250448372,0.7821237894918941 l -24.665952404643924 -4.179213119782039" fill="#00ca5c" stroke="none" /><path d="M 120.64145759157962 103.86396538481128 l 35.65652607011039 6.674702203866215 a57.275880428995215,57.275880428995215 0 0,0 -0.18974699239633547,0.9675158262992285 l -35.53634914473839 -7.2874817572333885" fill="#00f0a6" stroke="none" /><path d="M 120.5718875245553 104.21870165774334 l 25.48053673460549 5.225324240868067 a47.01080094318095,47.01080094318095 0 0,0 -0.1693865449380783,0.7913175462662759 l -25.386816150942966 -5.663155606550513" fill="#00cd62" stroke="none" /><path d="M 120.49622156327973 104.57218783832717 l 16.734679722196894 3.7330831376846887 a38.14600289039325,38.14600289039325 0 0,0 -0.14847774706058287,0.639638248313319 l -16.667941409205756 -4.020590043346573" fill="#00af32" stroke="none" /><path d="M 120.32669344350535 105.2749913415812 l 33.55166705642439 8.707011482716243 a55.663040997946304,55.663040997946304 0 0,0 -0.24865985488970777,0.925355823781154 l -33.396819125192906 -9.283258239672946" fill="#00eb9a" stroke="none" /><path d="M 120.23288151984713 105.62410040840565 l 17.134378703344005 4.762814736434158 a38.784019167870994,38.784019167870994 0 0,0 -0.18433003257638958,0.6416770252268467 l -17.049856033881515 -5.057049237165586" fill="#00b135" stroke="none" /><path d="M 120.13307415673323 105.97154293290107 l 28.16801474750893 8.354735500891499 a50.380923404578986,50.380923404578986 0 0,0 -0.2537596606011256,0.8293012532801781 l -28.02002831440167 -8.838363726723733" fill="#00d976" stroke="none" /><path d="M 120.02730092923936 106.31721596034902 l 24.51613745106856 7.733130656956817 a46.70685327451129,46.70685327451129 0 0,0 -0.24845321149571856,0.7646603587786999 l -24.379391988556595 -8.153989915713312" fill="#00cc60" stroke="none" /><path d="M 119.9155931802556 106.66101706037122 l 24.654984550847352 8.246165265074742 a46.99745189016506,46.99745189016506 0 0,0 -0.26320625069465714,0.7650005686336082 l -24.509387469209464 -8.66933853679765" fill="#00cd61" stroke="none" /><path d="M 119.79798401119884 107.00284435728193 l 5.662267743502147 2.002829161523421 a27.006047006921733,27.006047006921733 0 0,0 -0.15879007673844028,0.43692209355988754 l -5.6269534057584805 -2.09999905208944" fill="#008907" stroke="none" /><path d="M 119.67450827220406 107.3425965602758 l 41.525998992721746 15.497650723842813 a65.32364798052788,65.32364798052788 0 0,0 -0.40222482674772975,1.050082099367329 l -41.25307988638051 -16.210156390043284" fill="#0dffdd" stroke="none" /><path d="M 119.41010516605496 108.01547362559984 l 21.98197731934223 9.077537598810066 a44.78253593975812,44.78253593975812 0 0,0 -0.3003607736588139,0.7099641437912406 l -21.822465564491107 -9.45457626826747" fill="#00c655" stroke="none" /><path d="M 119.12269723197855 108.67885076344098 l 19.508666981822614 8.854023429590693 a42.42386095687229,42.42386095687229 0 0,0 -0.30752326139493347,0.6623777464910253 l -19.35336910358785 -9.18852124336055" fill="#00be48" stroke="none" /><path d="M 118.97047184881838 109.00673069616215 l 18.287234728531192 8.68234589471446 a41.24366775690271,41.24366775690271 0 0,0 -0.3100085066996097,0.6387093452877922 l -18.13507296521687 -8.995844195967528" fill="#00ba42" stroke="none" /><path d="M 118.81262510543309 109.33194174019688 l 21.594176462175284 10.711721279894784 a45.10496691260363,45.10496691260363 0 0,0 -0.35100541390971457,0.6925669815361127 l -21.4065923784793 -11.081842473133591" fill="#00c756" stroke="none" /><path d="M 118.64920377521936 109.65438752849418 l 17.630406744067056 9.126972981997922 a40.852780101924395,40.852780101924395 0 0,0 -0.32866546334572017,0.6217111958363324 l -17.47068877249644 -9.429099192920388" fill="#00b840" stroke="none" /><line stroke="#e1ed5e" stroke-width="0.3" x1="174.80103733775053" x2="179.2010983576182" y1="140.37084112569926" y2="142.7455964860345" /><path d="M 175.68104954172406 140.8457921977663 a86.0,86.0 0 0,1 -30.038265399797805,32.042727171017184" fill="none" id="id17" stroke="none" /><text fill="#e1ed5e" style="font-size:6.75px; font-family:Arial;" text-anchor="middle"><textPath startOffset="22.206326154141568" xlink:href="#id17">May</textPath></text><path d="M 118.48025628344425 109.97397251340804 l 27.5014021535227 14.84277192655329 a52.251159960447254,52.251159960447254 0 0,0 -0.43399213955355853,0.7878217948280847 l -27.241833604517634 -15.31396423977918" fill="#00df83" stroke="none" /><path d="M 118.30583269289576 110.29060199501025 l 23.232627692884773 13.06019392270055 a47.65189777135468,47.65189777135468 0 0,0 -0.4080999377966197,0.7115566403945339 l -23.004375758935772 -13.4581704089534" fill="#00d065" stroke="none" /><path d="M 118.12598468904814 110.60418214915192 l 13.852850124712504 8.104285010022677 a37.04932684262569,37.04932684262569 0 0,0 -0.3267735177981569,0.5476912118073369 l -13.711295731216119 -8.341538315716118" fill="#00ab2d" stroke="none" /><path d="M 117.94076556474637 110.91462005526583 l 23.819973291676156 14.491352515976113 a48.88172206587055,48.88172206587055 0 0,0 -0.44350935845100636,0.7150783022770711 l -23.566999293557185 -14.899227149618458" fill="#00d46d" stroke="none" /><path d="M 117.55443506779139 111.5257021239791 l 14.332494562841156 9.41027508928209 a38.14566060698258,38.14566060698258 0 0,0 -0.36510282495524227,0.5457791855062848 l -14.168388632475192 -9.655591188994181" fill="#00af32" stroke="none" /><path d="M 117.35343817320211 111.8261652097733 l 20.715738709623952 14.117533711609315 a46.06883699703354,46.06883699703354 0 0,0 -0.4522184888887577,0.6514544612929055 l -20.46965931357306 -14.472029435089242" fill="#00ca5c" stroke="none" /><path d="M 117.14729908036423 112.12312394758627 l 33.41272215917066 23.622762410771696 a61.919981744884765,61.919981744884765 0 0,0 -0.6227976857263545,0.8650115140489818 l -33.00114468106871 -24.194407530271807" fill="#01ffc9" stroke="none" /><path d="M 116.93607887273984 112.41649034213515 l 37.69473282838958 27.635457394238443 a67.73982657640526,67.73982657640526 0 0,0 -0.697522585389334,0.9344454906408199 l -37.21344897630516 -28.28021576438858" fill="#15ffea" stroke="none" /><path d="M 116.71984013943494 112.70617746262583 l 32.565072161523815 24.74769988928385 a61.901498440708906,61.901498440708906 0 0,0 -0.6520090218605322,0.8428095524553739 l -32.13425632244521 -25.304587435852476" fill="#01ffc9" stroke="none" /><path d="M 116.498646956653 112.99209946851258 l 29.967877791501763 23.598641158293166 a59.144063284399486,59.144063284399486 0 0,0 -0.6367339674712804,0.7944235267436014 l -29.557225911975628 -24.110992518615017" fill="#00f7b4" stroke="none" /><path d="M 116.27256486870786 113.27417163493432 l 6.32042976922451 5.155823328415255 a29.156613676123833,29.156613676123833 0 0,0 -0.32058946320836246,0.3861706606998348 l -6.230744306122604 -5.26385524622886" fill="#00900e" stroke="none" /><path d="M 115.32070863581623 114.36230785411682 l 21.562928925165963 20.21404040905021 a50.55617251083898,50.55617251083898 0 0,0 -0.600639706133772,0.62976833055536 l -21.211782667653225 -20.582215856188075" fill="#00d977" stroke="none" /><path d="M 115.07121518719521 114.62390073753431 l 24.155639106439057 23.43869848294613 a54.658096904236714,54.658096904236714 0 0,0 -0.6609969583549486,0.6695864290257572 l -23.748601523028572 -23.85102540595255" fill="#00e893" stroke="none" /><path d="M 114.81725581225074 114.88116024355365 l 17.527556649112192 17.60315017020569 a45.841218528941965,45.841218528941965 0 0,0 -0.5639562376239896,0.5519498755688982 l -17.22195045911241 -17.90225014869716" fill="#00c95b" stroke="none" /><path d="M 114.55890576462653 115.13401014063108 l 31.003544903671436 32.22824369862324 a65.72001217007683,65.72001217007683 0 0,0 -0.8220139124037713,0.7772654616992187 l -30.44419515687686 -32.75714379706838" fill="#0effdf" stroke="none" /><path d="M 114.29624159901734 115.38237550388516 l 19.02191304565815 20.46707221922422 a48.94162166273675,48.94162166273675 0 0,0 -0.6220257557907967,0.5682057798265717 l -18.66678774040049 -20.791470765637378" fill="#00d46d" stroke="none" /><path d="M 114.0293411484842 115.62618273729858 l 23.452334441258003 26.12171588934052 a56.104928881113565,56.104928881113565 0 0,0 -0.7241747625170417,0.6390000295654247 l -22.999217325834373 -26.521539060678236" fill="#00ec9e" stroke="none" /><path d="M 113.75828350139079 115.86535959552629 l 22.535245829386884 25.98651049897795 a55.39674450444969,55.39674450444969 0 0,0 -0.7257884237340402,0.6185326403497362 l -22.084591929075795 -26.370567529550634" fill="#00ea98" stroke="none" /><path d="M 113.48314897796784 116.09983520530334 l 12.835795494183914 15.32684927853425 a40.991747166653994,40.991747166653994 0 0,0 -0.5448581484455548,0.4483811624168024 l -12.57006721719367 -15.545525559808231" fill="#00b940" stroke="none" /><path d="M 113.20401910651253 116.32954008644616 l 26.36901254506201 32.61081674610823 a62.93793260819959,62.93793260819959 0 0,0 -0.8482909642195808,0.6739336460102378 l -25.803764088125078 -33.05988430612359" fill="#05ffcf" stroke="none" /><path d="M 112.92097659922987 116.55440617244103 l 38.17872065025357 48.914727453815665 a83.050505818818,83.050505818818 0 0,0 -1.1345144858810865,0.8698973295941392 l -37.33107743587898 -49.56466412523717" fill="#4ad5ff" stroke="none" /><path d="M 112.63410532772338 116.77436683061366 l 18.910384656198026 25.107415278152818 a52.43222788468853,52.43222788468853 0 0,0 -0.7255996884633017,0.536781302886538 l -18.47539999731616 -25.429206529779123" fill="#00e084" stroke="none" /><path d="M 112.34349029814194 116.9893568818739 l 5.402934378673056 7.436501196297744 a30.19202099338252,30.19202099338252 0 0,0 -0.4230803188269166,0.3018565740038312 l -5.274126731997254 -7.528402032145795" fill="#009412" stroke="none" /><path d="M 112.04921762599082 117.19931262002967 l 13.61394396060509 19.432836673556007 a44.72708602723055,44.72708602723055 0 0,0 -0.6343645068614597,0.43632169226371326 l -13.277422569120747 -19.664299155184814" fill="#00c654" stroke="none" /><path d="M 111.7513745106137 117.40417183066458 l 17.02371668379808 25.212683851899474 a51.421807256408314,51.421807256408314 0 0,0 -0.7378424553748921,0.4890017461031211 l -16.587199529683225 -25.501983619093913" fill="#00dc7d" stroke="none" /><path d="M 111.45004920935366 117.60387380957326 l 19.051792481775358 29.291171117532844 a55.94200197763749,55.94200197763749 0 0,0 -0.8117402872625118,0.5180910574933544 l -18.544770392465914 -29.614776603850007" fill="#00ec9c" stroke="none" /><path d="M 111.1453310114006 117.79835938074945 l 18.51643141826574 29.569521128998645 a55.88860576557389,55.88860576557389 0 0,0 -0.8197549077418979,0.5035604182727896 l -18.00469731059153 -29.883870014099813" fill="#00ec9c" stroke="none" /><line stroke="#e1ed5e" stroke-width="0.3" x1="143.8653032363475" x2="146.44561519142675" y1="172.8068346515853" y2="177.08958963109032" /><path d="M 144.38136562736335 173.6633856474863 a86.0,86.0 0 0,1 -40.68145358897372,12.25698825130547" fill="none" id="id18" stroke="none" /><text fill="#e1ed5e" style="font-size:6.75px; font-family:Arial;" text-anchor="middle"><textPath startOffset="21.466115282336833" xlink:href="#id18">June</textPath></text><path d="M 110.8373102113329 117.98757091392108 l 16.468286110564797 27.333762572815782 a52.91142465961816,52.91142465961816 0 0,0 -0.7841778735111583,0.4633061099229665 l -15.995340366025257 -27.613187255032496" fill="#00e287" stroke="none" /><path d="M 110.5260780823613 118.17145234162733 l 13.673012736862018 23.60409046658102 a48.27827641286986,48.27827641286986 0 0,0 -0.7226826533954681,0.4103580714566253 l -13.264681316545351 -23.835951703832272" fill="#00d269" stroke="none" /><path d="M 110.21172684928248 118.3499491758327 l 11.152185736275655 20.03990554001975 a43.93401536472199,43.93401536472199 0 0,0 -0.6639835361797644,0.3620567649807151 l -10.805579388227242 -20.228902956760237" fill="#00c350" stroke="none" /><path d="M 109.89434966115114 118.52300852407294 l 16.90820060861897 31.65349464350208 a56.88636190765954,56.88636190765954 0 0,0 -0.8676771067235032,0.4539276532851257 l -16.36083259936897 -31.939851715731923" fill="#00efa3" stroke="none" /><path d="M 109.57404056367764 118.69057910512821 l 17.57786107446033 34.31575213474487 a59.55583022742831,59.55583022742831 0 0,0 -0.9164397053667805,0.45952189324710757 l -16.984567461410787 -34.61324186890128" fill="#00f8b7" stroke="none" /><path d="M 109.2508944713604 118.85261126421891 l 10.768266734942367 21.94489920642609 a45.44451205598236,45.44451205598236 0 0,0 -0.7052281327597785,0.33855236036774405 l -10.388925934182357 -22.127005843293393" fill="#00c858" stroke="none" /><path d="M 108.92500713936063 119.00905698771935 l 13.812139290897646 29.41798687701665 a53.499125275728304,53.499125275728304 0 0,0 -0.8369607072154728,0.38420761035223605 l -13.303710587914754 -29.65138155770296" fill="#00e48b" stroke="none" /><path d="M 108.59647513512805 119.15986991738527 l 10.307195078023604 22.972731707331857 a46.179052255267365,46.179052255267365 0 0,0 -0.7280442602675359,0.31915320845271217 l -9.910230143098314 -23.146749469079026" fill="#00ca5d" stroke="none" /><path d="M 108.2653958097858 119.30500536409082 l 15.036034722699256 35.11879378271267 a59.20225146421237,59.20225146421237 0 0,0 -0.9402685964439546,0.39303234957161415 l -14.42929466675784 -35.37241117530426" fill="#00f7b5" stroke="none" /><path d="M 107.93186726928326 119.44442032107085 l 14.51332872762508 35.57841482429581 a59.424735681143986,59.424735681143986 0 0,0 -0.9504531560513885,0.3782049259104841 l -13.898754495531826 -35.82296659461237" fill="#00f8b6" stroke="none" /><path d="M 107.59598834532513 119.57807347666477 l 13.418377090911628 34.58483092396302 a58.09667604776755,58.09667604776755 0 0,0 -0.9354388688854035,0.3537029378902507 l -12.82106800126595 -34.8106821119599" fill="#00f3ac" stroke="none" /><path d="M 107.2578585660854 119.70592522655815 l 15.400541961107285 41.814252175175305 a65.56016581729672,65.56016581729672 0 0,0 -1.0623258109284366,0.38091224005696783 l -14.678496589549114 -42.073151956272234" fill="#0effde" stroke="none" /><path d="M 106.91757812671514 119.82793768551818 l 7.545751858962128 21.62847963683652 a43.906974975279525,43.906974975279525 0 0,0 -0.715746974724092,0.2428202346651344 l -7.172335151300809 -21.75516285839978" fill="#00c350" stroke="none" /><path d="M 106.57524785965236 119.94407469862006 l 4.518986970141506 13.707013882721979 a35.43272229405949,35.43272229405949 0 0,0 -0.5808919033888119,0.1859832435033966 l -4.282373721661753 -13.782769972885081" fill="#00a626" stroke="none" /><path d="M 106.2309692047433 120.05430185196036 l 10.098504687181965 32.50191978095752 a55.03460865596715,55.03460865596715 0 0,0 -0.907088348938938,0.27329827857611305 l -9.53754136380278 -32.67093342863936" fill="#00e996" stroke="none" /><path d="M 105.88484417918355 120.15858648285463 l 3.396275565797704 11.633972392152208 a33.11957100479197,33.11957100479197 0 0,0 -0.5486317370625501,0.15504880902817603 l -3.195512660630548 -11.690709994518903" fill="#009e1d" stroke="none" /><path d="M 105.53697534728816 120.25689768951611 l 10.571959433016385 38.6772718280594 a61.096105575416445,61.096105575416445 0 0,0 -1.016841562171705,0.26855709849868914 l -9.904627428033184 -38.853520275861676" fill="#00fec4" stroke="none" /><path d="M 105.18746579009965 120.34920634021253 l 6.9049059603248155 27.086319569485532 a48.952574731877995,48.952574731877995 0 0,0 -0.8183162172851549,0.2011222166740403 l -6.437636458296449 -27.201163044473603" fill="#00d46d" stroke="none" /><path d="M 104.83641907484287 120.43548508189849 l 6.783856985141954 28.66406034553683 a50.45588347151442,50.45588347151442 0 0,0 -0.8468896318233601,0.1927493229670767 l -6.289447203925731 -28.77658640208159" fill="#00d977" stroke="none" /><path d="M 104.48393922423573 120.51570834832081 l 5.5656166601270805 25.464789433488495 a47.065908572297865,47.065908572297865 0 0,0 -0.7929676346887246,0.1661740777289192 l -5.1264575640089785 -25.556819491943955" fill="#00ce62" stroke="none" /><path d="M 103.41894727170886 120.7198165907248 l 2.425535955216289 14.699454578359342 a35.89822773256257,35.89822773256257 0 0,0 -0.6105504526707376,0.09535542410292426 l -2.172149638937034 -14.739028309809372" fill="#00a728" stroke="none" /><path d="M 103.06178313531738 120.77559828337769 l 6.2906303918791036 42.6848030036392 a64.14585076443295,64.14585076443295 0 0,0 -1.0937521501304683,0.15158408171579316 l -5.554949650561805 -42.7867616508476" fill="#09ffd6" stroke="none" /><path d="M 102.34483914955558 120.86867818915974 l 1.4777386321306347 13.151627892031769 a34.23438807332471,34.23438807332471 0 0,0 -0.5861700012534043,0.06075891733445067 l -1.2511360342716278 -13.175116177821977" fill="#00a221" stroke="none" /><path d="M 101.26447882468166 120.96189622390904 l 1.5817355161799906 26.221218652817964 a47.26888263482164,47.26888263482164 0 0,0 -0.8126014582825472,0.04200221352859862 l -1.1301459894839638 -26.24456067310876" fill="#00ce63" stroke="none" /><path d="M 100.90346689309514 120.98055641714683 l 0.79336702016311 18.423786918203003 a39.440861032935274,39.440861032935274 0 0,0 -0.6785324001727507,0.023370027813392216 l -0.47611426831570697 -18.43471374444249" fill="#00b339" stroke="none" /><line stroke="#e1ed5e" stroke-width="0.3" x1="102.19456741930631" x2="102.32365962044197" y1="184.97166512339345" y2="189.96999836594603" /><path d="M 102.22038585953345 185.97133177190398 a86.0,86.0 0 0,1 -42.740103519485714,-10.115201625700543" fill="none" id="id19" stroke="none" /><text fill="#e1ed5e" style="font-size:6.75px; font-family:Arial;" text-anchor="middle"><textPath startOffset="22.20632615414155" xlink:href="#id19">July</textPath></text><path d="M 100.54218724476979 120.99299961872073 l 0.7937506026031715 30.73330525302694 a51.74355366243249,51.74355366243249 0 0,0 -0.8905812419907132,0.015332163729595599 l -0.26460967071979047 -30.742414894035694" fill="#00de7f" stroke="none" /><path d="M 100.18074693466247 120.99922214144158 l 0.17293503914452873 20.091634249933644 a41.09237848938922,41.09237848938922 0 0,0 -0.7073639476139545,0.0 l 0.17293503914451488 -20.091634249933644" fill="#00b941" stroke="none" /><path d="M 99.81925306533755 120.99922214144158 l -0.06958233572774393 8.08409242345416 a29.08439187647372,29.08439187647372 0 0,0 -0.5005843628150396,-0.008618013774913426 l 0.2087263884354514 -8.081696932400087" fill="#00900e" stroke="none" /><path d="M 99.45781275523022 120.99299961872073 l -1.3798971441907784 53.42836907602116 a74.4461854415456,74.4461854415456 0 0,0 -1.2807567474040906,-0.04411185199321686 l 2.299374243269512 -53.39670042560185" fill="#2cf4ff" stroke="none" /><path d="M 99.09653310690486 120.98055641714683 l -2.7104006792854114 62.94166925144049 a84.0,84.0 0 0,0 -1.4440477263460443,-0.07464077295119242 l 3.793436474044945 -62.885688671727095" fill="#4dd2ff" stroke="none" /><path d="M 98.73552117531835 120.96189622390904 l -0.7342726817676996 12.172404515465892 a33.19453107172739,33.19453107172739 0 0,0 -0.5700563829974186,-0.03931442575045101 l 0.9436918255440482 -12.157961745199156" fill="#009e1d" stroke="none" /><path d="M 98.37488393609728 120.93702456842531 l -3.21027923149471 41.35931988752638 a62.48372252224843,62.48372252224843 0 0,0 -1.0716127483356468,-0.09246325703768521 l 3.9217362975718983 -41.29793237821003" fill="#03ffcd" stroke="none" /><path d="M 98.01472825383883 120.90594882070398 l -0.8865543790760072 9.33588084934609 a30.377880885373088,30.377880885373088 0 0,0 -0.5201378928846753,-0.0539144193130252 l 1.0471248685662757 -9.319237061577304" fill="#009413" stroke="none" /><path d="M 97.65516085044442 120.86867818915974 l -5.316534020426635 47.31626797302119 a68.6140184072412,68.6140184072412 0 0,0 -1.1725566476479075,-0.14198028056742218 l 6.130218091125933 -47.21774216372842" fill="#18ffef" stroke="none" /><path d="M 97.2962882734958 120.8252237178851 l -4.8573474279380155 37.41351042372157 a58.72750437362136,58.72750437362136 0 0,0 -1.001363820340197,-0.1387799010512336 l 5.500639839465044 -37.32435595717773" fill="#00f5b1" stroke="none" /><path d="M 96.93821686468263 120.77559828337769 l -4.995904245838038 33.89949421188958 a55.26564995816536,55.26564995816536 0 0,0 -0.9399480066391487,-0.14680054762994368 l 5.578688116085704 -33.80847535691253" fill="#00ea97" stroke="none" /><path d="M 96.58105272829116 120.7198165907248 l -4.927806804756242 29.86394497334324 a51.26777972160949,51.26777972160949 0 0,0 -0.8694796418188382,-0.15117018078257113 l 5.441135418047131 -29.774696214039665" fill="#00dc7c" stroke="none" /><path d="M 96.22490169976321 120.6578951692458 l -7.324787597226777 40.08231899842484 a61.746101772267444,61.746101772267444 0 0,0 -1.0438983715765238,-0.20006560741169974 l 8.013653583374996 -39.95029619266467" fill="#01ffc8" stroke="none" /><path d="M 95.86986931433489 120.58985236759428 l -10.55194109546936 52.6043667580165 a74.65224005476534,74.65224005476534 0 0,0 -1.2577428549904344,-0.26357224406797125 l 11.455875411889181 -52.41493853322199" fill="#2df3ff" stroke="none" /><path d="M 95.51606077576429 120.51570834832081 l -6.29397845329117 28.797318572119224 a50.47710504297558,50.47710504297558 0 0,0 -0.8472458306966101,-0.19283039267093913 l 6.788744433380643 -28.6847114458706" fill="#00d977" stroke="none" /><path d="M 95.16358092515715 120.4354850818985 l -4.337531482046199 18.327518463957826 a39.83380238837758,39.83380238837758 0 0,0 -0.6658821659346669,-0.16365763555413362 l 4.6523669327240755 -18.250139570089665" fill="#00b53b" stroke="none" /><path d="M 94.81253420990036 120.34920634021253 l -10.321382237050985 40.488351221284994 a62.783220506579454,62.783220506579454 0 0,0 -1.044920742767772,-0.27597306530181204 l 11.016793422630247 -40.304686806679605" fill="#04ffcf" stroke="none" /><path d="M 94.46302465271185 120.25689768951611 l -4.122633694370309 15.082561095221928 a36.63584848254355,36.63584848254355 0 0,0 -0.6068795151008942,-0.17151021292314084 l 4.381644377575817 -15.009362088960266" fill="#00aa2c" stroke="none" /><path d="M 94.11515582081647 120.15858648285463 l -10.492120397660038 35.94085246520451 a58.441013158895565,58.441013158895565 0 0,0 -0.9632331987314598,-0.2902142612553742 l 11.109228570831744 -35.754922834843406" fill="#00f4af" stroke="none" /><path d="M 93.76903079525671 120.05430185196036 l -7.810970045368415 25.139516165028493 a47.325017114170535,47.325017114170535 0 0,0 -0.7758568207435647,-0.24840485325122316 l 8.242548211202921 -25.001338465117563" fill="#00ce63" stroke="none" /><path d="M 93.42475214034765 119.94407469862007 l -10.28802051856242 31.20567529966748 a53.85783829010421,53.85783829010421 0 0,0 -0.877960388822623,-0.29785183195888587 l 10.823650640322267 -31.02396048081047" fill="#00e58e" stroke="none" /><path d="M 93.08242187328487 119.8279376855182 l -10.643136195187509 30.506549747761404 a53.30984254963109,53.30984254963109 0 0,0 -0.8638236497880267,-0.3097364274406274 l 11.166679405605263 -30.318825779280818" fill="#00e38a" stroke="none" /><path d="M 92.7421414339146 119.70592522655815 l -1.255844785951645 3.409763806058004 a24.633680687609342,24.633680687609342 0 0,0 -0.39663719108395373,-0.14997424677263282 l 1.3143521977958816 -3.387641309178738" fill="#008101" stroke="none" /><path d="M 92.40401165467489 119.57807347666478 l -11.004233015476235 28.362560964686825 a51.422491823229635,51.422491823229635 0 0,0 -0.8224633914682248,-0.3272751571751371 l 11.490817482986317 -28.16893896310562" fill="#00dc7d" stroke="none" /><path d="M 92.06813273071674 119.44442032107085 l -18.22918561600384 44.68757925401176 a69.26264547044954,69.26264547044954 0 0,0 -1.1000509073858924,-0.45982136850407485 l 18.995707982887193 -44.36717284248771" fill="#1bfff2" stroke="none" /><path d="M 91.7346041902142 119.30500536409082 l -13.702851319636512 32.004954670861366 a55.81501483228113,55.81501483228113 0 0,0 -0.8799617835542708,-0.38574938621713795 l 14.251733777848527 -31.764340731349776" fill="#00eb9b" stroke="none" /><path d="M 91.40352486487194 119.15986991738527 l -7.022461462650081 15.65169979663094 a38.15490225907051,38.15490225907051 0 0,0 -0.5969098338319357,-0.27401202813368897 l 7.290839292249436 -15.528500698163176" fill="#00af33" stroke="none" /><path d="M 91.07499286063937 119.00905698771935 l -9.000991264948102 19.17089288890135 a42.17878603483685,42.17878603483685 0 0,0 -0.6545491451372204,-0.3142233665519145 l 9.329653078085563 -19.01311524584987" fill="#00bd46" stroke="none" /><path d="M 90.7491055286396 118.85261126421891 l -8.00759411746085 16.318860789678368 a39.17764509013463,39.17764509013463 0 0,0 -0.6028620436699377,-0.3022875439068378 l 8.287310068813547 -16.17860540486223" fill="#00b337" stroke="none" /><path d="M 90.42595943632237 118.69057910512821 l -11.122569764150757 21.713639987891618 a45.39659237848939,45.39659237848939 0 0,0 -0.6924257872917383,-0.3622444458473004 l 11.494686453968992 -21.5189661230996" fill="#00c858" stroke="none" /><path d="M 90.10565033884886 118.52300852407294 l -8.816635451463114 16.505441915228904 a39.71263406100251,39.71263406100251 0 0,0 -0.6001849586462203,-0.32726869369047706 l 9.099443221977975 -16.35123256977866" fill="#00b43a" stroke="none" /><line stroke="#e1ed5e" stroke-width="0.3" x1="58.666819895761336" x2="56.23545636021788" y1="174.27360380694188" y2="178.64263932499728" /><path d="M 58.180547188652646 175.14741091055294 a86.0,86.0 0 0,1 -31.652253787137756,-30.449443065178592" fill="none" id="id20" stroke="none" /><text fill="#e1ed5e" style="font-size:6.75px; font-family:Arial;" text-anchor="middle"><textPath startOffset="22.20632615414155" xlink:href="#id20">August</textPath></text><path d="M 89.7882731507175 118.34994917583269 l -20.52975534610666 36.89091695787047 a63.218605004944095,63.218605004944095 0 0,0 -0.9463260208012055,-0.5373486122029564 l 21.161730133829074 -36.53206517987289" fill="#06ffd1" stroke="none" /><path d="M 89.4739219176387 118.17145234162733 l -12.747753213806657 22.006790010011965 a46.43234197915875,46.43234197915875 0 0,0 -0.6881541260624668,-0.40657358737488475 l 13.124675210897506 -21.78409785034333" fill="#00cb5e" stroke="none" /><path d="M 89.1626897886671 117.98757091392108 l -18.53779560924417 30.76869690048695 a56.921617098957945,56.921617098957945 0 0,0 -0.8349067638079906,-0.5128679258048495 l 19.064681572984473 -30.445040507853722" fill="#00efa3" stroke="none" /><path d="M 88.8546689885994 117.79835938074946 l -9.471212165861733 15.124901873878905 a38.845630181790526,38.845630181790526 0 0,0 -0.5636652584450881,-0.35975783683832385 l 9.730159226353745 -14.959629608216778" fill="#00b136" stroke="none" /><path d="M 88.54995079064634 117.60387380957326 l -24.235910535933712 37.26149145159589 a65.4499505590629,65.4499505590629 0 0,0 -0.9391298128411539,-0.6224040307676301 l 24.87371504751483 -36.83878939973694" fill="#0dffde" stroke="none" /><path d="M 88.24862548938628 117.40417183066458 l -19.509498422142713 28.894208295580782 a55.863961360006094,55.863961360006094 0 0,0 -0.7923188708938426,-0.5449641441499685 l 20.003974177659444 -28.55410336206571" fill="#00ec9c" stroke="none" /><path d="M 87.95078237400918 117.19931262002967 l -20.284815779847342 28.954982710640216 a56.35342663725565,56.35342663725565 0 0,0 -0.7896796876865207,-0.5634154898682212 l 20.78022279538275 -28.601522958927777" fill="#00ed9f" stroke="none" /><path d="M 87.65650970185807 116.9893568818739 l -28.890760632189554 39.76472060280605 a70.15189777135468,70.15189777135468 0 0,0 -0.9708188498102902,-0.7181885760888661 l 29.57096445241841 -39.26152207797742" fill="#1efff6" stroke="none" /><path d="M 87.36589467227662 116.77436683061367 l -17.533151994235794 23.278856366888792 a50.143036434167485,50.143036434167485 0 0,0 -0.6849807913841451,-0.5252140617539908 l 17.931261514113427 -22.97360296330743" fill="#00d875" stroke="none" /><path d="M 87.07902340077011 116.55440617244103 l -21.32152786430309 27.317225580590403 a55.65311477903705,55.65311477903705 0 0,0 -0.7501046259593952,-0.5959284806564419 l 21.788589982979843 -26.946163185928828" fill="#00eb9a" stroke="none" /><path d="M 86.79598089348748 116.32954008644616 l -13.61579729421087 16.838790214645975 a42.65490225907051,42.65490225907051 0 0,0 -0.5669646373577721,-0.46657329778944595 l 13.90363206011333 -16.60192179799935" fill="#00be49" stroke="none" /><path d="M 86.51685102203217 116.09983520530335 l -8.923764477491257 10.655607064293012 a34.8987601734236,34.8987601734236 0 0,0 -0.4572311308745952,-0.3896622891488797 l 9.10586108494291 -10.50042038492118" fill="#00a424" stroke="none" /><path d="M 86.24171649860922 115.8653595955263 l -32.09565994637378 37.01109854681189 a69.98931315128927,69.98931315128927 0 0,0 -0.903387549736785,-0.7971344775733712 l 32.727989849017156 -36.45314092746623" fill="#1dfff6" stroke="none" /><path d="M 85.97065885151581 115.62618273729859 l -25.666518725680923 28.58792209790407 a59.41925914657337,59.41925914657337 0 0,0 -0.7551917636460072,-0.6898497706667307 l 26.154810038793784 -28.141879560650764" fill="#00f8b6" stroke="none" /><path d="M 85.44109423537348 115.13401014063109 l -24.08676347780564 25.038236294775857 a55.74313531604168,55.74313531604168 0 0,0 -0.6857734125534245,-0.6711736203540195 l 24.51418684273486 -24.619912571499267" fill="#00eb9b" stroke="none" /><path d="M 85.18274418774928 114.88116024355367 l -3.5984925121842424 3.6140122292258337 a26.100022818894043,26.100022818894043 0 0,0 -0.3156354991010786,-0.3197370941658125 l 3.6601686363408543 -3.5515346410793565" fill="#008605" stroke="none" /><path d="M 84.9287848128048 114.62390073753433 l -18.968025598905733 18.40505361379756 a47.429755837833724,47.429755837833724 0 0,0 -0.5634958738683409,-0.590823170924139 l 19.282028024153032 -18.07582332629092" fill="#00cf64" stroke="none" /><path d="M 84.19399662182784 113.82643327865904 l -6.22989666883742 5.449654069008672 a29.27709743667757,29.27709743667757 0 0,0 -0.328541300427582,-0.3821677560701229 l 6.3227804788357815 -5.341609213777019" fill="#00910f" stroke="none" /><path d="M 83.95833913139862 113.55231037782056 l -15.366903246304545 12.982261877102925 a41.11668061154636,41.11668061154636 0 0,0 -0.45209552496694905,-0.5445781836643092 l 15.58809477116503 -12.715822436324855" fill="#00b941" stroke="none" /><path d="M 83.50135304334701 112.99209946851258 l -13.938397717956915 10.975993974485396 a38.741233741538,38.741233741538 0 0,0 -0.4080617521995023,-0.5274748219956134 l 14.125266287374487 -10.734441158376532" fill="#00b135" stroke="none" /><path d="M 83.28015986056508 112.70617746262583 l -9.744504295370605 7.405298126641252 a33.23902791511371,33.23902791511371 0 0,0 -0.342265013935757,-0.4585199183161438 l 9.870530576001448 -7.2364653288158" fill="#009e1d" stroke="none" /><path d="M 83.06392112726016 112.41649034213515 l -15.471753718816718 11.342937291983896 a40.184300600897544,40.184300600897544 0 0,0 -0.40417791981726575,-0.561367780226332 l 15.664711431009591 -11.074935906306425" fill="#00b63c" stroke="none" /><path d="M 82.85270091963577 112.12312394758628 l -23.57252875239457 16.66575514219413 a49.868867422225605,49.868867422225605 0 0,0 -0.48952014720330483,-0.7051902821841582 l 23.85590980676001 -16.25752359782296" fill="#00d773" stroke="none" /><path d="M 82.6465618267979 111.8261652097733 l -9.390814321384829 6.3997301578255215 a32.364151517456456,32.364151517456456 0 0,0 -0.3097663786202545,-0.46305870638311103 l 9.499583805415813 -6.23713453723659" fill="#009b1a" stroke="none" /><path d="M 82.44556493220864 111.52570212397912 l -11.00745425071991 7.227155892353508 a34.16798509165589,34.16798509165589 0 0,0 -0.31856787186437296,-0.49442441159810474 l 11.130226985961329 -7.036609880833955" fill="#00a121" stroke="none" /><path d="M 82.24976979558568 111.22182372390057 l -14.784850657991258 9.347089359264318 a38.491709135163916,38.491709135163916 0 0,0 -0.34923960332689,-0.5630854408735013 l 14.943554900986104 -9.091207587025552" fill="#00b034" stroke="none" /><line stroke="#e1ed5e" stroke-width="0.3" x1="26.63291911575756" x2="22.317208475507996" y1="142.92168965132927" y2="145.44649492493687" /><path d="M 25.769776987707644 143.4266507060508 a86.0,86.0 0 0,1 -11.730757126820373,-40.83630448921669" fill="none" id="id21" stroke="none" /><text fill="#e1ed5e" style="font-size:6.75px; font-family:Arial;" text-anchor="middle"><textPath startOffset="21.46611528233685" xlink:href="#id21">September</textPath></text><path d="M 81.69416730710424 110.29060199501025 l -24.06567844121244 13.528492406386166 a48.607553053928655,48.607553053928655 0 0,0 -0.40372875864010177,-0.7328849678769414 l 24.294983609304058 -13.112236920111402" fill="#00d36b" stroke="none" /><path d="M 81.51974371655577 109.97397251340807 l -14.68928258768527 7.927947455063697 a37.69213508785274,37.69213508785274 0 0,0 -0.3032376991781659,-0.5736114487344339 l 14.823572795088321 -7.673920991243136" fill="#00ad30" stroke="none" /><path d="M 81.35079622478065 109.6543875284942 l -6.465384242449374 3.3470235914397346 a28.280368144823914,28.280368144823914 0 0,0 -0.2200769229124387,-0.43423264760933444 l 6.522039835148079 -3.235236732127715" fill="#008d0b" stroke="none" /><path d="M 81.18737489456691 109.33194174019688 l -14.025911901238526 6.957508161776491 a36.65672777059405,36.65672777059405 0 0,0 -0.2755307191309078,-0.5676748909129158 l 14.143595876984154 -6.7150443148982895" fill="#00aa2c" stroke="none" /><path d="M 81.02952815118164 109.00673069616217 l -9.331767818796333 4.430502326606411 a31.330113333840423,31.330113333840423 0 0,0 -0.2271065955569292,-0.4891674024783962 l 9.406649031193089 -4.269214856849187" fill="#009816" stroke="none" /><path d="M 80.87730276802145 108.67885076344099 l -13.073309707235342 5.933331608869523 a35.35673537689206,35.35673537689206 0 0,0 -0.24675451353716582,-0.5563662867372158 l 13.173505305503788 -5.707416985639611" fill="#00a526" stroke="none" /><path d="M 80.73074385275274 108.34839909993369 l -7.228405126029227 3.1317042228804053 a28.877652696432648,28.877652696432648 0 0,0 -0.19368519275056573,-0.45781458198132224 l 7.281241299972099 -3.0068151152329246" fill="#008f0d" stroke="none" /><path d="M 80.58989483394504 108.01547362559985 l -15.996585003280002 6.605848041343574 a38.30687609340534,38.30687609340534 0 0,0 -0.24643613410405865,-0.6116342747660065 l 16.107923751641447 -6.329514398734762" fill="#00b033" stroke="none" /><path d="M 80.32549172779594 107.34259656027581 l -10.145319706957366 3.786269448393101 a31.82882026317791,31.82882026317791 0 0,0 -0.18714700492037048,-0.5149481811005254 l 10.208990972882962 -3.6110734702864584" fill="#009918" stroke="none" /><path d="M 80.20201598880116 107.00284435728193 l -35.61320197048653 12.596924531441807 a58.77542405111432,58.77542405111432 0 0,0 -0.3291680373148067,-0.9567163965796541 l 35.82476083874457 -11.982035431772855" fill="#00f6b1" stroke="none" /><path d="M 79.97269907076064 106.31721596034903 l -42.08553543291858 13.275049747143607 a65.12957328668138,65.12957328668138 0 0,0 -0.32804596056337165,-1.0720731797333536 l 42.307808165988085 -12.548649594858205" fill="#0cffdc" stroke="none" /><path d="M 79.76711848015287 105.62410040840567 l -21.755915419256446 6.047455607084679 a43.58077888491671,43.58077888491671 0 0,0 -0.1946855572246569,-0.7244973832379262 l 21.85678905282288 -5.6720672906712135" fill="#00c24e" stroke="none" /><path d="M 79.67330655649465 105.27499134158121 l -15.99063108994098 4.1497374268124805 a37.5203088156994,37.5203088156994 0 0,0 -0.15685040943684664,-0.6265394170894474 l 16.059692813672886 -3.8738701703256413" fill="#00ad30" stroke="none" /><path d="M 79.58551787078972 104.9243191809786 l -28.249620219223615 6.814287319188789 a50.05986156537613,50.05986156537613 0 0,0 -0.19485070256898085,-0.8394117269504953 l 28.362731487723153 -6.327006934889719" fill="#00d874" stroke="none" /><path d="M 79.50377843672027 104.57218783832718 l -42.49398639856755 9.479331944852442 a64.5384498364646,64.5384498364646 0 0,0 -0.23254113552907393,-1.0863547682615895 l 42.650861572821064 -8.746463357174688" fill="#0affd9" stroke="none" /><path d="M 79.35854240842038 103.8639653848113 l -58.042534370133055 10.865237721603702 a80.05073400775842,80.05073400775842 0 0,0 -0.24188113648340792,-1.3565978677811563 l 58.220961948955654 -9.864521103089332" fill="#3fdeff" stroke="none" /><path d="M 79.29508885075956 103.50808413554451 l -6.179143364742512 1.0469474924505313 a27.267209249258386,27.267209249258386 0 0,0 -0.07442421893481319,-0.4634396823505539 l 6.196249338038615 -0.9404285804067638" fill="#008a08" stroke="none" /><path d="M 79.23777060512086 103.15116336523772 l -32.544691362052085 4.939432909760703 a53.91739560355975,53.91739560355975 0 0,0 -0.13136831965569462,-0.9187897217027571 l 32.624893732724374 -4.378497716077545" fill="#00e58e" stroke="none" /><path d="M 79.1416061653843 102.43462659150553 l -17.80450866225034 2.078172009863381 a38.92538221647524,38.92538221647524 0 0,0 -0.0719520833731168,-0.6661869305067569 l 17.837643047124505 -1.771388757471842" fill="#00b236" stroke="none" /><path d="M 79.10278846688536 102.07522291339032 l -48.390184221977826 4.805445880733714 a69.62820415303872,69.62820415303872 0 0,0 -0.10817372719024324,-1.1936880655730457 l 48.46573254544514 -3.9717764266121027" fill="#1cfff4" stroke="none" /><path d="M 79.07016306316243 101.71520430193888 l -18.762689448859597 1.5376061340442433 a39.82558758652164,39.82558758652164 0 0,0 -0.050110908440515675,-0.6837235323686758 l 18.786376915964446 -1.2144094651788069" fill="#00b53b" stroke="none" /><path d="M 79.04373962182676 101.35467743843564 l -21.676063256129158 1.4012077210954013 a42.72130524073933,42.72130524073933 0 0,0 -0.04112159398871242,-0.7342536845928535 l 21.696971201005404 -1.0278823201671103" fill="#00bf49" stroke="none" /><path d="M 79.0095281055655 100.63252640178507 l -30.942066274750186 0.9324075200878349 a51.95611166045486,51.95611166045486 0 0,0 -0.019243399029798623,-0.8941651374301727 l 30.953531736464992 -0.3996525668675333" fill="#00de81" stroke="none" /><line stroke="#e1ed5e" stroke-width="0.3" x1="15.007084014347285" x2="10.007500721073583" y1="101.09737516637583" y2="101.16192664675087" /><path d="M 14.007167355692545 101.11028546245083 a86.0,86.0 0 0,1 10.666146001902534,-42.60595125391555" fill="none" id="id22" stroke="none" /><text fill="#e1ed5e" style="font-size:6.75px; font-family:Arial;" text-anchor="middle"><textPath startOffset="22.20632615414155" xlink:href="#id22">October</textPath></text><path d="M 79.00019446554 99.90962569577889 l -20.851712283507965 -0.08973697334238087 a41.8519053776527,41.8519053776527 0 0,0 0.009301073547978447,-0.7203783964335905 l 20.84707820284227 0.4486516278364433" fill="#00bc45" stroke="none" /><path d="M 79.00486145842228 99.54816195383935 l -7.5353358835618325 -0.16216856278658048 a28.53708070282194,28.53708070282194 0 0,0 0.014796212096963829,-0.49101424587008036 l 7.531427977009224 0.2918529560816553" fill="#008e0c" stroke="none" /><path d="M 79.01574976396665 99.18683210126434 l -9.091069737915763 -0.3522911704200906 a30.097893055449912,30.097893055449912 0 0,0 0.024517445235846754,-0.51752451887483 l 9.083658684446418 0.5087267959179296" fill="#009312" stroke="none" /><path d="M 79.03285615573316 98.82574320788736 l -18.89865783483397 -1.0584120321392592 a39.92827260972085,39.92827260972085 0 0,0 0.04433827235587463,-0.6858934487615018 l 18.877638971473683 1.3835645451537728" fill="#00b53b" stroke="none" /><path d="M 79.21141760316559 97.0276538004421 l -16.975757284357176 -2.4271894391634863 a38.1483988742679,38.1483988742679 0 0,0 0.09853932445979957,-0.6492510294516125 l 16.931462066458074 2.719039581007191" fill="#00af32" stroke="none" /><path d="M 79.26566170972629 96.67025291283419 l -29.14847511441135 -4.680981314608187 a50.521944169772574,50.521944169772574 0 0,0 0.14528219813294224,-0.8574637573343449 l 29.063581054758185 5.18203086025836" fill="#00d977" stroke="none" /><path d="M 79.32604984820605 96.31383870115002 l -20.730336307115632 -3.6962149393981942 a42.05727542405111,42.05727542405111 0 0,0 0.1332099632930632,-0.7116129504933303 l 20.66364061991271 4.052505967354097" fill="#00bc46" stroke="none" /><path d="M 79.3925641242962 95.95851677861259 l -21.664577698055428 -4.248807459270795 a43.077279987829925,43.077279987829925 0 0,0 0.14896678108491063,-0.7264149290455079 l 21.58823162105552 4.621098044479705" fill="#00c04b" stroke="none" /><path d="M 79.46518482838121 95.60439243477599 l -15.941821273036814 -3.4124480598227653 a37.30295884992774,37.30295884992774 0 0,0 0.13980724966292046,-0.6267284867920978 l 15.880719636371856 3.6863547161648222" fill="#00ac2f" stroke="none" /><path d="M 79.54389044137918 95.25157060432595 l -23.049215798076553 -5.350361149033679 a44.66205217920438,44.66205217920438 0 0,0 0.18027986180173955,-0.74737641524624 l 22.953703136014 5.746322795939316" fill="#00c554" stroke="none" /><path d="M 79.71946130924805 94.55025226153421 l -47.444811716148635 -12.749279459224722 a70.1279379326082,70.1279379326082 0 0,0 0.32330057832274334,-1.1630841950697812 l 47.21832436725953 13.564074957713446" fill="#1dfff6" stroke="none" /><path d="M 79.91906864156998 93.8553929516997 l -21.26816959334747 -6.5078926099146015 a43.24157602494866,43.24157602494866 0 0,0 0.2239182983777846,-0.7098821970505045 l 21.15299581120148 6.87302497339152" fill="#00c04c" stroke="none" /><path d="M 80.803312248108 91.48605970444005 l -27.50310532644016 -12.197927044405336 a51.086711797368224,51.086711797368224 0 0,0 0.36343982745180103,-0.8007914840153213 l 27.289063182025007 12.669540537262728" fill="#00db7b" stroke="none" /><path d="M 80.95270993114464 91.15688171328213 l -25.640542982974342 -11.904179214704532 a49.26918688674222,49.26918688674222 0 0,0 0.36375160585089544,-0.7661536501471289 l 25.431833183281697 12.343775280492194" fill="#00d56f" stroke="none" /><path d="M 81.10775173730289 90.83032412892265 l -20.304819955268137 -9.855291705965072 a43.57016809918613,43.57016809918613 0 0,0 0.33329101138432793,-0.6718943412576122 l 20.132168930930394 10.203345635721647" fill="#00c24e" stroke="none" /><path d="M 81.43458229118936 90.18545643968196 l -27.291642142546884 -14.427631785172354 a51.87054080778885,51.87054080778885 0 0,0 0.4240834164692901,-0.7857621636088874 l 27.039250626859122 14.895274932113713" fill="#00de80" stroke="none" /><path d="M 81.6062741919709 89.86733742301443 l -12.474811160700833 -6.872074397663285 a35.24241271773028,35.24241271773028 0 0,0 0.2972821007316372,-0.528831685573375 l 12.354671418676766 7.0857895931714445" fill="#00a526" stroke="none" /><line stroke="#e1ed5e" stroke-width="0.3" x1="26.266209847984243" x2="21.928928074336255" y1="57.711370442889674" y2="55.22380399835377" /><path d="M 25.398753493254645 57.213857153982495 a86.0,86.0 0 0,1 29.58750427330803,-30.492523968695096" fill="none" id="id23" stroke="none" /><text fill="#e1ed5e" style="font-size:6.75px; font-family:Arial;" text-anchor="middle"><textPath startOffset="21.46611528233685" xlink:href="#id23">November</textPath></text><path d="M 81.78341655067845 89.55222093294921 l -20.285295633837936 -11.634250060213242 a44.38480261656652,44.38480261656652 0 0,0 0.3858103008665916,-0.659474866427505 l 20.08202565850102 11.98170433899464" fill="#00c452" stroke="none" /><path d="M 81.96595687620814 89.24020034530311 l -11.845808460737574 -7.0676622491435 a34.7940214497604,34.7940214497604 0 0,0 0.3112974735476418,-0.5116911963528724 l 11.722395188903715 7.270521218703447" fill="#00a324" stroke="none" /><path d="M 82.15384107792192 88.93136811851018 l -19.052528160625144 -11.816852104840589 a43.41956339849395,43.41956339849395 0 0,0 0.3994029253160902,-0.6317595110300751 l 18.84629763906309 12.14305926358488" fill="#00c14d" stroke="none" /><path d="M 82.34701348167596 88.62581576622439 l -9.236124491815652 -5.951025990245414 a31.987297482315356,31.987297482315356 0 0,0 0.30220892601421395,-0.4602849276823025 l 9.132318930443518 6.109128981905384" fill="#009a18" stroke="none" /><path d="M 82.54541684631803 88.32363383020206 l -28.12242137926299 -18.81269158446565 a54.83471514413935,54.83471514413935 0 0,0 0.5315717350176469,-0.7800159286314751 l 27.794425178576603 19.29398553636754" fill="#00e894" stroke="none" /><path d="M 82.7489923806493 88.02491185347247 l -16.119360714592208 -11.18953568870894 a40.62242336654751,40.62242336654751 0 0,0 0.4036851004563105,-0.5709839461956024 l 15.92436299433202 11.465346135236327" fill="#00b73e" stroke="none" /><path d="M 82.95767976084542 87.72973835380427 l -14.35881544625681 -10.338171093054632 a38.693314064045026,38.693314064045026 0 0,0 0.3938194219637367,-0.5371692489753734 l 14.178733411779438 10.583802785701506" fill="#00b135" stroke="none" /><path d="M 83.39014120810768 87.1503855733568 l -16.58098118367424 -12.827274313110923 a41.963489769529176,41.963489769529176 0 0,0 0.4469030119519925,-0.5675214414676074 l 16.357724091128276 13.110788148531578" fill="#00bc45" stroke="none" /><path d="M 83.84228863543731 86.58626213691792 l -23.981899927411053 -19.909188363798048 a52.16901194188789,52.16901194188789 0 0,0 0.5795465138526626,-0.6860002740211485 l 23.635642800071267 20.319047587448313" fill="#00df82" stroke="none" /><path d="M 84.31358615837235 86.03803664274999 l -16.095580913168448 -14.326149570716197 a42.54776755153267,42.54776755153267 0 0,0 0.4916422082842711,-0.5428836058731431 l 15.846595064268131 14.601085963858896" fill="#00be48" stroke="none" /><path d="M 84.5562425177563 85.77008943001954 l -38.75094484097173 -35.70520193827607 a73.69247737126341,73.69247737126341 0 0,0 0.8675804062442395,-0.9254742870868758 l 38.13059711275703 36.366945642241" fill="#2af7ff" stroke="none" /><line stroke="#e1ed5e" stroke-width="0.3" x1="56.762969772571076" x2="54.21961505331055" y1="26.818313649435495" y2="22.513508569990535" /><path d="M 56.25429882871897 25.957352633546506 a86.0,86.0 0 0,1 42.265352541879196,-11.944610805530505" fill="none" id="id24" stroke="none" /><text fill="#e1ed5e" style="font-size:6.75px; font-family:Arial;" text-anchor="middle"><textPath startOffset="22.20632615414155" xlink:href="#id24">December</textPath></text></svg>