<?xml version="1.0" encoding="utf-8" ?>
<svg baseProfile="full" height="200mm" version="1.1" viewBox="0,0,200,200" width="200mm" xmlns="http://www.w3.org/2000/svg" xmlns:ev="http://www.w3.org/2001/xml-events" xmlns:xlink="http://www.w3.org/1999/xlink"><defs /><rect fill="#1a1a1a" height="200" width="200" x="0" y="0" /><text alignment-baseline="middle" fill="#e1ed5e" style="dominant-baseline: central; font-size:9.0px; font-family:Arial;" text-anchor="middle" x="100.0" y="100.0">2025</text><line stroke="#e1ed5e" stroke-width="0.3" x1="100.0" x2="100.0" y1="15.0" y2="10.0" /><path d="M 100.0 14.0 a86.0,86.0 0 0,1 42.46469731375804,11.215312516191453" fill="none" id="id37" stroke="none" /><text fill="#e1ed5e" style="font-size:6.75px; font-family:Arial;" text-anchor="middle"><textPath startOffset="22.20632615414155" xlink:href="#id37">January</textPath></text><path d="M 100.0 79.0 l 0.0 -22.81349325337331 a43.81349325337331,43.81349325337331 0 0,0 0.7541772638015749,0.006491441811799882 l -0.3926967845290465 22.810113188170067" fill="#00b136" stroke="none" /><path d="M 101.80526077348638 79.07773832637324 l 0.8544540122783341 -9.902785622734585 a30.939580209895052,30.939580209895052 0 0,0 0.5302084521865322,0.05034968126676817 l -1.0247875915551106 9.88661039695264" fill="#008000" stroke="none" /><path d="M 102.52436894288641 79.15227682838746 l 2.14438897007412 -17.709625110998 a38.83898050974513,38.83898050974513 0 0,0 0.6630096415483074,0.0860776799770929 l -2.4489133401302734 17.67008910785677" fill="#009e1e" stroke="none" /><path d="M 104.307194497241 79.44645832069477 l 5.816972718312888 -27.7580664838353 a49.361019490254876,49.361019490254876 0 0,0 0.8301049131515726,0.18142878213687283 l -6.293920355617988 27.653824203602557" fill="#00c756" stroke="none" /><path d="M 105.01212808612495 79.60689891045804 l 7.727844863224739 -31.442676402526164 a53.3784107946027,53.3784107946027 0 0,0 0.8903801351175541,0.2269777215821611 l -8.267933887027318 31.304995684775136" fill="#00d672" stroke="none" /><path d="M 108.09893153111575 80.62456947434976 l 10.915951194112528 -26.114710708485102 a49.30434782608695,49.30434782608695 0 0,0 0.7802207425792598,0.3340498039134476 l -11.363855694482105 25.922941376608865" fill="#00c756" stroke="none" /><path d="M 108.43124777332544 80.76684994638697 l 20.338647177332263 -46.39600964957026 a71.65817091454272,71.65817091454272 0 0,0 1.1254355297895176,0.5049501165582831 l -21.134264825588563 46.039039202495445" fill="#1efff6" stroke="none" /><path d="M 109.41281617654863 81.2277094730956 l 7.940917035298216 -15.836833402532388 a38.716191904047975,38.716191904047975 0 0,0 0.5931680336013602,0.3038437055820361 l -8.212345556488332 15.697797171637852" fill="#009e1d" stroke="none" /><path d="M 109.73455568895987 81.39251694778311 l 15.341776522090875 -29.325616468501355 a54.09625187406297,54.09625187406297 0 0,0 0.8213741844903386,0.4387496433653465 l -15.844295753109526 29.057188098634256" fill="#00d977" stroke="none" /><path d="M 110.36928655335952 81.73862282372117 l 12.460244636458254 -21.94376882576834 a46.23463268365817,46.23463268365817 0 0,0 0.6886830560339811,0.39892967747033325 l -12.836124424957564 21.726034990907955" fill="#00bb43" stroke="none" /><line stroke="#e1ed5e" stroke-width="0.3" x1="143.23703022742887" x2="145.7803849466894" y1="26.81831364943548" y2="22.513508569990506" /><path d="M 143.74570117128098 25.957352633546492 a86.0,86.0 0 0,1 28.547481713284135,27.462654790039103" fill="none" id="id38" stroke="none" /><text fill="#e1ed5e" style="font-size:6.75px; font-family:Arial;" text-anchor="middle"><textPath startOffset="19.985693538727396" xlink:href="#id38">February</textPath></text><path d="M 110.68208982089419 81.91981866633111 l 24.04190890423742 -40.69260602414351 a68.26416791604197,68.26416791604197 0 0,0 1.0065321859474037,0.6064243798678138 l -24.73880315640246 40.272735034817075" fill="#11ffe3" stroke="none" /><path d="M 111.60114157652 82.49532879139004 l 9.800964435335871 -14.788429124515316 a38.741379310344826,38.741379310344826 0 0,0 0.5527016844568969,0.3731866445524534 l -10.05407081419931 14.617530567664192" fill="#009e1d" stroke="none" /><path d="M 111.90073688211348 82.69761687909136 l 18.00276388913417 -26.174069818585927 a52.76761619190405,52.76761619190405 0 0,0 0.7439451425154437,0.5211811147340989 l -18.450640171233264 25.860303861087896" fill="#00d46d" stroke="none" /><path d="M 112.48926042617603 83.11751280151076 l 18.814406111276874 -25.432568421352318 a52.63538230884558,52.63538230884558 0 0,0 0.7237461471465299,0.5451105931995868 l -19.249398412181787 25.104941238646884" fill="#00d36c" stroke="none" /><path d="M 112.77801427241765 83.33499621200491 l 12.479158166496036 -16.27523758245878 a41.508845577211396,41.508845577211396 0 0,0 0.5632699839247483,0.4396411568937052 l -12.757460705580215 16.05801803634185" fill="#00a92a" stroke="none" /><path d="M 113.6212207817346 84.01681056812373 l 11.530046856622729 -13.529398430640692 a38.776011994003,38.776011994003 0 0,0 0.5042842542528414,0.4373103359885051 l -11.761224909522335 13.328923101232515" fill="#009e1d" stroke="none" /><path d="M 113.89432698308785 84.25364557470407 l 18.756299873421735 -21.256398087760818 a49.34842578710645,49.34842578710645 0 0,0 0.6321040150555401,0.5675092258695701 l -19.119414876073265 20.93038985312195" fill="#00c756" stroke="none" /><path d="M 114.42810811169701 84.74124197986012 l 22.05532088558661 -23.32508197501442 a53.10134932533733,53.10134932533733 0 0,0 0.6587519660019421,0.6337188693653697 l -22.45355609520097 22.94198001888675" fill="#00d570" stroke="none" /><path d="M 114.68862486808459 84.99185889309783 l 28.190267906499376 -28.80348040621511 a61.302998500749624,61.302998500749624 0 0,0 0.7477920742042073,0.7445808173900358 l -28.681895780870903 28.31396373817496" fill="#00f5af" stroke="none" /><path d="M 115.68641384162765 86.03803664274999 l 25.96842303437071 -23.11364308706967 a55.76491754122939,55.76491754122939 0 0,0 0.6320240048439509,0.7225126939330418 l -26.36243890279251 22.66321483693368" fill="#00df83" stroke="none" /><path d="M 116.15771136456269 86.58626213691792 l 28.776229880006035 -23.889324149258158 a58.40014992503748,58.40014992503748 0 0,0 0.6354534438492792,0.7789907852982514 l -29.18318181593172 23.390449194351806" fill="#00ea97" stroke="none" /><path d="M 116.38621287248628 86.86637796730983 l 36.98812908667969 -29.646148924165402 a68.40269865067467,68.40269865067467 0 0,0 0.7284754490278167,0.9250898424252306 l -37.49295861630147 29.005066687787135" fill="#11ffe4" stroke="none" /><path d="M 116.82858285166822 87.43820079747576 l 25.290811769883376 -18.878482039895506 a52.559820089955025,52.559820089955025 0 0,0 0.5349523158467048,0.7296743576234009 l -25.61202669824371 18.44034523860061" fill="#00d36c" stroke="none" /><path d="M 117.04232023915458 87.72973835380427 l 30.239259374871736 -21.77189603938929 a58.2616191904048,58.2616191904048 0 0,0 0.5789745083252095,0.8189183825127687 l -30.60954650300083 21.24815115654473" fill="#00e996" stroke="none" /><path d="M 117.2510076193507 88.02491185347247 l 22.75995008250167 -15.799216745043818 a48.70614692653673,48.70614692653673 0 0,0 0.4721609469422331,0.6928379280370034 l -23.02853549511264 15.405100793736409" fill="#00c452" stroke="none" /><path d="M 117.65298651832404 88.62581576622439 l 30.94433558804268 -19.938075271559885 a57.811394302848576,57.811394302848576 0 0,0 0.5317888572311487,0.8411622627693772 l -31.282952041519785 19.402465361076302" fill="#00e793" stroke="none" /><line stroke="#e1ed5e" stroke-width="0.3" x1="172.23445277983987" x2="176.4835382374775" y1="55.19839476539836" y2="52.563006222186495" /><path d="M 173.08426987136738 54.67131705675599 a86.0,86.0 0 0,1 12.851231095245387,41.99856678651699" fill="none" id="id39" stroke="none" /><text fill="#e1ed5e" style="font-size:6.75px; font-family:Arial;" text-anchor="middle"><textPath startOffset="22.20632615414155" xlink:href="#id39">March</textPath></text><path d="M 117.84615892207809 88.93136811851018 l 37.37258588059771 -23.179407814190373 a64.97721139430286,64.97721139430286 0 0,0 0.581342452019327,0.955574137414131 l -37.76604413090326 22.53266590356916" fill="#04ffce" stroke="none" /><path d="M 118.21658344932153 89.55222093294921 l 25.525065804701512 -14.639421763216902 a50.42518740629686,50.42518740629686 0 0,0 0.42535412549631085,0.7566575269691665 l -25.773277571490254 14.197880726312942" fill="#00cb5d" stroke="none" /><path d="M 118.56541770881063 90.18545643968196 l 27.859260246999348 -14.727701123721639 a52.512593703148426,52.512593703148426 0 0,0 0.4155760816075591,0.8027607144557284 l -28.108645761767022 14.245967687005566" fill="#00d36b" stroke="none" /><path d="M 118.73160827565052 90.50648371742162 l 29.880706454710875 -15.144079947021604 a54.4992503748126,54.4992503748126 0 0,0 0.41689327972661255,0.8404314127560987 l -30.136959747390897 14.627488945766554" fill="#00db7a" stroke="none" /><path d="M 118.89224826269711 90.83032412892265 l 34.12217613503929 -16.561781891884365 a58.92908545727136,58.92908545727136 0 0,0 0.4350700878356596,0.9163685616875571 l -34.40220441671671 15.97197091455627" fill="#00ec9c" stroke="none" /><path d="M 119.04729006885535 91.15688171328212 l 57.14187020656606 -26.529354860153646 a84.0,84.0 0 0,0 0.5975907321466121,1.3167119646317489 l -57.59006325567602 25.541820886679833" fill="#4dd2ff" stroke="none" /><path d="M 119.34039704204932 91.81776055985345 l 29.025093611831146 -12.279492772993542 a52.51574212893553,52.51574212893553 0 0,0 0.3450492148033324,0.8355640427044833 l -29.232164513520676 11.778054159835756" fill="#00d36b" stroke="none" /><path d="M 119.61058180528143 92.48833698450437 l 54.0834561181637 -20.716198076468096 a78.91529235382309,78.91529235382309 0 0,0 0.47497765955123883,1.2727039835621832 l -54.43203836621657 19.78217095587658" fill="#39e5ff" stroke="none" /><path d="M 120.08093135843002 93.85539295169968 l 16.871595102345097 -5.162575397102692 a38.643778110944524,38.643778110944524 0 0,0 0.18915964300614183,0.6377522799210033 l -16.95796064246294 4.87139373043516" fill="#009e1d" stroke="none" /><path d="M 120.28053869075195 94.5502522615342 l 24.342727549949043 -6.541331393426861 a46.20629685157421,46.20629685157421 0 0,0 0.19979529737202964,0.7698927824055578 l -24.45171917919137 6.121342185472454" fill="#00bb43" stroke="none" /><path d="M 120.53481517161879 95.60439243477599 l 14.300482229710543 -3.0611090165615544 a35.62443778110945,35.62443778110945 0 0,0 0.12319389306174065,0.6007371739896545 l -14.351055418687281 2.8144961864084883" fill="#009210" stroke="none" /><path d="M 120.67395015179393 96.31383870115 l 25.090798572529526 -4.473684514871168 a46.48650674662669,46.48650674662669 0 0,0 0.13367779080268472,0.7889738883833064 l -25.16408822485243 4.041124838172023" fill="#00bc45" stroke="none" /><path d="M 120.78858239683441 97.02765380044208 l 24.99304981112671 -3.5734998762001347 a46.247226386806595,46.247226386806595 0 0,0 0.10589293700741291,0.7890253783226604 l -25.05085874719196 3.14275615581281" fill="#00bb44" stroke="none" /><path d="M 120.83666639777658 97.38593545837742 l 39.855200884982544 -5.000035295655297 a61.167616191904045,61.167616191904045 0 0,0 0.12207205724831703,1.045838838354537 l -39.935363295234446 4.313252718975908" fill="#00f4ae" stroke="none" /><path d="M 120.91429891909075 98.10471618934814 l 39.81242179545658 -3.6078588521509327 a60.97556221889055,60.97556221889055 0 0,0 0.0857302356623456,1.046126021804669 l -39.86862651493842 2.922018913138495" fill="#00f3ad" stroke="none" /><path d="M 120.94382443527127 98.46500227214037 l 40.166926862967024 -2.9438816993673806 a61.27466266866567,61.27466266866567 0 0,0 0.06804232951605178,1.0525847213654316 l -40.21164978348749 2.252037913748914" fill="#00f5af" stroke="none" /><line stroke="#e1ed5e" stroke-width="0.3" x1="184.98032266829074" x2="189.97916517819016" y1="98.17113171792111" y2="98.06355123074" /><path d="M 185.9800911702706 98.14961562048488 a86.0,86.0 0 0,1 -9.607161424134198,41.387399972396054" fill="none" id="id40" stroke="none" /><text fill="#e1ed5e" style="font-size:6.75px; font-family:Arial;" text-anchor="middle"><textPath startOffset="21.466115282336823" xlink:href="#id40">April</textPath></text><path d="M 120.99513854157772 99.54816195383933 l 31.709898900727712 -0.6824312559254216 a52.717241379310344,52.717241379310344 0 0,0 0.01171576144242441,0.9073986349378729 l -31.71694766928785 0.13649636292708608" fill="#00d46d" stroke="none" /><path d="M 120.99980553446 99.90962569577887 l 23.820768916600343 -0.10251454059026537 a44.820989505247375,44.820989505247375 0 0,0 -0.003320387374308111,0.7715410896990021 l -23.819004231936532 -0.30753602731242147" fill="#00b53b" stroke="none" /><path d="M 120.9904718944345 100.63252640178507 l 40.18715533612123 1.2109988232076985 a61.20539730134932,61.20539730134932 0 0,0 -0.04079738191493402,1.0527991481330914 l -40.16035582135509 -1.902575218354796" fill="#00f4af" stroke="none" /><path d="M 120.9764740272857 100.99374915477107 l 49.352894589234566 2.338066789478607 a70.40824587706146,70.40824587706146 0 0,0 -0.06777178937064202,1.2101108257257762 l -49.30533644897639 -3.1872493315398063" fill="#19ffef" stroke="none" /><path d="M 120.95626037817324 101.35467743843564 l 23.695969381136813 1.5317806957543634 a44.74542728635682,44.74542728635682 0 0,0 -0.05630134156858065,0.7681870740791455 l -23.666091480903894 -1.9394409063302793" fill="#00b53b" stroke="none" /><path d="M 120.89721153311464 102.0752229133903 l 40.31563988127726 4.003593470690611 a61.513943028485755,61.513943028485755 0 0,0 -0.11370617590291579,1.0527779704670082 l -40.24075140387329 -4.696967763042411" fill="#00f6b1" stroke="none" /><line stroke="#e1ed5e" stroke-width="0.3" x1="174.80103733775053" x2="179.2010983576182" y1="140.37084112569926" y2="142.7455964860345" /><path d="M 175.68104954172406 140.8457921977663 a86.0,86.0 0 0,1 -30.038265399797805,32.042727171017184" fill="none" id="id41" stroke="none" /><text fill="#e1ed5e" style="font-size:6.75px; font-family:Arial;" text-anchor="middle"><textPath startOffset="22.206326154141568" xlink:href="#id41">May</textPath></text><line stroke="#e1ed5e" stroke-width="0.3" x1="143.8653032363475" x2="146.44561519142675" y1="172.8068346515853" y2="177.08958963109032" /><path d="M 144.38136562736335 173.6633856474863 a86.0,86.0 0 0,1 -40.68145358897372,12.25698825130547" fill="none" id="id42" stroke="none" /><text fill="#e1ed5e" style="font-size:6.75px; font-family:Arial;" text-anchor="middle"><textPath startOffset="21.466115282336833" xlink:href="#id42">June</textPath></text><line stroke="#e1ed5e" stroke-width="0.3" x1="102.19456741930631" x2="102.32365962044197" y1="184.97166512339345" y2="189.96999836594603" /><path d="M 102.22038585953345 185.97133177190398 a86.0,86.0 0 0,1 -42.740103519485714,-10.115201625700543" fill="none" id="id43" stroke="none" /><text fill="#e1ed5e" style="font-size:6.75px; font-family:Arial;" text-anchor="middle"><textPath startOffset="22.20632615414155" xlink:href="#id43">July</textPath></text><line stroke="#e1ed5e" stroke-width="0.3" x1="58.666819895761336" x2="56.23545636021788" y1="174.27360380694188" y2="178.64263932499728" /><path d="M 58.180547188652646 175.14741091055294 a86.0,86.0 0 0,1 -31.652253787137756,-30.449443065178592" fill="none" id="id44" stroke="none" /><text fill="#e1ed5e" style="font-size:6.75px; font-family:Arial;" text-anchor="middle"><textPath startOffset="22.20632615414155" xlink:href="#id44">August</textPath></text><line stroke="#e1ed5e" stroke-width="0.3" x1="26.63291911575756" x2="22.317208475507996" y1="142.92168965132927" y2="145.44649492493687" /><path d="M 25.769776987707644 143.4266507060508 a86.0,86.0 0 0,1 -11.730757126820373,-40.83630448921669" fill="none" id="id45" stroke="none" /><text fill="#e1ed5e" style="font-size:6.75px; font-family:Arial;" text-anchor="middle"><textPath startOffset="21.46611528233685" xlink:href="#id45">September</textPath></text><line stroke="#e1ed5e" stroke-width="0.3" x1="15.007084014347285" x2="10.007500721073583" y1="101.09737516637583" y2="101.16192664675087" /><path d="M 14.007167355692545 101.11028546245083 a86.0,86.0 0 0,1 10.666146001902534,-42.60595125391555" fill="none" id="id46" stroke="none" /><text fill="#e1ed5e" style="font-size:6.75px; font-family:Arial;" text-anchor="middle"><textPath startOffset="22.20632615414155" xlink:href="#id46">October</textPath></text><line stroke="#e1ed5e" stroke-width="0.3" x1="26.266209847984243" x2="21.928928074336255" y1="57.711370442889674" y2="55.22380399835377" /><path d="M 25.398753493254645 57.213857153982495 a86.0,86.0 0 0,1 29.58750427330803,-30.492523968695096" fill="none" id="id47" stroke="none" /><text fill="#e1ed5e" style="font-size:6.75px; font-family:Arial;" text-anchor="middle"><textPath startOffset="21.46611528233685" xlink:href="#id47">November</textPath></text><line stroke="#e1ed5e" stroke-width="0.3" x1="56.762969772571076" x2="54.21961505331055" y1="26.818313649435495" y2="22.513508569990535" /><path d="M 56.25429882871897 25.957352633546506 a86.0,86.0 0 0,1 42.265352541879196,-11.944610805530505" fill="none" id="id48" stroke="none" /><text fill="#e1ed5e" style="font-size:6.75px; font-family:Arial;" text-anchor="middle"><textPath startOffset="22.20632615414155" xlink:href="#id48">December</textPath></text></svg>