<?xml version="1.0" encoding="utf-8" ?>
<svg baseProfile="full" height="200mm" version="1.1" viewBox="0,0,200,200" width="200mm" xmlns="http://www.w3.org/2000/svg" xmlns:ev="http://www.w3.org/2001/xml-events" xmlns:xlink="http://www.w3.org/1999/xlink"><defs /><rect fill="#1a1a1a" height="200" width="200" x="0" y="0" /><text alignment-baseline="middle" fill="#e1ed5e" style="dominant-baseline: central; font-size:9.0px; font-family:Arial;" text-anchor="middle" x="100.0" y="100.0">2024</text><line stroke="#e1ed5e" stroke-width="0.3" x1="100.0" x2="100.0" y1="15.0" y2="10.0" /><path d="M 100.0 14.0 a86.0,86.0 0 0,1 42.35913384403234,11.155469271406648" fill="none" id="id25" stroke="none" /><text fill="#e1ed5e" style="font-size:6.75px; font-family:Arial;" text-anchor="middle"><textPath startOffset="22.145653131862478" xlink:href="#id25">January</textPath></text><path d="M 100.0 79.0 l 0.0 -27.269425813839362 a48.26942581383936,48.26942581383936 0 0,0 0.8286088805907507,0.007112610670702591 l -0.4681159557418959 27.265407601363094" fill="#00b135" stroke="none" /><path d="M 101.08105385017728 79.02784411241856 l 1.7006305169687201 -32.991777702098304 a54.03557991166367,54.03557991166367 0 0,0 0.9259527912861825,0.05570302058015888 l -2.2667276603873647 32.957722703693456" fill="#00ca5b" stroke="none" /><path d="M 101.44090949804482 79.04949213459386 l 4.322728494134444 -62.8515235962184 a84.0,84.0 0 0,0 1.437724020899066,0.1112889320197854 l -5.401021509808744 62.76805689720356" fill="#4dd2ff" stroke="none" /><path d="M 102.15924093988457 79.11130261209362 l 3.253696698469933 -31.476564041992397 a52.6442826762637,52.6442826762637 0 0,0 0.8981217366135436,0.10063641389022168 l -3.793554336684273 31.416071867595203" fill="#00c451" stroke="none" /><path d="M 102.87502721639298 79.19773525538626 l 4.809192017213547 -34.79691774023356 a56.12767871748732,56.12767871748732 0 0,0 0.9533016132878926,0.14010250840932598 l -5.405818736109122 34.709234158525355" fill="#00d36b" stroke="none" /><path d="M 103.94208987418118 79.37332000966035 l 6.882374314117222 -36.01149062602649 a57.66325862915099,57.66325862915099 0 0,0 0.9706745038639166,0.19416208609775523 l -7.499545303512095 35.88803914326588" fill="#00da78" stroke="none" /><path d="M 104.64783097203109 79.52079915486377 l 9.960941201468872 -43.88974485066739 a66.00588908882709,66.00588908882709 0 0,0 1.1028259116705137,0.2602639123149657 l -10.71289926687927 43.7122847947062" fill="#00fec4" stroke="none" /><path d="M 104.9986988182912 79.60360301121754 l 7.878286236680278 -32.14609631742591 a54.09741534434811,54.09741534434811 0 0,0 0.9000643129286932,0.22879282867235765 l -8.428955842834366 32.006118256918285" fill="#00ca5c" stroke="none" /><path d="M 105.3480935250658 79.69241777938227 l 4.089152484239746 -15.527178030290738 a37.05660068706037,37.05660068706037 0 0,0 0.613760711290278,0.16728321113481756 l -4.355094596464718 15.45469432501178" fill="#008000" stroke="none" /><path d="M 105.69591212413111 79.78721728523813 l 7.2650133865287545 -25.780969544740444 a47.785048257811226,47.785048257811226 0 0,0 0.7876340958239625,0.22926880619205028 l -7.706507494734321 25.652457044245875" fill="#00af32" stroke="none" /><path d="M 106.04205211174951 79.88797359093562 l 6.335110912851048 -21.087523845721936 a43.01856698838541,43.01856698838541 0 0,0 0.7054212620423705,0.21854131018996678 l -6.696172807765049 20.97566594772532" fill="#009a18" stroke="none" /><path d="M 106.38641147887787 79.99465700312896 l 5.340640516935008 -16.729480353346105 a38.56126288238181,38.56126288238181 0 0,0 0.6288740830858975,0.20672340213680812 l -5.627037337668648 16.635336029807274" fill="#008705" stroke="none" /><path d="M 106.72888874123014 80.10723608172694 l 15.246497293436704 -45.073560123016534 a68.58236545067888,68.58236545067888 0 0,0 1.1119952178788246,0.38680966010153117 l -16.017998283360548 44.80519203034641" fill="#0affd8" stroke="none" /><path d="M 108.07796709384702 80.6158196554323 l 13.117941982761232 -31.478285339526177 a55.10224112547031,55.10224112547031 0 0,0 0.8699985922241621,0.371350665706396 l -13.656375650155825 31.24846002416038" fill="#00ce63" stroke="none" /><path d="M 109.06512990194946 81.05736502329252 l 19.278786404432182 -40.285248816405314 a65.66064125633895,65.66064125633895 0 0,0 1.0125488427497924,0.49528837845849233 l -19.96749549644404 39.9483666878496" fill="#00fcc1" stroke="none" /><path d="M 109.3889696526874 81.21577127319529 l 10.685271041018515 -21.377699861341462 a44.89939473253722,44.89939473253722 0 0,0 0.686474924293068,0.35051898767152967 l -11.050673187025163 21.1911229219971" fill="#00a222" stroke="none" /><path d="M 109.71004243097381 81.37971332152246 l 18.727531532992188 -35.91251103210375 a61.50220840831016,61.50220840831016 0 0,0 0.9319376461595329,0.4962043049832771 l -19.34125799493828 35.5857362593979" fill="#00ea99" stroke="none" /><path d="M 110.02825361518725 81.54914285379988 l 10.593398939975737 -19.490660890166406 a43.18346147554392,43.18346147554392 0 0,0 0.6482779621763032,0.3595888576063533 l -10.926421090308141 19.305939117126904" fill="#009b19" stroke="none" /><path d="M 110.34350942703115 81.72400993836675 l 21.23355141498674 -37.517650790681465 a64.10960248650417,64.10960248650417 0 0,0 0.9531190847029714,0.5502835601230304 l -21.87446296755011 37.14762033328226" fill="#00f6b1" stroke="none" /><line stroke="#e1ed5e" stroke-width="0.3" x1="143.13028292997686" x2="145.6673583964461" y1="26.7553504044142" y2="22.446841604673864" /><path d="M 143.63769802327073 25.89364864446614 a86.0,86.0 0 0,1 29.32050498858742,28.57503671076993" fill="none" id="id26" stroke="none" /><text fill="#e1ed5e" style="font-size:6.75px; font-family:Arial;" text-anchor="middle"><textPath startOffset="20.669276256404974" xlink:href="#id26">February</textPath></text><path d="M 110.65571695917076 81.90426304109057 l 16.45421891642276 -27.942860955934172 a53.427531490266645,53.427531490266645 0 0,0 0.7863190419827424,0.47216199192950886 l -16.931470714962938 27.656284963468742" fill="#00c757" stroke="none" /><line stroke="#e1ed5e" stroke-width="0.3" x1="172.87174338648825" x2="177.1583165268699" y1="56.24261187166439" y2="53.66864786411523" /><path d="M 173.72905801456457 55.72781907015455 a86.0,86.0 0 0,1 12.242430191666344,42.057860355516425" fill="none" id="id27" stroke="none" /><text fill="#e1ed5e" style="font-size:6.75px; font-family:Arial;" text-anchor="middle"><textPath startOffset="22.145653131862474" xlink:href="#id27">March</textPath></text><line stroke="#e1ed5e" stroke-width="0.3" x1="184.99686870605535" x2="189.99668451229388" y1="99.2704041080226" y2="99.22748670261217" /><path d="M 185.99683186730306 99.26182062694052 a86.0,86.0 0 0,1 -10.086455211305974,41.156179273409016" fill="none" id="id28" stroke="none" /><text fill="#e1ed5e" style="font-size:6.75px; font-family:Arial;" text-anchor="middle"><textPath startOffset="21.40746469413373" xlink:href="#id28">April</textPath></text><line stroke="#e1ed5e" stroke-width="0.3" x1="174.33088141563837" x2="178.70328620479359" y1="141.23008692659167" y2="143.65538615756765" /><path d="M 175.20536237346943 141.71514677278685 a86.0,86.0 0 0,1 -30.301960400862466,31.631185727798858" fill="none" id="id29" stroke="none" /><text fill="#e1ed5e" style="font-size:6.75px; font-family:Arial;" text-anchor="middle"><textPath startOffset="22.145653131862474" xlink:href="#id29">May</textPath></text><line stroke="#e1ed5e" stroke-width="0.3" x1="143.1302829299769" x2="145.66735839644613" y1="173.24464959558577" y2="177.55315839532614" /><path d="M 143.63769802327073 174.10635135553383 a86.0,86.0 0 0,1 -40.68552437913181,11.842963189579606" fill="none" id="id30" stroke="none" /><text fill="#e1ed5e" style="font-size:6.75px; font-family:Arial;" text-anchor="middle"><textPath startOffset="21.407464694133747" xlink:href="#id30">June</textPath></text><line stroke="#e1ed5e" stroke-width="0.3" x1="101.45913802915013" x2="101.54496967792366" y1="184.9874750549273" y2="189.98673829345242" /><path d="M 101.47630435890484 185.9873277026323 a86.0,86.0 0 0,1 -42.54439059252881,-10.42667462771756" fill="none" id="id31" stroke="none" /><text fill="#e1ed5e" style="font-size:6.75px; font-family:Arial;" text-anchor="middle"><textPath startOffset="22.145653131862474" xlink:href="#id31">July</textPath></text><line stroke="#e1ed5e" stroke-width="0.3" x1="58.13341422392154" x2="55.67067388415222" y1="173.97424548756322" y2="178.32567169271397" /><path d="M 57.64086615596768 174.84453072859336 a86.0,86.0 0 0,1 -31.369924170532247,-30.572349798747897" fill="none" id="id32" stroke="none" /><text fill="#e1ed5e" style="font-size:6.75px; font-family:Arial;" text-anchor="middle"><textPath startOffset="22.145653131862474" xlink:href="#id32">August</textPath></text><line stroke="#e1ed5e" stroke-width="0.3" x1="26.387840678322732" x2="22.057713659400548" y1="142.50000000000003" y2="145.00000000000006" /><path d="M 25.521815274538298 143.00000000000003 a86.0,86.0 0 0,1 -11.493303480769221,-40.785679425670985" fill="none" id="id33" stroke="none" /><text fill="#e1ed5e" style="font-size:6.75px; font-family:Arial;" text-anchor="middle"><textPath startOffset="21.40746469413373" xlink:href="#id33">September</textPath></text><line stroke="#e1ed5e" stroke-width="0.3" x1="15.003131293944662" x2="10.003315487706104" y1="100.72959589197737" y2="100.7725132973878" /><path d="M 14.003168132696942 100.73817937305945 a86.0,86.0 0 0,1 10.791469493833604,-42.45332614584628" fill="none" id="id34" stroke="none" /><text fill="#e1ed5e" style="font-size:6.75px; font-family:Arial;" text-anchor="middle"><textPath startOffset="22.145653131862435" xlink:href="#id34">October</textPath></text><line stroke="#e1ed5e" stroke-width="0.3" x1="26.387840678322718" x2="22.05771365940052" y1="57.49999999999999" y2="54.99999999999999" /><path d="M 25.521815274538284 56.99999999999999 a86.0,86.0 0 0,1 29.574782752854787,-30.34633250058573" fill="none" id="id35" stroke="none" /><text fill="#e1ed5e" style="font-size:6.75px; font-family:Arial;" text-anchor="middle"><textPath startOffset="21.40746469413373" xlink:href="#id35">November</textPath></text><line stroke="#e1ed5e" stroke-width="0.3" x1="56.869717070023135" x2="54.33264160355391" y1="26.7553504044142" y2="22.446841604673864" /><path d="M 56.362301976729285 25.89364864446614 a86.0,86.0 0 0,1 42.16139366436587,-11.88097634709845" fill="none" id="id36" stroke="none" /><text fill="#e1ed5e" style="font-size:6.75px; font-family:Arial;" text-anchor="middle"><textPath startOffset="22.145653131862474" xlink:href="#id36">December</textPath></text></svg>