<?xml version="1.0" encoding="utf-8" ?>
<svg baseProfile="full" height="200mm" version="1.1" viewBox="0,0,200,200" width="200mm" xmlns="http://www.w3.org/2000/svg" xmlns:ev="http://www.w3.org/2001/xml-events" xmlns:xlink="http://www.w3.org/1999/xlink"><defs /><rect fill="#1a1a1a" height="200" width="200" x="0" y="0" /><text alignment-baseline="middle" fill="#e1ed5e" style="dominant-baseline: central; font-size:9.0px; font-family:Arial;" text-anchor="middle" x="100.0" y="100.0">2026</text><line stroke="#e1ed5e" stroke-width="0.3" x1="100.0" x2="100.0" y1="15.0" y2="10.0" /><path d="M 100.0 14.0 a86.0,86.0 0 0,1 42.46469731375804,11.215312516191453" fill="none" id="id49" stroke="none" /><text fill="#e1ed5e" style="font-size:6.75px; font-family:Arial;" text-anchor="middle"><textPath startOffset="22.20632615414155" xlink:href="#id49">January</textPath></text><path d="M 100.0 79.0 l 0.0 -28.560278580565694 a49.560278580565694,49.560278580565694 0 0,0 0.8530987263896623,0.007342890070915869 l -0.491618247117134 28.556047067103336" fill="#009f1e" stroke="none" /><path d="M 105.71112130821622 79.79150937346287 l 7.388443570481451 -26.143603783020925 a48.1675747382385,48.1675747382385 0 0,0 0.7959342677479377,0.23235503871032395 l -7.837368055952816 26.012550415391896" fill="#009816" stroke="none" /><path d="M 107.08798089147638 80.2323363322302 l 8.079633308803794 -22.533282221374005 a44.93803003742834,44.93803003742834 0 0,0 0.7258940016027877,0.2673528868617867 l -8.466309636179158 22.390866066705893" fill="#008806" stroke="none" /><path d="M 108.09893153111575 80.62456947434976 l 11.526214254189888 -27.57466989908597 a50.88672004548254,50.88672004548254 0 0,0 0.8052611230424284,0.3447707880236462 l -11.999159135022632 27.37217958309953" fill="#00a626" stroke="none" /><path d="M 110.36928655335952 81.73862282372117 l 14.85755120259876 -26.165671575411036 a51.08968588619889,51.08968588619889 0 0,0 0.7610009848820483,0.4408208896584525 l -15.305748919946137 25.906046528362534" fill="#00a728" stroke="none" /><line stroke="#e1ed5e" stroke-width="0.3" x1="143.23703022742887" x2="145.7803849466894" y1="26.81831364943548" y2="22.513508569990506" /><path d="M 143.74570117128098 25.957352633546492 a86.0,86.0 0 0,1 28.547481713284135,27.462654790039103" fill="none" id="id50" stroke="none" /><text fill="#e1ed5e" style="font-size:6.75px; font-family:Arial;" text-anchor="middle"><textPath startOffset="19.985693538727396" xlink:href="#id50">February</textPath></text><path d="M 112.48926042617603 83.11751280151076 l 20.344825945573056 -27.501329291024582 a55.2086985360307,55.2086985360307 0 0,0 0.759129716584419,0.5717607641218805 l -20.815201815915856 27.147051937396853" fill="#00bb44" stroke="none" /><path d="M 113.34407831869373 83.78471172551755 l 16.587953139995548 -20.15713904135455 a47.1049888662529,47.1049888662529 0 0,0 0.6216567921860325,0.5206196855635392 l -16.932467469140697 19.868618198397193" fill="#009311" stroke="none" /><path d="M 113.6212207817346 84.01681056812373 l 16.096105023832127 -18.8872274984535 a45.815558819349036,45.815558819349036 0 0,0 0.5958339634299122,0.5167013416410461 l -16.4188327859088 18.60736116339278" fill="#008c0a" stroke="none" /><path d="M 114.16331599549186 84.49514656593476 l 15.108118616501592 -16.53914696868237 a43.40086227317951,43.40086227317951 0 0,0 0.5472479126877904,0.5086072936112205 l -15.390574412984229 16.27663508899651" fill="#008000" stroke="none" /><path d="M 114.42810811169701 84.74124197986012 l 34.27760843611345 -36.251026717198755 a70.89079452314398,70.89079452314398 0 0,0 0.8794399927099055,0.846020576207536 l -34.89653167243577 35.65562305422892" fill="#0bffda" stroke="none" /><path d="M 115.19652480421416 85.50635884689758 l 45.58957441264248 -43.480923459307235 a84.0,84.0 0 0,0 0.9889307121181483,1.0549223324877808 l -46.331272446731084 42.689731709941405" fill="#4dd2ff" stroke="none" /><path d="M 115.4437574822437 85.77008943001954 l 17.637360785970735 -16.251101259742228 a44.98280191405695,44.98280191405695 0 0,0 0.5197791879692897,0.573953161603693 l -17.914483614556058 15.945095310868986" fill="#008807" stroke="none" /><path d="M 115.9244219780498 86.31012108654704 l 22.873768206306636 -19.664080584548582 a51.1643056805799,51.1643056805799 0 0,0 0.5683852135038138,0.6727888148634668 l -23.208864033297566 19.26743282005601" fill="#00a728" stroke="none" /><path d="M 116.15771136456269 86.58626213691792 l 23.0274371325821 -19.116816632367073 a50.92850713033591,50.92850713033591 0 0,0 0.5541543178847199,0.6793276697825619 l -23.35308994254323 18.71760479297641" fill="#00a627" stroke="none" /><line stroke="#e1ed5e" stroke-width="0.3" x1="172.23445277983987" x2="176.4835382374775" y1="55.19839476539836" y2="52.563006222186495" /><path d="M 173.08426987136738 54.67131705675599 a86.0,86.0 0 0,1 12.851231095245387,41.99856678651699" fill="none" id="id51" stroke="none" /><text fill="#e1ed5e" style="font-size:6.75px; font-family:Arial;" text-anchor="middle"><textPath startOffset="22.20632615414155" xlink:href="#id51">March</textPath></text><line stroke="#e1ed5e" stroke-width="0.3" x1="184.98032266829074" x2="189.97916517819016" y1="98.17113171792111" y2="98.06355123074" /><path d="M 185.9800911702706 98.14961562048488 a86.0,86.0 0 0,1 -9.607161424134198,41.387399972396054" fill="none" id="id52" stroke="none" /><text fill="#e1ed5e" style="font-size:6.75px; font-family:Arial;" text-anchor="middle"><textPath startOffset="21.466115282336823" xlink:href="#id52">April</textPath></text><line stroke="#e1ed5e" stroke-width="0.3" x1="174.80103733775053" x2="179.2010983576182" y1="140.37084112569926" y2="142.7455964860345" /><path d="M 175.68104954172406 140.8457921977663 a86.0,86.0 0 0,1 -30.038265399797805,32.042727171017184" fill="none" id="id53" stroke="none" /><text fill="#e1ed5e" style="font-size:6.75px; font-family:Arial;" text-anchor="middle"><textPath startOffset="22.206326154141568" xlink:href="#id53">May</textPath></text><line stroke="#e1ed5e" stroke-width="0.3" x1="143.8653032363475" x2="146.44561519142675" y1="172.8068346515853" y2="177.08958963109032" /><path d="M 144.38136562736335 173.6633856474863 a86.0,86.0 0 0,1 -40.68145358897372,12.25698825130547" fill="none" id="id54" stroke="none" /><text fill="#e1ed5e" style="font-size:6.75px; font-family:Arial;" text-anchor="middle"><textPath startOffset="21.466115282336833" xlink:href="#id54">June</textPath></text><line stroke="#e1ed5e" stroke-width="0.3" x1="102.19456741930631" x2="102.32365962044197" y1="184.97166512339345" y2="189.96999836594603" /><path d="M 102.22038585953345 185.97133177190398 a86.0,86.0 0 0,1 -42.740103519485714,-10.115201625700543" fill="none" id="id55" stroke="none" /><text fill="#e1ed5e" style="font-size:6.75px; font-family:Arial;" text-anchor="middle"><textPath startOffset="22.20632615414155" xlink:href="#id55">July</textPath></text><line stroke="#e1ed5e" stroke-width="0.3" x1="58.666819895761336" x2="56.23545636021788" y1="174.27360380694188" y2="178.64263932499728" /><path d="M 58.180547188652646 175.14741091055294 a86.0,86.0 0 0,1 -31.652253787137756,-30.449443065178592" fill="none" id="id56" stroke="none" /><text fill="#e1ed5e" style="font-size:6.75px; font-family:Arial;" text-anchor="middle"><textPath startOffset="22.20632615414155" xlink:href="#id56">August</textPath></text><line stroke="#e1ed5e" stroke-width="0.3" x1="26.63291911575756" x2="22.317208475507996" y1="142.92168965132927" y2="145.44649492493687" /><path d="M 25.769776987707644 143.4266507060508 a86.0,86.0 0 0,1 -11.730757126820373,-40.83630448921669" fill="none" id="id57" stroke="none" /><text fill="#e1ed5e" style="font-size:6.75px; font-family:Arial;" text-anchor="middle"><textPath startOffset="21.46611528233685" xlink:href="#id57">September</textPath></text><line stroke="#e1ed5e" stroke-width="0.3" x1="15.007084014347285" x2="10.007500721073583" y1="101.09737516637583" y2="101.16192664675087" /><path d="M 14.007167355692545 101.11028546245083 a86.0,86.0 0 0,1 10.666146001902534,-42.60595125391555" fill="none" id="id58" stroke="none" /><text fill="#e1ed5e" style="font-size:6.75px; font-family:Arial;" text-anchor="middle"><textPath startOffset="22.20632615414155" xlink:href="#id58">October</textPath></text><line stroke="#e1ed5e" stroke-width="0.3" x1="26.266209847984243" x2="21.928928074336255" y1="57.711370442889674" y2="55.22380399835377" /><path d="M 25.398753493254645 57.213857153982495 a86.0,86.0 0 0,1 29.58750427330803,-30.492523968695096" fill="none" id="id59" stroke="none" /><text fill="#e1ed5e" style="font-size:6.75px; font-family:Arial;" text-anchor="middle"><textPath startOffset="21.46611528233685" xlink:href="#id59">November</textPath></text><line stroke="#e1ed5e" stroke-width="0.3" x1="56.762969772571076" x2="54.21961505331055" y1="26.818313649435495" y2="22.513508569990535" /><path d="M 56.25429882871897 25.957352633546506 a86.0,86.0 0 0,1 42.265352541879196,-11.944610805530505" fill="none" id="id60" stroke="none" /><text fill="#e1ed5e" style="font-size:6.75px; font-family:Arial;" text-anchor="middle"><textPath startOffset="22.20632615414155" xlink:href="#id60">December</textPath></text></svg>