<?xml version="1.0" encoding="utf-8" ?>
<svg baseProfile="full" height="200mm" version="1.1" viewBox="0,0,200,200" width="200mm" xmlns="http://www.w3.org/2000/svg" xmlns:ev="http://www.w3.org/2001/xml-events" xmlns:xlink="http://www.w3.org/1999/xlink"><defs /><rect fill="#1a1a1a" height="200" width="200" x="0" y="0" /><text alignment-baseline="middle" fill="#e1ed5e" style="dominant-baseline: central; font-size:9.0px; font-family:Arial;" text-anchor="middle" x="100.0" y="100.0">2025</text><line stroke="#e1ed5e" stroke-width="0.3" x1="100.0" x2="100.0" y1="15.0" y2="10.0" /><path d="M 100.0 14.0 a86.0,86.0 0 0,1 42.46469731375804,11.215312516191453" fill="none" id="id37" stroke="none" /><text fill="#e1ed5e" style="font-size:6.75px; font-family:Arial;" text-anchor="middle"><textPath startOffset="22.20632615414155" xlink:href="#id37">January</textPath></text><path d="M 100.0 79.0 l 0.0 -21.203864554786563 a42.20386455478656,42.20386455478656 0 0,0 0.7264701517341485,0.00625295795078808 l -0.3649896724616202 21.200722973444332" fill="#00ad30" stroke="none" /><path d="M 101.80526077348638 79.07773832637324 l 0.7941671599093998 -9.204084737373734 a30.23828324585443,30.23828324585443 0 0,0 0.5181903971481457,0.04920842212966117 l -0.9524826841477897 9.189050770728894" fill="#008000" stroke="none" /><path d="M 102.52436894288641 79.15227682838746 l 1.9930894742525493 -16.460104903668075 a37.580333503646244,37.580333503646244 0 0,0 0.6415236218485862,0.08328817796717476 l -2.2761278246089818 16.423358402536763" fill="#009c1b" stroke="none" /><path d="M 104.307194497241 79.44645832069477 l 5.406550424703464 -25.799568504879197 a47.35997956245065,47.35997956245065 0 0,0 0.7964533984009363,0.1740738644131728 l -5.849846547257928 25.702681142370153" fill="#00c14d" stroke="none" /><path d="M 105.01212808612495 79.60689891045804 l 7.182599085564914 -29.224207107369065 a51.09391982906777,51.09391982906777 0 0,0 0.8522736170648755,0.21726352165351542 l -7.6845815913148146 29.09624058954668" fill="#00cf65" stroke="none" /><path d="M 108.09893153111575 80.62456947434976 l 10.145765404533035 -24.272161330149423 a47.30730642389335,47.30730642389335 0 0,0 0.7486183952309675,0.3205193280381164 l -10.562067557554318 24.093922474148517" fill="#00c14d" stroke="none" /><path d="M 108.43124777332544 80.76684994638697 l 18.90363370423237 -43.12249305996103 a68.08393329927075,68.08393329927075 0 0,0 1.0692999355816437,0.47976371175050564 l -19.643115758280793 42.79070901769399" fill="#11ffe3" stroke="none" /><path d="M 109.41281617654863 81.2277094730956 l 7.380637738692799 -14.719449876198292 a37.466208370105434,37.466208370105434 0 0,0 0.5740171244236099,0.29403386607584436 l -7.632915350705164 14.590223484809947" fill="#009b1a" stroke="none" /><path d="M 109.73455568895987 81.39251694778311 l 14.259322226161844 -27.25651844185573 a51.76111291746017,51.76111291746017 0 0,0 0.7859184405209331,0.4198104128470629 l -14.726385713211089 27.007029302506915" fill="#00d269" stroke="none" /><path d="M 110.36928655335952 81.73862282372117 l 11.58109968765524 -20.39550439888636 a44.454178085373215,44.454178085373215 0 0,0 0.6621624838415684,0.3835672502719997 l -11.930458903962137 20.19313299122431" fill="#00b63c" stroke="none" /><line stroke="#e1ed5e" stroke-width="0.3" x1="143.23703022742887" x2="145.7803849466894" y1="26.81831364943548" y2="22.513508569990506" /><path d="M 143.74570117128098 25.957352633546492 a86.0,86.0 0 0,1 28.547481713284135,27.462654790039103" fill="none" id="id38" stroke="none" /><text fill="#e1ed5e" style="font-size:6.75px; font-family:Arial;" text-anchor="middle"><textPath startOffset="19.985693538727396" xlink:href="#id38">February</textPath></text><path d="M 110.68208982089419 81.91981866633111 l 22.34560811806358 -37.82149874788014 a64.92939755678387,64.92939755678387 0 0,0 0.95736211910553,0.5767999647632179 l -22.993332303386747 37.431252173658315" fill="#05ffcf" stroke="none" /><path d="M 111.60114157652 82.49532879139004 l 9.109447645086663 -13.745016804382528 a37.48961865390868,37.48961865390868 0 0,0 0.5348435122476181,0.3611287269595853 l -9.344695851740823 13.586176165124273" fill="#009c1a" stroke="none" /><path d="M 111.90073688211348 82.69761687909136 l 16.732560983862452 -24.327332299219865 a50.52622044683915,50.52622044683915 0 0,0 0.712344786135281,0.4990430456440569 l -17.148836909581384 24.03570441081187" fill="#00cd61" stroke="none" /><path d="M 112.48926042617603 83.11751280151076 l 17.486936982054452 -23.63814827029866 a50.403316456872126,50.403316456872126 0 0,0 0.6930548328692961,0.5219945315836476 l -17.89123796868213 23.333637149209167" fill="#00cd60" stroke="none" /><path d="M 112.77801427241765 83.33499621200491 l 11.598678754776612 -15.126922013330864 a40.06182358678991,40.06182358678991 0 0,0 0.5436340715800566,0.4243150158489927 l -11.8573453815161 14.925028608258648" fill="#00a526" stroke="none" /><path d="M 113.6212207817346 84.01681056812373 l 10.716532937016156 -12.574818272893319 a37.52180779413814,37.52180779413814 0 0,0 0.48797325688396687,0.42316559980145413 l -10.931399992546888 12.388487679672194" fill="#009c1a" stroke="none" /><path d="M 113.89432698308785 84.25364557470407 l 17.432930487582745 -19.75663178671067 a47.34827442054903,47.34827442054903 0 0,0 0.6064840750198824,0.5445073907440909 l -17.770425550198617 19.45362538719728" fill="#00c14d" stroke="none" /><path d="M 114.42810811169701 84.74124197986012 l 20.499185792214593 -21.679357625530145 a50.8364067072321,50.8364067072321 0 0,0 0.6306540848460959,0.6066887299553676 l -20.86932312067311 21.323285808812475" fill="#00ce63" stroke="none" /><path d="M 114.68862486808459 84.99185889309783 l 26.20127552645513 -26.77122220857283 a58.45938037066283,58.45938037066283 0 0,0 0.7131047807316655,0.7100424821792506 l -26.658216107354118 26.31624387574346" fill="#00eb9b" stroke="none" /><path d="M 115.68641384162765 86.03803664274999 l 24.136195128327273 -21.482837018545407 a53.31204421942496,53.31204421942496 0 0,0 0.604223823500985,0.6907322809107663 l -24.502410815406105 21.064189181431693" fill="#00d874" stroke="none" /><path d="M 116.15771136456269 86.58626213691792 l 26.745894370334 -22.203789132177793 a55.76134516233917,55.76134516233917 0 0,0 0.6067405454020164,0.7437921668532355 l -27.124133407812426 21.740112795716456" fill="#00e186" stroke="none" /><path d="M 116.38621287248628 86.86637796730983 l 34.37839486387944 -27.55443541142411 a65.0581541177017,65.0581541177017 0 0,0 0.6928566996434753,0.8798576478477496 l -34.84760564411688 26.95858536962332" fill="#05ffd0" stroke="none" /><path d="M 116.82858285166822 87.43820079747576 l 23.50639340031429 -17.546491969822522 a50.3330856054624,50.3330856054624 0 0,0 0.5122886772114063,0.6987611799947631 l -23.804944690039324 17.139268346156264" fill="#00cc60" stroke="none" /><path d="M 117.04232023915458 87.72973835380427 l 28.10569836458653 -20.23575826783314 a55.63258860142134,55.63258860142134 0 0,0 0.552848531845666,0.781965041575387 l -28.449859516236078 19.74896672592596" fill="#00e085" stroke="none" /><path d="M 117.2510076193507 88.02491185347247 l 21.154099175570554 -14.68448729937883 a46.751312183566355,46.751312183566355 0 0,0 0.4532106361170179,0.6650306852465367 l -21.403734277356307 14.318178590861887" fill="#00bf49" stroke="none" /><path d="M 117.65298651832404 88.62581576622439 l 28.761027224521992 -18.5313245475365 a55.214129778438384,55.214129778438384 0 0,0 0.5078974366899381,0.8033717730102354 l -29.075752257457886 18.03350512681206" fill="#00df82" stroke="none" /><line stroke="#e1ed5e" stroke-width="0.3" x1="172.23445277983987" x2="176.4835382374775" y1="55.19839476539836" y2="52.563006222186495" /><path d="M 173.08426987136738 54.67131705675599 a86.0,86.0 0 0,1 12.851231095245387,41.99856678651699" fill="none" id="id39" stroke="none" /><text fill="#e1ed5e" style="font-size:6.75px; font-family:Arial;" text-anchor="middle"><textPath startOffset="22.20632615414155" xlink:href="#id39">March</textPath></text><path d="M 117.84615892207809 88.93136811851018 l 34.73572592646013 -21.543961649958163 a61.874355520460774,61.874355520460774 0 0,0 0.5535816139769594,0.9099426188933626 l -35.10142333872331 20.94285125785772" fill="#00f8b7" stroke="none" /><path d="M 118.21658344932153 89.55222093294921 l 23.724119408801016 -13.606522805609648 a48.349064053137624,48.349064053137624 0 0,0 0.40784129750838277,0.7255041601125026 l -23.954818347601833 13.196135135562352" fill="#00c553" stroke="none" /><path d="M 118.56541770881063 90.18545643968196 l 25.893622441472292 -13.688573528063078 a50.28919132333132,50.28919132333132 0 0,0 0.39798043866399,0.7687715328694162 l -26.1254123132964 13.240829272933317" fill="#00cc5f" stroke="none" /><path d="M 118.73160827565052 90.50648371742162 l 27.77244350219539 -14.075574329504494 a52.135677458312045,52.135677458312045 0 0,0 0.39881307388421616,0.8039828210469427 l -28.010616589033017 13.595431919958601" fill="#00d36c" stroke="none" /><path d="M 118.89224826269711 90.83032412892265 l 31.714652072188038 -15.39324890411102 a56.25296112220725,56.25296112220725 0 0,0 0.41531241400649915,0.8747538617683143 l -31.974922680036293 14.845052626702167" fill="#00e389" stroke="none" /><path d="M 119.04729006885535 91.15688171328212 l 53.110168741390076 -24.657549851441054 a79.5549723628594,79.5549723628594 0 0,0 0.5659680259550552,1.2470355232872035 l -53.52673908430848 23.73969231931179" fill="#3ce2ff" stroke="none" /><path d="M 119.34039704204932 91.81776055985345 l 26.977199274129838 -11.413100951628074 a50.29211760880673,50.29211760880673 0 0,0 0.33043912145638665,0.8001845428026451 l -27.169660082472422 10.947041838372126" fill="#00cc5f" stroke="none" /><path d="M 119.61058180528143 92.48833698450437 l 50.26754409979356 -19.25454612430334 a74.82902132007989,74.82902132007989 0 0,0 0.4503830924653407,1.206802771421419 l -50.591531780760526 18.386420215852585" fill="#2af7ff" stroke="none" /><path d="M 120.08093135843002 93.85539295169968 l 15.681202935478913 -4.798324757119463 a37.39890380417112,37.39890380417112 0 0,0 0.1830660364550245,0.61720766792472 l -15.761474869045639 4.527687702448213" fill="#009b1a" stroke="none" /><path d="M 120.28053869075195 94.5502522615342 l 22.625202205140994 -6.079801253308168 a44.427841516094574,44.427841516094574 0 0,0 0.1921052846069638,0.7402600262681273 l -22.726503821618262 5.68944480149119" fill="#00b63c" stroke="none" /><path d="M 120.53481517161879 95.60439243477599 l 13.291497487877182 -2.8451294264200233 a34.592596033257465,34.592596033257465 0 0,0 0.11962565143158296,0.583337160565784 l -13.338502435223761 2.6159166096908275" fill="#00910f" stroke="none" /><path d="M 120.67395015179393 96.31383870115 l 23.320492332960928 -4.158039256006878 a44.68828092340564,44.68828092340564 0 0,0 0.12850676651551407,0.758454210325524 l -23.388610960996665 3.755999257365516" fill="#00b73e" stroke="none" /><path d="M 120.78858239683441 97.02765380044208 l 23.229640332604646 -3.3213680395171488 a44.46588322727484,44.46588322727484 0 0,0 0.10181417004735377,0.7586338268679553 l -23.283370501709836 2.921015870584529" fill="#00b63c" stroke="none" /><path d="M 120.83666639777658 97.38593545837742 l 37.04317756089464 -4.647252834133611 a58.3335500952204,58.3335500952204 0 0,0 0.11641611869229283,0.997382210829989 l -37.117684032590525 4.008926884978769" fill="#00eb9a" stroke="none" /><path d="M 120.91429891909075 98.10471618934814 l 37.00341679256288 -3.353302783758659 a58.15504668122068,58.15504668122068 0 0,0 0.08176465579830569,0.9977359030179213 l -37.05565593218068 2.7158529635329693" fill="#00ea98" stroke="none" /><path d="M 120.94382443527127 98.46500227214037 l 37.332909402571886 -2.7361731991426117 a58.43304380138418,58.43304380138418 0 0,0 0.06488685939339908,1.003770995212129 l -37.3744768529697 2.0931431396774474" fill="#00eb9a" stroke="none" /><line stroke="#e1ed5e" stroke-width="0.3" x1="184.98032266829074" x2="189.97916517819016" y1="98.17113171792111" y2="98.06355123074" /><path d="M 185.9800911702706 98.14961562048488 a86.0,86.0 0 0,1 -9.607161424134198,41.387399972396054" fill="none" id="id40" stroke="none" /><text fill="#e1ed5e" style="font-size:6.75px; font-family:Arial;" text-anchor="middle"><textPath startOffset="21.466115282336823" xlink:href="#id40">April</textPath></text><path d="M 120.99513854157772 99.54816195383933 l 29.472575456526613 -0.6342816401629284 a50.47939987923266,50.47939987923266 0 0,0 0.011218428568493775,0.8688796557718887 l -29.479126892212822 0.126865726330577" fill="#00cd61" stroke="none" /><path d="M 120.99980553446 99.90962569577887 l 22.14007088212053 -0.09528152525482883 a43.14027590691625,43.14027590691625 0 0,0 -0.00319587829333226,0.7426095641918173 l -22.138430706537694 -0.28583751714067324" fill="#00b135" stroke="none" /><path d="M 120.9904718944345 100.63252640178507 l 37.35171063569073 1.1255555972124134 a58.36866552092526,58.36866552092526 0 0,0 -0.03890651550545088,1.0040042879803466 l -37.32680198733408 -1.7683371322067662" fill="#00eb9a" stroke="none" /><path d="M 120.9764740272857 100.99374915477107 l 45.87075204285308 2.173102162546655 a66.92219796553486,66.92219796553486 0 0,0 -0.06441627750050583,1.1501959071791201 l -45.82654941446504 -2.9623697860611986" fill="#0cffdc" stroke="none" /><path d="M 120.95626037817324 101.35467743843564 l 22.024076701962358 1.4237043858072744 a43.070045055506526,43.070045055506526 0 0,0 -0.0541932766118338,0.7394242026097407 l -21.996306866686187 -1.8026017249137853" fill="#00b135" stroke="none" /><path d="M 120.89721153311464 102.0752229133903 l 37.47112982601876 3.721115952831954 a58.65544149751498,58.65544149751498 0 0,0 -0.10842234492253458,1.0038562578894439 l -37.401525179595176 -4.365568532606189" fill="#00ec9c" stroke="none" /><path d="M 120.8583938346157 102.4346265915055 l 29.824141270424782 3.481123617739518 a51.02661526313345,51.02661526313345 0 0,0 -0.10933907976584518,0.8715400454139903 l -29.75980068141209 -3.993981417440903" fill="#00cf64" stroke="none" /><path d="M 120.76222939487914 103.15116336523771 l 15.084899075419186 2.289493119004513 a36.25765246876306,36.25765246876306 0 0,0 -0.09896309668988564,0.6162432975555706 l -15.043254224368011 -2.548815646253289" fill="#009715" stroke="none" /><path d="M 120.70491114924044 103.5080841355445 l 55.50770387852248 9.404807099782706 a77.29880626132194,77.29880626132194 0 0,0 -0.23356591715307964,1.3099617018623895 l -55.33759151903021 -10.358887552378315" fill="#34ebff" stroke="none" /><path d="M 120.49622156327973 104.57218783832717 l 26.84434759718513 5.988293951289476 a48.50415718333411,48.50415718333411 0 0,0 -0.1887953503895829,0.8133254282449376 l -26.737291680864995 -6.449488036882979" fill="#00c554" stroke="none" /><path d="M 120.41448212921028 104.9243191809786 l 36.30684686912224 8.757826983161769 a58.34818152259743,58.34818152259743 0 0,0 -0.2439195318639068,0.9743372800839133 l -36.15071602296327 -9.381492102643078" fill="#00eb9a" stroke="none" /><path d="M 120.23288151984713 105.62410040840565 l 19.749826055069317 5.489826284669279 a41.4986297552139,41.4986297552139 0 0,0 -0.19723184803371205,0.6865899373929614 l -19.652401570149507 -5.8289736975668225" fill="#00ab2d" stroke="none" /><path d="M 119.79798401119884 107.00284435728193 l 27.844449713181735 9.849000153009401 a50.534999303265366,50.534999303265366 0 0,0 -0.2971355420986211,0.8175893972180017 l -27.670789910077886 -10.326837347233534" fill="#00cd61" stroke="none" /><path d="M 119.67450827220406 107.3425965602758 l 36.02713268684568 13.445454233626856 a59.45431743230062,59.45431743230062 0 0,0 -0.36608492127904574,0.9557322102460039 l -35.790353485973135 -14.063610010706004" fill="#00efa3" stroke="none" /><path d="M 119.54520255179757 107.68017299344265 l 8.93328966090799 3.5102839080066732 a30.598216359329278,30.598216359329278 0 0,0 -0.19684471612057486,0.4885524422935939 l -8.871542330530023 -3.663535718143081" fill="#008101" stroke="none" /><path d="M 119.41010516605496 108.01547362559984 l 17.123699541032185 7.0712940949889775 a39.52631334479075,39.52631334479075 0 0,0 -0.26510678341424393,0.6266341247134435 l -16.999441776425634 -7.365002745368584" fill="#00a323" stroke="none" /><path d="M 119.26925614724726 108.34839909993367 l 57.80776844174181 25.045197299801014 a84.0,84.0 0 0,0 -0.5862356610749084,1.3218066540292492 l -57.368091695935625 -26.036552290322952" fill="#4dd2ff" stroke="none" /><path d="M 118.81262510543309 109.33194174019688 l 24.02849947276692 11.919259323328243 a47.82233266756468,47.82233266756468 0 0,0 -0.3721518675455705,0.7342909407242327 l -23.819768935435082 -12.33110447575517" fill="#00c350" stroke="none" /><path d="M 118.64920377521936 109.65438752849418 l 26.026073084047823 13.473272018840063 a50.30674903618375,50.30674903618375 0 0,0 -0.40472376519157255,0.7655848396092576 l -25.790296810631357 -13.919271873535456" fill="#00cc5f" stroke="none" /><line stroke="#e1ed5e" stroke-width="0.3" x1="174.80103733775053" x2="179.2010983576182" y1="140.37084112569926" y2="142.7455964860345" /><path d="M 175.68104954172406 140.8457921977663 a86.0,86.0 0 0,1 -30.038265399797805,32.042727171017184" fill="none" id="id41" stroke="none" /><text fill="#e1ed5e" style="font-size:6.75px; font-family:Arial;" text-anchor="middle"><textPath startOffset="22.206326154141568" xlink:href="#id41">May</textPath></text><path d="M 118.12598468904814 110.60418214915192 l 48.68985185342295 28.48485567688258 a77.41000510938733,77.41000510938733 0 0,0 -0.682753017074118,1.1443333284963897 l -48.192317960650605 -29.318751099265075" fill="#34ebff" stroke="none" /><path d="M 117.35343817320211 111.8261652097733 l 24.217755116998333 16.504116945870155 a50.30674903618375,50.30674903618375 0 0,0 -0.493818457616238,0.7113823189171189 l -23.93007575221996 -16.918540526974294" fill="#00cc5f" stroke="none" /><path d="M 116.93607887273984 112.41649034213515 l 28.33640657136708 20.774508737704952 a56.13590970319105,56.13590970319105 0 0,0 -0.5780360955779392,0.774373811335358 l -27.974609209094048 -21.259195428549624" fill="#00e289" stroke="none" /><path d="M 116.71984013943494 112.70617746262583 l 37.38024736826059 28.406973553398032 a67.94932416740211,67.94932416740211 0 0,0 -0.7157108228794712,0.9251527173615451 l -36.88572972816305 -29.04620426487283" fill="#10ffe2" stroke="none" /><path d="M 116.27256486870786 113.27417163493432 l 17.065445195117558 13.920955324146364 a43.02322448790004,43.02322448790004 0 0,0 -0.4730587919873418,0.5698297892369791 l -16.823290403236673 -14.212646370497113" fill="#00b135" stroke="none" /><path d="M 115.80600337817218 113.82643327865902 l 21.33799443463218 18.66558859263997 a49.34985368572623,49.34985368572623 0 0,0 -0.5648000287863636,0.6345588197454755 l -21.013535556197475 -19.030121582126313" fill="#00c959" stroke="none" /><path d="M 115.32070863581623 114.36230785411682 l 24.060251705929073 22.555140905183233 a53.979237307817364,53.979237307817364 0 0,0 -0.6413079080886007,0.672408777715669 l -23.668437246461508 -22.965956799481408" fill="#00da79" stroke="none" /><path d="M 115.07121518719521 114.62390073753431 l 40.66056907974634 39.45376127726349 a77.65581308932138,77.65581308932138 0 0,0 -0.9391153215699151,0.9513188626137454 l -39.97541313312089 -40.147820633857904" fill="#35eaff" stroke="none" /><path d="M 113.20401910651253 116.32954008644616 l 15.311976450982014 18.93647163352756 a45.35254772632263,45.35254772632263 0 0,0 -0.611271372386398,0.48563094748161395 l -14.983747585878266 -19.197236495014298" fill="#00b941" stroke="none" /><path d="M 112.63410532772338 116.77436683061366 l 17.61227967372539 23.3839145952147 a50.2745598959543,50.2745598959543 0 0,0 -0.6957401291122104,0.514691914719846 l -17.207154574194615 -23.683616458674315" fill="#00cc5f" stroke="none" /><path d="M 111.45004920935366 117.60387380957326 l 12.201011608146342 18.75844066447212 a43.37730503042408,43.37730503042408 0 0,0 -0.629421629568164,0.40172666404409035 l -11.876308176531246 -18.96568175734002" fill="#00b236" stroke="none" /><path d="M 111.1453310114006 117.79835938074945 l 10.887004095394799 17.3858283142348 a41.513261182590924,41.513261182590924 0 0,0 -0.6089022820419375,0.37403751406247643 l -10.586122613420553 -17.570654295125653" fill="#00ab2d" stroke="none" /><line stroke="#e1ed5e" stroke-width="0.3" x1="143.8653032363475" x2="146.44561519142675" y1="172.8068346515853" y2="177.08958963109032" /><path d="M 144.38136562736335 173.6633856474863 a86.0,86.0 0 0,1 -40.68145358897372,12.25698825130547" fill="none" id="id42" stroke="none" /><text fill="#e1ed5e" style="font-size:6.75px; font-family:Arial;" text-anchor="middle"><textPath startOffset="21.466115282336833" xlink:href="#id42">June</textPath></text><path d="M 110.5260780823613 118.17145234162733 l 11.753281203115941 20.290006170299563 a44.44832551442241,44.44832551442241 0 0,0 -0.6653517111307911,0.3778040661930592 l -11.402280725063951 -20.48931340228725" fill="#00b63c" stroke="none" /><path d="M 109.89434966115114 118.52300852407294 l 12.906452762975867 24.161904797321753 a48.39295833526871,48.39295833526871 0 0,0 -0.7381288004020391,0.38615410224881375 l -12.488633060047333 -24.380488318515283" fill="#00c553" stroke="none" /><path d="M 109.2508944713604 118.85261126421891 l 7.762862163574568 15.820115894810662 a38.62209113289052,38.62209113289052 0 0,0 -0.5993547731214076,0.28772671382785636 l -7.489394722452928 -15.95139688513808" fill="#00a01f" stroke="none" /><path d="M 108.59647513512805 119.15986991738527 l 12.626504595103912 28.142021206445893 a51.84480468205676,51.84480468205676 0 0,0 -0.8173687122207562,0.3583104231853363 l -12.140215208225401 -28.355196182925685" fill="#00d26a" stroke="none" /><path d="M 108.2653958097858 119.30500536409082 l 8.866229310752628 20.708337306810044 a43.52654558966975,43.52654558966975 0 0,0 -0.6913021535066558,0.28896435623204686 l -8.508455697748511 -20.857886706062065" fill="#00b237" stroke="none" /><path d="M 107.59598834532513 119.57807347666477 l 13.953169747491213 35.963217705156495 a59.57517302243485,59.57517302243485 0 0,0 -0.9592447667735395,0.36270429148183486 l -13.332054759957398 -36.19807024674496" fill="#00efa4" stroke="none" /><line stroke="#e1ed5e" stroke-width="0.3" x1="102.19456741930631" x2="102.32365962044197" y1="184.97166512339345" y2="189.96999836594603" /><path d="M 102.22038585953345 185.97133177190398 a86.0,86.0 0 0,1 -42.740103519485714,-10.115201625700543" fill="none" id="id43" stroke="none" /><text fill="#e1ed5e" style="font-size:6.75px; font-family:Arial;" text-anchor="middle"><textPath startOffset="22.20632615414155" xlink:href="#id43">July</textPath></text><line stroke="#e1ed5e" stroke-width="0.3" x1="58.666819895761336" x2="56.23545636021788" y1="174.27360380694188" y2="178.64263932499728" /><path d="M 58.180547188652646 175.14741091055294 a86.0,86.0 0 0,1 -31.652253787137756,-30.449443065178592" fill="none" id="id44" stroke="none" /><text fill="#e1ed5e" style="font-size:6.75px; font-family:Arial;" text-anchor="middle"><textPath startOffset="22.20632615414155" xlink:href="#id44">August</textPath></text><line stroke="#e1ed5e" stroke-width="0.3" x1="26.63291911575756" x2="22.317208475507996" y1="142.92168965132927" y2="145.44649492493687" /><path d="M 25.769776987707644 143.4266507060508 a86.0,86.0 0 0,1 -11.730757126820373,-40.83630448921669" fill="none" id="id45" stroke="none" /><text fill="#e1ed5e" style="font-size:6.75px; font-family:Arial;" text-anchor="middle"><textPath startOffset="21.46611528233685" xlink:href="#id45">September</textPath></text><line stroke="#e1ed5e" stroke-width="0.3" x1="15.007084014347285" x2="10.007500721073583" y1="101.09737516637583" y2="101.16192664675087" /><path d="M 14.007167355692545 101.11028546245083 a86.0,86.0 0 0,1 10.666146001902534,-42.60595125391555" fill="none" id="id46" stroke="none" /><text fill="#e1ed5e" style="font-size:6.75px; font-family:Arial;" text-anchor="middle"><textPath startOffset="22.20632615414155" xlink:href="#id46">October</textPath></text><line stroke="#e1ed5e" stroke-width="0.3" x1="26.266209847984243" x2="21.928928074336255" y1="57.711370442889674" y2="55.22380399835377" /><path d="M 25.398753493254645 57.213857153982495 a86.0,86.0 0 0,1 29.58750427330803,-30.492523968695096" fill="none" id="id47" stroke="none" /><text fill="#e1ed5e" style="font-size:6.75px; font-family:Arial;" text-anchor="middle"><textPath startOffset="21.46611528233685" xlink:href="#id47">November</textPath></text><line stroke="#e1ed5e" stroke-width="0.3" x1="56.762969772571076" x2="54.21961505331055" y1="26.818313649435495" y2="22.513508569990535" /><path d="M 56.25429882871897 25.957352633546506 a86.0,86.0 0 0,1 42.265352541879196,-11.944610805530505" fill="none" id="id48" stroke="none" /><text fill="#e1ed5e" style="font-size:6.75px; font-family:Arial;" text-anchor="middle"><textPath startOffset="22.20632615414155" xlink:href="#id48">December</textPath></text></svg>