<?xml version="1.0" encoding="utf-8" ?>
<svg baseProfile="full" height="200mm" version="1.1" viewBox="0,0,200,200" width="200mm" xmlns="http://www.w3.org/2000/svg" xmlns:ev="http://www.w3.org/2001/xml-events" xmlns:xlink="http://www.w3.org/1999/xlink"><defs /><rect fill="#1a1a1a" height="200" width="200" x="0" y="0" /><text alignment-baseline="middle" fill="#e1ed5e" style="dominant-baseline: central; font-size:9.0px; font-family:Arial;" text-anchor="middle" x="100.0" y="100.0">2025</text><line stroke="#e1ed5e" stroke-width="0.3" x1="100.0" x2="100.0" y1="15.0" y2="10.0" /><path d="M 100.0 14.0 a86.0,86.0 0 0,1 42.46469731375804,11.215312516191453" fill="none" id="id37" stroke="none" /><text fill="#e1ed5e" style="font-size:6.75px; font-family:Arial;" text-anchor="middle"><textPath startOffset="22.20632615414155" xlink:href="#id37">January</textPath></text><path d="M 100.0 79.0 l 0.0 -28.371535114978244 a49.37153511497824,49.37153511497824 0 0,0 0.849849817894419,0.007314925689780291 l -0.48836933862189064 28.36733156589702" fill="#00c04c" stroke="none" /><path d="M 101.80526077348638 79.07773832637324 l 1.0626242874884688 -12.315397160405162 a33.36115599751398,33.36115599751398 0 0,0 0.5717067511775182,0.05429044478853509 l -1.2744561657562312 12.295281171101449" fill="#008000" stroke="none" /><path d="M 102.52436894288641 79.15227682838746 l 2.666825561913184 -22.024213702366065 a43.18508390304537,43.18508390304537 0 0,0 0.7372007870187935,0.09570981995929427 l -3.0455410774398235 21.975045559242634" fill="#00a829" stroke="none" /><path d="M 104.307194497241 79.44645832069477 l 7.234159359443187 -34.52075266261929 a56.270602858918586,56.270602858918586 0 0,0 0.9463034674235424,0.20682528546268722 l -7.827305551020258 34.39111387906073" fill="#00dc7d" stroke="none" /><path d="M 105.01212808612495 79.60689891045804 l 9.610576489318024 -39.10304256150084 a61.26674953387197,61.26674953387197 0 0,0 1.0219617990893446,0.26052081751653233 l -10.282247177092394 38.93181874781544" fill="#00f0a6" stroke="none" /><path d="M 108.09893153111575 80.62456947434976 l 13.575399838047964 -32.477026804026536 a56.20012430080796,56.20012430080796 0 0,0 0.8893435294934137,0.3807704863842279 l -14.132427125331693 32.23853678967952" fill="#00dc7c" stroke="none" /><path d="M 108.43124777332544 80.76684994638697 l 25.2937433199763 -57.69945016083909 a84.0,84.0 0 0,0 1.3192715261328791,0.591918677933875 l -26.283196964575957 57.255511152388685" fill="#4dd2ff" stroke="none" /><path d="M 109.41281617654863 81.2277094730956 l 9.87555934594887 -19.69515452981188 a43.032380360472345,43.032380360472345 0 0,0 0.6592960511939802,0.33771704461911406 l -10.213115884731605 19.522244959880265" fill="#00a728" stroke="none" /><path d="M 109.73455568895987 81.39251694778311 l 19.079487147733893 -36.470204197309634 a62.159477936606585,62.159477936606585 0 0,0 0.9438027354905315,0.5041467353404262 l -19.704434929752736 36.13637873546745" fill="#00f4ae" stroke="none" /><path d="M 110.36928655335952 81.73862282372117 l 15.495928848696684 -27.289920087235824 a52.38253573648228,52.38253573648228 0 0,0 0.7802584923868271,0.4519760809913214 l -15.96338407354884 27.019139848854454" fill="#00cd60" stroke="none" /><line stroke="#e1ed5e" stroke-width="0.3" x1="143.23703022742887" x2="145.7803849466894" y1="26.81831364943548" y2="22.513508569990506" /><path d="M 143.74570117128098 25.957352633546492 a86.0,86.0 0 0,1 28.547481713284135,27.462654790039103" fill="none" id="id38" stroke="none" /><text fill="#e1ed5e" style="font-size:6.75px; font-family:Arial;" text-anchor="middle"><textPath startOffset="19.985693538727396" xlink:href="#id38">February</textPath></text><path d="M 110.68208982089419 81.91981866633111 l 29.899229159340642 -50.60652868509085 a79.77911746426352,79.77911746426352 0 0,0 1.1763162424102356,0.708717374159896 l -30.765907467968514 50.08436470147234" fill="#3ce2ff" stroke="none" /><path d="M 111.60114157652 82.49532879139004 l 12.188769319519627 -18.391327954105126 a43.063704164077066,43.063704164077066 0 0,0 0.6143658861439497,0.41482258879461653 l -12.503539900070118 18.178793453011842" fill="#00a728" stroke="none" /><path d="M 111.90073688211348 82.69761687909136 l 22.388769758954304 -32.550847549403635 a60.507147296457426,60.507147296457426 0 0,0 0.8530610546241107,0.5976237843047822 l -22.945761953162066 32.16063892233491" fill="#00ed9f" stroke="none" /><path d="M 112.48926042617603 83.11751280151076 l 23.398152037703557 -31.628694475528892 a60.342697327532626,60.342697327532626 0 0,0 0.8297231402818472,0.624930267295628 l -23.939121331743788 31.221247618727414" fill="#00ed9e" stroke="none" /><path d="M 112.77801427241765 83.33499621200491 l 15.519450274181832 -20.240366937538855 a46.505407085146054,46.505407085146054 0 0,0 0.6310727156345046,0.49256226446227963 l -15.865555544975766 19.97022628385335" fill="#00b53b" stroke="none" /><path d="M 113.6212207817346 84.01681056812373 l 14.339107371101358 -16.825560136551914 a43.106774394033565,43.106774394033565 0 0,0 0.5606060670164495,0.48615205701274694 l -14.62660723676457 16.576243086119494" fill="#00a728" stroke="none" /><path d="M 113.89432698308785 84.25364557470407 l 23.325889401315653 -26.435085502554003 a56.25494095711622,56.25494095711622 0 0,0 0.7205695719476468,0.646934476322296 l -23.77746996085929 26.029652017462407" fill="#00dc7d" stroke="none" /><path d="M 114.42810811169701 84.74124197986012 l 27.42864952893649 -29.007761983843295 a60.922187694220014,60.922187694220014 0 0,0 0.7557738442920784,0.7270538394101473 l -27.923906616840984 28.531325057670845" fill="#00efa3" stroke="none" /><path d="M 114.68862486808459 84.99185889309783 l 35.058251137915 -35.82086034359008 a71.12200124300807,71.12200124300807 0 0,0 0.8675671685197074,0.8638415593861455 l -35.66965410660203 35.21208293355381" fill="#19fff0" stroke="none" /><path d="M 115.68641384162765 86.03803664274999 l 32.29509912478296 -28.74481032767334 a64.23467992541951,64.23467992541951 0 0,0 0.7280179267963096,0.8322503409518782 l -32.78510891515712 28.184644430518514" fill="#00fcc1" stroke="none" /><path d="M 116.15771136456269 86.58626213691792 l 35.78697078302802 -29.709470244043246 a67.51193287756371,67.51193287756371 0 0,0 0.7345989745409323,0.9005314828267103 l -36.29306824964536 29.089054591608434" fill="#0bffd9" stroke="none" /><path d="M 116.38621287248628 86.86637796730983 l 45.999531573925445 -36.86882784167493 a79.95139838408949,79.95139838408949 0 0,0 0.8514668571146643,1.0812764407224844 l -46.62735251163407 36.0715590069994" fill="#3de1ff" stroke="none" /><path d="M 116.82858285166822 87.43820079747576 l 31.45240171009113 -23.477838758129835 a60.248725916718456,60.248725916718456 0 0,0 0.6132097750867606,0.8364174440793355 l -31.851874097691518 22.932958870379004" fill="#00ec9d" stroke="none" /><path d="M 117.04232023915458 87.72973835380427 l 37.60643754451108 -27.076174005480397 a67.33965195773771,67.33965195773771 0 0,0 0.6691874071608863,0.9465181302287836 l -38.06693757147585 26.424829374919817" fill="#0affd8" stroke="none" /><path d="M 117.2510076193507 88.02491185347247 l 28.30494724368294 -19.648373341723232 a55.45618396519578,55.45618396519578 0 0,0 0.5375962991756071,0.7888562331411082 l -28.63896800852728 19.15823908531172" fill="#00d977" stroke="none" /><line stroke="#e1ed5e" stroke-width="0.3" x1="172.23445277983987" x2="176.4835382374775" y1="55.19839476539836" y2="52.563006222186495" /><path d="M 173.08426987136738 54.67131705675599 a86.0,86.0 0 0,1 12.851231095245387,41.99856678651699" fill="none" id="id39" stroke="none" /><text fill="#e1ed5e" style="font-size:6.75px; font-family:Arial;" text-anchor="middle"><textPath startOffset="22.20632615414155" xlink:href="#id39">March</textPath></text><line stroke="#e1ed5e" stroke-width="0.3" x1="184.98032266829074" x2="189.97916517819016" y1="98.17113171792111" y2="98.06355123074" /><path d="M 185.9800911702706 98.14961562048488 a86.0,86.0 0 0,1 -9.607161424134198,41.387399972396054" fill="none" id="id40" stroke="none" /><text fill="#e1ed5e" style="font-size:6.75px; font-family:Arial;" text-anchor="middle"><textPath startOffset="21.466115282336823" xlink:href="#id40">April</textPath></text><line stroke="#e1ed5e" stroke-width="0.3" x1="174.80103733775053" x2="179.2010983576182" y1="140.37084112569926" y2="142.7455964860345" /><path d="M 175.68104954172406 140.8457921977663 a86.0,86.0 0 0,1 -30.038265399797805,32.042727171017184" fill="none" id="id41" stroke="none" /><text fill="#e1ed5e" style="font-size:6.75px; font-family:Arial;" text-anchor="middle"><textPath startOffset="22.206326154141568" xlink:href="#id41">May</textPath></text><line stroke="#e1ed5e" stroke-width="0.3" x1="143.8653032363475" x2="146.44561519142675" y1="172.8068346515853" y2="177.08958963109032" /><path d="M 144.38136562736335 173.6633856474863 a86.0,86.0 0 0,1 -40.68145358897372,12.25698825130547" fill="none" id="id42" stroke="none" /><text fill="#e1ed5e" style="font-size:6.75px; font-family:Arial;" text-anchor="middle"><textPath startOffset="21.466115282336833" xlink:href="#id42">June</textPath></text><line stroke="#e1ed5e" stroke-width="0.3" x1="102.19456741930631" x2="102.32365962044197" y1="184.97166512339345" y2="189.96999836594603" /><path d="M 102.22038585953345 185.97133177190398 a86.0,86.0 0 0,1 -42.740103519485714,-10.115201625700543" fill="none" id="id43" stroke="none" /><text fill="#e1ed5e" style="font-size:6.75px; font-family:Arial;" text-anchor="middle"><textPath startOffset="22.20632615414155" xlink:href="#id43">July</textPath></text><line stroke="#e1ed5e" stroke-width="0.3" x1="58.666819895761336" x2="56.23545636021788" y1="174.27360380694188" y2="178.64263932499728" /><path d="M 58.180547188652646 175.14741091055294 a86.0,86.0 0 0,1 -31.652253787137756,-30.449443065178592" fill="none" id="id44" stroke="none" /><text fill="#e1ed5e" style="font-size:6.75px; font-family:Arial;" text-anchor="middle"><textPath startOffset="22.20632615414155" xlink:href="#id44">August</textPath></text><line stroke="#e1ed5e" stroke-width="0.3" x1="26.63291911575756" x2="22.317208475507996" y1="142.92168965132927" y2="145.44649492493687" /><path d="M 25.769776987707644 143.4266507060508 a86.0,86.0 0 0,1 -11.730757126820373,-40.83630448921669" fill="none" id="id45" stroke="none" /><text fill="#e1ed5e" style="font-size:6.75px; font-family:Arial;" text-anchor="middle"><textPath startOffset="21.46611528233685" xlink:href="#id45">September</textPath></text><line stroke="#e1ed5e" stroke-width="0.3" x1="15.007084014347285" x2="10.007500721073583" y1="101.09737516637583" y2="101.16192664675087" /><path d="M 14.007167355692545 101.11028546245083 a86.0,86.0 0 0,1 10.666146001902534,-42.60595125391555" fill="none" id="id46" stroke="none" /><text fill="#e1ed5e" style="font-size:6.75px; font-family:Arial;" text-anchor="middle"><textPath startOffset="22.20632615414155" xlink:href="#id46">October</textPath></text><line stroke="#e1ed5e" stroke-width="0.3" x1="26.266209847984243" x2="21.928928074336255" y1="57.711370442889674" y2="55.22380399835377" /><path d="M 25.398753493254645 57.213857153982495 a86.0,86.0 0 0,1 29.58750427330803,-30.492523968695096" fill="none" id="id47" stroke="none" /><text fill="#e1ed5e" style="font-size:6.75px; font-family:Arial;" text-anchor="middle"><textPath startOffset="21.46611528233685" xlink:href="#id47">November</textPath></text><line stroke="#e1ed5e" stroke-width="0.3" x1="56.762969772571076" x2="54.21961505331055" y1="26.818313649435495" y2="22.513508569990535" /><path d="M 56.25429882871897 25.957352633546506 a86.0,86.0 0 0,1 42.265352541879196,-11.944610805530505" fill="none" id="id48" stroke="none" /><text fill="#e1ed5e" style="font-size:6.75px; font-family:Arial;" text-anchor="middle"><textPath startOffset="22.20632615414155" xlink:href="#id48">December</textPath></text></svg>